<svg width="16" height="16" viewBox="0 0 16 16" fill="none" xmlns="http://www.w3.org/2000/svg">
<g clip-path="url(#clip0_413_2845)">
<path d="M16.0003 0.971875V6C16.0003 6.55218 15.5525 6.97187 15.0284 6.97187C14.5044 6.97187 14.0003 6.55312 14.0003 6V3.4125L7.00031 10.5C6.60969 10.8903 5.97656 10.8906 5.58594 10.5C5.19531 10.1094 5.19531 9.47593 5.58594 9.08562L12.5859 2.00125H9.97219C9.42 2.00125 8.9725 1.55344 8.9725 1.02937C9.00031 0.4475 9.44719 0 10.0003 0H15.0003C15.2767 0 15.5266 0.111812 15.7075 0.292719C15.8878 0.47375 16.0003 0.72375 16.0003 0.971875Z" fill="#090A0B"/>
<path opacity="0.4" d="M12 10C11.4478 10 11 10.4478 11 11V14H2V5H5C5.55219 5 6 4.5525 6 4C6 3.4475 5.55219 3 5 3H2C0.895312 3 0 3.89531 0 5V14C0 15.1044 0.895312 16 2 16H11C12.1047 16 13 15.1044 13 14V11C13 10.4469 12.5531 10 12 10Z" fill="#090A0B"/>
</g>
<defs>
<clipPath id="clip0_413_2845">
<rect width="16" height="16" fill="white"/>
</clipPath>
</defs>
</svg>
