<svg width="16" height="16" viewBox="0 0 16 16" fill="none" xmlns="http://www.w3.org/2000/svg">
<path d="M9.77734 4.4448C9.77734 3.95313 10.1746 3.55591 10.6662 3.55591H15.1107C15.6023 3.55591 15.9996 3.95313 15.9996 4.4448V8.88924C15.9996 9.38091 15.6023 9.77813 15.1107 9.77813C14.619 9.77813 14.2218 9.38091 14.2218 8.88924V5.33369H10.6662C10.1746 5.33369 9.77734 4.93646 9.77734 4.4448Z" fill="#090A0B"/>
<path opacity="0.4" d="M14.2222 5.33374V6.59207L9.51667 11.2949C9.16945 11.6421 8.60833 11.6421 8.26111 11.2949L5.30833 8.36985L1.5175 12.1837C1.17028 12.531 0.6075 12.531 0.260333 12.1837C-0.0867778 11.8365 -0.0867778 11.2754 0.260333 10.9282L4.70556 6.48374C5.05278 6.13652 5.61389 6.13652 5.96111 6.48374L8.88889 9.40874L12.9639 5.33374H14.2222Z" fill="#090A0B"/>
</svg>
