<svg width="16" height="16" viewBox="0 0 16 16" fill="none" xmlns="http://www.w3.org/2000/svg">
<g clip-path="url(#clip0_413_2113)">
<path d="M11.6189 5.3812C11.9596 5.72183 11.9596 6.27808 11.6189 6.6187L7.61895 10.6187C7.27832 10.9593 6.72207 10.9593 6.38145 10.6187L4.38145 8.6187C4.04082 8.27808 4.04082 7.72183 4.38145 7.3812C4.72207 7.04058 5.27832 7.04058 5.61895 7.3812L7.0002 8.76245L10.3814 5.3812C10.7221 5.04058 11.2783 5.04058 11.6189 5.3812Z" fill="#090A0B"/>
<path opacity="0.4" d="M0 8C0 3.58125 3.58125 0 8 0C12.4187 0 16 3.58125 16 8C16 12.4187 12.4187 16 8 16C3.58125 16 0 12.4187 0 8ZM11.6187 6.61875C11.9594 6.27813 11.9594 5.72187 11.6187 5.38125C11.2781 5.04063 10.7219 5.04063 10.3813 5.38125L7 8.7625L5.61875 7.38125C5.27813 7.04063 4.72187 7.04063 4.38125 7.38125C4.04063 7.72187 4.04063 8.27812 4.38125 8.61875L6.38125 10.6187C6.72187 10.9594 7.27813 10.9594 7.61875 10.6187L11.6187 6.61875Z" fill="#090A0B"/>
</g>
<defs>
<clipPath id="clip0_413_2113">
<rect width="16" height="16" fill="white"/>
</clipPath>
</defs>
</svg>
