<svg width="16" height="16" viewBox="0 0 16 16" fill="none" xmlns="http://www.w3.org/2000/svg">
<path d="M7.4138 1.10909C7.72491 0.815849 8.2499 0.815849 8.58601 1.10909L15.697 7.33074C16.0665 7.65574 16.1026 8.21684 15.7804 8.58628C15.4554 8.95572 14.8943 8.99183 14.5248 8.66961L7.9999 2.95913L1.47415 8.66961C1.10471 8.99183 0.543328 8.95572 0.219915 8.58628C-0.103331 8.21684 -0.0658872 7.65574 0.303608 7.33074L7.4138 1.10909Z" fill="#090A0B"/>
<path opacity="0.4" d="M7.99991 2.95947L14.2248 8.40607L14.2359 13.9977C14.2387 14.6116 13.7415 15.1115 13.1248 15.1115H10.8888C10.2749 15.1115 9.77767 14.6143 9.77767 14.0004V11.5477C9.77767 11.056 9.38045 10.6588 8.88879 10.6588H7.11103C6.61937 10.6588 6.22215 11.056 6.22215 11.5477V14.0004C6.22215 14.6143 5.72494 15.1115 5.11106 15.1115H2.89164C2.27748 15.1115 1.78026 14.6143 1.77999 14.0004L1.77832 8.40329L7.99991 2.95947Z" fill="#090A0B"/>
</svg>
