<svg width="16" height="14" viewBox="0 0 16 14" fill="none" xmlns="http://www.w3.org/2000/svg">
<path d="M1.12131 12.1047C-0.373771 10.6088 -0.373771 8.18357 1.12131 6.69032L4.09432 3.69321C5.5664 2.2214 8.0128 2.2214 9.48487 3.69321C10.8087 5.01702 11.0046 7.12717 9.91644 8.64955L9.88731 8.69192C9.61461 9.07053 9.08508 9.16054 8.70647 8.88784C8.32522 8.61514 8.2352 8.08561 8.5079 7.707L8.53703 7.66464C9.14333 6.81476 9.04802 5.65245 8.30933 4.91377C7.47798 4.08241 6.12505 4.08241 5.29105 4.91377L2.32042 7.88704C1.48615 8.69721 1.48615 10.0713 2.32042 10.9053C3.05646 11.644 4.22141 11.7393 5.06865 11.133L5.11101 11.0801C5.49227 10.8312 6.02179 10.9186 6.29185 11.2998C6.56455 11.6811 6.47718 12.2106 6.09592 12.4833L6.05356 12.5124C4.50735 13.6006 2.44486 13.4259 1.12131 12.1047Z" fill="#090A0B"/>
<path opacity="0.4" d="M14.8782 1.89641C16.3741 3.39126 16.3741 5.81647 14.8782 7.30973L11.9049 10.283C10.409 11.7789 7.98645 11.7789 6.49054 10.283C5.16673 8.9592 4.99464 6.87287 6.08281 5.35049L6.11193 5.30813C6.36081 4.92952 6.89033 4.8395 7.29277 5.11221C7.67403 5.36108 7.76405 5.89061 7.49134 6.29305L7.46222 6.33541C6.85592 7.16146 6.95123 8.3476 7.68991 9.08628C8.52127 9.91763 9.8742 9.91763 10.7082 9.08628L13.6788 6.11301C14.5128 5.27901 14.5128 3.90489 13.6788 3.09472C12.9428 2.35683 11.7778 2.26046 10.9306 2.86703L10.8882 2.89615C10.507 3.16886 9.97746 3.05766 9.7074 2.6997C9.4347 2.31897 9.52207 1.78971 9.90332 1.5178L9.94569 1.48815C11.4681 0.400269 13.5544 0.572867 14.8782 1.89641Z" fill="#090A0B"/>
</svg>
