<svg width="16" height="16" viewBox="0 0 16 16" fill="none" xmlns="http://www.w3.org/2000/svg">
<g clip-path="url(#clip0_413_619)">
<path d="M9.14258 9.14307H12.5711V10.2859H14.8569V9.14307H15.9997V13.7145H12.5711V12.5716H11.4283V16.0002H9.14258V9.14307ZM13.714 16.0002H12.5711V14.8574H13.714V16.0002ZM15.9997 16.0002H14.8569V14.8574H15.9997V16.0002Z" fill="#090A0B"/>
<path opacity="0.4" d="M5.14286 0C6.08929 0 6.85714 0.7675 6.85714 1.71429V5.14286C6.85714 6.08929 6.08929 6.85714 5.14286 6.85714H1.71429C0.7675 6.85714 0 6.08929 0 5.14286V1.71429C0 0.7675 0.7675 0 1.71429 0H5.14286ZM4.57143 2.28571H2.28571V4.57143H4.57143V2.28571ZM5.14286 9.14286C6.08929 9.14286 6.85714 9.91072 6.85714 10.8571V14.2857C6.85714 15.2321 6.08929 16 5.14286 16H1.71429C0.7675 16 0 15.2321 0 14.2857V10.8571C0 9.91072 0.7675 9.14286 1.71429 9.14286H5.14286ZM4.57143 11.4286H2.28571V13.7143H4.57143V11.4286ZM9.14286 1.71429C9.14286 0.7675 9.91072 0 10.8571 0H14.2857C15.2321 0 16 0.7675 16 1.71429V5.14286C16 6.08929 15.2321 6.85714 14.2857 6.85714H10.8571C9.91072 6.85714 9.14286 6.08929 9.14286 5.14286V1.71429ZM11.4286 4.57143H13.7143V2.28571H11.4286V4.57143Z" fill="#090A0B"/>
</g>
<defs>
<clipPath id="clip0_413_619">
<rect width="16" height="16" fill="white"/>
</clipPath>
</defs>
</svg>
