<svg width="477" height="95" viewBox="0 0 477 95" fill="none" xmlns="http://www.w3.org/2000/svg">
    <path d="M432.821 92.16V12.608H402.165V0H476.853V12.608H446.197V92.16H432.821Z" fill="gray"/>
    <path d="M331.025 92.16V0H344.401V79.552H386.129V92.16H331.025Z" fill="gray"/>
    <path d="M249.506 94.08C242.295 94.08 235.917 92.608 230.37 89.664C224.866 86.6773 220.557 82.5173 217.442 77.184C214.327 71.808 212.77 65.4933 212.77 58.24V0.064003L226.338 0V57.536C226.338 61.4613 226.999 64.9173 228.322 67.904C229.645 70.8907 231.415 73.3867 233.634 75.392C235.853 77.3973 238.327 78.912 241.058 79.936C243.831 80.96 246.647 81.472 249.506 81.472C252.407 81.472 255.223 80.96 257.954 79.936C260.727 78.8693 263.223 77.3333 265.442 75.328C267.661 73.3227 269.41 70.8267 270.69 67.84C272.013 64.8533 272.674 61.4187 272.674 57.536V0H286.242V58.24C286.242 65.4507 284.685 71.744 281.57 77.12C278.455 82.496 274.125 86.6773 268.578 89.664C263.074 92.608 256.717 94.08 249.506 94.08Z"
          fill="gray"/>
    <path d="M99.02 92.16L128.972 0H148.236L178.188 92.16H164.3L136.716 8.064H140.172L112.908 92.16H99.02ZM114.572 71.36V58.816H162.7V71.36H114.572Z"
          fill="gray"/>
    <path d="M29.952 92.16L0 0H13.888L39.424 78.656L65.28 0H79.168L49.216 92.16H29.952Z" fill="gray"/>
</svg>
