<svg width="1112" height="96" viewBox="0 0 1112 96" fill="none" xmlns="http://www.w3.org/2000/svg">
    <path d="M1075.75 95.936C1069.14 95.936 1063.17 94.8053 1057.83 92.544C1052.54 90.24 1048.17 86.976 1044.71 82.752C1041.3 78.4853 1039.08 73.4293 1038.06 67.584L1052.01 65.472C1053.42 71.104 1056.36 75.4987 1060.84 78.656C1065.32 81.7707 1070.55 83.328 1076.52 83.328C1080.23 83.328 1083.65 82.752 1086.76 81.6C1089.88 80.4053 1092.37 78.72 1094.25 76.544C1096.17 74.3253 1097.13 71.68 1097.13 68.608C1097.13 66.944 1096.83 65.472 1096.23 64.192C1095.68 62.912 1094.89 61.8027 1093.87 60.864C1092.88 59.8827 1091.67 59.0507 1090.22 58.368C1088.81 57.6427 1087.25 57.024 1085.55 56.512L1061.93 49.536C1059.63 48.8533 1057.28 47.9787 1054.89 46.912C1052.5 45.8027 1050.3 44.3733 1048.3 42.624C1046.33 40.832 1044.73 38.6347 1043.5 36.032C1042.26 33.3867 1041.64 30.1867 1041.64 26.432C1041.64 20.7573 1043.09 15.9573 1045.99 12.032C1048.94 8.064 1052.91 5.07733 1057.9 3.072C1062.89 1.024 1068.48 0 1074.67 0C1080.89 0.0853322 1086.46 1.19467 1091.37 3.328C1096.32 5.46133 1100.41 8.53334 1103.66 12.544C1106.94 16.512 1109.2 21.3333 1110.44 27.008L1096.11 29.44C1095.47 25.984 1094.1 23.0187 1092.01 20.544C1089.92 18.0267 1087.36 16.1067 1084.33 14.784C1081.3 13.4187 1078.01 12.7147 1074.47 12.672C1071.06 12.5867 1067.92 13.0987 1065.07 14.208C1062.25 15.3173 1059.99 16.8747 1058.28 18.88C1056.62 20.8853 1055.79 23.1893 1055.79 25.792C1055.79 28.352 1056.53 30.4213 1058.03 32C1059.52 33.5787 1061.35 34.8373 1063.53 35.776C1065.75 36.672 1067.95 37.4187 1070.12 38.016L1087.15 42.816C1089.28 43.4133 1091.69 44.224 1094.38 45.248C1097.11 46.2293 1099.73 47.616 1102.25 49.408C1104.81 51.2 1106.92 53.5893 1108.59 56.576C1110.25 59.52 1111.08 63.232 1111.08 67.712C1111.08 72.3627 1110.14 76.4587 1108.27 80C1106.39 83.4987 1103.81 86.4427 1100.52 88.832C1097.28 91.1787 1093.52 92.9493 1089.26 94.144C1084.99 95.3387 1080.49 95.936 1075.75 95.936Z"
          fill="gray"/>
    <path d="M962.471 94.016V14.464H931.815V1.85596H1006.5V14.464H975.847V94.016H962.471Z" fill="gray"/>
    <path d="M823.52 94.016V1.85596H837.088L882.464 70.336V1.85596H896.032V94.016H882.464L837.088 25.472V94.016H823.52Z"
          fill="gray"/>
    <path d="M723.67 94.016V1.85596H782.55V14.464H737.046V40.32H774.87V52.928H737.046V81.408H782.55V94.016H723.67Z"
          fill="gray"/>
    <path d="M589.195 94.016V1.85596H601.291L634.699 71.168L667.915 1.85596H680.139V93.952H667.467V30.912L637.707 94.016H631.627L601.803 30.912V94.016H589.195Z"
          fill="gray"/>
    <path d="M509.321 94.016V14.464H478.665V1.85596H553.353V14.464H522.697V94.016H509.321Z" fill="gray"/>
    <path d="M411.778 95.936C405.165 95.936 399.191 94.8053 393.858 92.544C388.567 90.24 384.194 86.976 380.738 82.752C377.325 78.4853 375.106 73.4293 374.082 67.584L388.034 65.472C389.442 71.104 392.386 75.4987 396.866 78.656C401.346 81.7707 406.573 83.328 412.546 83.328C416.258 83.328 419.671 82.752 422.786 81.6C425.901 80.4053 428.397 78.72 430.274 76.544C432.194 74.3253 433.154 71.68 433.154 68.608C433.154 66.944 432.855 65.472 432.258 64.192C431.703 62.912 430.914 61.8027 429.89 60.864C428.909 59.8827 427.693 59.0507 426.242 58.368C424.834 57.6427 423.277 57.024 421.57 56.512L397.954 49.536C395.65 48.8533 393.303 47.9787 390.914 46.912C388.525 45.8027 386.327 44.3733 384.322 42.624C382.359 40.832 380.759 38.6347 379.522 36.032C378.285 33.3867 377.666 30.1867 377.666 26.432C377.666 20.7573 379.117 15.9573 382.018 12.032C384.962 8.064 388.93 5.07733 393.922 3.072C398.914 1.024 404.503 0 410.69 0C416.919 0.0853322 422.487 1.19467 427.394 3.328C432.343 5.46133 436.439 8.53334 439.682 12.544C442.967 16.512 445.229 21.3333 446.466 27.008L432.13 29.44C431.49 25.984 430.125 23.0187 428.034 20.544C425.943 18.0267 423.383 16.1067 420.354 14.784C417.325 13.4187 414.039 12.7147 410.498 12.672C407.085 12.5867 403.949 13.0987 401.09 14.208C398.274 15.3173 396.013 16.8747 394.306 18.88C392.642 20.8853 391.81 23.1893 391.81 25.792C391.81 28.352 392.557 30.4213 394.05 32C395.543 33.5787 397.378 34.8373 399.554 35.776C401.773 36.672 403.97 37.4187 406.146 38.016L423.17 42.816C425.303 43.4133 427.714 44.224 430.402 45.248C433.133 46.2293 435.757 47.616 438.274 49.408C440.834 51.2 442.946 53.5893 444.61 56.576C446.274 59.52 447.106 63.232 447.106 67.712C447.106 72.3627 446.167 76.4587 444.29 80C442.413 83.4987 439.831 86.4427 436.546 88.832C433.303 91.1787 429.549 92.9493 425.282 94.144C421.015 95.3387 416.514 95.936 411.778 95.936Z"
          fill="gray"/>
    <path d="M280.27 94.016V1.85596H339.15V14.464H293.646V40.32H331.47V52.928H293.646V81.408H339.15V94.016H280.27Z"
          fill="gray"/>
    <path d="M195.802 94.016L165.85 1.85596H179.738L205.274 80.512L231.13 1.85596H245.018L215.066 94.016H195.802Z"
          fill="gray"/>
    <path d="M58.1951 94.016V1.85596H71.7631L117.139 70.336V1.85596H130.707V94.016H117.139L71.7631 25.472V94.016H58.1951Z"
          fill="gray"/>
    <path d="M0 94.016V1.85596H13.376V94.016H0Z" fill="gray"/>
</svg>
