<svg xmlns="http://www.w3.org/2000/svg" fill="none" viewBox="0 0 762 240">
  <g clip-path="url(#a)">
    <g fill="#636366" opacity=".11">
      <path d="m618.86-79-6 104.79L579.2-79h-2.81l36.1 112.44 2.61-.33L621.53-79h-2.67Z"/>
      <path d="M762-73.73 613 31.94l1.23 2.35 38.62-13.71L762-68.22v-5.5ZM651.52 18.22 622.4 28.56l128-90.8-98.87 80.46Z"/>
      <path d="M762 76.97 654.28 19.02 739.3-79h-3.53l-85.68 98.79L762 80v-3.03Zm-267.54-18.4L450.67-61.85l163.76 93.72-.54.96.16 1.5-119.6 24.24ZM455.67-55.91l40.52 111.4 113.85-23.05-154.37-88.35Z"/>
      <path d="m576.4-79 35.06 109.16L455.6-59.03 482.67-79h-4.49l-27.45 20.26 162.7 93.1h2.17L579.21-79h-2.81Z"/>
      <path d="M610.73 122.8 491.7 56.54 654.42 17.5l-43.69 105.32ZM498.96 57.56l110.44 61.5 40.55-97.73-150.99 36.23Z"/>
      <path d="m495.6 58.34-.59-2.6 156.79-37.6.23-.05.24 1.42.36 1.18v-.07.07l-38.58 13.68-118.46 23.97Zm132.34-31.76L568.6 40.82l44.8-9.08 14.53-5.16ZM762 141.5l-112.09 85.54-38-104.93L762 110.44v-2.67l-153.8 11.96 40.44 111.65L762 144.86v-3.36Z"/>
      <path d="m762 107.77-149.87 11.65 40.73-98.15L762 80v-3.03L651.51 17.52l-43.5 104.9L762 110.44v-2.67ZM762 315l-110.35-85.64L762 164.92v-3.1l-115.1 67.23L762 318.38V315Z"/>
      <path d="m762 161.83-94.73 55.32L762 144.86v-3.36l-113.54 86.65 1.49 2.2L762 164.92v-3.1ZM289.66-79l-62.22 93.36-58.12-47.1L236.02-79h-4.68l-66.46 46.1 63.16 51.18L292.87-79h-3.21Z"/>
      <path d="M334.4-79 323.61-6.54l-91.34 20.47L332.82-79h-3.93L223.2 18.7 326-4.34 337.1-79h-2.7Z"/>
      <path d="M328.9-79 235.07 7.72 292.88-79h-3.22l-63.03 94.58 2.02 1.72L332.81-79h-3.93Zm138.48 212.8L322.42-5.9 452.2-59.92l1.99-3.82 13.2 197.55ZM327.2-5l137.06 132.1-12.3-184.02L327.2-5Z"/>
      <path d="m543.37 198.17-79.15-67.33 29.68-73.85-.37-1.12.86-.09 1.06-2.63.8 2.44 1.14-.11-.64 1.6 46.62 141.1Zm-75.95-68.12 70.43 59.91L495.2 60.92l-27.78 69.13Z"/>
      <path d="m467.06 130.94-2.58-.4-12.64-189.32 2.59-.55 41.8 114.94 1.16-.13-.82 2.05-29.5 73.41Zm-11.93-180.5 11.63 174.1 27.14-67.51-38.77-106.6Zm81.71 245.66 72.06-75.9.13-.36.62-.2.7 1.11.97.6-23.02 65.5-51.46 9.24Zm69.9-69.75-62.36 65.69 41.91-7.52 20.45-58.17Z"/>
      <path d="M540.04 196.6 492.99 54.2l117.75 65.55-.48.85.8 1.23-71.02 74.77ZM497.67 59.86l43.5 131.67 66.75-70.28-110.25-61.39ZM711.15 423.3 586.13 186.32l1.95-1.72 62.54 43.89v.48l63 193.27-2.46 1.04Zm-120.1-233.32L706.21 408.2l-58.06-178.17-57.1-40.06Z"/>
      <path d="m651.97 232.73-66.26-46.52 24.34-69.27 40.34 111.41.22.16v.46l1.36 3.76ZM588.9 185.2l57.68 40.5-36.5-100.8-21.18 60.3Z"/>
      <path d="m762 367.42-49.1 52.68-61-187.17L762 318.38V315l-115.35-89.51 65.12 199.75 50.23-53.9v-3.92ZM207.32 101.08l-2.43-1.04 21.72-84.7L273.6-4.84l-66.28 105.91Zm21.55-83.8-19.25 75.09L266.8 1l-37.93 16.29Z"/>
      <path d="M227.52 17.87 166.25-31.8l1.23-2.3L274.09-2.14l-46.57 20Zm-54.33-47.48 54.76 44.38L266.3-1.68l-93.1-27.93Zm94.88 197.23-63.8-67.33L323.9-6.44l1.5 1.21.67.23-58.01 172.62Zm-59.97-67.16 58.85 62.11L321.92-1.08 208.1 100.46Z"/>
      <path d="m203.8 104.28 22.85-89.08L329.52-7.85 203.8 104.28Zm25.03-86.84-20.26 79.01L320.08-3.02l-91.25 20.46Zm240.85 227.72L262.55 164.6l203.03-35.47.23 1.3h1.34l2.53 114.73Zm-197.23-79.58 194.47 75.64-2.4-109.2-192.07 33.56Z"/>
      <path d="M265.52 166.78 324.21-7.87l142.95 137.74v1.7l-1.11.2-200.53 35.01ZM325.4-3.02l-55.91 166.4 193.53-33.8L325.4-3.01Zm173.1 247.59-34.53-.05 75.9-51.56 1.77 1.98-43.14 49.63Zm-25.87-2.7 24.65.04 35.6-40.98-60.25 40.93Z"/>
      <path d="m467.02 245.67-2.6-118.17 78.37 66.68-75.77 51.5Zm.2-112.28 2.36 107.31 68.8-46.76-71.16-60.55ZM655.48 436.6 495.9 242.93l90.68-58.34.53.82 1.48-.06 69.2 250.04-2.31 1.21Zm-155.6-193.05 153.67 186.5-67.03-242.23-86.64 55.73Z"/>
      <path d="m498.61 244.36-1.73-2 43.03-49.53 49.09-8.79-.5 2.49-.48.3-89.4 57.53Zm42.7-49.06-36.29 41.76 75.96-48.87-39.67 7.1Z"/>
      <path d="m655.56 437.35-.35-1.24-69.22-250.04 2.48-.98 125.86 238.47-1.69.4-57.08 13.39Zm-63.67-240.1 65.57 236.92 52.89-12.4-118.46-224.52ZM58.8-79l29.9 211.56L-53-79h-3.22L89.74 138.9l2.44-.93L61.49-79h-2.7Z"/>
      <path d="m91.43 139.37-1.42-2.27L271.51-4.65v3.19l-.29.37-70.93 88.02-.27.13-108.59 52.3ZM261.9 6.25 101.45 131.58l97.18-46.78L261.9 6.26Z"/>
      <path d="M125.9-79 267.78-1.71 91.85 135.69 61.49-79h-2.7l31.06 219.63L272.62-2.12 131.48-79h-5.58Zm180.02 243.15L204.18 100.7l.44-.53-8.51-18.35 111.28 80.13-1.47 2.21Zm-98.69-64.7 65.95 41.14-70.36-50.66 4.41 9.52Z"/>
      <path d="m206 103.16-8.09-17.48 71.24-88.43 2.19 1.55L206 103.16Zm-4.96-17.1 5.32 11.5 50.8-81.15-56.12 69.65Zm62.43 203.18-2.6-.5 5.33-124.49.95-.47h.27l41.12-2.17-45.07 127.63Zm5.32-122.89-4.87 113.57 40.8-115.47-35.93 1.9Z"/>
      <path d="m267.21 166.73-.68-.71-61.32-64.74 1.68-2.05 104.03 64.9-43.06 2.28-.65.32Zm-52.89-59.71 53.73 56.7 34.28-1.8-88-54.9Z"/>
      <path d="m260.8 290.48 5.45-127.32 202.54 78.78-.22.56.03 1.98-207.8 46Zm7.96-123.47-5.14 120.11 200.1-44.28-194.96-75.83Zm389.09 272.46-2.13-2.6-152.75-53.55-6.59-144 160.94 195.32.53.19v.44l2.74 3.31-2.73-.95v1.84Zm-152.3-58.08 146.89 51.51-153.03-185.7 6.14 134.2ZM74.41 243.65-14.3 81l105.78 56-.48.9 1.17.49-17.76 105.26ZM-7.7 87.51l80.77 148.08 16.32-96.7-97.1-51.39Z"/>
      <path d="m-56.38-79 44.24 164.16 102.36 54.18 1.01.53 1.26-1.66L-53-79h-3.37ZM-9.86 83.35l-42-155.85 138.67 207-96.67-51.15Zm204.51 176.81L71.23 240.57 200.95 81.96l-6.3 178.2Zm-118.4-21.5 115.84 18.39L198 89.79 76.24 238.67Z"/>
      <path d="m71.58 244.36 18.07-107.1 110.04-52.97 1.63 1.42-.8 1L71.57 244.36Zm20.48-105.3-16.17 95.82 118.75-145.2-102.58 49.38Zm206.22 148.02-107.74-27.83 115.75-97.69 1.77.44-.08 1.12-9.7 123.96Zm-102.07-29.12 99.66 25.74 9.18-117.6-108.84 91.86Z"/>
      <path d="m191.93 261.57 6.3-178.24 109.18 78.61-.6 1.3.68.8-115.56 97.53Zm8.79-173.17-5.9 167.24 109.64-92.55L200.72 88.4Z"/>
      <path d="m262 293.42-.81-3.2-.94.1.57-1.6-.29-1.1.7-.08 44.14-124.96 2.6.54-9.65 123.48-35.13 3.44-1.2 3.38Zm42.5-120.37-40.33 114.22 31.66-3.1 8.67-111.12Zm-299 62.71-169.04-81.45L-9.86 82.25 5.5 235.76Zm-162.83-81.42 159.7 76.94-14.52-145-145.18 68.06Z"/>
      <path d="M61.73 327.01 1.36 231.96l73.91 6.47L61.73 327ZM6.5 235.08l53.65 84.49 12.04-78.74-65.69-5.75Z"/>
      <path d="m76.59 241.21-73.87-6.46-15.05-150.38 2.5-.77 84.7 155.3 1.72 2.31Zm-71.45-8.93 66.24 5.8-80.4-147.4 14.16 141.6Z"/>
      <path d="m59.24 325.61 13.38-87.51 121.65 19.3.92 1.81-1.22.6-134.73 65.8Zm15.6-84.46-12.2 79.82L189 259.26 74.85 241.15Zm-168.56 71.29h-.48l-83.92-1.59-.49-2.57 181.86-75.9.37-.3 4.54 1.14-3.54 1.48-98.34 77.74Zm-78-4.14 77.09 1.47 90.13-71.28-167.22 69.8Z"/>
      <path d="m-179.68 311.6 18.13-159.3L4.39 232.26l3.77.94-3.7 1.55-184.14 76.86Zm20.36-155.26-17.19 151.05L.7 233.44l-160.01-77.1Z"/>
      <path d="m60.65 325.3-.47-.74-157.85-12.4 101.94-80.6L61.73 322l2.55.2-1.57 1.35.8 1.27-2.1-.16-.76.64Zm-151.33-15.25 149.06 11.7L3.6 235.5l-94.28 74.56Z"/>
    </g>
    <path fill="#E6E7E8" d="m555.36 188.68-.1-.3-23.2-68.4h.3l126.87-7.27-103.87 75.97Zm-22.7-68.28 22.92 67.56 102.18-74.73-125.1 7.17Z"/>
    <path fill="#E6E7E8" d="m642.48 259-.36-.29-87.04-70.43.28-.16 91.12-50.75.4-.61-.02.78L642.48 259Zm-86.61-70.65 86.18 69.74 4.35-120.17-90.53 50.43Z"/>
    <path fill="#E6E7E8" d="m555.58 188.51-.24-.38 103.03-75.34.32.27-11.88 24.62-.07.05-91.16 50.78Zm102.32-74.83-99.39 72.7 87.96-49 11.43-23.7Zm-15.6 145.08-.15-.41 100.73-57.17.1.2.23.06L731.4 247l-.14.02-88.98 11.74Zm100.34-56.93-99.28 56.34 87.7-11.59 11.58-44.75Z"/>
    <path fill="#E6E7E8" d="m642.02 258.94.02-.4 4.39-121.41.33.22 96.5 63.94-.1.24-.06.04-101.08 57.37Zm4.83-121-4.35 120.23 100.06-56.8-95.71-63.44ZM316.52-79l-58.8 97.12L202.69-79h-.51l55.33 97.67.19.33 59.34-98h-.52Z"/>
    <path fill="#E6E7E8" d="m295 50.35-37.66-31.82.25-.16 110.11-73.1.3.23-.13.17L295 50.35Zm-36.92-31.76 36.82 31.1 71.95-103.3-108.77 72.2Z"/>
    <path fill="#E6E7E8" d="M340.13-79h-.67l27.87 24.53-108.92 72.3L317.04-79h-.52l-59 97.44.31.3 109.99-73-.13-.18.15-.17L340.14-79ZM294.2 50.4l.6-.54 69.69-61.83-.1.62-8.35 49.2-61.85 12.56Zm69.66-61.2L295.7 49.64l59.94-12.16 8.2-48.28Z"/>
    <path fill="#E6E7E8" d="m295.1 50.2-.36-.3 73.22-105.14-3.6 43.98L295.1 50.2Zm72.3-103.84L296.2 48.61l67.74-60.1 3.47-42.15Zm75.02 178.52-86.98-87.3 81.12-31.85.32-.32.02.5 5.52 118.97Zm-86.19-87.13 85.68 86-5.43-117.5-80.25 31.5Z"/>
    <path fill="#E6E7E8" d="m355.55 38.02.07-.4 8.36-49.3.23.06L437.13 5.8l-.36.33-81.22 31.89Zm8.8-49.14-8.23 48.45L435.92 6l-71.58-17.1Zm124.15 176.8-46.6-41.3.06-.15 19.34-45.4-.07-.22h.16l.17-.41.13.41h.18l-.1.24 26.74 86.83Zm-46.06-41.43 45.18 40.05-26.13-84.8-19.05 44.75Z"/>
    <path fill="#E6E7E8" d="m442.37 124.4-.43-.08-5.48-118.38.44-.09 24.8 72.77h.17l-.13.3-19.37 45.48ZM436.98 7.48l5.37 115.85 18.95-44.5-24.32-71.35Zm50.45 157.84 44.78-45.28.36.22-15.09 40.29-30.05 4.77Zm44.37-44.23-43.1 43.57 28.46-4.5 14.64-39.07Z"/>
    <path fill="#E6E7E8" d="m487.96 165.41-26.81-87.05L532.48 120l-.1.18.15.17-44.57 45.06ZM461.9 79.32l26.24 85.25L532 120.24l-70.1-40.92Zm130.29 230.71-75.06-149.57.33-.28 38.28 28.05-.04.09 36.89 121.55-.4.16Zm-74.25-148.96L591.4 307.5l-36.13-119.05-37.33-27.38Z"/>
    <path fill="#E6E7E8" d="m555.48 189.01-.2-.56-38.22-28.02.06-.16 15.25-40.75.2.6 23.08 68.04.07.06-.03.08.21.6-.32-.24-.1.35Zm-37.88-28.73 37.43 27.43-22.67-66.86-14.76 39.43Z"/>
    <path fill="#E6E7E8" d="m592.28 310.35-.1-.35-37.13-122.31 87.53 70.83-.16.18-50.13 51.65Zm-36.39-121.4 36.6 120.56 49.44-50.94-86.04-69.63ZM145.67-79l9.24 86.02L136.89-79h-.46l18.96 90.49.44-.07L146.12-79h-.45Z"/>
    <path fill="#E6E7E8" d="m188.9-79-.68 41.96-31.98 47.16L182.89-79h-.46L155.4 11.38l.4.18 32.83-48.4.04-.06.68-42.1h-.45Z"/>
    <path fill="#E6E7E8" d="M182.43-79 155.7 10.32 146.12-79h-.45l9.72 90.46.43.04L182.9-79h-.46Zm139.2 118.39-64.4-20.75.12-.09-69.05-55.34.25-.36L321.81 39l-.18.4Zm-63.81-21.03 61.91 19.95L190.8-35.38l67.03 53.74Z"/>
    <path fill="#E6E7E8" d="M202.7-79h-.52l54.76 96.66-68.27-54.73.68-41.93h-.45l-.68 42.14 69.32 55.56.1.2.43-.34-.2-.15L202.7-79Zm77.9 181.36-.4-.19 14.54-52.31.1-.04 27.42-11.12-41.66 63.66Zm14.54-52.18-14.11 50.72 40.1-61.26-25.99 10.54Z"/>
    <path fill="#E6E7E8" d="m294.9 50.28-37.34-31.56.21-.38 64.58 20.8-27.45 11.14Zm-36.17-31.16L295 49.77l26.06-10.57-62.33-20.08Zm59.23 124.73-37.86-41.64.17-.15 75.8-64.88v.56l-38.11 106.11Zm-37.24-41.6 37.08 40.77L355.35 38.4l-74.63 63.86Z"/>
    <path fill="#E6E7E8" d="m280 102.88 14.77-53.05.13-.03 60.84-12.34.33-.28v.21l.57-.11-.57.48v.08l-.12.03L280 102.88Zm15.13-52.67-14.3 51.38 74.21-63.55-59.91 12.17ZM442.5 195.08l-.3-.12-125.14-51.63 125.07-19.23.04.22h.22l.12 70.76Zm-123.8-51.55 123.36 50.89-.12-69.84-123.23 18.95Z"/>
    <path fill="#E6E7E8" d="m317.55 143.7 38.2-106.44.25.25 86.4 86.71v.28l-.2.04-124.65 19.17Zm38.38-105.63-37.71 105.08 123.48-18.99-85.76-86.09Zm104.92 157.31h-.1l-19.2-.42.6-.4 45.9-29.82.37.18-.2.23-27.37 30.23Zm-17.84-.84 17.65.39 26.09-28.82-43.74 28.43Z"/>
    <path fill="#E6E7E8" d="M442.06 195.16v-.41l-.12-70.94 46.26 41.02-.13.19.1.16-46.12 29.98Zm.33-70.35.12 69.51 45.19-29.38-45.3-40.13Zm114.79 192.71-96.75-122.43 56.78-34.92.1.16.23-.03 40.03 157.03-.39.19Zm-96.11-122.3 95.8 121.2-39.68-155.7-56.12 34.5Z"/>
    <path fill="#E6E7E8" d="m460.89 195.34-.28-.33 27.35-30.23h.08l29.53-4.67v.39l-.11.06-56.57 34.78Zm27.3-30.14L462 194.16l54.28-33.4-28.07 4.44Z"/>
    <path fill="#E6E7E8" d="m557.2 317.66-.06-.21-40.03-157.03.41-.16 75.2 149.83-35.52 7.57ZM518.05 162.3l39.47 154.83 34.54-7.35-74-147.48ZM155.52 11.64l-.04-.03-36.14-25.13-47.33-47.4.3-.32 83.44 72.52-.23.36ZM76.78-56.8l42.85 42.94L152.38 8.9l-75.6-65.7Z"/>
    <path fill="#E6E7E8" d="m136.43-79 18.82 89.83-82.63-71.82L129.7-79h-1.48l-56.5 17.83 84.24 73.21L136.9-79h-.46Z"/>
    <path fill="#E6E7E8" d="M207.72 124.5 119.11-13.84l.27-.09 69.26-23.35.03.27 19.47 161.34-.42.15ZM119.8-13.59l87.79 137.01-19.32-160.1-68.47 23.09Z"/>
    <path fill="#E6E7E8" d="m155.66 11.75-36.7-25.54 69.34-23.36.07-.1.1.05.53-.19-.23.36.25.13-.43.14-32.93 48.5Zm-35.72-25.38 35.61 24.76 32.34-47.68-67.95 22.92Zm88.07 138.21-.23-.38 114.15-85.48v.53l-.06.06-45.32 53.97-.04.02-68.5 31.28ZM320.3 40.52l-110.6 82.79 66.57-30.4 44.03-52.39Z"/>
    <path fill="#E6E7E8" d="M207.74 124.78 188.17-37.38l.38.22L322.1 39.15l-.27.2-114.1 85.43ZM188.72-36.55l19.37 160.51 113.2-84.76-132.57-75.75Zm153.5 179.37-62.25-40.61.15-.08-4.25-9.72 66.61 50.05-.26.36Zm-61.63-40.73 56.25 36.7-59.88-45 3.63 8.3Z"/>
    <path fill="#E6E7E8" d="m279.78 102.8.38-.59-4-9.15.08-.1 45.28-53.91.36.26-41.2 62.96.03.08-.14.07-.2.3-.06-.17-.53.25Zm-3.1-9.67 3.77 8.64 39.02-59.59-42.8 50.95Zm36.53 127.57-.43-.1 4.89-77.32.2-.08 24.8-.8-.12.31-29.34 77.98Zm4.89-77.06-4.79 75.5 28.7-76.26-23.91.76Z"/>
    <path fill="#E6E7E8" d="m317.84 143.7-.13-.12-37.46-41.2.29-.33 62.52 40.78-25.1.82-.12.05Zm-36.09-40.33 36.23 39.83 23.65-.76-59.88-39.07Zm160.08 133.19-.24-.02-128.6-15.7v-.44l129.56-25.92-.72 42.09Zm-127.42-16 126.97 15.5.66-41.04-127.63 25.54Z"/>
    <path fill="#E6E7E8" d="m312.76 220.9 4.92-77.8.28.12 125.08 51.6-.7.15-129.58 25.92Zm5.32-77.15-4.85 76.61 128.29-25.67-123.44-50.94ZM462.76 282.2l-21.38-45.9.04-.09 19.11-41.1v-.17h.58l-.12.27 2.2 86.9-.43.1Zm-20.9-45.9 20.85 44.73-2.15-84.93-18.7 40.2Z"/>
    <path fill="#E6E7E8" d="m441.81 236.4-.43-.1.68-41.8 19.04.43-.15.3-19.14 41.18Zm.69-41.42-.64 40.3 18.55-39.9-17.92-.4Z"/>
    <path fill="#E6E7E8" d="m558.03 317.87-.75-.27-94.54-35.34v-.16l-2.21-87.6.41.53 97.1 122.84Zm-94.85-35.92 93.51 34.94L461 195.81l2.18 86.14ZM145.4 90.1 42.97-7l76.45-6.94.23-.07v.24L145.39 90.1ZM44-6.65l100.6 95.37-25.33-102.19-75.26 6.82Z"/>
    <path fill="#E6E7E8" d="m196.03 188.19-51.58-99.31 63.56 35.3-.09.16.2.07-12.09 63.78Zm-50.5-98.22 50.3 96.87 11.83-62.35-62.13-34.52Z"/>
    <path fill="#E6E7E8" d="m208.01 124.68-.2-.12-63-35-.03-.1-25.53-103.11.4-.17 88.53 138.18-.17.32ZM145.2 89.27l62.06 34.48L120-12.44l25.19 101.7Zm125.4 111.88-.24-.05-74.84-13.44 81.16-95.2-.03.65-6.04 108.04Zm-74.25-13.8 73.84 13.26 5.96-106.87-79.8 93.61Z"/>
    <path fill="#E6E7E8" d="m195.56 188.3 12.16-64.08.1-.05 68.64-31.34.26.25-.13.16-81.03 95.05Zm12.55-63.78-11.8 62.21 79.29-93-67.49 30.8Zm126.9 94.69-.26-.07-64.82-18.16.32-.26 72-58.3h.32v.24l-7.56 76.55Zm-64.14-18.44 63.76 17.87 7.44-75.5-71.2 57.63Z"/>
    <path fill="#E6E7E8" d="m270.15 201.38 6.06-108.72 66.8 50.19h-.58l-72.28 58.53Zm6.46-107.85-5.96 106.87 71.33-57.76-65.37-49.11Zm65.06 202-28.9-74.87v-.24l.22-.02 22.03-1.71.02.22 7.06 76.52-.43.1ZM313.3 220.8l28.2 73.06-6.87-74.7-21.33 1.64Z"/>
    <path fill="#E6E7E8" d="m312.67 220.86.13-.32 29.33-77.98.43.1-7.54 76.47h-.19l-22.16 1.73Zm29.28-76.56-28.6 76.07 21.28-1.65 7.32-74.42Zm86.2 171.39-.23-.06-86.63-20.1 100.63-59.66-.1.47-13.67 79.35Zm-85.68-20.33 85.31 19.8 13.53-78.39-98.84 58.59Z"/>
    <path fill="#E6E7E8" d="m341.77 295.77-29.11-75.43.35.04 129.34 15.79-.65.33-99.93 59.27Zm-28.42-74.89L342 295.12l98.95-58.66-127.6-15.58Z"/>
    <path fill="#E6E7E8" d="m427.63 316.04.11-.65 13.78-79.8.3.65 21.35 45.79-.18.07.12.17-35.48 33.77Zm14.08-78.98L428.3 314.8l34.4-32.74-21-45ZM3.77 54.26l-42.09-32.8.05-.15 9.12-28.47.22.08.19-.1L4.1 54l-.33.26ZM-37.8 21.3l41 31.97-32.09-59.78-8.91 27.81Z"/>
    <path fill="#E6E7E8" d="M50.6 131.39 3.63 54.07l.08-.12L43.36-7l.35-.07v.25L51 131.28l-.4.1ZM4.15 54.09 50.5 130.4 43.3-6.12 4.16 54.1Z"/>
    <path fill="#E6E7E8" d="M3.88 54.52-29.32-7.3l72.81.26.03.25.16.1-39.8 61.21ZM-28.55-6.86l32.47 60.5L43.1-6.58l-71.64-.27ZM152.68 183.2 50.27 131.25l94.92-42.18.03.32 7.46 93.8ZM51.3 131.28l100.86 51.15-7.37-92.7L51.3 131.3Z"/>
    <path fill="#E6E7E8" d="M50.58 131.6v-.31L43.25-7.37l.4.39L145.39 89.5l-.3.13-94.51 41.98ZM43.75-6.26l7.24 137.2 93.6-41.58L43.76-6.27ZM187 240.22l-35-57.67 44.2 4.77-.05.23-9.15 52.67Zm-34.15-57.12 33.91 55.9 8.91-51.3-42.82-4.6Z"/>
    <path fill="#E6E7E8" d="m196.3 187.78-.4-.04-43.7-4.72v-.18l-7.45-93.4.42-.13 51.14 98.47Zm-43.69-5.16 42.92 4.63-50.24-96.76 7.33 92.13Zm26.74 75.25 7.36-18.45.07-.03 83.5-38.7.24-.15.15.45-.17.08-91.15 56.8Zm7.7-18.1-6.78 17.03 86.93-54.2-80.15 37.18Z"/>
    <path fill="#E6E7E8" d="m186.59 239.98.07-.42 9.09-52.3.22.03 74.6 13.4.1.31-.17.09-83.91 38.9Zm9.52-52.21-8.94 51.45 82.5-38.23-73.56-13.22Zm52.45 78.97h-.06l-68.72-9.2-.03-.44 155.01-38.38.17.4-86.37 47.62Zm-67.56-9.5 67.48 9.04 84.76-46.73L181 257.25Z"/>
    <path fill="#E6E7E8" d="m179.86 257.54-.17-.41 90.68-56.48.1.02 65.22 18.27-.81.2-155.02 38.4Zm90.58-56.4-89.32 55.62 152.83-37.84-63.51-17.78Z"/>
    <path fill="#E6E7E8" d="M342.12 295.67h-.3l-93.86-29.08L335 218.57l7.11 77.1Zm-93.03-29.23 92.54 28.68-7-75.84-85.54 47.16ZM-68.35 134.08l-.16-.26L-99.3 81.5l.29-.08L3.84 53.87l.61-.09-.37.45-72.43 79.85Zm-30.27-52.3 30.35 51.55L3.23 54.5-98.62 81.8Z"/>
    <path fill="#E6E7E8" d="m-99.71 82.08.58-.6 61.04-60.4L4.44 54.24l-.52.08L-99.7 82.08Zm61.67-60.4L-98.2 81.2 3.4 54l-41.45-32.32ZM37.94 228.4l-.3-.28L-68.9 133.5l119.93-2.45-.04.25-13.06 97.1Zm-105.69-94.48L37.62 227.5l12.92-96-118.29 2.4Z"/>
    <path fill="#E6E7E8" d="m-68.83 133.94.35-.38L3.95 53.7l.15.26 47.1 77.54h-.4l-119.62 2.44Zm72.7-79.49-71.67 79.03 118.2-2.42-46.52-76.6Zm86.37 175.79h-.09l-52.38-2.07-.07-.42 114.6-45.12.1-.07.56.28-.44.18-62.28 47.22Zm-51.4-2.45 51.24 2.02 60.9-46.18L38.83 227.8Z"/>
    <path fill="#E6E7E8" d="m37.5 228.3 13.1-97.37.29.15 102.07 51.78-.46.18-115 45.26Zm13.46-96.69-12.9 96 113.82-44.82-100.92-51.17Zm73.74 161.47-.13-.24-34.8-63.08 97.75 9.68-.52.35-62.3 53.3Zm-34.14-62.77 34.26 62.1 61.52-52.63-95.78-9.47Z"/>
    <path fill="#E6E7E8" d="m187.3 239.86-.44-.04-97.28-9.64 62.9-47.7 34.82 57.38Zm-96.55-10 95.7 9.47-34.1-56.19-61.6 46.71Z"/>
    <path fill="#E6E7E8" d="m124.88 292.93-.26-.36 62.11-53.14.36.25-7.13 17.86h-.1l-54.98 35.38Zm61.46-52.57-58.95 50.42 52.25-33.6 6.7-16.82Zm-217.83 4.56-.13-.41 60.21-26.08.1.1 9.23 9.25.51.24-.59.15-69.33 16.75Zm59.98-25.96-57.56 24.92 66.42-16.04-8.86-8.88Z"/>
    <path fill="#E6E7E8" d="m-31.68 244.97-.06-.2L-68.8 133l.62.55L37.9 227.77l.51.26-.59.15-69.51 16.8Zm-36.16-110.55 36.45 110.04 68.7-16.61-105.15-93.43Z"/>
    <path fill="#E6E7E8" d="m47.12 281.64-18.9-63.23.36.07 62 11.4-.25.28-43.21 51.48Zm-18.26-62.66 18.44 61.74 42.45-50.56-60.9-11.18Z"/>
    <path fill="#E6E7E8" d="m90.15 230.24-52.46-2.07-.07-.06-9.74-9.77.7.14 61.64 11.32-.07.44Zm-52.27-2.51 49.19 1.94-57.86-10.64 8.67 8.7Z"/>
    <path fill="#E6E7E8" d="M125.14 292.96h-.38l-77.97-11.62.25-.3 43.16-51.4 34.94 63.32Zm-77.5-11.94 76.7 11.43-34.22-62.04L47.64 281Z"/>
    <path fill="#E6E7E8" d="m79.45 329.33-.46-.13-162.72-48.11.46-.26 111.91-62.45.1.22 50.71 110.73Zm-162.04-48.37 161.23 47.67L28.44 219-82.6 280.96Z"/>
    <path fill="#E6E7E8" d="m-83.05 281.22-.24-.38 51.63-36.32 60.11-26.04.2.4-111.7 62.34Zm107.62-60.56-56.02 24.25-48.1 33.84 104.12-58.1Z"/>
    <path fill="#E6E7E8" d="m78.86 329.1-31.7-47.61-.07.04-.1-.29-18.66-62.49.41-.15 50.5 110.3-.38.2Zm-31.45-48.02 30.26 45.44-48-104.83 17.74 59.39Z"/>
    <path fill="#808285" d="M661.66 112.96a3.17 3.17 0 1 1-6.34.02 3.17 3.17 0 0 1 6.34-.02ZM557.5 188.32a2.04 2.04 0 0 1-3.47 1.44 2.03 2.03 0 0 1 2.87-2.88 2.01 2.01 0 0 1 .6 1.44Zm-22.84-68.12a2.3 2.3 0 1 1-4.59 0 2.3 2.3 0 0 1 4.59 0Z"/>
    <path fill="#808285" d="M658.49 117.42a4.46 4.46 0 1 0 .01-8.93 4.46 4.46 0 0 0-.01 8.93Zm-9.85 20.11a2 2 0 1 1-4.01 0 2 2 0 0 1 4 0Zm-91.39 50.79a1.77 1.77 0 1 1-3.54 0 1.77 1.77 0 0 1 3.54 0Z"/>
    <path fill="#808285" d="M649.57 137.53a2.94 2.94 0 1 1-5.87.02 2.94 2.94 0 0 1 5.87-.02Z"/>
    <path fill="#808285" d="M648.99 137.53a2.35 2.35 0 1 1-4.7.01 2.35 2.35 0 0 1 4.7 0Zm11.77-24.57a2.26 2.26 0 1 1-4.53.02 2.26 2.26 0 0 1 4.53-.02Zm-103.32 75.36a1.97 1.97 0 1 1-3.94.01 1.97 1.97 0 0 1 3.94-.01Z"/>
    <path fill="#808285" d="M648.86 137.53a2.24 2.24 0 1 1-4.47 0 2.24 2.24 0 0 1 4.47 0Zm97.12 63.85a3 3 0 1 1-5.98 0 3 3 0 0 1 5.98 0Z"/>
    <path fill="#808285" d="M745.82 201.38a2.83 2.83 0 1 1-5.66 0 2.83 2.83 0 0 1 5.66 0Z"/>
    <path fill="#808285" d="M745.35 201.38a2.36 2.36 0 0 1-2.83 2.33 2.37 2.37 0 0 1-.85-4.3 2.36 2.36 0 0 1 3.68 1.97Zm-98.71-62.3a1.55 1.55 0 1 0 0-3.1 1.55 1.55 0 0 0 0 3.1Z"/>
    <path fill="#808285" d="M744.27 201.38a1.3 1.3 0 0 1-.8 1.2 1.3 1.3 0 0 1-1.41-.28 1.3 1.3 0 1 1 2.2-.92ZM260.36 18.57a2.64 2.64 0 1 1-5.3 0 2.64 2.64 0 0 1 5.3 0Zm36.86 31.45a2.28 2.28 0 1 1-4.56.01 2.28 2.28 0 0 1 4.56 0Z"/>
    <path fill="#808285" d="M260.15 18.57a2.44 2.44 0 1 1-4.89 0 2.44 2.44 0 0 1 4.89 0Z"/>
    <path fill="#808285" d="M259.58 18.57a1.87 1.87 0 0 1-2.24 1.84 1.87 1.87 0 1 1 2.24-1.84Zm96.26 21.93a2.85 2.85 0 1 0 0-5.68 2.85 2.85 0 0 0 0 5.69Zm-55.83 9.52a5.07 5.07 0 1 1-10.14.03 5.07 5.07 0 0 1 10.14-.03Z"/>
    <path fill="#808285" d="M297.52 50.02a2.57 2.57 0 1 1-5.13.02 2.57 2.57 0 0 1 5.13-.02Zm141.94-44.1a2.78 2.78 0 1 1-5.56.02 2.78 2.78 0 0 1 5.56-.02Zm5.56 118.4a2.86 2.86 0 1 1-5.7.04 2.86 2.86 0 0 1 5.7-.04ZM359.7 37.66a3.85 3.85 0 1 1-7.72.03 3.85 3.85 0 0 1 7.71-.03Z"/>
    <path fill="#808285" d="M438.43 5.92a1.77 1.77 0 0 1-3.03 1.27 1.78 1.78 0 1 1 2.9-1.94c.09.22.13.44.13.67Z"/>
    <path fill="#808285" d="M439.12 5.92a2.44 2.44 0 1 1-4.88.01 2.44 2.44 0 0 1 4.88 0Zm-83.28 34.37a2.63 2.63 0 1 0 0-5.26 2.63 2.63 0 0 0 0 5.26Z"/>
    <path fill="#808285" d="M439.12 5.92a2.44 2.44 0 1 1-4.88 0 2.44 2.44 0 0 1 4.88 0Zm24.75 72.92a2.35 2.35 0 0 1-4 1.67 2.34 2.34 0 0 1 1.66-4 2.33 2.33 0 0 1 2.34 2.33Zm24.19 88.77a2.63 2.63 0 1 0 0-5.25 2.63 2.63 0 0 0 0 5.25Zm-45.89-39.2a4.1 4.1 0 1 0 .01-8.21 4.1 4.1 0 0 0-.01 8.21Z"/>
    <path fill="#808285" d="M464.47 78.84a2.94 2.94 0 1 1-5.87.02 2.94 2.94 0 0 1 5.87-.02Z"/>
    <path fill="#808285" d="M465.36 78.84a3.84 3.84 0 1 1-7.68.02 3.84 3.84 0 0 1 7.68-.02ZM439 5.92a2.32 2.32 0 1 1-4.64.01 2.32 2.32 0 0 1 4.64 0Zm5.76 118.4a2.6 2.6 0 0 1-3.1 2.54 2.6 2.6 0 1 1 3.1-2.54Z"/>
    <path fill="#808285" d="M464.5 78.84a2.98 2.98 0 1 1-5.96 0 2.98 2.98 0 0 1 5.97 0Zm71.2 41.36a3.32 3.32 0 0 1-5.69 2.36 3.33 3.33 0 1 1 5.7-2.37Zm-16.85 40.16a1.52 1.52 0 1 1-3.04.01 1.52 1.52 0 0 1 3.04 0Zm-28.46 4.63a2.32 2.32 0 1 1-4.65.02 2.32 2.32 0 0 1 4.65-.02Z"/>
    <path fill="#808285" d="M533.7 120.2a1.34 1.34 0 1 1-2.66 0 1.34 1.34 0 0 1 2.67 0Z"/>
    <path fill="#808285" d="M535.94 120.2a3.58 3.58 0 1 1-7.16 0 3.58 3.58 0 0 1 7.16 0Zm-73.25-41.36a1.15 1.15 0 1 1-2.3 0 1.15 1.15 0 0 1 2.3 0Zm27.95 86.15a2.58 2.58 0 1 1-5.15.02 2.58 2.58 0 0 1 5.15-.02Z"/>
    <path fill="#808285" d="M534.39 120.2a2.02 2.02 0 1 1-4.04 0 2.02 2.02 0 0 1 4.04 0Zm22.9 68.12a1.82 1.82 0 1 1-3.64.01 1.82 1.82 0 0 1 3.64-.01Zm-37.9-27.96a2.07 2.07 0 1 1-4.13 0 2.07 2.07 0 0 1 4.13 0Z"/>
    <path fill="#808285" d="M558.7 188.31a3.23 3.23 0 1 1-6.46.02 3.23 3.23 0 0 1 6.46-.02Z"/>
    <path fill="#808285" d="M558.93 188.32a3.46 3.46 0 1 1-6.91.01 3.46 3.46 0 0 1 6.91-.01ZM535.6 120.2a3.22 3.22 0 1 1-6.45 0 3.22 3.22 0 0 1 6.45 0Zm-16.14 40.16a2.13 2.13 0 1 1-4.25 0 2.13 2.13 0 0 1 4.25 0Z"/>
    <path fill="#808285" d="M557.62 188.31a2.15 2.15 0 1 1-1.33-1.97 2.13 2.13 0 0 1 1.33 1.97Z"/>
    <path fill="#808285" d="M557.16 188.32a1.69 1.69 0 1 1-3.38 0 1.69 1.69 0 0 1 3.38 0ZM158.54 11.44a2.94 2.94 0 1 1-5.87 0 2.94 2.94 0 0 1 5.87 0Z"/>
    <path fill="#808285" d="M158.23 11.44a2.63 2.63 0 1 1-5.26 0 2.63 2.63 0 0 1 5.26 0Z"/>
    <path fill="#808285" d="M157.11 11.44a1.5 1.5 0 1 1-3.01 0 1.5 1.5 0 0 1 3.01 0Zm103.29 7.13a2.7 2.7 0 1 1-5.4 0 2.7 2.7 0 0 1 5.4 0Zm63.21 20.6a1.92 1.92 0 0 1-3.27 1.36 1.92 1.92 0 0 1 .3-2.94 1.92 1.92 0 0 1 2.97 1.58Z"/>
    <path fill="#808285" d="M261.7 18.56a4 4 0 1 1-7.98.02 4 4 0 0 1 7.98-.02Z"/>
    <path fill="#808285" d="M259.4 18.57a1.7 1.7 0 1 1-3.4 0 1.7 1.7 0 0 1 3.4 0Z"/>
    <path fill="#808285" d="M260.8 18.56a3.09 3.09 0 1 1-6.18.01 3.09 3.09 0 0 1 6.18-.01Zm36.23 31.46a2.1 2.1 0 1 1-4.2 0 2.1 2.1 0 0 1 4.2 0Zm-14.27 52.21a2.35 2.35 0 0 1-4.65.47 2.35 2.35 0 1 1 4.65-.47Zm38.94-60.5a2.55 2.55 0 1 0 0-5.1 2.55 2.55 0 0 0 0 5.1Z"/>
    <path fill="#808285" d="M297.54 50.02a2.6 2.6 0 1 1-5.18.02 2.6 2.6 0 0 1 5.18-.02Z"/>
    <path fill="#808285" d="M297.31 50.02a2.37 2.37 0 1 1-4.74.02 2.37 2.37 0 0 1 4.74-.02Zm-36.15-31.45a3.45 3.45 0 1 1-6.9 0 3.45 3.45 0 0 1 6.9 0Zm62.47 20.6a1.94 1.94 0 1 1-3.88.01 1.94 1.94 0 0 1 3.88 0Z"/>
    <path fill="#808285" d="M298.4 50.02a3.47 3.47 0 1 1-6.93.02 3.47 3.47 0 0 1 6.93-.02Zm59.75-12.36a2.31 2.31 0 1 1-4.62.02 2.31 2.31 0 0 1 4.62-.02ZM320.8 143.43a2.9 2.9 0 1 1-5.8 0 2.9 2.9 0 0 1 5.8 0Zm-37.27-41.2a3.11 3.11 0 1 1-6.23.02 3.11 3.11 0 0 1 6.23-.02Z"/>
    <path fill="#808285" d="M358.5 37.66a2.67 2.67 0 1 1-5.33.02 2.67 2.67 0 0 1 5.34-.02Z"/>
    <path fill="#808285" d="M360.48 37.66a4.65 4.65 0 1 1-9.3.03 4.65 4.65 0 0 1 9.3-.03Zm-63.4 12.36a2.13 2.13 0 1 1-4.26 0 2.13 2.13 0 0 1 4.26 0Zm-13.73 52.21a2.93 2.93 0 1 1-5.86.02 2.93 2.93 0 0 1 5.86-.02Z"/>
    <path fill="#808285" d="M358.01 37.66a2.17 2.17 0 1 1-4.35 0 2.17 2.17 0 0 1 4.35 0Zm85.89 86.66a1.74 1.74 0 1 1-3.48 0 1.74 1.74 0 0 1 3.49 0Zm.92 70.43a2.55 2.55 0 1 1-5.09 0 2.55 2.55 0 0 1 5.1 0Zm-124.35-51.32a2.58 2.58 0 1 1-5.16.02 2.58 2.58 0 0 1 5.16-.02Z"/>
    <path fill="#808285" d="M444.05 124.32a1.88 1.88 0 1 1-3.77 0 1.88 1.88 0 0 1 3.77 0Z"/>
    <path fill="#808285" d="M444.5 124.32a2.33 2.33 0 1 1-4.66.01 2.33 2.33 0 0 1 4.66-.01Zm-85.66-86.66a3 3 0 1 1-6 .02 3 3 0 0 1 6-.02Zm-38.37 105.77a2.58 2.58 0 1 1-5.17 0 2.58 2.58 0 0 1 5.17 0Z"/>
    <path fill="#808285" d="M444.57 124.32a2.4 2.4 0 0 1-4.1 1.7 2.4 2.4 0 0 1 1.7-4.1 2.4 2.4 0 0 1 2.4 2.4Zm47.03 40.67a3.55 3.55 0 1 1-7.1 0 3.55 3.55 0 0 1 7.1 0Zm-27.3 30.17a3.55 3.55 0 1 1-7.09 0 3.55 3.55 0 0 1 7.1 0Zm-20.03-.41a2 2 0 0 1-2.38 1.96 2 2 0 1 1 2.38-1.96Z"/>
    <path fill="#808285" d="M490.94 164.99a2.87 2.87 0 1 1-5.75.02 2.87 2.87 0 0 1 5.75-.02Z"/>
    <path fill="#808285" d="M489.78 164.99a1.73 1.73 0 0 1-2.05 1.7 1.71 1.71 0 0 1-.63-3.12 1.71 1.71 0 0 1 2.68 1.42Zm-46.02-40.67a1.6 1.6 0 1 1-3.19 0 1.6 1.6 0 0 1 3.2 0Zm.62 70.43a2.1 2.1 0 1 1-4.2.02 2.1 2.1 0 0 1 4.2-.02Z"/>
    <path fill="#808285" d="M491.08 164.99a3.03 3.03 0 1 1-6.05.01 3.03 3.03 0 0 1 6.05-.01Zm27.42-4.63a1.17 1.17 0 1 1-2.34.02 1.17 1.17 0 0 1 2.34-.02Zm-56.35 34.8a1.4 1.4 0 1 1-2.79 0 1.4 1.4 0 0 1 2.8 0Z"/>
    <path fill="#808285" d="M520.3 160.37a2.97 2.97 0 1 1-5.95 0 2.97 2.97 0 0 1 5.94 0Z"/>
    <path fill="#808285" d="M521.14 160.36a3.8 3.8 0 1 1-7.62.02 3.8 3.8 0 0 1 7.62-.02Zm-31.72 4.63a1.36 1.36 0 1 1-2.72.02 1.36 1.36 0 0 1 2.72-.02Zm-26.59 30.17a2.08 2.08 0 1 1-4.15.02 2.08 2.08 0 0 1 4.15-.02Z"/>
    <path fill="#808285" d="M521.04 160.37a3.72 3.72 0 1 1-7.44 0 3.72 3.72 0 0 1 7.44 0Z"/>
    <path fill="#808285" d="M519.27 160.36a1.95 1.95 0 1 1-3.9 0 1.95 1.95 0 0 1 3.9 0ZM157.21 11.44a1.6 1.6 0 1 1-3.2 0 1.6 1.6 0 0 1 3.2 0Z"/>
    <path fill="#808285" d="M158.24 11.44a2.63 2.63 0 1 1-5.26 0 2.63 2.63 0 0 1 5.26 0Z"/>
    <path fill="#808285" d="M158.08 11.44a2.48 2.48 0 1 1-4.96 0 2.48 2.48 0 0 1 4.96 0Z"/>
    <path fill="#808285" d="M158.23 11.44a2.62 2.62 0 1 1-5.25 0 2.62 2.62 0 0 1 5.25 0Zm53.33 112.93a3.64 3.64 0 1 1-7.28.02 3.64 3.64 0 0 1 7.28-.02Z"/>
    <path fill="#808285" d="M157.52 11.44a1.91 1.91 0 1 1-3.82 0 1.91 1.91 0 0 1 3.82 0Zm168.74 27.73a4.57 4.57 0 1 1-9.13.02 4.57 4.57 0 0 1 9.13-.02ZM278.21 93.1a1.8 1.8 0 1 1-3.6.02 1.8 1.8 0 0 1 3.6-.02Zm-68.84 31.27a1.47 1.47 0 0 1-.9 1.35 1.46 1.46 0 0 1-2-1.06 1.46 1.46 0 1 1 2.9-.3Z"/>
    <path fill="#808285" d="M324.36 39.17a2.67 2.67 0 1 1-5.34.01 2.67 2.67 0 0 1 5.34 0Z"/>
    <path fill="#808285" d="M325.38 39.17a3.68 3.68 0 1 1-7.37.03 3.68 3.68 0 0 1 7.37-.03Zm-115.82 85.2a1.65 1.65 0 1 1-3.3 0 1.65 1.65 0 0 1 3.3 0Z"/>
    <path fill="#808285" d="M323.89 39.17a2.19 2.19 0 1 1-4.38.03 2.19 2.19 0 0 1 4.38-.03Zm-41.68 63.06a1.8 1.8 0 0 1-2.15 1.77 1.8 1.8 0 1 1 2.15-1.77Zm63.73 40.4a3.6 3.6 0 1 1-7.19.02 3.6 3.6 0 0 1 7.19-.02ZM278.92 93.1a2.51 2.51 0 1 1-5.03 0 2.51 2.51 0 0 1 5.03 0Z"/>
    <path fill="#808285" d="M282.88 102.23a2.5 2.5 0 0 1-4.24 1.8 2.48 2.48 0 1 1 4.24-1.8Z"/>
    <path fill="#808285" d="M281.97 102.23a1.55 1.55 0 0 1-2.66 1.1 1.55 1.55 0 1 1 2.66-1.1Zm42.27-63.06a2.54 2.54 0 1 1-5.09.01 2.54 2.54 0 0 1 5.09 0ZM278.32 93.1a1.91 1.91 0 1 1-3.83 0 1.91 1.91 0 0 1 3.83 0Z"/>
    <path fill="#808285" d="M282.85 102.23a2.42 2.42 0 0 1-4.14 1.73 2.43 2.43 0 0 1 3.43-3.43c.45.45.7 1.06.7 1.7Zm37.54 41.2a2.51 2.51 0 1 1-5.02 0 2.51 2.51 0 0 1 5.02 0Zm-5.59 77.19a1.8 1.8 0 1 1-3.6.01 1.8 1.8 0 0 1 3.6 0Zm31.14-77.99a3.6 3.6 0 1 1-7.2.02 3.6 3.6 0 0 1 7.2-.02Z"/>
    <path fill="#808285" d="M320.44 143.43a2.55 2.55 0 1 1-5.1 0 2.55 2.55 0 0 1 5.1 0Z"/>
    <path fill="#808285" d="M319.99 143.43a2.1 2.1 0 0 1-2.53 2.07 2.1 2.1 0 0 1-1.53-2.88 2.1 2.1 0 0 1 4.06.8Zm-37.39-41.2a2.18 2.18 0 1 1-4.37 0 2.18 2.18 0 0 1 4.36 0Zm62.23 40.4a2.49 2.49 0 1 1-4.97 0 2.49 2.49 0 0 1 4.97 0Z"/>
    <path fill="#808285" d="M320.49 143.43a2.6 2.6 0 1 1-5.21.02 2.6 2.6 0 0 1 5.2-.02Zm124.35 51.32a2.57 2.57 0 1 1-5.13.01 2.57 2.57 0 0 1 5.13-.01Zm.14 41.55a3.36 3.36 0 1 1-6.72.04 3.36 3.36 0 0 1 6.72-.04ZM314.5 220.62a1.51 1.51 0 0 1-1.8 1.47 1.51 1.51 0 0 1-1.18-1.18 1.5 1.5 0 1 1 2.98-.29Z"/>
    <path fill="#808285" d="M445.52 194.75a3.24 3.24 0 1 1-6.48.02 3.24 3.24 0 0 1 6.48-.02Z"/>
    <path fill="#808285" d="M444.63 194.75a2.35 2.35 0 1 1-4.7.01 2.35 2.35 0 0 1 4.7-.01ZM320 143.43a2.14 2.14 0 0 1-2.54 2.09 2.13 2.13 0 1 1 2.54-2.1Zm-3.3 77.19a3.69 3.69 0 1 1-7.38.01 3.69 3.69 0 0 1 7.37 0Z"/>
    <path fill="#808285" d="M444.52 194.75a2.23 2.23 0 1 1-4.46.02 2.23 2.23 0 0 1 4.46-.02Zm18.58.41a2.36 2.36 0 1 1-4.7 0 2.36 2.36 0 0 1 4.7 0Zm-19.8 41.14a1.7 1.7 0 0 1-2.88 1.2 1.68 1.68 0 1 1 2.88-1.2Z"/>
    <path fill="#808285" d="M463.34 195.16a2.59 2.59 0 1 1-5.18 0 2.59 2.59 0 0 1 5.18 0Z"/>
    <path fill="#808285" d="M462.13 195.16a1.38 1.38 0 0 1-.85 1.27 1.37 1.37 0 0 1-1.28-2.4 1.37 1.37 0 0 1 2.13 1.13Zm-16.79-.41a3.05 3.05 0 1 1-6.11.01 3.05 3.05 0 0 1 6.1-.01Zm-1.27 41.55a2.45 2.45 0 0 1-4.2 1.75 2.47 2.47 0 1 1 4.2-1.75Z"/>
    <path fill="#808285" d="M464.88 195.16a4.13 4.13 0 1 1-8.25.01 4.13 4.13 0 0 1 8.25-.01Z"/>
    <path fill="#808285" d="M462.42 195.16a1.66 1.66 0 1 1-3.32 0 1.66 1.66 0 0 1 3.32 0ZM147.63 89.41a2.64 2.64 0 0 1-4.5 1.87 2.63 2.63 0 0 1 2.87-4.3 2.62 2.62 0 0 1 1.63 2.43Zm61.98 34.96a1.7 1.7 0 1 1-3.4.02 1.7 1.7 0 0 1 3.4-.02Zm-11.93 63.14a1.75 1.75 0 1 1-3.5.02 1.75 1.75 0 0 1 3.5-.02Z"/>
    <path fill="#808285" d="M147.67 89.41a2.67 2.67 0 1 1-5.35.02 2.67 2.67 0 0 1 5.35-.02ZM211 124.38a3.1 3.1 0 1 1-6.19 0 3.1 3.1 0 0 1 6.2 0Z"/>
    <path fill="#808285" d="M210.2 124.37a2.3 2.3 0 1 1-4.58.02 2.3 2.3 0 0 1 4.58-.02Zm-63.61-34.96a1.6 1.6 0 1 1-3.19.01 1.6 1.6 0 0 1 3.19 0Z"/>
    <path fill="#808285" d="M209.59 124.38a1.67 1.67 0 1 1-3.35 0 1.67 1.67 0 0 1 3.34 0Zm69.27-31.28a2.45 2.45 0 1 1-4.9.02 2.45 2.45 0 0 1 4.9-.02Zm-6.92 107.79a1.54 1.54 0 1 1-3.08 0 1.54 1.54 0 0 1 3.08 0Zm-73.03-13.38a2.98 2.98 0 1 1-5.95.02 2.98 2.98 0 0 1 5.95-.02Z"/>
    <path fill="#808285" d="M278.17 93.1a1.75 1.75 0 1 1-3.5 0 1.75 1.75 0 0 1 3.5 0Z"/>
    <path fill="#808285" d="M278.77 93.1a2.36 2.36 0 1 1-4.72 0 2.36 2.36 0 0 1 4.72 0ZM211 124.37a3.08 3.08 0 1 1-6.16.02 3.08 3.08 0 0 1 6.15-.02Zm-12.35 63.14a2.71 2.71 0 1 1-5.43.02 2.71 2.71 0 0 1 5.43-.02Z"/>
    <path fill="#808285" d="M280.83 93.1a4.42 4.42 0 1 1-8.84.03 4.42 4.42 0 0 1 8.84-.03Zm61.51 51.6a2.07 2.07 0 1 0 0-4.13 2.07 2.07 0 0 0 0 4.13Zm-5.7 74.22a1.82 1.82 0 0 1-3.1 1.3 1.82 1.82 0 1 1 3.1-1.3Zm-62.91-18.03a3.32 3.32 0 1 1-6.65 0 3.32 3.32 0 0 1 6.65 0Z"/>
    <path fill="#808285" d="M342.34 145.74a3.1 3.1 0 1 0 0-6.21 3.1 3.1 0 0 0 0 6.2Z"/>
    <path fill="#808285" d="M343.95 142.63a1.6 1.6 0 1 1-3.21 0 1.6 1.6 0 0 1 3.21 0ZM277.88 93.1a1.45 1.45 0 1 1-2.9 0 1.45 1.45 0 0 1 2.9 0Zm-3.04 107.79a4.45 4.45 0 1 1-8.9.01 4.45 4.45 0 0 1 8.9-.01Z"/>
    <path fill="#808285" d="M344.13 142.63a1.8 1.8 0 1 1-3.6.05 1.8 1.8 0 0 1 3.6-.05Zm-28.91 77.99a2.22 2.22 0 1 1-4.43-.01 2.22 2.22 0 0 1 4.43.01Zm21.99-1.7a2.4 2.4 0 1 1-4.8.03 2.4 2.4 0 0 1 4.8-.03Z"/>
    <path fill="#808285" d="M313 223.28a2.66 2.66 0 1 0 .01-5.33 2.66 2.66 0 0 0 0 5.33Z"/>
    <path fill="#808285" d="M315.83 220.62a2.82 2.82 0 1 1-5.64.01 2.82 2.82 0 0 1 5.64 0Zm29.47-77.99a2.97 2.97 0 1 1-5.94.01 2.97 2.97 0 0 1 5.95 0Zm-7.78 76.29a2.7 2.7 0 0 1-4.6 1.92 2.7 2.7 0 1 1 4.6-1.92Z"/>
    <path fill="#808285" d="M316.82 220.61a3.81 3.81 0 1 1-7.63.01 3.81 3.81 0 0 1 7.63 0Zm127.46 15.69a2.67 2.67 0 1 1-5.34.01 2.67 2.67 0 0 1 5.34-.01Z"/>
    <path fill="#808285" d="M444.4 236.32a2.78 2.78 0 1 1-5.57.01 2.78 2.78 0 0 1 5.56-.01Z"/>
    <path fill="#808285" d="M443.42 236.3a1.8 1.8 0 1 1-3.61.02 1.8 1.8 0 0 1 3.61-.02Zm-127.55-15.68a2.87 2.87 0 1 1-5.74.01 2.87 2.87 0 0 1 5.74 0Z"/>
    <path fill="#808285" d="M443.94 236.32a2.32 2.32 0 1 1-4.65 0 2.32 2.32 0 0 1 4.64 0Z"/>
    <path fill="#808285" d="M444.03 236.3a2.41 2.41 0 1 1-4.83.02 2.41 2.41 0 0 1 4.83-.02ZM6.91 54.09a3 3 0 1 1-5.99 0 3 3 0 0 1 6 0Zm46.44 77.19a2.56 2.56 0 1 1-5.12 0 2.56 2.56 0 0 1 5.12 0Z"/>
    <path fill="#808285" d="M6.15 54.09a2.25 2.25 0 1 1-4.5 0 2.25 2.25 0 0 1 4.5 0Z"/>
    <path fill="#808285" d="M5.82 54.09a1.92 1.92 0 1 1-3.84 0 1.92 1.92 0 0 1 3.84 0ZM147.3 89.41a2.3 2.3 0 1 1-4.6.02 2.3 2.3 0 0 1 4.6-.02Zm5.12 97.18a3.77 3.77 0 1 0 0-7.55 3.77 3.77 0 0 0 0 7.55Zm-99.07-55.31a2.56 2.56 0 1 1-5.13 0 2.56 2.56 0 0 1 5.13 0Z"/>
    <path fill="#808285" d="M146.57 89.41a1.57 1.57 0 0 1-3.12.31 1.58 1.58 0 1 1 3.12-.3Z"/>
    <path fill="#808285" d="M146.52 89.41a1.53 1.53 0 1 1-3.07.02 1.53 1.53 0 0 1 3.07-.02Zm-91.48 41.87a4.25 4.25 0 1 1-8.5 0 4.25 4.25 0 0 1 8.5 0Z"/>
    <path fill="#808285" d="M148.43 89.41a3.43 3.43 0 1 1-6.87.01 3.43 3.43 0 0 1 6.87 0Zm49.43 98.1a1.94 1.94 0 1 1-3.87 0 1.94 1.94 0 0 1 3.87 0Zm-10.98 54.65a2.56 2.56 0 1 0 0-5.11 2.56 2.56 0 0 0 0 5.1Zm-34.46-57.26a2.08 2.08 0 1 0 0-4.16 2.08 2.08 0 0 0 0 4.16Z"/>
    <path fill="#808285" d="M198.79 187.51a2.85 2.85 0 0 1-3.42 2.82 2.86 2.86 0 1 1 3.42-2.82Z"/>
    <path fill="#808285" d="M198.33 187.51a2.4 2.4 0 1 1-4.79.01 2.4 2.4 0 0 1 4.79 0Zm-50.76-98.1a2.57 2.57 0 1 1-5.14.02 2.57 2.57 0 0 1 5.14-.02Zm6.15 93.41a1.3 1.3 0 0 1-.8 1.2 1.3 1.3 0 1 1 .8-1.2Z"/>
    <path fill="#808285" d="M195.93 190.14a2.63 2.63 0 1 0 0-5.26 2.63 2.63 0 0 0 0 5.26Zm75.97 10.75a1.5 1.5 0 0 1-2.57 1.06 1.5 1.5 0 0 1 1.07-2.57 1.51 1.51 0 0 1 1.39.93c.07.19.11.38.11.58Zm-81.37 38.71a3.66 3.66 0 1 1-7.3.02 3.66 3.66 0 0 1 7.3-.02Z"/>
    <path fill="#808285" d="M270.4 204.87a3.99 3.99 0 1 0 0-7.97 3.99 3.99 0 0 0 0 7.97Z"/>
    <path fill="#808285" d="M272.4 200.89a1.99 1.99 0 0 1-2.39 1.97 2 2 0 0 1-.72-3.63 2 2 0 0 1 3.1 1.66Zm-72.71-13.38a3.76 3.76 0 1 1-7.53.01 3.76 3.76 0 0 1 7.53 0Zm-12.81 54.17a2.08 2.08 0 1 0 0-4.16 2.08 2.08 0 0 0 0 4.16Z"/>
    <path fill="#808285" d="M272.1 200.89a1.7 1.7 0 1 1-3.4.02 1.7 1.7 0 0 1 3.4-.02Zm65.57 18.03a2.84 2.84 0 1 1-5.67 0 2.84 2.84 0 0 1 5.67 0Z"/>
    <path fill="#808285" d="M337.35 218.92a2.53 2.53 0 1 1-5.07.02 2.53 2.53 0 0 1 5.07-.02Z"/>
    <path fill="#808285" d="M337.22 218.92a2.41 2.41 0 0 1-2.87 2.37 2.4 2.4 0 1 1 2.87-2.37Zm-63.9-18.03a2.92 2.92 0 1 1-5.84 0 2.92 2.92 0 0 1 5.84 0Z"/>
    <path fill="#808285" d="M337.54 218.92a2.73 2.73 0 1 1-5.46.02 2.73 2.73 0 0 1 5.46-.02Z"/>
    <path fill="#808285" d="M334.81 223.8a4.88 4.88 0 1 0 .01-9.76 4.88 4.88 0 0 0 0 9.76ZM7.49 54.09a3.59 3.59 0 1 1-7.17 0 3.59 3.59 0 0 1 7.17 0Z"/>
    <path fill="#808285" d="M5.94 54.09a2.04 2.04 0 1 1-4.08 0 2.04 2.04 0 0 1 4.08 0Z"/>
    <path fill="#808285" d="M8.16 54.09a4.26 4.26 0 1 1-8.52 0 4.26 4.26 0 0 1 8.52 0Z"/>
    <path fill="#808285" d="M6.46 54.09a2.56 2.56 0 1 1-5.12 0 2.56 2.56 0 0 1 5.12 0Zm46.53 77.19a2.2 2.2 0 1 1-4.4 0 2.2 2.2 0 0 1 4.4 0Zm-11.84 96.68a3.37 3.37 0 1 1-6.74.01 3.37 3.37 0 0 1 6.74-.01Z"/>
    <path fill="#808285" d="M53.56 131.28a2.78 2.78 0 1 1-5.57 0 2.78 2.78 0 0 1 5.57 0Z"/>
    <path fill="#808285" d="M53.2 131.28a2.41 2.41 0 1 1-4.83 0 2.41 2.41 0 0 1 4.83 0ZM6.89 54.09a2.99 2.99 0 1 1-5.98 0 2.99 2.99 0 0 1 5.98 0Z"/>
    <path fill="#808285" d="M53.83 131.28a3.05 3.05 0 1 1-6.1 0 3.05 3.05 0 0 1 6.1 0Zm100.14 51.54a1.56 1.56 0 1 1-3.11 0 1.56 1.56 0 0 1 3.11 0Zm-59.17 47.2a4.64 4.64 0 1 1-9.28.05 4.64 4.64 0 0 1 9.28-.05Zm-55.26-2.06a1.77 1.77 0 1 1-3.54 0 1.77 1.77 0 0 1 3.54 0Z"/>
    <path fill="#808285" d="M155.05 182.82a2.64 2.64 0 0 1-4.49 1.87 2.63 2.63 0 1 1 4.5-1.87Z"/>
    <path fill="#808285" d="M152.42 184.77a1.95 1.95 0 1 0 0-3.91 1.95 1.95 0 0 0 0 3.9Zm-98.67-53.49a2.97 2.97 0 1 1-5.93 0 2.97 2.97 0 0 1 5.93 0Zm-13.69 96.68a2.28 2.28 0 1 1-4.56 0 2.28 2.28 0 0 1 4.56 0Z"/>
    <path fill="#808285" d="M154.88 182.82a2.46 2.46 0 1 1-4.93 0 2.46 2.46 0 0 1 4.93 0Zm34.65 56.78a2.64 2.64 0 1 1-5.3.01 2.64 2.64 0 0 1 5.3 0Zm-95.47-9.58a3.9 3.9 0 1 1-7.8 0 3.9 3.9 0 0 1 7.8 0Z"/>
    <path fill="#808285" d="M188.65 239.6a1.77 1.77 0 1 1-3.54 0 1.77 1.77 0 0 1 3.54 0Z"/>
    <path fill="#808285" d="M186.88 241.08a1.47 1.47 0 1 0 0-2.95 1.47 1.47 0 0 0 0 2.95Zm-32.07-58.26a2.39 2.39 0 1 1-4.78 0 2.39 2.39 0 0 1 4.78 0Zm-62.34 47.2a2.31 2.31 0 1 1-4.62.02 2.31 2.31 0 0 1 4.62-.02Z"/>
    <path fill="#808285" d="M188.75 239.6a1.87 1.87 0 0 1-2.23 1.84 1.87 1.87 0 1 1 2.22-1.84Z"/>
    <path fill="#808285" d="M189.2 239.6a2.31 2.31 0 1 1-4.63 0 2.31 2.31 0 0 1 4.62 0ZM40.01 227.96a2.23 2.23 0 1 1-4.46 0 2.23 2.23 0 0 1 4.46 0Zm-8.49-9.27a2.98 2.98 0 1 1-5.96.05 2.98 2.98 0 0 1 5.96-.05Z"/>
    <path fill="#808285" d="M39.58 227.96a1.8 1.8 0 1 1-3.6 0 1.8 1.8 0 0 1 3.6 0Z"/>
    <path fill="#808285" d="M41.91 227.96a4.13 4.13 0 1 1-8.26.02 4.13 4.13 0 0 1 8.26-.02Z"/>
    <path fill="#808285" d="M40.9 227.96a3.12 3.12 0 1 1-6.24 0 3.12 3.12 0 0 1 6.24 0Zm52.1 2.06a2.84 2.84 0 1 1-5.68 0 2.84 2.84 0 0 1 5.68 0Zm-60.45-11.33a4.01 4.01 0 1 1-8.03.01 4.01 4.01 0 0 1 8.03-.01Z"/>
    <path fill="#808285" d="M92.45 230.02a2.29 2.29 0 1 1-4.58.02 2.29 2.29 0 0 1 4.58-.02Z"/>
    <path fill="#808285" d="M93.49 230.02a3.32 3.32 0 1 1-6.65.01 3.32 3.32 0 0 1 6.65-.01Zm-52.7-2.06a3.01 3.01 0 1 1-6.02 0 3.01 3.01 0 0 1 6.02 0Zm-10.39-9.27a1.87 1.87 0 1 1-3.73.01 1.87 1.87 0 0 1 3.73-.01Z"/>
    <path fill="#808285" d="M92.67 230.02a2.5 2.5 0 1 1-5.01.04 2.5 2.5 0 0 1 5-.04Z"/>
    <path fill="#808285" d="M92 230.02a1.83 1.83 0 1 1-3.66.01 1.83 1.83 0 0 1 3.66-.01Zm-63.46-9.12a2.21 2.21 0 1 0 0-4.42 2.21 2.21 0 0 0 0 4.42Z"/>
    <path fill="#808285" d="M31.97 218.69a3.43 3.43 0 1 1-6.86.02 3.43 3.43 0 0 1 6.86-.02Z"/>
    <path fill="#808285" d="M30.5 218.69a1.96 1.96 0 1 1-3.92 0 1.96 1.96 0 0 1 3.92 0Z"/>
    <path fill="#808285" d="M31.18 218.69a2.64 2.64 0 1 1-5.28 0 2.64 2.64 0 0 1 5.28 0Z"/>
    <path fill="#808285" d="M31.08 218.69a2.55 2.55 0 1 1-5.1.01 2.55 2.55 0 0 1 5.1-.01Z"/>
  </g>
  <defs>
    <clipPath id="a">
      <path fill="#fff" d="M-302-79H762v532H-302z"/>
    </clipPath>
  </defs>
</svg>