<svg width="58" height="24" viewBox="0 0 1250 519" fill="none" xmlns="http://www.w3.org/2000/svg">
<path d="M95.2321 -0.00012207H66.8367C66.8367 36.8557 36.8012 66.75 0 66.75V95.1085C36.9037 95.1085 66.8367 125.105 66.8367 161.859H95.2321C95.2321 125.003 125.268 95.1085 162.069 95.1085V66.75C125.165 66.75 95.2321 36.7534 95.2321 -0.00012207Z" fill="#A54242"/>
<path d="M276.573 -0.00012207H248.177C248.177 36.8557 218.142 66.75 181.341 66.75V95.1085C218.244 95.1085 248.177 125.105 248.177 161.859H276.573C276.573 125.003 306.608 95.1085 343.409 95.1085V66.75C306.506 66.75 276.573 36.7534 276.573 -0.00012207Z" fill="#A54242"/>
<path d="M457.811 -0.00012207H429.416C429.416 36.8557 399.38 66.75 362.579 66.75V95.1085C399.483 95.1085 429.416 125.105 429.416 161.859H457.811C457.811 125.003 487.847 95.1085 524.648 95.1085V66.75C487.744 66.75 457.811 36.7534 457.811 -0.00012207Z" fill="#A54242"/>
<path d="M95.2321 178.137H66.8367C66.8367 214.993 36.8012 244.887 0 244.887V273.245C36.9037 273.245 66.8367 303.242 66.8367 339.995H95.2321C95.2321 303.14 125.268 273.245 162.069 273.245V244.887C125.165 244.887 95.2321 214.89 95.2321 178.137Z" fill="#A54242"/>
<path d="M276.573 178.137H248.177C248.177 214.993 218.142 244.887 181.341 244.887V273.245C218.244 273.245 248.177 303.242 248.177 339.995H276.573C276.573 303.14 306.608 273.245 343.409 273.245V244.887C306.506 244.887 276.573 214.89 276.573 178.137Z" fill="#A54242"/>
<path d="M457.811 178.137H429.416C429.416 214.993 399.38 244.887 362.579 244.887V273.245C399.483 273.245 429.416 303.242 429.416 339.995H457.811C457.811 303.14 487.847 273.245 524.648 273.245V244.887C487.744 244.887 457.811 214.89 457.811 178.137Z" fill="#A54242"/>
<path d="M639.049 178.137H610.654C610.654 214.993 580.619 244.887 543.817 244.887V273.245C580.721 273.245 610.654 303.242 610.654 339.995H639.049C639.049 303.14 669.085 273.245 705.886 273.245V244.887C668.982 244.887 639.049 214.89 639.049 178.137Z" fill="#A54242"/>
<path d="M820.288 178.137H791.892C791.892 214.993 761.857 244.887 725.055 244.887V273.245C761.959 273.245 791.892 303.242 791.892 339.995H820.288C820.288 303.14 850.323 273.245 887.124 273.245V244.887C850.221 244.887 820.288 214.89 820.288 178.137Z" fill="#A54242"/>
<path d="M820.288 356.171H791.892C791.892 393.027 761.857 422.921 725.055 422.921V451.28C761.959 451.28 791.892 481.276 791.892 518.03H820.288C820.288 481.174 850.323 451.28 887.124 451.28V422.921C850.221 422.921 820.288 392.925 820.288 356.171Z" fill="#A54242"/>
<path d="M1001.63 178.137H973.233C973.233 214.993 943.197 244.887 906.396 244.887V273.245C943.3 273.245 973.233 303.242 973.233 339.995H1001.63C1001.63 303.14 1031.66 273.245 1068.47 273.245V244.887C1031.56 244.887 1001.63 214.89 1001.63 178.137Z" fill="#A54242"/>
<path d="M1182.87 178.137H1154.47C1154.47 214.993 1124.44 244.887 1087.63 244.887V273.245C1124.54 273.245 1154.47 303.242 1154.47 339.995H1182.87C1182.87 303.14 1212.9 273.245 1249.7 273.245V244.887C1212.8 244.887 1182.87 214.89 1182.87 178.137Z" fill="#A54242"/>
<path d="M1182.87 356.171H1154.47C1154.47 393.027 1124.44 422.921 1087.63 422.921V451.28C1124.54 451.28 1154.47 481.276 1154.47 518.03H1182.87C1182.87 481.174 1212.9 451.28 1249.7 451.28V422.921C1212.8 422.921 1182.87 392.925 1182.87 356.171Z" fill="#A54242"/>
<path d="M95.2321 356.171H66.8367C66.8367 393.027 36.8012 422.921 0 422.921V451.28C36.9037 451.28 66.8367 481.276 66.8367 518.03H95.2321C95.2321 481.174 125.268 451.28 162.069 451.28V422.921C125.165 422.921 95.2321 392.925 95.2321 356.171Z" fill="#A54242"/>
<path d="M276.573 356.171H248.177C248.177 393.027 218.142 422.921 181.341 422.921V451.28C218.244 451.28 248.177 481.276 248.177 518.03H276.573C276.573 481.174 306.608 451.28 343.409 451.28V422.921C306.506 422.921 276.573 392.925 276.573 356.171Z" fill="#A54242"/>
<path d="M457.811 356.171H429.416C429.416 393.027 399.38 422.921 362.579 422.921V451.28C399.483 451.28 429.416 481.276 429.416 518.03H457.811C457.811 481.174 487.847 451.28 524.648 451.28V422.921C487.744 422.921 457.811 392.925 457.811 356.171Z" fill="#A54242"/>
</svg>
