<svg width="73" height="16" viewBox="0 0 73 16" fill="none" xmlns="http://www.w3.org/2000/svg">
<g clip-path="url(#clip0_384_26164)">
<path fill-rule="evenodd" clip-rule="evenodd" d="M69.3193 16H3.68067C1.64771 16 0 14.3471 0 12.3077V3.69231C0 1.65292 1.64771 0 3.68067 0H69.3193C71.3523 0 73 1.65292 73 3.69231V12.3077C73 14.3471 71.3523 16 69.3193 16ZM6.82642 5.472H5.25784V9.928H6.08415V8.328H6.82642C7.73064 8.328 8.37598 7.74523 8.37598 6.90339C8.37598 6.06154 7.73064 5.472 6.82642 5.472ZM10.4549 6.61231C9.48018 6.61231 8.78945 7.31138 8.78945 8.30892C8.78945 9.29969 9.48018 10.0055 10.4549 10.0055C11.4297 10.0055 12.1143 9.29969 12.1143 8.30892C12.1143 7.31138 11.4297 6.61231 10.4549 6.61231ZM16.5238 6.68985L15.8717 8.89169L15.2196 6.68985H14.4712L13.8191 8.89169L13.167 6.68985H12.3407L13.451 9.928H14.1933L14.8454 7.72615L15.5042 9.928H16.2465L17.3501 6.68985H16.5238ZM19.1714 6.61231C18.2482 6.61231 17.5771 7.30523 17.5771 8.28308C17.5771 9.29292 18.261 10.0055 19.2358 10.0055C19.5971 10.0055 19.9652 9.92123 20.3333 9.75323V9.05969C19.9977 9.25415 19.6683 9.36431 19.3714 9.36431C18.8291 9.36431 18.442 9.02769 18.3899 8.53539H20.5786C20.5915 8.42523 20.5915 8.32185 20.5915 8.23077C20.5915 7.27939 20.0167 6.61231 19.1714 6.61231ZM23.1416 6.64431C23.0514 6.61846 22.9613 6.61231 22.8705 6.61231C22.5932 6.61231 22.3092 6.75446 22.0767 7.01354V6.68985H21.2504V9.928H22.0767V7.76492C22.2895 7.49292 22.5803 7.344 22.8515 7.344C22.9484 7.344 23.0514 7.35692 23.1416 7.38277V6.64431ZM25.0335 6.61231C24.1102 6.61231 23.4391 7.30523 23.4391 8.28308C23.4391 9.29292 24.1231 10.0055 25.0979 10.0055C25.4598 10.0055 25.8279 9.92123 26.1953 9.75323V9.05969C25.8598 9.25415 25.531 9.36431 25.2335 9.36431C24.6918 9.36431 24.3041 9.02769 24.2526 8.53539H26.4407C26.4536 8.42523 26.4536 8.32185 26.4536 8.23077C26.4536 7.27939 25.8794 6.61231 25.0335 6.61231ZM30.0048 5.27138H29.1718V6.91015C28.9203 6.71569 28.6362 6.61231 28.3522 6.61231C27.4934 6.61231 26.8934 7.31138 26.8934 8.30892C26.8934 9.30585 27.4934 10.0055 28.3522 10.0055C28.6362 10.0055 28.9203 9.90215 29.1718 9.70092V9.928H30.0048V5.27138ZM34.1628 6.61231C33.8855 6.61231 33.6009 6.71569 33.3432 6.91015V5.27138H32.5169V9.928H33.3432V9.70092C33.6009 9.90215 33.8855 10.0055 34.1628 10.0055C35.0277 10.0055 35.6215 9.30585 35.6215 8.30892C35.6215 7.31138 35.0277 6.61231 34.1628 6.61231ZM38.2238 6.68985L37.4429 8.81415L36.6681 6.68985H35.8221L37.0552 9.81108L36.4356 11.3458H37.2361L39.0697 6.68985H38.2238ZM44.8484 6.33108C45.3778 6.33108 46.0507 6.49354 46.5807 6.78092V5.13477C46.0035 4.904 45.4269 4.81538 44.8496 4.81538C43.4368 4.81538 42.4952 5.55569 42.4952 6.79262C42.4952 8.72677 45.1428 8.41292 45.1428 9.24677C45.1428 9.56985 44.8631 9.67446 44.4748 9.67446C43.8975 9.67446 43.1528 9.43508 42.5682 9.11631V10.7846C43.216 11.064 43.8724 11.1809 44.473 11.1809C45.9213 11.1809 46.9194 10.4634 46.9194 9.20554C46.9194 7.12185 44.2564 7.496 44.2564 6.70954C44.2564 6.43692 44.4834 6.33108 44.8484 6.33108ZM50.4129 4.93169H49.0904L49.0891 3.41415L47.3887 3.77723L47.3807 9.38277C47.3807 10.4172 48.1567 11.1809 49.1903 11.1809C49.7596 11.1809 50.1804 11.0775 50.4123 10.9495V9.52738C50.1896 9.61662 49.0904 9.93723 49.0904 8.90769V6.42154H50.4129V4.93169ZM54.1519 4.93231C53.92 4.84862 53.106 4.696 52.698 5.448L52.5888 4.93169H51.0828V11.056H52.8238V6.904C53.2354 6.36185 53.9304 6.46646 54.1519 6.53846V4.93231ZM56.4364 2.60308L54.688 2.976V4.39938L56.4364 4.02646V2.60308ZM56.4364 4.93169H54.688V11.056H56.4364V4.93169ZM60.1943 4.81538C59.5116 4.81538 59.0705 5.13785 58.83 5.36308L58.7392 4.93169H57.2056L57.2062 13.088L58.9478 12.7163L58.9515 10.7391C59.2018 10.9231 59.5741 11.1809 60.1839 11.1809C61.4298 11.1809 62.5696 10.1754 62.5696 7.95508C62.5696 5.92062 61.4175 4.81538 60.1943 4.81538ZM65.6687 4.81538C64.0118 4.81538 63.0033 6.22831 63.0033 8.008C63.0033 10.1151 64.1922 11.1809 65.8889 11.1809C66.7214 11.1809 67.3465 10.9914 67.8195 10.728V9.32062C67.3447 9.56062 66.7999 9.70708 66.1086 9.70708C65.4295 9.70708 64.8314 9.46585 64.7535 8.64677H68.1636C68.1716 8.55262 68.1869 8.18646 68.1869 8.01723C68.1869 6.22769 67.3232 4.81538 65.6687 4.81538ZM65.6577 6.24C66.0852 6.24 66.5392 6.57046 66.5392 7.35692H64.7381C64.7381 6.56985 65.2221 6.24 65.6577 6.24ZM59.7778 9.63754C59.3692 9.63754 59.1257 9.48985 58.9564 9.30585L58.946 6.70954C59.1275 6.50954 59.3784 6.36308 59.7778 6.36308C60.4152 6.36308 60.8538 7.07939 60.8538 7.99323C60.8538 8.93415 60.4219 9.63754 59.7778 9.63754ZM33.9886 9.29292C33.7628 9.29292 33.5364 9.19569 33.3432 9.00185V7.616C33.5364 7.42154 33.7628 7.32431 33.9886 7.32431C34.4535 7.32431 34.7762 7.72615 34.7762 8.30892C34.7762 8.89169 34.4535 9.29292 33.9886 9.29292ZM28.5332 9.29292C28.0614 9.29292 27.7388 8.89169 27.7388 8.30892C27.7388 7.72615 28.0614 7.32431 28.5332 7.32431C28.7589 7.32431 28.9847 7.42154 29.1718 7.616V9.00185C28.9847 9.19569 28.7589 9.29292 28.5332 9.29292ZM25.0016 7.25292C25.369 7.25292 25.634 7.55754 25.6598 7.99815H24.2526C24.2912 7.55138 24.601 7.25292 25.0016 7.25292ZM19.1389 7.25292C19.507 7.25292 19.772 7.55754 19.7977 7.99815H18.3899C18.4291 7.55138 18.7389 7.25292 19.1389 7.25292ZM10.4549 9.31262C9.97094 9.31262 9.63539 8.90462 9.63539 8.30892C9.63539 7.71323 9.97094 7.30523 10.4549 7.30523C10.9328 7.30523 11.2684 7.71323 11.2684 8.30892C11.2684 8.90462 10.9328 9.31262 10.4549 9.31262ZM6.71048 7.65477H6.08415V6.14585H6.71048C7.18835 6.14585 7.52391 6.45046 7.52391 6.90339C7.52391 7.35015 7.18835 7.65477 6.71048 7.65477Z" fill="#181818"/>
</g>
<defs>
<clipPath id="clip0_384_26164">
<rect width="73" height="16" fill="white"/>
</clipPath>
</defs>
</svg>
