<svg width="340" height="348" viewBox="0 0 340 348" fill="none" xmlns="http://www.w3.org/2000/svg">
<g clip-path="url(#clip0_904_3371)">
<rect width="340" height="348" fill="#ECE9DB"/>
<mask id="mask0_904_3371" style="mask-type:luminance" maskUnits="userSpaceOnUse" x="-190" y="-67" width="671" height="448">
<path d="M480.634 -67H-190V380.089H480.634V-67Z" fill="white"/>
</mask>
<g mask="url(#mask0_904_3371)">
<g opacity="0.3">
<path d="M193.915 339.729H205.683L211.564 329.539L205.683 319.353H193.915L188.034 329.539L193.915 339.729Z" stroke="#7E6E4E" stroke-miterlimit="10"/>
<path d="M211.571 349.906H223.336L229.22 339.717L223.336 329.528H211.571L205.687 339.717L211.571 349.906Z" stroke="#7E6E4E" stroke-miterlimit="10"/>
<path d="M211.571 329.554H223.336L229.22 319.365L223.336 309.175H211.571L205.687 319.365L211.571 329.554Z" stroke="#7E6E4E" stroke-miterlimit="10"/>
<path d="M211.571 309.203H223.336L229.22 299.013L223.336 288.824H211.571L205.687 299.013L211.571 309.203Z" stroke="#7E6E4E" stroke-miterlimit="10"/>
<path d="M211.571 288.848H223.336L229.22 278.659L223.336 268.47H211.571L205.687 278.659L211.571 288.848Z" stroke="#7E6E4E" stroke-miterlimit="10"/>
<path d="M211.571 227.789H223.336L229.22 217.6L223.336 207.411H211.571L205.687 217.6L211.571 227.789Z" stroke="#7E6E4E" stroke-miterlimit="10"/>
<path d="M211.571 207.438H223.336L229.22 197.249L223.336 187.059H211.571L205.687 197.249L211.571 207.438Z" stroke="#7E6E4E" stroke-miterlimit="10"/>
<path d="M229.226 319.378H240.992L246.873 309.189L240.992 299H229.226L223.343 309.189L229.226 319.378Z" stroke="#7E6E4E" stroke-miterlimit="10"/>
<path d="M229.226 299.024H240.992L246.873 288.835L240.992 278.646H229.226L223.343 288.835L229.226 299.024Z" stroke="#7E6E4E" stroke-miterlimit="10"/>
<path d="M229.226 278.673H240.992L246.873 268.484L240.992 258.294H229.226L223.343 268.484L229.226 278.673Z" stroke="#7E6E4E" stroke-miterlimit="10"/>
<path d="M229.226 217.613H240.992L246.873 207.424L240.992 197.235H229.226L223.343 207.424L229.226 217.613Z" stroke="#7E6E4E" stroke-miterlimit="10"/>
<path d="M229.226 197.26H240.992L246.873 187.073L240.992 176.884H229.226L223.343 187.073L229.226 197.26Z" stroke="#7E6E4E" stroke-miterlimit="10"/>
<path d="M229.226 176.908H240.992L246.873 166.719L240.992 156.53H229.226L223.343 166.719L229.226 176.908Z" stroke="#7E6E4E" stroke-miterlimit="10"/>
<path d="M229.226 156.554H240.992L246.873 146.365L240.992 136.176H229.226L223.343 146.365L229.226 156.554Z" stroke="#7E6E4E" stroke-miterlimit="10"/>
<path d="M229.226 95.4973H240.992L246.873 85.3082L240.992 75.119H229.226L223.343 85.3082L229.226 95.4973Z" stroke="#7E6E4E" stroke-miterlimit="10"/>
<path d="M229.226 75.1433H240.992L246.873 64.9541L240.992 54.765H229.226L223.343 64.9541L229.226 75.1433Z" stroke="#7E6E4E" stroke-miterlimit="10"/>
<path d="M246.88 309.203H258.645L264.529 299.013L258.645 288.824H246.88L240.998 299.013L246.88 309.203Z" stroke="#7E6E4E" stroke-miterlimit="10"/>
<path d="M246.88 288.848H258.645L264.529 278.659L258.645 268.47H246.88L240.998 278.659L246.88 288.848Z" stroke="#7E6E4E" stroke-miterlimit="10"/>
<path d="M246.88 187.084H258.645L264.529 176.894L258.645 166.705H246.88L240.998 176.894L246.88 187.084Z" stroke="#7E6E4E" stroke-miterlimit="10"/>
<path d="M246.88 166.732H258.645L264.529 156.543L258.645 146.354H246.88L240.998 156.543L246.88 166.732Z" stroke="#7E6E4E" stroke-miterlimit="10"/>
<path d="M246.88 146.378H258.645L264.529 136.189L258.645 126H246.88L240.998 136.189L246.88 146.378Z" stroke="#7E6E4E" stroke-miterlimit="10"/>
<path d="M246.88 85.3189H258.645L264.529 75.1297L258.645 64.9406H246.88L240.998 75.1297L246.88 85.3189Z" stroke="#7E6E4E" stroke-miterlimit="10"/>
<path d="M246.88 64.9676H258.645L264.529 54.7785L258.645 44.5893H246.88L240.998 54.7785L246.88 64.9676Z" stroke="#7E6E4E" stroke-miterlimit="10"/>
<path d="M246.88 3.90956H258.645L264.529 -6.2796L258.645 -16.4688H246.88L240.998 -6.2796L246.88 3.90956Z" stroke="#7E6E4E" stroke-miterlimit="10"/>
<path d="M264.535 319.378H276.3L282.182 309.189L276.3 299H264.535L258.652 309.189L264.535 319.378Z" stroke="#7E6E4E" stroke-miterlimit="10"/>
<path d="M264.535 299.024H276.3L282.182 288.835L276.3 278.646H264.535L258.652 288.835L264.535 299.024Z" stroke="#7E6E4E" stroke-miterlimit="10"/>
<path d="M264.535 217.613H276.3L282.182 207.424L276.3 197.235H264.535L258.652 207.424L264.535 217.613Z" stroke="#7E6E4E" stroke-miterlimit="10"/>
<path d="M264.535 197.26H276.3L282.182 187.073L276.3 176.884H264.535L258.652 187.073L264.535 197.26Z" stroke="#7E6E4E" stroke-miterlimit="10"/>
<path d="M264.535 176.908H276.3L282.182 166.719L276.3 156.53H264.535L258.652 166.719L264.535 176.908Z" stroke="#7E6E4E" stroke-miterlimit="10"/>
<path d="M264.535 95.4973H276.3L282.182 85.3082L276.3 75.119H264.535L258.652 85.3082L264.535 95.4973Z" stroke="#7E6E4E" stroke-miterlimit="10"/>
<path d="M264.535 75.1433H276.3L282.182 64.9541L276.3 54.765H264.535L258.652 64.9541L264.535 75.1433Z" stroke="#7E6E4E" stroke-miterlimit="10"/>
<path d="M264.535 54.7898H276.3L282.182 44.6006L276.3 34.4137H264.535L258.652 44.6006L264.535 54.7898Z" stroke="#7E6E4E" stroke-miterlimit="10"/>
<path d="M282.189 309.203H293.954L299.838 299.013L293.954 288.824H282.189L276.305 299.013L282.189 309.203Z" stroke="#7E6E4E" stroke-miterlimit="10"/>
<path d="M282.189 288.848H293.954L299.838 278.659L293.954 268.47H282.189L276.305 278.659L282.189 288.848Z" stroke="#7E6E4E" stroke-miterlimit="10"/>
<path d="M282.189 268.497H293.954L299.838 258.308L293.954 248.119H282.189L276.305 258.308L282.189 268.497Z" stroke="#7E6E4E" stroke-miterlimit="10"/>
<path d="M282.189 248.143H293.954L299.838 237.954L293.954 227.765H282.189L276.305 237.954L282.189 248.143Z" stroke="#7E6E4E" stroke-miterlimit="10"/>
<path d="M282.189 227.789H293.954L299.838 217.6L293.954 207.411H282.189L276.305 217.6L282.189 227.789Z" stroke="#7E6E4E" stroke-miterlimit="10"/>
<path d="M282.189 207.438H293.954L299.838 197.249L293.954 187.059H282.189L276.305 197.249L282.189 207.438Z" stroke="#7E6E4E" stroke-miterlimit="10"/>
<path d="M282.189 187.084H293.954L299.838 176.894L293.954 166.705H282.189L276.305 176.894L282.189 187.084Z" stroke="#7E6E4E" stroke-miterlimit="10"/>
<path d="M282.189 166.732H293.954L299.838 156.543L293.954 146.354H282.189L276.305 156.543L282.189 166.732Z" stroke="#7E6E4E" stroke-miterlimit="10"/>
<path d="M282.189 85.3189H293.954L299.838 75.1297L293.954 64.9406H282.189L276.305 75.1297L282.189 85.3189Z" stroke="#7E6E4E" stroke-miterlimit="10"/>
<path d="M282.189 64.9676H293.954L299.838 54.7785L293.954 44.5893H282.189L276.305 54.7785L282.189 64.9676Z" stroke="#7E6E4E" stroke-miterlimit="10"/>
<path d="M282.189 44.6136H293.954L299.838 34.4244L293.954 24.2352H282.189L276.305 34.4244L282.189 44.6136Z" stroke="#7E6E4E" stroke-miterlimit="10"/>
<path d="M282.189 24.2622H293.954L299.838 14.0731L293.954 3.88391H282.189L276.305 14.0731L282.189 24.2622Z" stroke="#7E6E4E" stroke-miterlimit="10"/>
<path d="M299.844 339.729H311.609L317.491 329.539L311.609 319.353H299.844L293.96 329.539L299.844 339.729Z" stroke="#7E6E4E" stroke-miterlimit="10"/>
<path d="M299.844 319.378H311.609L317.491 309.189L311.609 299H299.844L293.96 309.189L299.844 319.378Z" stroke="#7E6E4E" stroke-miterlimit="10"/>
<path d="M299.844 299.024H311.609L317.491 288.835L311.609 278.646H299.844L293.96 288.835L299.844 299.024Z" stroke="#7E6E4E" stroke-miterlimit="10"/>
<path d="M299.844 278.673H311.609L317.491 268.484L311.609 258.294H299.844L293.96 268.484L299.844 278.673Z" stroke="#7E6E4E" stroke-miterlimit="10"/>
<path d="M299.844 258.319H311.609L317.491 248.13L311.609 237.94H299.844L293.96 248.13L299.844 258.319Z" stroke="#7E6E4E" stroke-miterlimit="10"/>
<path d="M299.844 237.967H311.609L317.491 227.778L311.609 217.589H299.844L293.96 227.778L299.844 237.967Z" stroke="#7E6E4E" stroke-miterlimit="10"/>
<path d="M299.844 217.613H311.609L317.491 207.424L311.609 197.235H299.844L293.96 207.424L299.844 217.613Z" stroke="#7E6E4E" stroke-miterlimit="10"/>
<path d="M299.844 197.26H311.609L317.491 187.073L311.609 176.884H299.844L293.96 187.073L299.844 197.26Z" stroke="#7E6E4E" stroke-miterlimit="10"/>
<path d="M299.844 176.908H311.609L317.491 166.719L311.609 156.53H299.844L293.96 166.719L299.844 176.908Z" stroke="#7E6E4E" stroke-miterlimit="10"/>
<path d="M299.844 156.554H311.609L317.491 146.365L311.609 136.176H299.844L293.96 146.365L299.844 156.554Z" stroke="#7E6E4E" stroke-miterlimit="10"/>
<path d="M299.844 95.4973H311.609L317.491 85.3082L311.609 75.119H299.844L293.96 85.3082L299.844 95.4973Z" stroke="#7E6E4E" stroke-miterlimit="10"/>
<path d="M299.844 75.1433H311.609L317.491 64.9541L311.609 54.765H299.844L293.96 64.9541L299.844 75.1433Z" stroke="#7E6E4E" stroke-miterlimit="10"/>
<path d="M299.844 54.7898H311.609L317.491 44.6006L311.609 34.4137H299.844L293.96 44.6006L299.844 54.7898Z" stroke="#7E6E4E" stroke-miterlimit="10"/>
<path d="M299.844 34.4379H311.609L317.491 24.2487L311.609 14.0596H299.844L293.96 24.2487L299.844 34.4379Z" stroke="#7E6E4E" stroke-miterlimit="10"/>
<path d="M317.497 349.906H329.263L335.146 339.717L329.263 329.528H317.497L311.616 339.717L317.497 349.906Z" stroke="#7E6E4E" stroke-miterlimit="10"/>
<path d="M317.497 329.554H329.263L335.146 319.365L329.263 309.175H317.497L311.616 319.365L317.497 329.554Z" stroke="#7E6E4E" stroke-miterlimit="10"/>
<path d="M317.497 309.203H329.263L335.146 299.013L329.263 288.824H317.497L311.616 299.013L317.497 309.203Z" stroke="#7E6E4E" stroke-miterlimit="10"/>
<path d="M317.497 288.848H329.263L335.146 278.659L329.263 268.47H317.497L311.616 278.659L317.497 288.848Z" stroke="#7E6E4E" stroke-miterlimit="10"/>
<path d="M317.497 268.497H329.263L335.146 258.308L329.263 248.119H317.497L311.616 258.308L317.497 268.497Z" stroke="#7E6E4E" stroke-miterlimit="10"/>
<path d="M317.497 248.143H329.263L335.146 237.954L329.263 227.765H317.497L311.616 237.954L317.497 248.143Z" stroke="#7E6E4E" stroke-miterlimit="10"/>
<path d="M317.497 227.789H329.263L335.146 217.6L329.263 207.411H317.497L311.616 217.6L317.497 227.789Z" stroke="#7E6E4E" stroke-miterlimit="10"/>
<path d="M317.497 207.438H329.263L335.146 197.249L329.263 187.059H317.497L311.616 197.249L317.497 207.438Z" stroke="#7E6E4E" stroke-miterlimit="10"/>
<path d="M317.497 187.084H329.263L335.146 176.894L329.263 166.705H317.497L311.616 176.894L317.497 187.084Z" stroke="#7E6E4E" stroke-miterlimit="10"/>
<path d="M317.497 166.732H329.263L335.146 156.543L329.263 146.354H317.497L311.616 156.543L317.497 166.732Z" stroke="#7E6E4E" stroke-miterlimit="10"/>
<path d="M317.497 146.378H329.263L335.146 136.189L329.263 126H317.497L311.616 136.189L317.497 146.378Z" stroke="#7E6E4E" stroke-miterlimit="10"/>
<path d="M317.497 126.025H329.263L335.146 115.836L329.263 105.649H317.497L311.616 115.836L317.497 126.025Z" stroke="#7E6E4E" stroke-miterlimit="10"/>
<path d="M317.497 105.673H329.263L335.146 95.4838L329.263 85.2947H317.497L311.616 95.4838L317.497 105.673Z" stroke="#7E6E4E" stroke-miterlimit="10"/>
<path d="M317.497 85.3189H329.263L335.146 75.1297L329.263 64.9406H317.497L311.616 75.1297L317.497 85.3189Z" stroke="#7E6E4E" stroke-miterlimit="10"/>
<path d="M317.497 64.9676H329.263L335.146 54.7785L329.263 44.5893H317.497L311.616 54.7785L317.497 64.9676Z" stroke="#7E6E4E" stroke-miterlimit="10"/>
<path d="M317.497 44.6136H329.263L335.146 34.4244L329.263 24.2352H317.497L311.616 34.4244L317.497 44.6136Z" stroke="#7E6E4E" stroke-miterlimit="10"/>
<path d="M317.497 24.2622H329.263L335.146 14.0731L329.263 3.88391H317.497L311.616 14.0731L317.497 24.2622Z" stroke="#7E6E4E" stroke-miterlimit="10"/>
<path d="M317.497 3.90956H329.263L335.146 -6.2796L329.263 -16.4688H317.497L311.616 -6.2796L317.497 3.90956Z" stroke="#7E6E4E" stroke-miterlimit="10"/>
<path d="M335.153 299.024H346.918L352.8 288.835L346.918 278.646H335.153L329.269 288.835L335.153 299.024Z" stroke="#7E6E4E" stroke-miterlimit="10"/>
<path d="M335.153 278.673H346.918L352.8 268.484L346.918 258.294H335.153L329.269 268.484L335.153 278.673Z" stroke="#7E6E4E" stroke-miterlimit="10"/>
<path d="M335.153 258.319H346.918L352.8 248.13L346.918 237.94H335.153L329.269 248.13L335.153 258.319Z" stroke="#7E6E4E" stroke-miterlimit="10"/>
<path d="M335.153 237.967H346.918L352.8 227.778L346.918 217.589H335.153L329.269 227.778L335.153 237.967Z" stroke="#7E6E4E" stroke-miterlimit="10"/>
<path d="M335.153 217.613H346.918L352.8 207.424L346.918 197.235H335.153L329.269 207.424L335.153 217.613Z" stroke="#7E6E4E" stroke-miterlimit="10"/>
<path d="M335.153 197.26H346.918L352.8 187.073L346.918 176.884H335.153L329.269 187.073L335.153 197.26Z" stroke="#7E6E4E" stroke-miterlimit="10"/>
<path d="M335.153 176.908H346.918L352.8 166.719L346.918 156.53H335.153L329.269 166.719L335.153 176.908Z" stroke="#7E6E4E" stroke-miterlimit="10"/>
<path d="M335.153 156.554H346.918L352.8 146.365L346.918 136.176H335.153L329.269 146.365L335.153 156.554Z" stroke="#7E6E4E" stroke-miterlimit="10"/>
<path d="M335.153 136.203H346.918L352.8 126.013L346.918 115.824H335.153L329.269 126.013L335.153 136.203Z" stroke="#7E6E4E" stroke-miterlimit="10"/>
<path d="M335.153 115.849H346.918L352.8 105.659L346.918 95.4703H335.153L329.269 105.659L335.153 115.849Z" stroke="#7E6E4E" stroke-miterlimit="10"/>
<path d="M335.153 95.4973H346.918L352.8 85.3082L346.918 75.119H335.153L329.269 85.3082L335.153 95.4973Z" stroke="#7E6E4E" stroke-miterlimit="10"/>
<path d="M335.153 75.1433H346.918L352.8 64.9541L346.918 54.765H335.153L329.269 64.9541L335.153 75.1433Z" stroke="#7E6E4E" stroke-miterlimit="10"/>
<path d="M335.153 54.7898H346.918L352.8 44.6006L346.918 34.4137H335.153L329.269 44.6006L335.153 54.7898Z" stroke="#7E6E4E" stroke-miterlimit="10"/>
<path d="M335.153 34.4379H346.918L352.8 24.2487L346.918 14.0596H335.153L329.269 24.2487L335.153 34.4379Z" stroke="#7E6E4E" stroke-miterlimit="10"/>
<path d="M335.153 14.0852H346.918L352.8 3.89607L346.918 -6.29309H335.153L329.269 3.89607L335.153 14.0852Z" stroke="#7E6E4E" stroke-miterlimit="10"/>
</g>
<g opacity="0.7">
<path d="M77.0689 392.642H111.184L128.243 363.098L111.184 333.552H77.0689L60.0102 363.098L77.0689 392.642Z" stroke="#7E6E4E" stroke-width="2" stroke-miterlimit="10"/>
<path d="M77.0689 333.626H111.184L128.243 304.082L111.184 274.536H77.0689L60.0102 304.082L77.0689 333.626Z" stroke="#7E6E4E" stroke-width="2" stroke-miterlimit="10"/>
<path d="M128.261 363.133H162.376L179.434 333.59L162.376 304.044H128.261L111.202 333.59L128.261 363.133Z" stroke="#7E6E4E" stroke-width="2" stroke-miterlimit="10"/>
<path d="M179.452 392.642H213.567L230.626 363.098L213.567 333.552H179.452L162.393 363.098L179.452 392.642Z" stroke="#7E6E4E" stroke-width="2" stroke-miterlimit="10"/>
<path d="M230.644 363.133H264.759L281.818 333.59L264.759 304.044H230.644L213.588 333.59L230.644 363.133Z" stroke="#7E6E4E" stroke-width="2" stroke-miterlimit="10"/>
<path d="M281.835 392.642H315.95L333.009 363.098L315.95 333.552H281.835L264.779 363.098L281.835 392.642Z" stroke="#7E6E4E" stroke-width="2" stroke-miterlimit="10"/>
<path d="M281.835 333.626H315.95L333.009 304.082L315.95 274.536H281.835L264.779 304.082L281.835 333.626Z" stroke="#7E6E4E" stroke-width="2" stroke-miterlimit="10"/>
<path d="M281.835 274.61H315.95L333.009 245.066L315.95 215.52H281.835L264.779 245.066L281.835 274.61Z" stroke="#7E6E4E" stroke-width="2" stroke-miterlimit="10"/>
<path d="M281.835 97.5628H315.95L333.009 68.0192L315.95 38.4733H281.835L264.779 68.0192L281.835 97.5628Z" stroke="#7E6E4E" stroke-width="2" stroke-miterlimit="10"/>
<path d="M333.027 363.133H367.143L384.201 333.59L367.143 304.044H333.027L315.971 333.59L333.027 363.133Z" stroke="#7E6E4E" stroke-width="2" stroke-miterlimit="10"/>
<path d="M333.027 245.102H367.143L384.201 215.559L367.143 186.013H333.027L315.971 215.559L333.027 245.102Z" stroke="#7E6E4E" stroke-width="2" stroke-miterlimit="10"/>
<path d="M333.027 68.0554H367.143L384.201 38.5118L367.143 8.96594H333.027L315.971 38.5118L333.027 68.0554Z" stroke="#7E6E4E" stroke-width="2" stroke-miterlimit="10"/>
<path d="M333.027 9.03936H367.143L384.201 -20.5043L367.143 -50.0502H333.027L315.971 -20.5043L333.027 9.03936Z" stroke="#7E6E4E" stroke-width="2" stroke-miterlimit="10"/>
<path d="M-25.3147 392.642H8.8004L25.8591 363.098L8.8004 333.552H-25.3147L-42.3734 363.098L-25.3147 392.642Z" stroke="#7E6E4E" stroke-width="2" stroke-miterlimit="10"/>
<path d="M-25.3147 333.626H8.8004L25.8591 304.082L8.8004 274.536H-25.3147L-42.3734 304.082L-25.3147 333.626Z" stroke="#7E6E4E" stroke-width="2" stroke-miterlimit="10"/>
<path d="M77.0689 392.642H111.184L128.243 363.098L111.184 333.552H77.0689L60.0102 363.098L77.0689 392.642Z" stroke="#7E6E4E" stroke-width="2" stroke-miterlimit="10"/>
<path d="M77.0689 333.626H111.184L128.243 304.082L111.184 274.536H77.0689L60.0102 304.082L77.0689 333.626Z" stroke="#7E6E4E" stroke-width="2" stroke-miterlimit="10"/>
<path d="M128.261 363.133H162.376L179.434 333.59L162.376 304.044H128.261L111.202 333.59L128.261 363.133Z" stroke="#7E6E4E" stroke-width="2" stroke-miterlimit="10"/>
<path d="M179.452 392.642H213.567L230.626 363.098L213.567 333.552H179.452L162.393 363.098L179.452 392.642Z" stroke="#7E6E4E" stroke-width="2" stroke-miterlimit="10"/>
<path d="M179.452 333.626H213.567L230.626 304.082L213.567 274.536H179.452L162.393 304.082L179.452 333.626Z" stroke="#7E6E4E" stroke-width="2" stroke-miterlimit="10"/>
</g>
</g>
<path style="mix-blend-mode:screen" d="M330.116 332.769C417.865 332.769 489 261.634 489 173.884C489 86.1349 417.865 15 330.116 15C242.366 15 171.231 86.1349 171.231 173.884C171.231 261.634 242.366 332.769 330.116 332.769Z" fill="url(#paint0_radial_904_3371)"/>
<path d="M220.068 182.264L223.497 172.824L226.085 179.707L227.062 182.262H227.408L228.822 178.231L229.724 175.664L232.064 169.004C232.253 168.488 232.536 168.125 232.915 167.913C233.124 167.789 233.431 167.698 233.832 167.639V167.225H229.396V167.639C229.833 167.653 230.158 167.709 230.378 167.805C230.771 167.97 230.966 168.252 230.966 168.668C230.962 168.822 230.944 168.975 230.912 169.125C230.839 169.517 230.73 169.9 230.586 170.271L227.791 177.851L224.562 169.474C224.445 169.171 224.371 168.967 224.343 168.869C224.311 168.756 224.296 168.64 224.298 168.523C224.298 168.144 224.464 167.887 224.801 167.763C225.012 167.689 225.397 167.65 225.96 167.642V167.228H219.975V167.642C220.449 167.65 220.801 167.705 221.032 167.808C221.427 167.973 221.72 168.305 221.917 168.802L222.963 171.541L220.602 177.801L217.372 169.404C217.29 169.183 217.232 169.006 217.192 168.868C217.152 168.729 217.132 168.586 217.131 168.442C217.131 168.116 217.297 167.891 217.635 167.767C217.823 167.701 218.14 167.66 218.584 167.646V167.232H213.107V167.646C213.763 167.683 214.245 167.946 214.554 168.436C214.862 168.927 215.405 170.251 216.181 172.411L218.062 177.638L219.727 182.264H220.068Z" fill="#7E6E4E"/>
<path d="M330.297 72.4491C329.49 72.3663 328.972 72.1949 328.738 71.9573C328.38 71.5838 328.201 70.793 328.201 69.5742V60.8796L338.085 73.129H338.467V61.3707C338.467 60.2025 338.608 59.454 338.891 59.125C339.175 58.796 339.742 58.5884 340.594 58.5023V58.0883H335.346V58.5023C336.168 58.576 336.699 58.73 336.94 58.9685C337.302 59.3367 337.484 60.1313 337.484 61.3524V68.7751L328.861 58.0932H325.052V58.5073C325.511 58.5213 325.855 58.5752 326.082 58.6671C326.309 58.759 326.59 58.9983 326.917 59.38L327.222 59.7402V69.5684C327.222 70.75 327.092 71.4985 326.83 71.8207C326.568 72.1428 325.976 72.3547 325.052 72.4491V72.8632H330.299L330.297 72.4491Z" fill="#7E6E4E"/>
<path d="M332.31 289.095C330.995 289.095 329.895 288.574 329.01 287.533C328.501 286.937 328.059 286.137 327.685 285.132H327.173L327.835 289.889H328.328C328.357 289.709 328.417 289.535 328.506 289.376C328.598 289.216 328.773 289.137 329.037 289.137C329.145 289.137 329.576 289.266 330.329 289.529C331.024 289.779 331.755 289.912 332.494 289.921C333.869 289.921 334.998 289.529 335.881 288.745C336.764 287.961 337.206 286.979 337.206 285.811C337.206 284.937 336.958 284.179 336.461 283.541C335.964 282.904 335.091 282.216 333.863 281.459L331.902 280.246C331.166 279.797 330.625 279.363 330.278 278.946C329.928 278.538 329.743 278.015 329.756 277.477C329.756 276.837 329.985 276.335 330.436 275.975C330.892 275.618 331.457 275.429 332.036 275.439C332.821 275.439 333.615 275.722 334.419 276.288C335.223 276.855 335.806 277.854 336.17 279.287H336.705L336.213 274.532H335.754C335.713 274.733 335.628 274.923 335.505 275.088C335.4 275.219 335.209 275.284 334.933 275.284C334.83 275.284 334.422 275.158 333.708 274.906C332.989 274.658 332.377 274.532 331.868 274.532C330.631 274.532 329.637 274.906 328.887 275.654C328.136 276.402 327.761 277.341 327.761 278.469C327.761 279.32 328.078 280.098 328.71 280.804C329.118 281.229 329.58 281.599 330.084 281.905L331.989 283.094C333.086 283.779 333.803 284.289 334.142 284.632C334.392 284.88 334.591 285.176 334.726 285.501C334.86 285.827 334.928 286.177 334.926 286.53C334.926 287.338 334.666 287.967 334.146 288.418C333.639 288.864 332.985 289.105 332.31 289.095Z" fill="#7E6E4E"/>
<path d="M250.767 167.564L250.729 168.059L256.497 168.501L256.535 168.006L250.767 167.564Z" fill="#7E6E4E"/>
<path d="M251.451 161.496L251.377 161.986L257.096 162.855L257.17 162.365L251.451 161.496Z" fill="#7E6E4E"/>
<path d="M252.638 155.509L252.527 155.993L258.166 157.288L258.277 156.804L252.638 155.509Z" fill="#7E6E4E"/>
<path d="M254.223 149.613L254.076 150.087L259.601 151.8L259.748 151.326L254.223 149.613Z" fill="#7E6E4E"/>
<path d="M256.283 143.859L256.101 144.321L261.483 146.444L261.665 145.982L256.283 143.859Z" fill="#7E6E4E"/>
<path d="M258.74 138.275L258.524 138.722L263.731 141.242L263.947 140.796L258.74 138.275Z" fill="#7E6E4E"/>
<path d="M262.243 131.842L261.995 132.271L267 135.174L267.248 134.745L262.243 131.842Z" fill="#7E6E4E"/>
<path d="M264.901 127.749L264.621 128.158L269.396 131.424L269.676 131.015L264.901 127.749Z" fill="#7E6E4E"/>
<path d="M268.547 122.837L268.238 123.224L272.757 126.836L273.066 126.448L268.547 122.837Z" fill="#7E6E4E"/>
<path d="M272.546 118.231L272.209 118.594L276.447 122.531L276.784 122.168L272.546 118.231Z" fill="#7E6E4E"/>
<path d="M276.876 113.935L276.513 114.272L280.45 118.511L280.814 118.174L276.876 113.935Z" fill="#7E6E4E"/>
<path d="M281.515 109.968L281.127 110.278L284.738 114.797L285.126 114.487L281.515 109.968Z" fill="#7E6E4E"/>
<path d="M286.422 106.326L286.013 106.606L289.279 111.38L289.689 111.1L286.422 106.326Z" fill="#7E6E4E"/>
<path d="M291.605 103.115L291.177 103.363L294.079 108.367L294.507 108.119L291.605 103.115Z" fill="#7E6E4E"/>
<path d="M296.999 100.257L296.552 100.473L299.072 105.68L299.518 105.464L296.999 100.257Z" fill="#7E6E4E"/>
<path d="M302.606 97.8398L302.144 98.0219L304.267 103.403L304.729 103.221L302.606 97.8398Z" fill="#7E6E4E"/>
<path d="M308.364 95.8047L307.89 95.9516L309.604 101.477L310.078 101.33L308.364 95.8047Z" fill="#7E6E4E"/>
<path d="M314.271 94.2519L313.787 94.3629L315.082 100.001L315.565 99.89L314.271 94.2519Z" fill="#7E6E4E"/>
<path d="M320.268 93.0947L319.778 93.1691L320.647 98.8882L321.137 98.8139L320.268 93.0947Z" fill="#7E6E4E"/>
<path d="M326.338 92.4544L325.844 92.4922L326.285 98.2601L326.78 98.2222L326.338 92.4544Z" fill="#7E6E4E"/>
<path d="M338.54 92.458L338.097 98.2258L338.592 98.2637L339.035 92.4959L338.54 92.458Z" fill="#7E6E4E"/>
<path d="M338.579 250.051L338.085 250.089L338.526 255.856L339.021 255.818L338.579 250.051Z" fill="#7E6E4E"/>
<path d="M326.272 250.033L325.83 255.801L326.325 255.839L326.767 250.071L326.272 250.033Z" fill="#7E6E4E"/>
<path d="M320.636 249.396L319.77 255.115L320.26 255.19L321.126 249.47L320.636 249.396Z" fill="#7E6E4E"/>
<path d="M315.074 248.299L313.784 253.939L314.268 254.049L315.558 248.409L315.074 248.299Z" fill="#7E6E4E"/>
<path d="M309.598 246.825L307.884 252.351L308.358 252.498L310.072 246.972L309.598 246.825Z" fill="#7E6E4E"/>
<path d="M304.269 244.923L302.143 250.304L302.604 250.486L304.731 245.105L304.269 244.923Z" fill="#7E6E4E"/>
<path d="M299.069 242.624L296.545 247.83L296.992 248.046L299.515 242.84L299.069 242.624Z" fill="#7E6E4E"/>
<path d="M294.08 239.964L291.178 244.968L291.607 245.217L294.509 240.213L294.08 239.964Z" fill="#7E6E4E"/>
<path d="M289.281 236.896L286.015 241.67L286.424 241.95L289.69 237.176L289.281 236.896Z" fill="#7E6E4E"/>
<path d="M284.739 233.506L281.125 238.024L281.512 238.334L285.127 233.816L284.739 233.506Z" fill="#7E6E4E"/>
<path d="M280.449 229.798L276.512 234.036L276.875 234.374L280.812 230.136L280.449 229.798Z" fill="#7E6E4E"/>
<path d="M276.451 225.765L272.211 229.702L272.549 230.065L276.788 226.128L276.451 225.765Z" fill="#7E6E4E"/>
<path d="M272.759 221.467L268.24 225.078L268.549 225.466L273.068 221.855L272.759 221.467Z" fill="#7E6E4E"/>
<path d="M269.386 216.912L264.611 220.178L264.891 220.587L269.666 217.321L269.386 216.912Z" fill="#7E6E4E"/>
<path d="M266.391 212.078L261.386 214.981L261.635 215.409L266.64 212.507L266.391 212.078Z" fill="#7E6E4E"/>
<path d="M263.721 207.086L258.514 209.605L258.73 210.052L263.937 207.532L263.721 207.086Z" fill="#7E6E4E"/>
<path d="M261.477 201.874L256.096 203.997L256.278 204.458L261.659 202.335L261.477 201.874Z" fill="#7E6E4E"/>
<path d="M259.603 196.506L254.078 198.219L254.225 198.693L259.75 196.979L259.603 196.506Z" fill="#7E6E4E"/>
<path d="M258.163 191.024L252.525 192.318L252.636 192.802L258.274 191.508L258.163 191.024Z" fill="#7E6E4E"/>
<path d="M257.219 185.673L251.492 186.541L251.566 187.031L257.293 186.164L257.219 185.673Z" fill="#7E6E4E"/>
<path d="M256.496 179.809L250.728 180.251L250.766 180.746L256.534 180.304L256.496 179.809Z" fill="#7E6E4E"/>
<path d="M394.535 234.543L370.246 212.107L370.21 212.074L369.66 212.67L369.62 212.715L369.384 212.97L369.674 213.238L393.679 235.412C378.084 250.934 356.595 260.542 332.913 260.542H332.842L332.688 261.758C332.762 261.758 332.838 261.758 332.913 261.758C380.796 261.758 419.8 223.055 420.304 175.289L419.084 175.445C418.796 198.412 409.484 219.24 394.535 234.543Z" fill="#7E6E4E"/>
<path d="M245.521 173.316L246.742 173.157C247.064 149.739 256.769 128.548 272.266 113.184L293.903 136.677L295.476 138.387L295.928 137.973L296.452 138.305C304.206 130.465 314.463 125.115 325.911 123.545L326.071 122.298C314.677 123.792 304.089 128.99 295.94 137.093L273.136 112.334C288.101 97.9056 308.251 88.8294 330.483 88.2108L330.642 86.9853C283.838 88.1835 246.072 126.358 245.521 173.316Z" fill="#7E6E4E"/>
<path d="M330.483 261.725L330.327 260.499C307.225 259.816 286.386 249.999 271.287 234.544L295.702 211.389L293.963 211.867L294.578 210.211L270.441 233.67C256.011 218.48 247.053 198.048 246.742 175.564L245.521 175.405C246.076 222.308 283.755 260.444 330.483 261.725Z" fill="#7E6E4E"/>
<path d="M332.913 86.9556C332.784 86.9556 332.657 86.9597 332.529 86.9605L332.686 88.1769H332.913C356.079 88.1769 377.138 97.3683 392.641 112.291L368.856 136.114L369.497 135.694L369.859 137.072L370.379 136.28L393.512 113.141C409.06 128.534 418.79 149.787 419.082 173.272L420.302 173.428C419.801 125.661 380.795 86.9556 332.913 86.9556Z" fill="#7E6E4E"/>
<path d="M286.107 168.031C287.373 158.638 291.445 149.846 297.789 142.805L297.109 141.733C290.396 149.08 286.115 158.322 284.854 168.194L286.107 168.031Z" fill="#7E6E4E"/>
<path d="M297.545 205.629C291.341 198.636 287.359 189.955 286.108 180.691L284.856 180.526C286.102 190.265 290.288 199.393 296.854 206.692L297.545 205.629Z" fill="#7E6E4E"/>
<path d="M364.25 209.665C357.057 216.057 347.911 220.295 337.828 221.34L337.671 222.583C347.953 221.571 357.64 217.288 365.307 210.362L364.25 209.665Z" fill="#7E6E4E"/>
<path d="M337.749 127.365C347.89 128.402 357.085 132.664 364.305 139.099L365.363 138.404C357.667 131.433 347.927 127.128 337.59 126.13L337.749 127.365Z" fill="#7E6E4E"/>
<path d="M299.977 140.536C306.785 133.904 315.577 129.304 325.371 127.727L325.537 126.46C315.245 128.038 306.014 132.87 298.918 139.863L299.977 140.536Z" fill="#7E6E4E"/>
<path d="M325.295 220.975C315.87 219.431 307.138 215.06 300.254 208.441L299.2 209.124C306.239 215.95 315.331 220.673 325.456 222.242L325.295 220.975Z" fill="#7E6E4E"/>
<path d="M295.259 209.158C288.029 201.342 283.198 191.28 281.942 180.149L280.694 179.983C281.937 191.607 286.994 202.102 294.578 210.207L295.259 209.158Z" fill="#7E6E4E"/>
<path d="M337.219 123.247C348.986 124.231 359.635 129.196 367.81 136.797L368.855 136.112C360.397 128.163 349.313 122.978 337.058 122.015L337.219 123.247Z" fill="#7E6E4E"/>
<path d="M367.751 211.972C359.604 219.523 349.01 224.461 337.304 225.46L337.148 226.695C349.34 225.716 360.366 220.563 368.796 212.659L367.751 211.972Z" fill="#7E6E4E"/>
<path d="M325.827 225.16C314.824 223.626 304.618 218.555 296.749 210.711L295.703 211.389C303.861 219.604 314.509 224.886 325.986 226.41L325.827 225.16Z" fill="#7E6E4E"/>
<path d="M281.94 168.573C283.212 157.295 288.151 147.119 295.541 139.26L294.87 138.2C287.122 146.347 281.952 156.962 280.693 168.736L281.94 168.573Z" fill="#7E6E4E"/>
<path d="M294.779 211.502L321.856 193.97L320.876 186.275L294.779 211.502Z" fill="#7E6E4E"/>
<path d="M320.739 163.521L320.812 162.961L295.657 138.679L312.119 164.643L320.739 163.521Z" fill="#7E6E4E"/>
<path d="M331.587 270.389L331.607 270.235L331.567 270.233L331.587 270.389Z" fill="#7E6E4E"/>
<path d="M331.788 268.805L331.904 267.895L332.686 261.755L332.84 260.538L337.146 226.693L337.302 225.458L337.669 222.579L337.826 221.337L341.24 194.509L364.248 209.662L365.305 210.358L367.75 211.969L368.794 212.656L369.672 213.236L369.382 212.967L369.618 212.712L341.298 194.062L342.426 185.202L343.036 185.124L369.66 212.673L370.21 212.076L370.245 212.11L369.914 211.6L369.312 210.689L369.229 210.565L367.625 208.13L366.936 207.086L351.743 184.017L379.745 180.456L380.992 180.297L383.909 179.926L385.157 179.767L419.082 175.448L420.302 175.293L426.46 174.509L426.791 174.466C426.791 174.402 426.791 174.335 426.786 174.258L426.455 174.215L426.025 174.161L420.297 173.432L419.077 173.276L401.341 171.02L385.152 168.96L383.905 168.801L380.988 168.429L379.74 168.271L351.713 164.704L366.885 141.593L367.572 140.548L369.173 138.107L369.853 137.073L370.372 136.282L370.225 136.429L369.49 135.695L368.849 136.116L367.804 136.802L365.358 138.407L364.3 139.102L341.224 154.245L337.746 127.364L337.587 126.129L337.214 123.247L337.055 122.015L332.682 88.1769L332.524 86.9605L331.789 81.2726V81.261L331.733 80.8213L331.436 80.8329L330.641 86.9845L330.482 88.21L326.073 122.295L325.912 123.543L325.535 126.459L325.369 127.726L321.913 154.441L299.975 140.535L298.915 139.862L296.452 138.302L295.929 137.971L295.477 138.385L293.903 136.675L294.87 138.199L295.541 139.258L297.109 141.731L297.789 142.803L311.674 164.7L286.107 168.028L284.854 168.194L281.94 168.574L280.693 168.74L246.743 173.161L245.522 173.32L239.363 174.122L239.051 174.564L239.364 174.605L244.889 175.324L245.522 175.407L246.743 175.566L280.693 179.989L281.94 180.155L284.855 180.535L286.107 180.701L311.549 184.013L297.544 205.635L296.854 206.701L295.258 209.164L294.577 210.216L292.992 212.664L293.279 212.964L295.702 211.391L296.748 210.713L299.199 209.127L300.253 208.445L306.711 204.264L321.915 194.42L325.295 220.976L325.456 222.242L325.827 225.16L325.986 226.41L330.328 260.498L330.483 261.724L331.268 267.888L331.788 268.805ZM331.83 265.272L332.83 173.878L342.031 185.08L331.83 265.272ZM369.92 212.349L343.54 185.06L351.292 184.074L369.92 212.349ZM342.328 184.805L333.066 173.527L423.075 174.528L342.328 184.805ZM422.49 174.117L333.118 173.123L333.129 173.113L342.32 163.921L422.49 174.117ZM351.269 164.646L343.536 163.662L369.659 136.634L351.269 164.646ZM369.599 136.115L343.033 163.598L342.423 163.52L341.283 154.698L369.599 136.115ZM342.025 163.634L332.83 172.833L331.836 84.7429L342.025 163.634ZM331.417 84.1641L332.427 172.882L321.139 163.614L331.417 84.1641ZM321.857 154.886L320.877 162.46L296.152 138.594L321.857 154.886ZM295.657 138.678L320.812 162.96L320.74 163.52L312.119 164.646L295.657 138.678ZM320.862 163.912L332.07 173.121L242.502 174.119L320.862 163.912ZM241.961 174.531L332.136 173.527L320.852 184.805L241.961 174.531ZM311.996 184.064L320.74 185.203L320.813 185.773L294.269 211.435L311.996 184.064ZM294.779 211.502L320.876 186.274L321.856 193.969L294.779 211.502ZM331.415 265.822L321.136 185.097L332.422 173.818L331.415 265.822Z" fill="#7E6E4E"/>
<path d="M332.427 172.883L331.418 84.1646L321.14 163.614L332.427 172.883Z" fill="#7E6E4E"/>
<path d="M331.83 265.272L342.03 185.081L332.828 173.879L331.83 265.272Z" fill="#7E6E4E"/>
<path d="M333.126 173.109H333.129L333.118 173.12L422.491 174.117L342.317 163.914L333.126 173.109Z" fill="#7E6E4E"/>
<path d="M332.135 173.528L241.962 174.532L320.851 184.807L332.135 173.528Z" fill="#7E6E4E"/>
<path d="M332.822 268.968C307.626 268.968 283.938 259.156 266.121 241.34C248.305 223.523 238.493 199.838 238.493 174.64C238.493 149.443 248.306 125.756 266.121 107.94C283.937 90.1237 307.626 80.3129 332.822 80.3129C358.018 80.3129 381.706 90.1212 399.521 107.94C417.337 125.759 427.149 149.444 427.149 174.64C427.149 199.836 417.337 223.524 399.521 241.34C381.705 259.155 358.018 268.968 332.822 268.968ZM332.822 81.5045C281.466 81.5045 239.685 123.285 239.685 174.64C239.685 225.996 281.466 267.777 332.822 267.777C384.177 267.777 425.958 225.996 425.958 174.64C425.958 123.285 384.177 81.5045 332.822 81.5045Z" fill="#7E6E4E"/>
<path d="M256.201 239.081L254.082 243.769L257.493 242.171L258.766 241.583L258.893 241.706L257.969 243.694L257.38 244.959L255.856 248.238C255.743 248.455 255.713 248.706 255.773 248.943C255.825 249.099 255.906 249.245 256.011 249.372L255.864 249.523L254.236 247.937L254.385 247.785C254.505 247.905 254.645 248.004 254.799 248.077C254.886 248.118 254.984 248.13 255.079 248.111C255.174 248.092 255.26 248.042 255.324 247.97C255.377 247.912 255.425 247.849 255.467 247.783C255.58 247.613 255.677 247.434 255.758 247.246L257.444 243.467L253.273 245.381C253.121 245.451 253.024 245.499 252.975 245.525C252.924 245.555 252.877 245.592 252.836 245.636C252.772 245.691 252.728 245.766 252.712 245.85C252.696 245.933 252.709 246.019 252.748 246.094C252.853 246.264 252.981 246.418 253.129 246.552L252.981 246.704L250.787 244.563L250.935 244.412C251.063 244.545 251.214 244.653 251.38 244.731C251.585 244.813 251.812 244.793 252.06 244.683L253.424 244.052L254.798 240.912L250.609 242.836C250.5 242.888 250.415 242.931 250.35 242.968C250.286 243.004 250.228 243.05 250.176 243.103C250.12 243.157 250.084 243.229 250.074 243.306C250.063 243.384 250.079 243.463 250.119 243.53C250.203 243.671 250.305 243.8 250.424 243.913L250.276 244.065L248.269 242.106L248.416 241.955C248.671 242.176 248.942 242.252 249.229 242.183C249.517 242.114 250.189 241.822 251.247 241.308L253.814 240.061L256.08 238.96L256.201 239.081Z" fill="#7E6E4E"/>
<path d="M264.25 247.275C263.768 246.805 263.178 246.602 262.481 246.668C262.012 246.724 261.557 246.861 261.135 247.072L260.947 246.889L262.892 245.382L263.074 245.559C263.02 245.634 262.98 245.718 262.955 245.807C262.931 245.898 262.968 245.99 263.065 246.085C263.104 246.124 263.308 246.23 263.678 246.403C264.023 246.559 264.339 246.772 264.612 247.034C265.117 247.525 265.391 248.073 265.435 248.677C265.46 248.961 265.423 249.247 265.325 249.515C265.228 249.782 265.072 250.025 264.87 250.226C264.584 250.533 264.201 250.733 263.785 250.792C263.373 250.845 262.807 250.789 262.088 250.626L260.934 250.37C260.59 250.28 260.233 250.245 259.878 250.266C259.604 250.291 259.348 250.416 259.161 250.618C259.054 250.718 258.972 250.843 258.922 250.981C258.872 251.119 258.855 251.267 258.873 251.412C258.912 251.706 259.052 251.978 259.268 252.182C259.555 252.463 259.948 252.643 260.446 252.722C260.943 252.802 261.515 252.644 262.16 252.249L262.357 252.441L260.475 254.008L260.31 253.843C260.367 253.755 260.404 253.655 260.418 253.551C260.427 253.468 260.38 253.373 260.279 253.275C260.242 253.238 260.046 253.138 259.694 252.975C259.398 252.847 259.125 252.671 258.886 252.454C258.433 252.012 258.202 251.52 258.196 250.978C258.191 250.71 258.242 250.445 258.344 250.198C258.446 249.951 258.598 249.728 258.79 249.543C259.104 249.226 259.527 249.042 259.973 249.026C260.274 249.016 260.576 249.046 260.87 249.114L261.995 249.362C262.642 249.504 263.087 249.573 263.335 249.57C263.516 249.569 263.694 249.532 263.86 249.46C264.026 249.389 264.176 249.286 264.302 249.156C264.59 248.859 264.72 248.536 264.691 248.185C264.663 247.837 264.505 247.512 264.25 247.275Z" fill="#7E6E4E"/>
<path d="M260.156 108.232C259.851 108.498 259.614 108.631 259.449 108.635C259.191 108.635 258.842 108.437 258.397 108.025L255.22 105.083L263.036 105.616L263.165 105.477L258.87 101.502C258.444 101.106 258.218 100.803 258.194 100.591C258.169 100.38 258.285 100.102 258.542 99.7591L258.391 99.6191L256.616 101.536L256.768 101.676C257.071 101.4 257.308 101.258 257.476 101.251C257.734 101.243 258.085 101.446 258.531 101.859L261.242 104.364L254.423 103.899L253.134 105.291L253.286 105.431C253.402 105.302 253.54 105.193 253.692 105.109C253.802 105.055 253.984 105.035 254.235 105.045L254.47 105.055L258.063 108.382C258.494 108.783 258.725 109.084 258.753 109.287C258.782 109.491 258.658 109.778 258.382 110.149L258.532 110.289L260.307 108.373L260.156 108.232Z" fill="#7E6E4E"/>
<path d="M267.175 102.204L265.231 97.44L268.581 99.164L269.83 99.7983L269.962 99.6799L269.113 97.6627L268.573 96.3759L267.166 93.0422C267.062 92.8209 267.043 92.5692 267.113 92.335C267.171 92.1807 267.257 92.0386 267.368 91.9161L267.225 91.7587L265.541 93.284L265.683 93.4413C265.809 93.3255 265.954 93.2323 266.111 93.1656C266.2 93.1268 266.299 93.1181 266.393 93.1408C266.487 93.1636 266.571 93.2165 266.632 93.2914C266.684 93.3512 266.729 93.4155 266.769 93.4836C266.876 93.6573 266.966 93.8405 267.039 94.0309L268.585 97.8697L264.478 95.7996C264.329 95.7243 264.229 95.6721 264.186 95.6448C264.136 95.6124 264.09 95.5734 264.05 95.5288C263.989 95.471 263.948 95.3941 263.935 95.3104C263.922 95.2268 263.938 95.1412 263.98 95.0676C264.091 94.9018 264.225 94.7524 264.378 94.6238L264.235 94.4665L261.964 96.5242L262.105 96.6815C262.238 96.5535 262.393 96.451 262.562 96.3793C262.674 96.3448 262.792 96.3334 262.909 96.346C263.026 96.3585 263.138 96.3946 263.241 96.4521L264.58 97.1328L265.841 100.322L261.726 98.244C261.62 98.1885 261.536 98.1413 261.478 98.1024C261.416 98.0634 261.36 98.016 261.312 97.9617C261.258 97.9051 261.225 97.832 261.217 97.7542C261.21 97.6764 261.229 97.5984 261.271 97.5327C261.36 97.3945 261.467 97.2691 261.589 97.1601L261.448 97.0036L259.369 98.8858L259.511 99.0431C259.773 98.8322 260.046 98.7662 260.332 98.8452C260.617 98.9241 261.279 99.2404 262.319 99.7941L264.836 101.136L267.06 102.32L267.175 102.204Z" fill="#7E6E4E"/>
<path d="M267.814 108.005L264.855 103.945L268.951 106.915L267.814 108.005Z" fill="#7E6E4E"/>
<path d="M264.07 239.215L260.916 243.125L265.151 240.358L264.07 239.215Z" fill="#7E6E4E"/>
<path d="M46.637 43.7559L32.6209 34.0337L46.2088 24.7559H40.6423L29.6521 32.4918C28.9099 33.0145 28.7386 33.4326 28.7386 34.0076C28.7386 34.5303 28.8528 34.9484 29.4808 35.3927L41.0991 43.7559H46.637ZM27.6253 43.7559V24.7559H24V43.7559H27.6253Z" fill="#7E6E4E"/>
<path d="M62.7084 43.7559C66.762 43.7559 69.3882 41.456 69.3882 38.0062C69.3882 35.7847 68.018 34.2689 66.1339 33.7201C67.6754 33.2758 68.9885 32.0736 68.9885 29.6692C68.9885 26.4285 66.3338 24.7559 62.3088 24.7559H48.5781V28.0488H61.5951C63.993 28.0488 65.3347 28.6499 65.3347 30.401C65.3347 32.0475 64.3641 32.7008 62.3088 32.7008H53.4024V35.4973H62.5657C64.5925 35.4973 65.7058 36.3597 65.7058 37.9278C65.7058 39.5743 64.1072 40.4367 61.8235 40.4367H48.4925V43.7559H62.7084Z" fill="#7E6E4E"/>
<path d="M86.3202 43.7559C90.3738 43.7559 93 41.456 93 38.0062C93 35.7847 91.6298 34.2689 89.7457 33.7201C91.2872 33.2758 92.6004 32.0736 92.6004 29.6692C92.6004 26.4285 89.9456 24.7559 85.9206 24.7559H72.1899V28.0488H85.2069C87.6048 28.0488 88.9465 28.6499 88.9465 30.401C88.9465 32.0475 87.9759 32.7008 85.9206 32.7008H77.0142V35.4973H86.1775C88.2043 35.4973 89.3176 36.3597 89.3176 37.9278C89.3176 39.5743 87.719 40.4367 85.4353 40.4367H72.1043V43.7559H86.3202Z" fill="#7E6E4E"/>
<path d="M32.7361 53.7275L30.4984 51.6369C31.4589 51.2964 32.0311 50.4923 32.0311 49.3572C32.0311 47.8248 31.0297 46.8505 29.3336 46.8505H24V53.7275H25.2874V48.0518H29.3336C30.2226 48.0518 30.7539 48.4869 30.7539 49.3761C30.7539 50.2653 30.2634 50.7572 29.3336 50.7572H26.2377V51.8167H29.0169L30.8969 53.7275H32.7361Z" fill="#7E6E4E"/>
<path d="M40.0509 53.7275V52.5261H34.6969V48.0518H40.0407V46.8505H33.4094V53.7275H40.0509ZM39.7648 50.7383V49.7261H35.6471V50.7383H39.7648Z" fill="#7E6E4E"/>
<path d="M46.7311 53.7275C48.2842 53.7275 49.0403 52.8667 49.0403 51.7126C49.0403 50.3788 48.2331 49.7261 46.7311 49.7261H43.3286C42.7564 49.7261 42.3988 49.414 42.3988 48.8937C42.3988 48.3734 42.7462 48.0518 43.3388 48.0518H48.6725V46.8505H43.3388C41.8573 46.8505 41.0501 47.6734 41.0501 48.7802C41.0501 49.9153 41.9186 50.7383 43.3184 50.7383H46.7311C47.4259 50.7383 47.8142 51.041 47.8142 51.6275C47.8142 52.1667 47.4259 52.5261 46.7311 52.5261H41.1625V53.7275H46.7311Z" fill="#7E6E4E"/>
<path d="M56.7943 53.7275V52.5261H51.4402V48.0518H56.7841V46.8505H50.1528V53.7275H56.7943ZM56.5082 50.7383V49.7261H52.3905V50.7383H56.5082Z" fill="#7E6E4E"/>
<path d="M67.2141 53.7275L62.9329 47.1437C62.7797 46.9072 62.5958 46.7559 62.3097 46.7559C62.0236 46.7559 61.8294 46.9072 61.6762 47.1437L57.4052 53.7275H58.8868L62.2586 48.4491L63.9138 51.0221H61.6353L61.0222 51.9964H64.5371L65.6508 53.7275H67.2141Z" fill="#7E6E4E"/>
<path d="M76.7499 53.7275L74.5122 51.6369C75.4726 51.2964 76.0448 50.4923 76.0448 49.3572C76.0448 47.8248 75.0435 46.8505 73.3474 46.8505H68.0138V53.7275H69.3012V48.0518H73.3474C74.2363 48.0518 74.7676 48.4869 74.7676 49.3761C74.7676 50.2653 74.2772 50.7572 73.3474 50.7572H70.2514V51.8167H73.0306L74.9107 53.7275H76.7499Z" fill="#7E6E4E"/>
<path d="M84.6716 53.7275V52.5261H80.6458C79.3073 52.5261 78.3366 51.5707 78.3366 50.2748C78.3366 48.9694 79.3175 48.0518 80.6458 48.0518H84.6716V46.8505H80.6458C78.5716 46.8505 77.039 48.1937 77.039 50.218C77.039 52.214 78.5716 53.7275 80.6458 53.7275H84.6716Z" fill="#7E6E4E"/>
<path d="M93 53.7559V46.8505H91.7024V49.6978H87.9627V50.7667H91.7024V53.7559H93ZM87.0227 53.7559V46.8505H85.725V53.7559H87.0227Z" fill="#7E6E4E"/>
<path d="M24.7305 140.518C25.0768 140.527 25.6191 140.554 26.3574 140.6C27.1048 140.636 27.638 140.654 27.957 140.654C28.2396 140.654 28.7318 140.636 29.4336 140.6C30.1445 140.554 30.6686 140.527 31.0059 140.518C31.1335 140.855 31.3203 141.215 31.5664 141.598C31.8125 141.971 32.1361 142.395 32.5371 142.869L42.5859 154.723C42.5768 153.538 42.5632 151.956 42.5449 149.979C42.5085 145.631 42.4401 143.257 42.3398 142.855C42.2122 142.418 42.0117 142.122 41.7383 141.967C41.4648 141.803 41.0137 141.721 40.3848 141.721H39.9336V140.518C40.9271 140.563 41.6836 140.6 42.2031 140.627C42.7227 140.645 43.151 140.654 43.4883 140.654C43.8893 140.654 44.3724 140.645 44.9375 140.627C45.5026 140.6 46.2135 140.563 47.0703 140.518V141.721H46.8242C46.2409 141.721 45.8125 141.789 45.5391 141.926C45.2656 142.053 45.0697 142.281 44.9512 142.609C44.8053 143.047 44.7005 145.102 44.6367 148.775V148.994L44.582 151.961C44.5638 153.1 44.5501 154.171 44.541 155.174C44.5319 156.167 44.5273 157.001 44.5273 157.676C44.5273 158.122 44.541 158.555 44.5684 158.975C44.6048 159.394 44.6549 159.799 44.7188 160.191H42.0391C41.9297 159.964 41.7702 159.704 41.5605 159.412C41.3509 159.12 40.9499 158.624 40.3574 157.922L29.3242 145.016C29.3242 149.327 29.347 152.421 29.3926 154.299C29.4382 156.167 29.5065 157.27 29.5977 157.607C29.7253 158.045 29.9258 158.35 30.1992 158.523C30.4818 158.688 30.9375 158.77 31.5664 158.77H31.9902V160C30.9512 159.945 30.1628 159.909 29.625 159.891C29.0964 159.872 28.6589 159.863 28.3125 159.863C28.0208 159.863 27.6198 159.872 27.1094 159.891C26.6081 159.909 25.806 159.945 24.7031 160V158.77C24.776 158.779 24.849 158.788 24.9219 158.797C25.0039 158.797 25.1178 158.797 25.2637 158.797C26.5671 158.797 27.2324 157.006 27.2598 153.424C27.2689 152.631 27.2734 152.016 27.2734 151.578L27.3145 148.666C27.3145 148.074 27.3236 147.226 27.3418 146.123C27.36 145.011 27.3691 144.3 27.3691 143.99C27.3691 143.106 27.2142 142.505 26.9043 142.186C26.5944 141.857 26.0384 141.693 25.2363 141.693C25.1816 141.693 25.0951 141.698 24.9766 141.707C24.8672 141.716 24.7852 141.721 24.7305 141.721V140.518ZM56.4766 153.479C56.276 153.533 55.9844 153.615 55.6016 153.725C52.9948 154.445 51.6914 155.297 51.6914 156.281C51.6914 156.828 51.8691 157.288 52.2246 157.662C52.5801 158.027 53.0267 158.209 53.5645 158.209C53.9108 158.209 54.3027 158.122 54.7402 157.949C55.1868 157.776 55.7656 157.48 56.4766 157.061V153.479ZM61.9316 157.676L62.4375 158.715C61.6081 159.262 60.8607 159.672 60.1953 159.945C59.5391 160.21 58.9512 160.342 58.4316 160.342C57.8027 160.342 57.3197 160.182 56.9824 159.863C56.6543 159.535 56.4629 159.043 56.4082 158.387C55.4147 159.079 54.5762 159.581 53.8926 159.891C53.209 160.191 52.5938 160.342 52.0469 160.342C51.0898 160.342 50.2741 159.973 49.5996 159.234C48.9251 158.487 48.5879 157.594 48.5879 156.555C48.5879 154.805 50.543 153.479 54.4531 152.576C55.3008 152.376 55.9661 152.216 56.4492 152.098C56.4583 151.87 56.4629 151.651 56.4629 151.441C56.472 151.223 56.4766 151.013 56.4766 150.812C56.4766 149.837 56.2852 149.126 55.9023 148.68C55.5286 148.233 54.9271 148.01 54.0977 148.01C53.5599 148.01 53.0951 148.119 52.7031 148.338C52.3203 148.557 52.1152 148.812 52.0879 149.104C52.0788 149.149 52.0742 149.208 52.0742 149.281C52.0195 150.193 51.4453 150.648 50.3516 150.648C49.9414 150.648 49.627 150.58 49.4082 150.443C49.1895 150.307 49.0801 150.106 49.0801 149.842C49.0801 149.113 49.75 148.297 51.0898 147.395C52.4388 146.483 53.8516 146.027 55.3281 146.027C56.7682 146.027 57.862 146.406 58.6094 147.162C59.3568 147.91 59.7305 149.008 59.7305 150.457C59.7305 150.895 59.694 151.801 59.6211 153.178C59.5573 154.545 59.5254 155.698 59.5254 156.637C59.5254 157.193 59.5983 157.594 59.7441 157.84C59.89 158.086 60.1178 158.209 60.4277 158.209C60.6009 158.209 60.8151 158.163 61.0703 158.072C61.3255 157.981 61.6126 157.849 61.9316 157.676ZM62.3691 146.451C63.1257 146.506 63.7682 146.547 64.2969 146.574C64.8346 146.602 65.2767 146.615 65.623 146.615C66.2428 146.615 66.8398 146.602 67.4141 146.574C67.9883 146.547 68.5671 146.506 69.1504 146.451V147.654H68.8359C68.3893 147.654 68.0658 147.718 67.8652 147.846C67.6738 147.973 67.5781 148.178 67.5781 148.461C67.5781 148.835 67.9701 150.056 68.7539 152.125C69.4375 153.911 69.9889 155.397 70.4082 156.582L71.2012 154.654C72.7598 150.917 73.5391 148.816 73.5391 148.352C73.5391 148.096 73.4434 147.914 73.252 147.805C73.0605 147.686 72.737 147.627 72.2812 147.627H72.0898V146.451C72.6185 146.506 73.1107 146.547 73.5664 146.574C74.0312 146.602 74.4505 146.615 74.8242 146.615C75.1706 146.615 75.8314 146.574 76.8066 146.492C77.071 146.474 77.2669 146.46 77.3945 146.451L77.4082 147.654H77.1758C76.8203 147.654 76.5195 147.773 76.2734 148.01C76.0273 148.238 75.7402 148.698 75.4121 149.391C73.9355 152.626 72.8008 155.165 72.0078 157.006C71.2148 158.838 70.7819 159.927 70.709 160.273H68.3848C68.3483 160 68.084 159.207 67.5918 157.895C67.0996 156.582 66.0879 154.021 64.5566 150.211C64.5111 150.092 64.4427 149.919 64.3516 149.691C63.8138 148.333 63.2168 147.654 62.5605 147.654H62.3691V146.451ZM81.7969 139.137L83.041 139.984C83.3509 140.194 83.5788 140.413 83.7246 140.641C83.8796 140.868 83.957 141.115 83.957 141.379C83.957 141.652 83.8978 141.889 83.7793 142.09C83.6608 142.281 83.4512 142.482 83.1504 142.691L81.8242 143.594L80.5938 142.773C80.2656 142.564 80.0195 142.345 79.8555 142.117C79.7005 141.889 79.623 141.652 79.623 141.406C79.623 141.133 79.6868 140.891 79.8145 140.682C79.9421 140.472 80.1745 140.249 80.5117 140.012L81.7969 139.137ZM83.7109 146C83.6562 147.969 83.6107 149.687 83.5742 151.154C83.5469 152.622 83.5332 153.825 83.5332 154.764V156.363C83.5332 157.43 83.638 158.113 83.8477 158.414C84.0664 158.706 84.4766 158.852 85.0781 158.852C85.1237 158.852 85.1921 158.847 85.2832 158.838C85.3835 158.829 85.4655 158.824 85.5293 158.824V160C84.6908 159.945 83.957 159.904 83.3281 159.877C82.6992 159.85 82.1797 159.836 81.7695 159.836C81.4232 159.836 80.9538 159.85 80.3613 159.877C79.778 159.904 79.0807 159.945 78.2695 160V158.824H78.5566C79.7233 158.824 80.3112 157.749 80.3203 155.598C80.3203 155.251 80.3203 154.982 80.3203 154.791L80.3477 151.879V150.676C80.3477 149.655 80.2656 148.999 80.1016 148.707C79.9375 148.415 79.6185 148.27 79.1445 148.27C79.0807 148.27 78.9349 148.279 78.707 148.297C78.6068 148.306 78.5293 148.315 78.4746 148.324L78.2695 147.23C79.2357 147.103 80.1654 146.939 81.0586 146.738C81.9518 146.538 82.8359 146.292 83.7109 146ZM93.8008 147.312C92.9714 147.312 92.3151 147.604 91.832 148.188C91.349 148.771 91.1074 149.573 91.1074 150.594C91.1074 151.715 91.349 152.594 91.832 153.232C92.3151 153.861 92.9896 154.176 93.8555 154.176C94.7122 154.176 95.3822 153.893 95.8652 153.328C96.3483 152.754 96.5898 151.952 96.5898 150.922C96.5898 149.728 96.3529 148.83 95.8789 148.229C95.4141 147.618 94.7214 147.312 93.8008 147.312ZM91.3535 160.219C90.9889 160.602 90.7201 160.966 90.5469 161.312C90.3828 161.659 90.3008 162.005 90.3008 162.352C90.3008 163.154 90.6608 163.824 91.3809 164.361C92.1009 164.908 93.0169 165.182 94.1289 165.182C95.4141 165.182 96.4896 164.876 97.3555 164.266C98.2305 163.655 98.668 162.926 98.668 162.078C98.668 161.385 98.4036 160.902 97.875 160.629C97.3555 160.355 96.2845 160.219 94.6621 160.219H91.3535ZM97.4375 146.957C98.4857 146.957 99.2878 146.948 99.8438 146.93C100.409 146.911 100.942 146.88 101.443 146.834L101.402 148.461C101.001 148.415 100.564 148.383 100.09 148.365C99.625 148.338 99.0872 148.324 98.4766 148.324C98.8867 148.698 99.1875 149.104 99.3789 149.541C99.5794 149.969 99.6797 150.439 99.6797 150.949C99.6797 152.216 99.1419 153.278 98.0664 154.135C97 154.982 95.6602 155.406 94.0469 155.406C93.8828 155.406 93.5775 155.393 93.1309 155.365C93.0397 155.356 92.9714 155.352 92.9258 155.352C92.7344 155.47 92.5384 155.607 92.3379 155.762C92.1465 155.908 91.9232 156.099 91.668 156.336C91.8594 156.618 92.0508 156.86 92.2422 157.061C92.4336 157.261 92.6341 157.439 92.8438 157.594H94.3203H96.9316C98.3991 157.594 99.4883 157.867 100.199 158.414C100.91 158.952 101.266 159.781 101.266 160.902C101.266 161.65 101.033 162.411 100.568 163.186C100.113 163.96 99.4701 164.653 98.6406 165.264C97.8659 165.847 96.9681 166.303 95.9473 166.631C94.9264 166.968 93.9193 167.137 92.9258 167.137C91.3398 167.137 90.041 166.772 89.0293 166.043C88.0267 165.314 87.5254 164.402 87.5254 163.309C87.5254 162.643 87.7441 162.01 88.1816 161.408C88.6191 160.816 89.3529 160.16 90.3828 159.439C89.9727 159.057 89.6354 158.669 89.3711 158.277C89.1068 157.876 88.8926 157.443 88.7285 156.979C89.0658 156.632 89.4577 156.299 89.9043 155.98C90.3509 155.661 90.8522 155.352 91.4082 155.051C90.2689 154.768 89.3984 154.285 88.7969 153.602C88.2044 152.909 87.9082 152.038 87.9082 150.99C87.9082 149.614 88.4779 148.443 89.6172 147.477C90.7565 146.51 92.151 146.027 93.8008 146.027C94.5391 146.027 95.1908 146.1 95.7559 146.246C96.3301 146.392 96.8906 146.629 97.4375 146.957ZM110.891 153.479C110.69 153.533 110.398 153.615 110.016 153.725C107.409 154.445 106.105 155.297 106.105 156.281C106.105 156.828 106.283 157.288 106.639 157.662C106.994 158.027 107.441 158.209 107.979 158.209C108.325 158.209 108.717 158.122 109.154 157.949C109.601 157.776 110.18 157.48 110.891 157.061V153.479ZM116.346 157.676L116.852 158.715C116.022 159.262 115.275 159.672 114.609 159.945C113.953 160.21 113.365 160.342 112.846 160.342C112.217 160.342 111.734 160.182 111.396 159.863C111.068 159.535 110.877 159.043 110.822 158.387C109.829 159.079 108.99 159.581 108.307 159.891C107.623 160.191 107.008 160.342 106.461 160.342C105.504 160.342 104.688 159.973 104.014 159.234C103.339 158.487 103.002 157.594 103.002 156.555C103.002 154.805 104.957 153.479 108.867 152.576C109.715 152.376 110.38 152.216 110.863 152.098C110.872 151.87 110.877 151.651 110.877 151.441C110.886 151.223 110.891 151.013 110.891 150.812C110.891 149.837 110.699 149.126 110.316 148.68C109.943 148.233 109.341 148.01 108.512 148.01C107.974 148.01 107.509 148.119 107.117 148.338C106.734 148.557 106.529 148.812 106.502 149.104C106.493 149.149 106.488 149.208 106.488 149.281C106.434 150.193 105.859 150.648 104.766 150.648C104.355 150.648 104.041 150.58 103.822 150.443C103.604 150.307 103.494 150.106 103.494 149.842C103.494 149.113 104.164 148.297 105.504 147.395C106.853 146.483 108.266 146.027 109.742 146.027C111.182 146.027 112.276 146.406 113.023 147.162C113.771 147.91 114.145 149.008 114.145 150.457C114.145 150.895 114.108 151.801 114.035 153.178C113.971 154.545 113.939 155.698 113.939 156.637C113.939 157.193 114.012 157.594 114.158 157.84C114.304 158.086 114.532 158.209 114.842 158.209C115.015 158.209 115.229 158.163 115.484 158.072C115.74 157.981 116.027 157.849 116.346 157.676ZM121.678 143.648L122.881 143.99C122.826 144.501 122.776 144.988 122.73 145.453C122.694 145.909 122.671 146.342 122.662 146.752C123.856 146.752 124.745 146.743 125.328 146.725C125.911 146.706 126.449 146.679 126.941 146.643L126.586 148.516C126.012 148.47 125.392 148.438 124.727 148.42C124.07 148.393 123.382 148.383 122.662 148.393C122.635 149.596 122.612 150.626 122.594 151.482C122.585 152.33 122.58 152.995 122.58 153.479C122.58 155.475 122.721 156.778 123.004 157.389C123.296 157.99 123.806 158.291 124.535 158.291C124.827 158.291 125.16 158.232 125.533 158.113C125.907 157.995 126.331 157.812 126.805 157.566L127.338 158.715C126.335 159.28 125.442 159.708 124.658 160C123.874 160.301 123.227 160.451 122.717 160.451C121.55 160.451 120.689 160.087 120.133 159.357C119.577 158.619 119.299 157.48 119.299 155.939C119.299 155.639 119.322 154.65 119.367 152.973C119.422 151.296 119.449 149.764 119.449 148.379C119.431 148.379 119.212 148.388 118.793 148.406C118.383 148.424 117.9 148.443 117.344 148.461V147.148C118.401 146.993 119.285 146.629 119.996 146.055C120.716 145.471 121.277 144.669 121.678 143.648ZM132.219 139.137L133.463 139.984C133.773 140.194 134.001 140.413 134.146 140.641C134.301 140.868 134.379 141.115 134.379 141.379C134.379 141.652 134.32 141.889 134.201 142.09C134.083 142.281 133.873 142.482 133.572 142.691L132.246 143.594L131.016 142.773C130.688 142.564 130.441 142.345 130.277 142.117C130.122 141.889 130.045 141.652 130.045 141.406C130.045 141.133 130.109 140.891 130.236 140.682C130.364 140.472 130.596 140.249 130.934 140.012L132.219 139.137ZM134.133 146C134.078 147.969 134.033 149.687 133.996 151.154C133.969 152.622 133.955 153.825 133.955 154.764V156.363C133.955 157.43 134.06 158.113 134.27 158.414C134.488 158.706 134.898 158.852 135.5 158.852C135.546 158.852 135.614 158.847 135.705 158.838C135.805 158.829 135.887 158.824 135.951 158.824V160C135.113 159.945 134.379 159.904 133.75 159.877C133.121 159.85 132.602 159.836 132.191 159.836C131.845 159.836 131.376 159.85 130.783 159.877C130.2 159.904 129.503 159.945 128.691 160V158.824H128.979C130.145 158.824 130.733 157.749 130.742 155.598C130.742 155.251 130.742 154.982 130.742 154.791L130.77 151.879V150.676C130.77 149.655 130.688 148.999 130.523 148.707C130.359 148.415 130.04 148.27 129.566 148.27C129.503 148.27 129.357 148.279 129.129 148.297C129.029 148.306 128.951 148.315 128.896 148.324L128.691 147.23C129.658 147.103 130.587 146.939 131.48 146.738C132.374 146.538 133.258 146.292 134.133 146ZM142.924 146L142.705 148.242C143.799 147.458 144.733 146.889 145.508 146.533C146.283 146.178 146.971 146 147.572 146C149.003 146 150.079 146.419 150.799 147.258C151.528 148.087 151.893 149.318 151.893 150.949C151.893 151.259 151.883 151.979 151.865 153.109C151.847 154.23 151.838 155.201 151.838 156.021C151.838 157.361 151.934 158.168 152.125 158.441C152.326 158.715 152.722 158.852 153.314 158.852H153.602L153.574 160C152.763 159.945 152.07 159.904 151.496 159.877C150.922 159.85 150.457 159.836 150.102 159.836C149.719 159.836 149.245 159.85 148.68 159.877C148.124 159.904 147.477 159.945 146.738 160V158.852H146.902C148.033 158.852 148.611 157.712 148.639 155.434C148.639 155.361 148.639 155.306 148.639 155.27V152.385C148.639 150.808 148.456 149.746 148.092 149.199C147.727 148.652 147.107 148.379 146.232 148.379C145.758 148.379 145.248 148.479 144.701 148.68C144.154 148.871 143.553 149.172 142.896 149.582C142.86 150.402 142.833 151.255 142.814 152.139C142.796 153.023 142.787 153.971 142.787 154.982V156.104C142.787 157.334 142.883 158.1 143.074 158.4C143.275 158.701 143.667 158.852 144.25 158.852H144.469V160C143.703 159.945 143.033 159.904 142.459 159.877C141.885 159.85 141.397 159.836 140.996 159.836C140.604 159.836 140.121 159.85 139.547 159.877C138.973 159.904 138.307 159.945 137.551 160V158.852H137.865C138.995 158.852 139.57 157.708 139.588 155.42C139.588 155.146 139.592 154.937 139.602 154.791L139.629 151.961V150.758C139.629 149.728 139.547 149.062 139.383 148.762C139.228 148.452 138.936 148.297 138.508 148.297C138.426 148.297 138.243 148.311 137.961 148.338C137.906 148.347 137.865 148.352 137.838 148.352L137.756 147.285C138.512 147.167 139.31 147.003 140.148 146.793C140.987 146.583 141.912 146.319 142.924 146ZM161.613 147.312C160.784 147.312 160.128 147.604 159.645 148.188C159.161 148.771 158.92 149.573 158.92 150.594C158.92 151.715 159.161 152.594 159.645 153.232C160.128 153.861 160.802 154.176 161.668 154.176C162.525 154.176 163.195 153.893 163.678 153.328C164.161 152.754 164.402 151.952 164.402 150.922C164.402 149.728 164.165 148.83 163.691 148.229C163.227 147.618 162.534 147.312 161.613 147.312ZM159.166 160.219C158.801 160.602 158.533 160.966 158.359 161.312C158.195 161.659 158.113 162.005 158.113 162.352C158.113 163.154 158.473 163.824 159.193 164.361C159.913 164.908 160.829 165.182 161.941 165.182C163.227 165.182 164.302 164.876 165.168 164.266C166.043 163.655 166.48 162.926 166.48 162.078C166.48 161.385 166.216 160.902 165.688 160.629C165.168 160.355 164.097 160.219 162.475 160.219H159.166ZM165.25 146.957C166.298 146.957 167.1 146.948 167.656 146.93C168.221 146.911 168.755 146.88 169.256 146.834L169.215 148.461C168.814 148.415 168.376 148.383 167.902 148.365C167.438 148.338 166.9 148.324 166.289 148.324C166.699 148.698 167 149.104 167.191 149.541C167.392 149.969 167.492 150.439 167.492 150.949C167.492 152.216 166.954 153.278 165.879 154.135C164.812 154.982 163.473 155.406 161.859 155.406C161.695 155.406 161.39 155.393 160.943 155.365C160.852 155.356 160.784 155.352 160.738 155.352C160.547 155.47 160.351 155.607 160.15 155.762C159.959 155.908 159.736 156.099 159.48 156.336C159.672 156.618 159.863 156.86 160.055 157.061C160.246 157.261 160.447 157.439 160.656 157.594H162.133H164.744C166.212 157.594 167.301 157.867 168.012 158.414C168.723 158.952 169.078 159.781 169.078 160.902C169.078 161.65 168.846 162.411 168.381 163.186C167.925 163.96 167.283 164.653 166.453 165.264C165.678 165.847 164.781 166.303 163.76 166.631C162.739 166.968 161.732 167.137 160.738 167.137C159.152 167.137 157.854 166.772 156.842 166.043C155.839 165.314 155.338 164.402 155.338 163.309C155.338 162.643 155.557 162.01 155.994 161.408C156.432 160.816 157.165 160.16 158.195 159.439C157.785 159.057 157.448 158.669 157.184 158.277C156.919 157.876 156.705 157.443 156.541 156.979C156.878 156.632 157.27 156.299 157.717 155.98C158.163 155.661 158.665 155.352 159.221 155.051C158.081 154.768 157.211 154.285 156.609 153.602C156.017 152.909 155.721 152.038 155.721 150.99C155.721 149.614 156.29 148.443 157.43 147.477C158.569 146.51 159.964 146.027 161.613 146.027C162.352 146.027 163.003 146.1 163.568 146.246C164.143 146.392 164.703 146.629 165.25 146.957ZM27.1641 172.518C27.5104 172.527 28.0527 172.554 28.791 172.6C29.5384 172.636 30.0716 172.654 30.3906 172.654C30.6732 172.654 31.1654 172.636 31.8672 172.6C32.5781 172.554 33.1022 172.527 33.4395 172.518C33.5671 172.855 33.7539 173.215 34 173.598C34.2461 173.971 34.5697 174.395 34.9707 174.869L45.0195 186.723C45.0104 185.538 44.9967 183.956 44.9785 181.979C44.9421 177.631 44.8737 175.257 44.7734 174.855C44.6458 174.418 44.4453 174.122 44.1719 173.967C43.8984 173.803 43.4473 173.721 42.8184 173.721H42.3672V172.518C43.3607 172.563 44.1172 172.6 44.6367 172.627C45.1562 172.645 45.5846 172.654 45.9219 172.654C46.3229 172.654 46.806 172.645 47.3711 172.627C47.9362 172.6 48.6471 172.563 49.5039 172.518V173.721H49.2578C48.6745 173.721 48.2461 173.789 47.9727 173.926C47.6992 174.053 47.5033 174.281 47.3848 174.609C47.2389 175.047 47.1341 177.102 47.0703 180.775V180.994L47.0156 183.961C46.9974 185.1 46.9837 186.171 46.9746 187.174C46.9655 188.167 46.9609 189.001 46.9609 189.676C46.9609 190.122 46.9746 190.555 47.002 190.975C47.0384 191.394 47.0885 191.799 47.1523 192.191H44.4727C44.3633 191.964 44.2038 191.704 43.9941 191.412C43.7845 191.12 43.3835 190.624 42.791 189.922L31.7578 177.016C31.7578 181.327 31.7806 184.421 31.8262 186.299C31.8717 188.167 31.9401 189.27 32.0312 189.607C32.1589 190.045 32.3594 190.35 32.6328 190.523C32.9154 190.688 33.3711 190.77 34 190.77H34.4238V192C33.3848 191.945 32.5964 191.909 32.0586 191.891C31.5299 191.872 31.0924 191.863 30.7461 191.863C30.4544 191.863 30.0534 191.872 29.543 191.891C29.0417 191.909 28.2396 191.945 27.1367 192V190.77C27.2096 190.779 27.2826 190.788 27.3555 190.797C27.4375 190.797 27.5514 190.797 27.6973 190.797C29.0007 190.797 29.666 189.006 29.6934 185.424C29.7025 184.631 29.707 184.016 29.707 183.578L29.748 180.666C29.748 180.074 29.7572 179.226 29.7754 178.123C29.7936 177.011 29.8027 176.3 29.8027 175.99C29.8027 175.106 29.6478 174.505 29.3379 174.186C29.028 173.857 28.472 173.693 27.6699 173.693C27.6152 173.693 27.5286 173.698 27.4102 173.707C27.3008 173.716 27.2188 173.721 27.1641 173.721V172.518ZM58.9102 185.479C58.7096 185.533 58.418 185.615 58.0352 185.725C55.4284 186.445 54.125 187.297 54.125 188.281C54.125 188.828 54.3027 189.288 54.6582 189.662C55.0137 190.027 55.4603 190.209 55.998 190.209C56.3444 190.209 56.7363 190.122 57.1738 189.949C57.6204 189.776 58.1992 189.48 58.9102 189.061V185.479ZM64.3652 189.676L64.8711 190.715C64.0417 191.262 63.2943 191.672 62.6289 191.945C61.9727 192.21 61.3848 192.342 60.8652 192.342C60.2363 192.342 59.7533 192.182 59.416 191.863C59.0879 191.535 58.8965 191.043 58.8418 190.387C57.8483 191.079 57.0098 191.581 56.3262 191.891C55.6426 192.191 55.0273 192.342 54.4805 192.342C53.5234 192.342 52.7077 191.973 52.0332 191.234C51.3587 190.487 51.0215 189.594 51.0215 188.555C51.0215 186.805 52.9766 185.479 56.8867 184.576C57.7344 184.376 58.3997 184.216 58.8828 184.098C58.8919 183.87 58.8965 183.651 58.8965 183.441C58.9056 183.223 58.9102 183.013 58.9102 182.812C58.9102 181.837 58.7188 181.126 58.3359 180.68C57.9622 180.233 57.3607 180.01 56.5312 180.01C55.9935 180.01 55.5286 180.119 55.1367 180.338C54.7539 180.557 54.5488 180.812 54.5215 181.104C54.5124 181.149 54.5078 181.208 54.5078 181.281C54.4531 182.193 53.8789 182.648 52.7852 182.648C52.375 182.648 52.0605 182.58 51.8418 182.443C51.623 182.307 51.5137 182.106 51.5137 181.842C51.5137 181.113 52.1836 180.297 53.5234 179.395C54.8724 178.483 56.2852 178.027 57.7617 178.027C59.2018 178.027 60.2956 178.406 61.043 179.162C61.7904 179.91 62.1641 181.008 62.1641 182.457C62.1641 182.895 62.1276 183.801 62.0547 185.178C61.9909 186.545 61.959 187.698 61.959 188.637C61.959 189.193 62.0319 189.594 62.1777 189.84C62.3236 190.086 62.5514 190.209 62.8613 190.209C63.0345 190.209 63.2487 190.163 63.5039 190.072C63.7591 189.981 64.0462 189.849 64.3652 189.676ZM70.8457 177.918C70.7819 178.775 70.7318 179.508 70.6953 180.119C70.6589 180.73 70.6361 181.263 70.627 181.719C71.4382 180.361 72.1354 179.431 72.7188 178.93C73.3021 178.419 73.9401 178.164 74.6328 178.164C75.1159 178.164 75.5352 178.342 75.8906 178.697C76.2461 179.053 76.4238 179.481 76.4238 179.982C76.4238 180.447 76.3099 180.816 76.082 181.09C75.8633 181.363 75.5671 181.5 75.1934 181.5C74.9837 181.5 74.6921 181.427 74.3184 181.281C73.9447 181.126 73.6484 181.049 73.4297 181.049C73.0195 181.049 72.6094 181.204 72.1992 181.514C71.7891 181.824 71.3105 182.343 70.7637 183.072C70.7637 183.364 70.7591 183.811 70.75 184.412C70.7409 185.014 70.7363 185.469 70.7363 185.779V187.297C70.7363 188.874 70.8776 189.867 71.1602 190.277C71.4427 190.678 71.9941 190.879 72.8145 190.879C72.8691 190.879 72.9557 190.874 73.0742 190.865C73.2018 190.856 73.3021 190.852 73.375 190.852V192H73.334C71.3014 191.872 69.9798 191.809 69.3691 191.809C68.8861 191.809 67.6602 191.868 65.6914 191.986H65.418V190.824H65.7871C66.4707 190.824 66.9355 190.656 67.1816 190.318C67.4277 189.981 67.5508 189.179 67.5508 187.912V186.258V183.291C67.5508 181.924 67.4642 181.081 67.291 180.762C67.127 180.434 66.8125 180.27 66.3477 180.27C66.293 180.27 66.1927 180.283 66.0469 180.311C65.901 180.329 65.7826 180.342 65.6914 180.352L65.582 179.258C66.4479 179.121 67.3138 178.943 68.1797 178.725C69.0456 178.506 69.9342 178.237 70.8457 177.918ZM83.3965 177.918C83.3327 178.775 83.2826 179.508 83.2461 180.119C83.2096 180.73 83.1868 181.263 83.1777 181.719C83.9889 180.361 84.6862 179.431 85.2695 178.93C85.8529 178.419 86.4909 178.164 87.1836 178.164C87.6667 178.164 88.0859 178.342 88.4414 178.697C88.7969 179.053 88.9746 179.481 88.9746 179.982C88.9746 180.447 88.8607 180.816 88.6328 181.09C88.4141 181.363 88.1178 181.5 87.7441 181.5C87.5345 181.5 87.2428 181.427 86.8691 181.281C86.4954 181.126 86.1992 181.049 85.9805 181.049C85.5703 181.049 85.1602 181.204 84.75 181.514C84.3398 181.824 83.8613 182.343 83.3145 183.072C83.3145 183.364 83.3099 183.811 83.3008 184.412C83.2917 185.014 83.2871 185.469 83.2871 185.779V187.297C83.2871 188.874 83.4284 189.867 83.7109 190.277C83.9935 190.678 84.5449 190.879 85.3652 190.879C85.4199 190.879 85.5065 190.874 85.625 190.865C85.7526 190.856 85.8529 190.852 85.9258 190.852V192H85.8848C83.8522 191.872 82.5306 191.809 81.9199 191.809C81.4368 191.809 80.2109 191.868 78.2422 191.986H77.9688V190.824H78.3379C79.0215 190.824 79.4863 190.656 79.7324 190.318C79.9785 189.981 80.1016 189.179 80.1016 187.912V186.258V183.291C80.1016 181.924 80.015 181.081 79.8418 180.762C79.6777 180.434 79.3633 180.27 78.8984 180.27C78.8438 180.27 78.7435 180.283 78.5977 180.311C78.4518 180.329 78.3333 180.342 78.2422 180.352L78.1328 179.258C78.9987 179.121 79.8646 178.943 80.7305 178.725C81.5964 178.506 82.485 178.237 83.3965 177.918ZM98.0664 185.479C97.8659 185.533 97.5742 185.615 97.1914 185.725C94.5846 186.445 93.2812 187.297 93.2812 188.281C93.2812 188.828 93.459 189.288 93.8145 189.662C94.1699 190.027 94.6165 190.209 95.1543 190.209C95.5007 190.209 95.8926 190.122 96.3301 189.949C96.7767 189.776 97.3555 189.48 98.0664 189.061V185.479ZM103.521 189.676L104.027 190.715C103.198 191.262 102.451 191.672 101.785 191.945C101.129 192.21 100.541 192.342 100.021 192.342C99.3926 192.342 98.9095 192.182 98.5723 191.863C98.2441 191.535 98.0527 191.043 97.998 190.387C97.0046 191.079 96.166 191.581 95.4824 191.891C94.7988 192.191 94.1836 192.342 93.6367 192.342C92.6797 192.342 91.8639 191.973 91.1895 191.234C90.515 190.487 90.1777 189.594 90.1777 188.555C90.1777 186.805 92.1328 185.479 96.043 184.576C96.8906 184.376 97.556 184.216 98.0391 184.098C98.0482 183.87 98.0527 183.651 98.0527 183.441C98.0618 183.223 98.0664 183.013 98.0664 182.812C98.0664 181.837 97.875 181.126 97.4922 180.68C97.1185 180.233 96.5169 180.01 95.6875 180.01C95.1497 180.01 94.6849 180.119 94.293 180.338C93.9102 180.557 93.7051 180.812 93.6777 181.104C93.6686 181.149 93.6641 181.208 93.6641 181.281C93.6094 182.193 93.0352 182.648 91.9414 182.648C91.5312 182.648 91.2168 182.58 90.998 182.443C90.7793 182.307 90.6699 182.106 90.6699 181.842C90.6699 181.113 91.3398 180.297 92.6797 179.395C94.0286 178.483 95.4414 178.027 96.918 178.027C98.3581 178.027 99.4518 178.406 100.199 179.162C100.947 179.91 101.32 181.008 101.32 182.457C101.32 182.895 101.284 183.801 101.211 185.178C101.147 186.545 101.115 187.698 101.115 188.637C101.115 189.193 101.188 189.594 101.334 189.84C101.48 190.086 101.708 190.209 102.018 190.209C102.191 190.209 102.405 190.163 102.66 190.072C102.915 189.981 103.202 189.849 103.521 189.676ZM108.854 175.648L110.057 175.99C110.002 176.501 109.952 176.988 109.906 177.453C109.87 177.909 109.847 178.342 109.838 178.752C111.032 178.752 111.921 178.743 112.504 178.725C113.087 178.706 113.625 178.679 114.117 178.643L113.762 180.516C113.188 180.47 112.568 180.438 111.902 180.42C111.246 180.393 110.558 180.383 109.838 180.393C109.811 181.596 109.788 182.626 109.77 183.482C109.76 184.33 109.756 184.995 109.756 185.479C109.756 187.475 109.897 188.778 110.18 189.389C110.471 189.99 110.982 190.291 111.711 190.291C112.003 190.291 112.335 190.232 112.709 190.113C113.083 189.995 113.507 189.812 113.98 189.566L114.514 190.715C113.511 191.28 112.618 191.708 111.834 192C111.05 192.301 110.403 192.451 109.893 192.451C108.726 192.451 107.865 192.087 107.309 191.357C106.753 190.619 106.475 189.48 106.475 187.939C106.475 187.639 106.497 186.65 106.543 184.973C106.598 183.296 106.625 181.764 106.625 180.379C106.607 180.379 106.388 180.388 105.969 180.406C105.559 180.424 105.076 180.443 104.52 180.461V179.148C105.577 178.993 106.461 178.629 107.172 178.055C107.892 177.471 108.452 176.669 108.854 175.648ZM119.395 171.137L120.639 171.984C120.949 172.194 121.176 172.413 121.322 172.641C121.477 172.868 121.555 173.115 121.555 173.379C121.555 173.652 121.495 173.889 121.377 174.09C121.258 174.281 121.049 174.482 120.748 174.691L119.422 175.594L118.191 174.773C117.863 174.564 117.617 174.345 117.453 174.117C117.298 173.889 117.221 173.652 117.221 173.406C117.221 173.133 117.285 172.891 117.412 172.682C117.54 172.472 117.772 172.249 118.109 172.012L119.395 171.137ZM121.309 178C121.254 179.969 121.208 181.687 121.172 183.154C121.145 184.622 121.131 185.825 121.131 186.764V188.363C121.131 189.43 121.236 190.113 121.445 190.414C121.664 190.706 122.074 190.852 122.676 190.852C122.721 190.852 122.79 190.847 122.881 190.838C122.981 190.829 123.063 190.824 123.127 190.824V192C122.288 191.945 121.555 191.904 120.926 191.877C120.297 191.85 119.777 191.836 119.367 191.836C119.021 191.836 118.551 191.85 117.959 191.877C117.376 191.904 116.678 191.945 115.867 192V190.824H116.154C117.321 190.824 117.909 189.749 117.918 187.598C117.918 187.251 117.918 186.982 117.918 186.791L117.945 183.879V182.676C117.945 181.655 117.863 180.999 117.699 180.707C117.535 180.415 117.216 180.27 116.742 180.27C116.678 180.27 116.533 180.279 116.305 180.297C116.204 180.306 116.127 180.315 116.072 180.324L115.867 179.23C116.833 179.103 117.763 178.939 118.656 178.738C119.549 178.538 120.434 178.292 121.309 178ZM124.057 178.451C124.813 178.506 125.456 178.547 125.984 178.574C126.522 178.602 126.964 178.615 127.311 178.615C127.93 178.615 128.527 178.602 129.102 178.574C129.676 178.547 130.255 178.506 130.838 178.451V179.654H130.523C130.077 179.654 129.753 179.718 129.553 179.846C129.361 179.973 129.266 180.178 129.266 180.461C129.266 180.835 129.658 182.056 130.441 184.125C131.125 185.911 131.676 187.397 132.096 188.582L132.889 186.654C134.447 182.917 135.227 180.816 135.227 180.352C135.227 180.096 135.131 179.914 134.939 179.805C134.748 179.686 134.424 179.627 133.969 179.627H133.777V178.451C134.306 178.506 134.798 178.547 135.254 178.574C135.719 178.602 136.138 178.615 136.512 178.615C136.858 178.615 137.519 178.574 138.494 178.492C138.758 178.474 138.954 178.46 139.082 178.451L139.096 179.654H138.863C138.508 179.654 138.207 179.773 137.961 180.01C137.715 180.238 137.428 180.698 137.1 181.391C135.623 184.626 134.488 187.165 133.695 189.006C132.902 190.838 132.469 191.927 132.396 192.273H130.072C130.036 192 129.771 191.207 129.279 189.895C128.787 188.582 127.775 186.021 126.244 182.211C126.199 182.092 126.13 181.919 126.039 181.691C125.501 180.333 124.904 179.654 124.248 179.654H124.057V178.451ZM152.781 184.713L147.08 184.727C146.105 184.727 145.376 184.736 144.893 184.754C144.41 184.763 143.963 184.79 143.553 184.836C143.553 186.467 143.954 187.748 144.756 188.678C145.567 189.607 146.684 190.072 148.105 190.072C148.789 190.072 149.464 189.967 150.129 189.758C150.803 189.539 151.482 189.211 152.166 188.773L152.781 189.949C151.724 190.788 150.685 191.417 149.664 191.836C148.643 192.246 147.632 192.451 146.629 192.451C144.724 192.451 143.161 191.818 141.939 190.551C140.718 189.275 140.107 187.639 140.107 185.643C140.107 183.473 140.768 181.664 142.09 180.215C143.411 178.757 145.034 178.027 146.957 178.027C148.68 178.027 150.074 178.638 151.141 179.859C152.207 181.072 152.754 182.689 152.781 184.713ZM149.541 183.045C149.35 181.979 148.999 181.149 148.488 180.557C147.987 179.955 147.385 179.654 146.684 179.654C145.845 179.654 145.152 179.978 144.605 180.625C144.059 181.272 143.717 182.179 143.58 183.346H144.441C145.562 183.346 146.538 183.323 147.367 183.277C148.197 183.223 148.921 183.145 149.541 183.045ZM165.195 178.697C165.195 179.271 165.223 179.855 165.277 180.447C165.332 181.031 165.419 181.623 165.537 182.225L164.184 182.484C164.074 181.473 163.773 180.734 163.281 180.27C162.789 179.805 162.074 179.572 161.135 179.572C160.396 179.572 159.795 179.759 159.33 180.133C158.874 180.497 158.646 180.971 158.646 181.555C158.646 182.366 159.708 183.095 161.832 183.742L161.928 183.77C163.514 184.253 164.594 184.786 165.168 185.369C165.751 185.952 166.043 186.745 166.043 187.748C166.043 189.097 165.473 190.214 164.334 191.098C163.195 191.982 161.727 192.424 159.932 192.424C159.202 192.424 158.482 192.351 157.771 192.205C157.07 192.068 156.391 191.859 155.734 191.576C155.743 191.476 155.748 191.362 155.748 191.234C155.757 191.107 155.762 190.915 155.762 190.66C155.762 190.15 155.739 189.644 155.693 189.143C155.648 188.641 155.579 188.149 155.488 187.666L156.746 187.352C156.956 188.6 157.343 189.507 157.908 190.072C158.473 190.628 159.271 190.906 160.301 190.906C161.176 190.906 161.868 190.71 162.379 190.318C162.898 189.926 163.158 189.393 163.158 188.719C163.158 187.917 162.033 187.137 159.781 186.381C159.408 186.253 159.12 186.158 158.92 186.094C157.835 185.72 157.056 185.26 156.582 184.713C156.108 184.157 155.871 183.441 155.871 182.566C155.871 181.208 156.382 180.115 157.402 179.285C158.423 178.447 159.79 178.027 161.504 178.027C162.014 178.027 162.57 178.082 163.172 178.191C163.783 178.301 164.457 178.469 165.195 178.697Z" fill="#7E6E4E"/>
</g>
<defs>
<radialGradient id="paint0_radial_904_3371" cx="0" cy="0" r="1" gradientUnits="userSpaceOnUse" gradientTransform="translate(330.116 173.884) scale(158.884)">
<stop stop-color="white"/>
<stop offset="1" stop-color="white" stop-opacity="0"/>
</radialGradient>
<clipPath id="clip0_904_3371">
<rect width="340" height="348" fill="white"/>
</clipPath>
</defs>
</svg>
