<svg width="240" height="148" viewBox="0 0 240 148" fill="none" xmlns="http://www.w3.org/2000/svg">
<g clip-path="url(#clip0_904_3789)">
<rect width="240" height="148" fill="#ECE9DB"/>
<mask id="mask0_904_3789" style="mask-type:luminance" maskUnits="userSpaceOnUse" x="-15" y="-28" width="307" height="205">
<path d="M291.18 -28H-15V176.12H291.18V-28Z" fill="white"/>
</mask>
<g mask="url(#mask0_904_3789)">
<g opacity="0.3">
<path d="M160.278 157.694H165.65L168.335 153.042L165.65 148.391H160.278L157.592 153.042L160.278 157.694Z" stroke="#7E6E4E" stroke-miterlimit="10"/>
<path d="M168.338 153.048H173.71L176.396 148.396L173.71 143.744H168.338L165.652 148.396L168.338 153.048Z" stroke="#7E6E4E" stroke-miterlimit="10"/>
<path d="M168.338 143.757H173.71L176.396 139.105L173.71 134.453H168.338L165.652 139.105L168.338 143.757Z" stroke="#7E6E4E" stroke-miterlimit="10"/>
<path d="M168.338 134.464H173.71L176.396 129.812L173.71 125.16H168.338L165.652 129.812L168.338 134.464Z" stroke="#7E6E4E" stroke-miterlimit="10"/>
<path d="M168.338 106.587H173.71L176.396 101.935L173.71 97.283H168.338L165.652 101.935L168.338 106.587Z" stroke="#7E6E4E" stroke-miterlimit="10"/>
<path d="M168.338 97.296H173.71L176.396 92.6441L173.71 87.9922H168.338L165.652 92.6441L168.338 97.296Z" stroke="#7E6E4E" stroke-miterlimit="10"/>
<path d="M176.399 148.403H181.77L184.456 143.751L181.77 139.099H176.399L173.713 143.751L176.399 148.403Z" stroke="#7E6E4E" stroke-miterlimit="10"/>
<path d="M176.399 139.11H181.77L184.456 134.458L181.77 129.806H176.399L173.713 134.458L176.399 139.11Z" stroke="#7E6E4E" stroke-miterlimit="10"/>
<path d="M176.399 129.817H181.77L184.456 125.165L181.77 120.513H176.399L173.713 125.165L176.399 129.817Z" stroke="#7E6E4E" stroke-miterlimit="10"/>
<path d="M176.399 101.941H181.77L184.456 97.289L181.77 92.6371H176.399L173.713 97.289L176.399 101.941Z" stroke="#7E6E4E" stroke-miterlimit="10"/>
<path d="M176.399 92.648H181.77L184.456 87.9971L181.77 83.3452H176.399L173.713 87.9971L176.399 92.648Z" stroke="#7E6E4E" stroke-miterlimit="10"/>
<path d="M176.399 83.3562H181.77L184.456 78.7043L181.77 74.0524H176.399L173.713 78.7043L176.399 83.3562Z" stroke="#7E6E4E" stroke-miterlimit="10"/>
<path d="M176.399 74.0644H181.77L184.456 69.4125L181.77 64.7606H176.399L173.713 69.4125L176.399 74.0644Z" stroke="#7E6E4E" stroke-miterlimit="10"/>
<path d="M176.399 46.189H181.77L184.456 41.5371L181.77 36.8853H176.399L173.713 41.5371L176.399 46.189Z" stroke="#7E6E4E" stroke-miterlimit="10"/>
<path d="M176.399 36.8962H181.77L184.456 32.2443L181.77 27.5924H176.399L173.713 32.2443L176.399 36.8962Z" stroke="#7E6E4E" stroke-miterlimit="10"/>
<path d="M184.459 143.757H189.83L192.516 139.105L189.83 134.453H184.459L181.774 139.105L184.459 143.757Z" stroke="#7E6E4E" stroke-miterlimit="10"/>
<path d="M184.459 134.464H189.83L192.516 129.812L189.83 125.16H184.459L181.774 129.812L184.459 134.464Z" stroke="#7E6E4E" stroke-miterlimit="10"/>
<path d="M184.459 88.0031H189.83L192.516 83.3512L189.83 78.6993H184.459L181.774 83.3512L184.459 88.0031Z" stroke="#7E6E4E" stroke-miterlimit="10"/>
<path d="M184.459 78.7114H189.83L192.516 74.0595L189.83 69.4076H184.459L181.774 74.0595L184.459 78.7114Z" stroke="#7E6E4E" stroke-miterlimit="10"/>
<path d="M184.459 69.4185H189.83L192.516 64.7666L189.83 60.1147H184.459L181.774 64.7666L184.459 69.4185Z" stroke="#7E6E4E" stroke-miterlimit="10"/>
<path d="M184.459 41.541H189.83L192.516 36.8891L189.83 32.2372H184.459L181.774 36.8891L184.459 41.541Z" stroke="#7E6E4E" stroke-miterlimit="10"/>
<path d="M184.459 32.2503H189.83L192.516 27.5984L189.83 22.9465H184.459L181.774 27.5984L184.459 32.2503Z" stroke="#7E6E4E" stroke-miterlimit="10"/>
<path d="M184.459 4.37386H189.83L192.516 -0.278037L189.83 -4.92993H184.459L181.774 -0.278037L184.459 4.37386Z" stroke="#7E6E4E" stroke-miterlimit="10"/>
<path d="M192.52 148.403H197.891L200.576 143.751L197.891 139.099H192.52L189.833 143.751L192.52 148.403Z" stroke="#7E6E4E" stroke-miterlimit="10"/>
<path d="M192.52 139.11H197.891L200.576 134.458L197.891 129.806H192.52L189.833 134.458L192.52 139.11Z" stroke="#7E6E4E" stroke-miterlimit="10"/>
<path d="M192.52 101.941H197.891L200.576 97.289L197.891 92.6371H192.52L189.833 97.289L192.52 101.941Z" stroke="#7E6E4E" stroke-miterlimit="10"/>
<path d="M192.52 92.648H197.891L200.576 87.9971L197.891 83.3452H192.52L189.833 87.9971L192.52 92.648Z" stroke="#7E6E4E" stroke-miterlimit="10"/>
<path d="M192.52 83.3562H197.891L200.576 78.7043L197.891 74.0524H192.52L189.833 78.7043L192.52 83.3562Z" stroke="#7E6E4E" stroke-miterlimit="10"/>
<path d="M192.52 46.189H197.891L200.576 41.5371L197.891 36.8853H192.52L189.833 41.5371L192.52 46.189Z" stroke="#7E6E4E" stroke-miterlimit="10"/>
<path d="M192.52 36.8962H197.891L200.576 32.2443L197.891 27.5924H192.52L189.833 32.2443L192.52 36.8962Z" stroke="#7E6E4E" stroke-miterlimit="10"/>
<path d="M192.52 27.6034H197.891L200.576 22.9515L197.891 18.3007H192.52L189.833 22.9515L192.52 27.6034Z" stroke="#7E6E4E" stroke-miterlimit="10"/>
<path d="M192.52 -0.27201H197.891L200.576 -4.9239L197.891 -9.57581H192.52L189.833 -4.9239L192.52 -0.27201Z" stroke="#7E6E4E" stroke-miterlimit="10"/>
<path d="M200.579 143.757H205.951L208.637 139.105L205.951 134.453H200.579L197.893 139.105L200.579 143.757Z" stroke="#7E6E4E" stroke-miterlimit="10"/>
<path d="M200.579 134.464H205.951L208.637 129.812L205.951 125.16H200.579L197.893 129.812L200.579 134.464Z" stroke="#7E6E4E" stroke-miterlimit="10"/>
<path d="M200.579 125.172H205.951L208.637 120.521L205.951 115.869H200.579L197.893 120.521L200.579 125.172Z" stroke="#7E6E4E" stroke-miterlimit="10"/>
<path d="M200.579 115.88H205.951L208.637 111.228L205.951 106.576H200.579L197.893 111.228L200.579 115.88Z" stroke="#7E6E4E" stroke-miterlimit="10"/>
<path d="M200.579 106.587H205.951L208.637 101.935L205.951 97.283H200.579L197.893 101.935L200.579 106.587Z" stroke="#7E6E4E" stroke-miterlimit="10"/>
<path d="M200.579 97.296H205.951L208.637 92.6441L205.951 87.9922H200.579L197.893 92.6441L200.579 97.296Z" stroke="#7E6E4E" stroke-miterlimit="10"/>
<path d="M200.579 88.0031H205.951L208.637 83.3512L205.951 78.6993H200.579L197.893 83.3512L200.579 88.0031Z" stroke="#7E6E4E" stroke-miterlimit="10"/>
<path d="M200.579 78.7114H205.951L208.637 74.0595L205.951 69.4076H200.579L197.893 74.0595L200.579 78.7114Z" stroke="#7E6E4E" stroke-miterlimit="10"/>
<path d="M200.579 41.541H205.951L208.637 36.8891L205.951 32.2372H200.579L197.893 36.8891L200.579 41.541Z" stroke="#7E6E4E" stroke-miterlimit="10"/>
<path d="M200.579 32.2503H205.951L208.637 27.5984L205.951 22.9465H200.579L197.893 27.5984L200.579 32.2503Z" stroke="#7E6E4E" stroke-miterlimit="10"/>
<path d="M200.579 22.9586H205.951L208.637 18.3067L205.951 13.6548H200.579L197.893 18.3067L200.579 22.9586Z" stroke="#7E6E4E" stroke-miterlimit="10"/>
<path d="M200.579 13.6656H205.951L208.637 9.01372L205.951 4.36182H200.579L197.893 9.01372L200.579 13.6656Z" stroke="#7E6E4E" stroke-miterlimit="10"/>
<path d="M208.64 157.694H214.011L216.697 153.042L214.011 148.391H208.64L205.954 153.042L208.64 157.694Z" stroke="#7E6E4E" stroke-miterlimit="10"/>
<path d="M208.64 148.403H214.011L216.697 143.751L214.011 139.099H208.64L205.954 143.751L208.64 148.403Z" stroke="#7E6E4E" stroke-miterlimit="10"/>
<path d="M208.64 139.11H214.011L216.697 134.458L214.011 129.806H208.64L205.954 134.458L208.64 139.11Z" stroke="#7E6E4E" stroke-miterlimit="10"/>
<path d="M208.64 129.817H214.011L216.697 125.165L214.011 120.513H208.64L205.954 125.165L208.64 129.817Z" stroke="#7E6E4E" stroke-miterlimit="10"/>
<path d="M208.64 120.525H214.011L216.697 115.874L214.011 111.222H208.64L205.954 115.874L208.64 120.525Z" stroke="#7E6E4E" stroke-miterlimit="10"/>
<path d="M208.64 111.234H214.011L216.697 106.582L214.011 101.93H208.64L205.954 106.582L208.64 111.234Z" stroke="#7E6E4E" stroke-miterlimit="10"/>
<path d="M208.64 101.941H214.011L216.697 97.289L214.011 92.6371H208.64L205.954 97.289L208.64 101.941Z" stroke="#7E6E4E" stroke-miterlimit="10"/>
<path d="M208.64 92.648H214.011L216.697 87.9971L214.011 83.3452H208.64L205.954 87.9971L208.64 92.648Z" stroke="#7E6E4E" stroke-miterlimit="10"/>
<path d="M208.64 83.3562H214.011L216.697 78.7043L214.011 74.0524H208.64L205.954 78.7043L208.64 83.3562Z" stroke="#7E6E4E" stroke-miterlimit="10"/>
<path d="M208.64 74.0644H214.011L216.697 69.4125L214.011 64.7606H208.64L205.954 69.4125L208.64 74.0644Z" stroke="#7E6E4E" stroke-miterlimit="10"/>
<path d="M208.64 46.189H214.011L216.697 41.5371L214.011 36.8853H208.64L205.954 41.5371L208.64 46.189Z" stroke="#7E6E4E" stroke-miterlimit="10"/>
<path d="M208.64 36.8962H214.011L216.697 32.2443L214.011 27.5924H208.64L205.954 32.2443L208.64 36.8962Z" stroke="#7E6E4E" stroke-miterlimit="10"/>
<path d="M208.64 27.6034H214.011L216.697 22.9515L214.011 18.3007H208.64L205.954 22.9515L208.64 27.6034Z" stroke="#7E6E4E" stroke-miterlimit="10"/>
<path d="M208.64 18.3116H214.011L216.697 13.6597L214.011 9.00781H208.64L205.954 13.6597L208.64 18.3116Z" stroke="#7E6E4E" stroke-miterlimit="10"/>
<path d="M216.699 153.048H222.071L224.757 148.396L222.071 143.744H216.699L214.014 148.396L216.699 153.048Z" stroke="#7E6E4E" stroke-miterlimit="10"/>
<path d="M216.699 143.757H222.071L224.757 139.105L222.071 134.453H216.699L214.014 139.105L216.699 143.757Z" stroke="#7E6E4E" stroke-miterlimit="10"/>
<path d="M216.699 134.464H222.071L224.757 129.812L222.071 125.16H216.699L214.014 129.812L216.699 134.464Z" stroke="#7E6E4E" stroke-miterlimit="10"/>
<path d="M216.699 125.172H222.071L224.757 120.521L222.071 115.869H216.699L214.014 120.521L216.699 125.172Z" stroke="#7E6E4E" stroke-miterlimit="10"/>
<path d="M216.699 115.88H222.071L224.757 111.228L222.071 106.576H216.699L214.014 111.228L216.699 115.88Z" stroke="#7E6E4E" stroke-miterlimit="10"/>
<path d="M216.699 106.587H222.071L224.757 101.935L222.071 97.283H216.699L214.014 101.935L216.699 106.587Z" stroke="#7E6E4E" stroke-miterlimit="10"/>
<path d="M216.699 97.296H222.071L224.757 92.6441L222.071 87.9922H216.699L214.014 92.6441L216.699 97.296Z" stroke="#7E6E4E" stroke-miterlimit="10"/>
<path d="M216.699 88.0031H222.071L224.757 83.3512L222.071 78.6993H216.699L214.014 83.3512L216.699 88.0031Z" stroke="#7E6E4E" stroke-miterlimit="10"/>
<path d="M216.699 78.7114H222.071L224.757 74.0595L222.071 69.4076H216.699L214.014 74.0595L216.699 78.7114Z" stroke="#7E6E4E" stroke-miterlimit="10"/>
<path d="M216.699 69.4185H222.071L224.757 64.7666L222.071 60.1147H216.699L214.014 64.7666L216.699 69.4185Z" stroke="#7E6E4E" stroke-miterlimit="10"/>
<path d="M216.699 60.1258H222.071L224.757 55.4739L222.071 50.823H216.699L214.014 55.4739L216.699 60.1258Z" stroke="#7E6E4E" stroke-miterlimit="10"/>
<path d="M216.699 50.8338H222.071L224.757 46.1819L222.071 41.53H216.699L214.014 46.1819L216.699 50.8338Z" stroke="#7E6E4E" stroke-miterlimit="10"/>
<path d="M216.699 41.541H222.071L224.757 36.8891L222.071 32.2372H216.699L214.014 36.8891L216.699 41.541Z" stroke="#7E6E4E" stroke-miterlimit="10"/>
<path d="M216.699 32.2503H222.071L224.757 27.5984L222.071 22.9465H216.699L214.014 27.5984L216.699 32.2503Z" stroke="#7E6E4E" stroke-miterlimit="10"/>
<path d="M216.699 22.9586H222.071L224.757 18.3067L222.071 13.6548H216.699L214.014 18.3067L216.699 22.9586Z" stroke="#7E6E4E" stroke-miterlimit="10"/>
<path d="M216.699 13.6656H222.071L224.757 9.01372L222.071 4.36182H216.699L214.014 9.01372L216.699 13.6656Z" stroke="#7E6E4E" stroke-miterlimit="10"/>
<path d="M216.699 4.37386H222.071L224.757 -0.278037L222.071 -4.92993H216.699L214.014 -0.278037L216.699 4.37386Z" stroke="#7E6E4E" stroke-miterlimit="10"/>
<path d="M224.76 139.11H230.132L232.817 134.458L230.132 129.806H224.76L222.074 134.458L224.76 139.11Z" stroke="#7E6E4E" stroke-miterlimit="10"/>
<path d="M224.76 129.817H230.132L232.817 125.165L230.132 120.513H224.76L222.074 125.165L224.76 129.817Z" stroke="#7E6E4E" stroke-miterlimit="10"/>
<path d="M224.76 120.525H230.132L232.817 115.874L230.132 111.222H224.76L222.074 115.874L224.76 120.525Z" stroke="#7E6E4E" stroke-miterlimit="10"/>
<path d="M224.76 111.234H230.132L232.817 106.582L230.132 101.93H224.76L222.074 106.582L224.76 111.234Z" stroke="#7E6E4E" stroke-miterlimit="10"/>
<path d="M224.76 101.941H230.132L232.817 97.289L230.132 92.6371H224.76L222.074 97.289L224.76 101.941Z" stroke="#7E6E4E" stroke-miterlimit="10"/>
<path d="M224.76 92.648H230.132L232.817 87.9971L230.132 83.3452H224.76L222.074 87.9971L224.76 92.648Z" stroke="#7E6E4E" stroke-miterlimit="10"/>
<path d="M224.76 83.3562H230.132L232.817 78.7043L230.132 74.0524H224.76L222.074 78.7043L224.76 83.3562Z" stroke="#7E6E4E" stroke-miterlimit="10"/>
<path d="M224.76 74.0644H230.132L232.817 69.4125L230.132 64.7606H224.76L222.074 69.4125L224.76 74.0644Z" stroke="#7E6E4E" stroke-miterlimit="10"/>
<path d="M224.76 64.7727H230.132L232.817 60.1208L230.132 55.4689H224.76L222.074 60.1208L224.76 64.7727Z" stroke="#7E6E4E" stroke-miterlimit="10"/>
<path d="M224.76 55.4798H230.132L232.817 50.8279L230.132 46.176H224.76L222.074 50.8279L224.76 55.4798Z" stroke="#7E6E4E" stroke-miterlimit="10"/>
<path d="M224.76 46.189H230.132L232.817 41.5371L230.132 36.8853H224.76L222.074 41.5371L224.76 46.189Z" stroke="#7E6E4E" stroke-miterlimit="10"/>
<path d="M224.76 36.8962H230.132L232.817 32.2443L230.132 27.5924H224.76L222.074 32.2443L224.76 36.8962Z" stroke="#7E6E4E" stroke-miterlimit="10"/>
<path d="M224.76 27.6034H230.132L232.817 22.9515L230.132 18.3007H224.76L222.074 22.9515L224.76 27.6034Z" stroke="#7E6E4E" stroke-miterlimit="10"/>
<path d="M224.76 18.3116H230.132L232.817 13.6597L230.132 9.00781H224.76L222.074 13.6597L224.76 18.3116Z" stroke="#7E6E4E" stroke-miterlimit="10"/>
<path d="M224.76 9.01974H230.132L232.817 4.36784L230.132 -0.284058H224.76L222.074 4.36784L224.76 9.01974Z" stroke="#7E6E4E" stroke-miterlimit="10"/>
<path d="M224.76 -0.27201H230.132L232.817 -4.9239L230.132 -9.57581H224.76L222.074 -4.9239L224.76 -0.27201Z" stroke="#7E6E4E" stroke-miterlimit="10"/>
<path d="M232.82 143.757H238.191L240.877 139.105L238.191 134.453H232.82L230.135 139.105L232.82 143.757Z" stroke="#7E6E4E" stroke-miterlimit="10"/>
<path d="M232.82 134.464H238.191L240.877 129.812L238.191 125.16H232.82L230.135 129.812L232.82 134.464Z" stroke="#7E6E4E" stroke-miterlimit="10"/>
<path d="M232.82 106.587H238.191L240.877 101.935L238.191 97.283H232.82L230.135 101.935L232.82 106.587Z" stroke="#7E6E4E" stroke-miterlimit="10"/>
<path d="M232.82 97.296H238.191L240.877 92.6441L238.191 87.9922H232.82L230.135 92.6441L232.82 97.296Z" stroke="#7E6E4E" stroke-miterlimit="10"/>
<path d="M232.82 88.0031H238.191L240.877 83.3512L238.191 78.6993H232.82L230.135 83.3512L232.82 88.0031Z" stroke="#7E6E4E" stroke-miterlimit="10"/>
<path d="M232.82 78.7114H238.191L240.877 74.0595L238.191 69.4076H232.82L230.135 74.0595L232.82 78.7114Z" stroke="#7E6E4E" stroke-miterlimit="10"/>
<path d="M232.82 69.4185H238.191L240.877 64.7666L238.191 60.1147H232.82L230.135 64.7666L232.82 69.4185Z" stroke="#7E6E4E" stroke-miterlimit="10"/>
<path d="M232.82 60.1258H238.191L240.877 55.4739L238.191 50.823H232.82L230.135 55.4739L232.82 60.1258Z" stroke="#7E6E4E" stroke-miterlimit="10"/>
<path d="M232.82 50.8338H238.191L240.877 46.1819L238.191 41.53H232.82L230.135 46.1819L232.82 50.8338Z" stroke="#7E6E4E" stroke-miterlimit="10"/>
<path d="M232.82 41.541H238.191L240.877 36.8891L238.191 32.2372H232.82L230.135 36.8891L232.82 41.541Z" stroke="#7E6E4E" stroke-miterlimit="10"/>
<path d="M232.82 32.2503H238.191L240.877 27.5984L238.191 22.9465H232.82L230.135 27.5984L232.82 32.2503Z" stroke="#7E6E4E" stroke-miterlimit="10"/>
<path d="M232.82 22.9586H238.191L240.877 18.3067L238.191 13.6548H232.82L230.135 18.3067L232.82 22.9586Z" stroke="#7E6E4E" stroke-miterlimit="10"/>
<path d="M232.82 13.6656H238.191L240.877 9.01372L238.191 4.36182H232.82L230.135 9.01372L232.82 13.6656Z" stroke="#7E6E4E" stroke-miterlimit="10"/>
<path d="M232.82 4.37386H238.191L240.877 -0.278037L238.191 -4.92993H232.82L230.135 -0.278037L232.82 4.37386Z" stroke="#7E6E4E" stroke-miterlimit="10"/>
<path d="M240.881 139.11H246.252L248.937 134.458L246.252 129.806H240.881L238.194 134.458L240.881 139.11Z" stroke="#7E6E4E" stroke-miterlimit="10"/>
<path d="M240.881 92.648H246.252L248.937 87.9971L246.252 83.3452H240.881L238.194 87.9971L240.881 92.648Z" stroke="#7E6E4E" stroke-miterlimit="10"/>
<path d="M240.881 83.3562H246.252L248.937 78.7043L246.252 74.0524H240.881L238.194 78.7043L240.881 83.3562Z" stroke="#7E6E4E" stroke-miterlimit="10"/>
<path d="M240.881 74.0644H246.252L248.937 69.4125L246.252 64.7606H240.881L238.194 69.4125L240.881 74.0644Z" stroke="#7E6E4E" stroke-miterlimit="10"/>
<path d="M240.881 64.7727H246.252L248.937 60.1208L246.252 55.4689H240.881L238.194 60.1208L240.881 64.7727Z" stroke="#7E6E4E" stroke-miterlimit="10"/>
<path d="M240.881 55.4798H246.252L248.937 50.8279L246.252 46.176H240.881L238.194 50.8279L240.881 55.4798Z" stroke="#7E6E4E" stroke-miterlimit="10"/>
<path d="M240.881 46.189H246.252L248.937 41.5371L246.252 36.8853H240.881L238.194 41.5371L240.881 46.189Z" stroke="#7E6E4E" stroke-miterlimit="10"/>
<path d="M240.881 36.8962H246.252L248.937 32.2443L246.252 27.5924H240.881L238.194 32.2443L240.881 36.8962Z" stroke="#7E6E4E" stroke-miterlimit="10"/>
<path d="M240.881 27.6034H246.252L248.937 22.9515L246.252 18.3007H240.881L238.194 22.9515L240.881 27.6034Z" stroke="#7E6E4E" stroke-miterlimit="10"/>
<path d="M240.881 18.3116H246.252L248.937 13.6597L246.252 9.00781H240.881L238.194 13.6597L240.881 18.3116Z" stroke="#7E6E4E" stroke-miterlimit="10"/>
<path d="M240.881 9.01974H246.252L248.937 4.36784L246.252 -0.284058H240.881L238.194 4.36784L240.881 9.01974Z" stroke="#7E6E4E" stroke-miterlimit="10"/>
<path d="M240.881 -0.27201H246.252L248.937 -4.9239L246.252 -9.57581H240.881L238.194 -4.9239L240.881 -0.27201Z" stroke="#7E6E4E" stroke-miterlimit="10"/>
</g>
<g opacity="0.7">
<path d="M106.931 154.908H122.507L130.295 141.419L122.507 127.93H106.931L99.1429 141.419L106.931 154.908Z" stroke="#7E6E4E" stroke-width="2" stroke-miterlimit="10"/>
<path d="M130.303 168.379H145.878L153.667 154.891L145.878 141.402H130.303L122.515 154.891L130.303 168.379Z" stroke="#7E6E4E" stroke-width="2" stroke-miterlimit="10"/>
<path d="M177.047 168.379H192.622L200.41 154.891L192.622 141.402H177.047L169.259 154.891L177.047 168.379Z" stroke="#7E6E4E" stroke-width="2" stroke-miterlimit="10"/>
<path d="M200.418 154.908H215.993L223.782 141.419L215.993 127.93H200.418L192.631 141.419L200.418 154.908Z" stroke="#7E6E4E" stroke-width="2" stroke-miterlimit="10"/>
<path d="M200.418 127.963H215.993L223.782 114.475L215.993 100.986H200.418L192.631 114.475L200.418 127.963Z" stroke="#7E6E4E" stroke-width="2" stroke-miterlimit="10"/>
<path d="M200.418 47.132H215.993L223.782 33.6437L215.993 20.1544H200.418L192.631 33.6437L200.418 47.132Z" stroke="#7E6E4E" stroke-width="2" stroke-miterlimit="10"/>
<path d="M223.79 168.379H239.366L247.154 154.891L239.366 141.402H223.79L216.003 154.891L223.79 168.379Z" stroke="#7E6E4E" stroke-width="2" stroke-miterlimit="10"/>
<path d="M223.79 114.491H239.366L247.154 101.003L239.366 87.5139H223.79L216.003 101.003L223.79 114.491Z" stroke="#7E6E4E" stroke-width="2" stroke-miterlimit="10"/>
<path d="M223.79 33.6592H239.366L247.154 20.1709L239.366 6.68164H223.79L216.003 20.1709L223.79 33.6592Z" stroke="#7E6E4E" stroke-width="2" stroke-miterlimit="10"/>
<path d="M223.79 6.71583H239.366L247.154 -6.77243L239.366 -20.2617H223.79L216.003 -6.77243L223.79 6.71583Z" stroke="#7E6E4E" stroke-width="2" stroke-miterlimit="10"/>
<path d="M247.162 154.908H262.738L270.526 141.419L262.738 127.93H247.162L239.375 141.419L247.162 154.908Z" stroke="#7E6E4E" stroke-width="2" stroke-miterlimit="10"/>
<path d="M-9.92752 168.379H5.64787L13.4361 154.891L5.64787 141.402H-9.92752L-17.7147 154.891L-9.92752 168.379Z" stroke="#7E6E4E" stroke-width="2" stroke-miterlimit="10"/>
<path d="M36.8162 168.379H52.3916L60.1798 154.891L52.3916 141.402H36.8162L29.028 154.891L36.8162 168.379Z" stroke="#7E6E4E" stroke-width="2" stroke-miterlimit="10"/>
<path d="M60.1876 154.908H75.763L83.5512 141.419L75.763 127.93H60.1876L52.3994 141.419L60.1876 154.908Z" stroke="#7E6E4E" stroke-width="2" stroke-miterlimit="10"/>
<path d="M106.931 154.908H122.507L130.295 141.419L122.507 127.93H106.931L99.1429 141.419L106.931 154.908Z" stroke="#7E6E4E" stroke-width="2" stroke-miterlimit="10"/>
<path d="M130.303 168.379H145.878L153.667 154.891L145.878 141.402H130.303L122.515 154.891L130.303 168.379Z" stroke="#7E6E4E" stroke-width="2" stroke-miterlimit="10"/>
<path d="M153.674 154.908H169.25L177.038 141.419L169.25 127.93H153.674L145.886 141.419L153.674 154.908Z" stroke="#7E6E4E" stroke-width="2" stroke-miterlimit="10"/>
</g>
</g>
<path style="mix-blend-mode:screen" d="M238.5 162C286.825 162 326 122.825 326 74.5C326 26.1751 286.825 -13 238.5 -13C190.175 -13 151 26.1751 151 74.5C151 122.825 190.175 162 238.5 162Z" fill="url(#paint0_radial_904_3789)"/>
<path d="M177.895 79.1149L179.784 73.9163L181.209 77.7067L181.747 79.114H181.937L182.716 76.8941L183.212 75.4804L184.502 71.8126C184.606 71.5281 184.761 71.3283 184.97 71.2116C185.085 71.1432 185.254 71.093 185.475 71.0607V70.8326H183.032V71.0607C183.273 71.0684 183.452 71.0994 183.573 71.1519C183.789 71.2431 183.896 71.3981 183.896 71.6275C183.894 71.7121 183.884 71.7964 183.867 71.8792C183.827 72.0947 183.766 72.306 183.687 72.5103L182.148 76.6847L180.37 72.0712C180.305 71.9043 180.265 71.7921 180.249 71.7378C180.232 71.676 180.224 71.6119 180.225 71.5477C180.225 71.3388 180.316 71.197 180.501 71.1291C180.618 71.088 180.83 71.0666 181.14 71.0625V70.8345H177.844V71.0625C178.105 71.0667 178.299 71.0971 178.426 71.1537C178.643 71.2449 178.804 71.4273 178.913 71.7009L179.489 73.2094L178.189 76.6569L176.41 72.0324C176.365 71.9111 176.333 71.8135 176.311 71.7374C176.289 71.6612 176.278 71.5823 176.278 71.503C176.278 71.3233 176.369 71.1993 176.555 71.1313C176.658 71.0948 176.833 71.0725 177.078 71.0648V70.8367H174.061V71.0648C174.423 71.0848 174.688 71.2298 174.858 71.4998C175.028 71.7698 175.327 72.4994 175.754 73.6887L176.79 76.5671L177.707 79.1149H177.895Z" fill="#7E6E4E"/>
<path d="M238.6 18.6378C238.155 18.5922 237.87 18.4978 237.741 18.3669C237.544 18.1612 237.446 17.7257 237.446 17.0545V12.2662L242.889 19.0122H243.099V12.5367C243.099 11.8934 243.177 11.4811 243.333 11.2999C243.489 11.1187 243.801 11.0044 244.271 10.957V10.729H241.38V10.957C241.833 10.9976 242.126 11.0824 242.258 11.2138C242.458 11.4165 242.558 11.8542 242.558 12.5266V16.6144L237.809 10.7317H235.712V10.9598C235.964 10.9675 236.154 10.9971 236.279 11.0478C236.404 11.0984 236.558 11.2302 236.738 11.4404L236.907 11.6388V17.0513C236.907 17.702 236.835 18.1143 236.691 18.2916C236.547 18.469 236.22 18.5858 235.712 18.6378V18.8658H238.601L238.6 18.6378Z" fill="#7E6E4E"/>
<path d="M239.708 137.948C238.984 137.948 238.378 137.661 237.891 137.088C237.611 136.76 237.367 136.319 237.161 135.766H236.879L237.244 138.385H237.515C237.532 138.286 237.565 138.191 237.613 138.103C237.664 138.015 237.761 137.971 237.906 137.971C237.965 137.971 238.203 138.043 238.618 138.187C239 138.325 239.403 138.398 239.81 138.403C240.567 138.403 241.189 138.187 241.675 137.755C242.161 137.323 242.405 136.783 242.405 136.14C242.405 135.658 242.268 135.241 241.994 134.89C241.721 134.538 241.24 134.16 240.564 133.743L239.484 133.075C239.079 132.827 238.781 132.589 238.589 132.359C238.397 132.134 238.294 131.846 238.302 131.55C238.302 131.198 238.428 130.921 238.676 130.723C238.927 130.526 239.239 130.422 239.557 130.427C239.99 130.427 240.427 130.583 240.87 130.895C241.312 131.207 241.634 131.758 241.834 132.547H242.129L241.858 129.928H241.605C241.582 130.039 241.536 130.143 241.468 130.234C241.41 130.307 241.305 130.342 241.153 130.342C241.096 130.342 240.872 130.273 240.478 130.134C240.082 129.997 239.745 129.928 239.465 129.928C238.784 129.928 238.237 130.134 237.823 130.546C237.41 130.958 237.203 131.475 237.203 132.096C237.203 132.565 237.378 132.993 237.726 133.382C237.951 133.616 238.205 133.82 238.483 133.989L239.531 134.643C240.136 135.02 240.531 135.301 240.717 135.49C240.855 135.627 240.965 135.79 241.039 135.969C241.113 136.149 241.15 136.341 241.149 136.535C241.149 136.98 241.006 137.327 240.719 137.575C240.44 137.821 240.08 137.954 239.708 137.948Z" fill="#7E6E4E"/>
<path d="M194.802 71.0185L194.781 71.2909L197.957 71.5342L197.978 71.2618L194.802 71.0185Z" fill="#7E6E4E"/>
<path d="M195.178 67.6783L195.137 67.9479L198.287 68.4265L198.328 68.1569L195.178 67.6783Z" fill="#7E6E4E"/>
<path d="M195.832 64.381L195.771 64.6472L198.876 65.3602L198.937 65.0939L195.832 64.381Z" fill="#7E6E4E"/>
<path d="M196.704 61.1327L196.623 61.3936L199.666 62.3372L199.747 62.0763L196.704 61.1327Z" fill="#7E6E4E"/>
<path d="M197.839 57.9637L197.739 58.2178L200.703 59.3871L200.803 59.133L197.839 57.9637Z" fill="#7E6E4E"/>
<path d="M199.192 54.8891L199.073 55.135L201.941 56.5233L202.06 56.2774L199.192 54.8891Z" fill="#7E6E4E"/>
<path d="M201.122 51.346L200.985 51.5823L203.741 53.1807L203.878 52.9444L201.122 51.346Z" fill="#7E6E4E"/>
<path d="M202.586 49.0916L202.431 49.317L205.061 51.1159L205.215 50.8905L202.586 49.0916Z" fill="#7E6E4E"/>
<path d="M204.593 46.3861L204.423 46.5995L206.912 48.5883L207.082 48.3749L204.593 46.3861Z" fill="#7E6E4E"/>
<path d="M206.796 43.8514L206.61 44.0515L208.944 46.2197L209.13 46.0196L206.796 43.8514Z" fill="#7E6E4E"/>
<path d="M209.18 41.4836L208.98 41.6696L211.149 44.004L211.349 43.8181L209.18 41.4836Z" fill="#7E6E4E"/>
<path d="M211.735 39.2998L211.521 39.4703L213.51 41.959L213.723 41.7885L211.735 39.2998Z" fill="#7E6E4E"/>
<path d="M214.437 37.2947L214.212 37.449L216.011 40.0782L216.236 39.924L214.437 37.2947Z" fill="#7E6E4E"/>
<path d="M217.292 35.5252L217.056 35.662L218.654 38.4179L218.89 38.2811L217.292 35.5252Z" fill="#7E6E4E"/>
<path d="M220.262 33.9527L220.016 34.0717L221.403 36.9394L221.649 36.8204L220.262 33.9527Z" fill="#7E6E4E"/>
<path d="M223.35 32.6214L223.095 32.7217L224.265 35.6852L224.519 35.5849L223.35 32.6214Z" fill="#7E6E4E"/>
<path d="M226.521 31.5005L226.26 31.5814L227.204 34.6242L227.465 34.5433L226.521 31.5005Z" fill="#7E6E4E"/>
<path d="M229.774 30.644L229.507 30.7051L230.22 33.8101L230.487 33.7489L229.774 30.644Z" fill="#7E6E4E"/>
<path d="M233.077 30.008L232.807 30.049L233.286 33.1986L233.555 33.1576L233.077 30.008Z" fill="#7E6E4E"/>
<path d="M236.42 29.6558L236.147 29.6766L236.391 32.8531L236.663 32.8322L236.42 29.6558Z" fill="#7E6E4E"/>
<path d="M236.383 116.436L236.14 119.613L236.412 119.633L236.656 116.457L236.383 116.436Z" fill="#7E6E4E"/>
<path d="M233.279 116.085L232.802 119.234L233.072 119.275L233.549 116.125L233.279 116.085Z" fill="#7E6E4E"/>
<path d="M230.216 115.481L229.506 118.587L229.772 118.647L230.482 115.541L230.216 115.481Z" fill="#7E6E4E"/>
<path d="M227.201 114.669L226.257 117.713L226.518 117.793L227.462 114.75L227.201 114.669Z" fill="#7E6E4E"/>
<path d="M224.266 113.621L223.095 116.584L223.349 116.684L224.52 113.721L224.266 113.621Z" fill="#7E6E4E"/>
<path d="M221.402 112.355L220.012 115.222L220.258 115.341L221.648 112.474L221.402 112.355Z" fill="#7E6E4E"/>
<path d="M218.655 110.89L217.057 113.646L217.293 113.783L218.891 111.027L218.655 110.89Z" fill="#7E6E4E"/>
<path d="M216.012 109.202L214.213 111.831L214.438 111.985L216.237 109.356L216.012 109.202Z" fill="#7E6E4E"/>
<path d="M213.511 107.334L211.52 109.822L211.733 109.993L213.724 107.505L213.511 107.334Z" fill="#7E6E4E"/>
<path d="M211.148 105.291L208.98 107.625L209.18 107.811L211.348 105.477L211.148 105.291Z" fill="#7E6E4E"/>
<path d="M208.946 103.07L206.611 105.238L206.797 105.438L209.132 103.27L208.946 103.07Z" fill="#7E6E4E"/>
<path d="M206.912 100.705L204.424 102.693L204.594 102.907L207.083 100.918L206.912 100.705Z" fill="#7E6E4E"/>
<path d="M205.055 98.1949L202.426 99.9934L202.58 100.219L205.209 98.4204L205.055 98.1949Z" fill="#7E6E4E"/>
<path d="M203.406 95.5337L200.65 97.1321L200.787 97.368L203.543 95.7696L203.406 95.5337Z" fill="#7E6E4E"/>
<path d="M201.935 92.7843L199.068 94.1719L199.187 94.4178L202.054 93.0302L201.935 92.7843Z" fill="#7E6E4E"/>
<path d="M200.7 89.9129L197.736 91.082L197.837 91.3361L200.8 90.167L200.7 89.9129Z" fill="#7E6E4E"/>
<path d="M199.667 86.9578L196.624 87.9015L196.705 88.1624L199.748 87.2187L199.667 86.9578Z" fill="#7E6E4E"/>
<path d="M198.875 83.9386L195.77 84.6515L195.831 84.9177L198.936 84.2049L198.875 83.9386Z" fill="#7E6E4E"/>
<path d="M198.355 80.9931L195.201 81.4709L195.242 81.7409L198.396 81.2631L198.355 80.9931Z" fill="#7E6E4E"/>
<path d="M197.957 77.7621L194.78 78.0054L194.801 78.2777L197.978 78.0344L197.957 77.7621Z" fill="#7E6E4E"/>
<path d="M273.977 107.904L260.6 95.5485L260.581 95.5302L260.278 95.8586L260.256 95.8832L260.126 96.0237L260.286 96.1714L273.505 108.383C264.917 116.931 253.083 122.222 240.041 122.222H240.001L239.917 122.892C239.958 122.892 239.999 122.892 240.041 122.892C266.41 122.892 287.89 101.578 288.168 75.2725L287.496 75.3582C287.338 88.0064 282.209 99.4767 273.977 107.904Z" fill="#7E6E4E"/>
<path d="M191.912 74.1872L192.585 74.0997C192.762 61.2029 198.107 49.5325 206.641 41.0715L218.557 54.0097L219.424 54.9514L219.673 54.7233L219.961 54.9058C224.232 50.5882 229.88 47.6418 236.184 46.7776L236.273 46.0904C229.998 46.9133 224.167 49.7763 219.679 54.2386L207.12 40.6036C215.362 32.6574 226.459 27.659 238.702 27.3183L238.79 26.6434C213.014 27.3033 192.216 48.3267 191.912 74.1872Z" fill="#7E6E4E"/>
<path d="M238.702 122.875L238.617 122.2C225.894 121.824 214.417 116.417 206.102 107.906L219.548 95.1541L218.59 95.4172L218.929 94.5052L205.636 107.425C197.689 99.059 192.756 87.8072 192.585 75.4248L191.912 75.3373C192.218 101.167 212.969 122.169 238.702 122.875Z" fill="#7E6E4E"/>
<path d="M240.04 26.6257C239.97 26.6257 239.899 26.628 239.829 26.6285L239.916 27.2984H240.04C252.798 27.2984 264.396 32.3602 272.933 40.5786L259.835 53.6983L260.188 53.4666L260.387 54.2255L260.673 53.7895L273.413 41.0465C281.976 49.5234 287.335 61.2281 287.495 74.1618L288.167 74.2475C287.891 47.9415 266.41 26.6257 240.04 26.6257Z" fill="#7E6E4E"/>
<path d="M214.264 71.2759C214.961 66.1031 217.203 61.2613 220.697 57.3837L220.323 56.7936C216.625 60.8396 214.268 65.929 213.574 71.3657L214.264 71.2759Z" fill="#7E6E4E"/>
<path d="M220.563 91.9832C217.146 88.1323 214.954 83.3513 214.264 78.2497L213.575 78.1584C214.261 83.5219 216.566 88.5488 220.183 92.5687L220.563 91.9832Z" fill="#7E6E4E"/>
<path d="M221.902 56.1336C225.651 52.4813 230.493 49.9481 235.887 49.0794L235.978 48.3817C230.31 49.2504 225.226 51.9118 221.319 55.7629L221.902 56.1336Z" fill="#7E6E4E"/>
<path d="M235.845 100.433C230.655 99.5833 225.845 97.1762 222.054 93.531L221.474 93.9068C225.35 97.6662 230.358 100.267 235.934 101.131L235.845 100.433Z" fill="#7E6E4E"/>
<path d="M219.304 93.9251C215.322 89.6207 212.662 84.0796 211.97 77.9494L211.283 77.8582C211.967 84.2593 214.753 90.0394 218.929 94.5029L219.304 93.9251Z" fill="#7E6E4E"/>
<path d="M236.138 102.738C230.078 101.893 224.458 99.1004 220.125 94.7809L219.548 95.1539C224.041 99.678 229.905 102.587 236.226 103.427L236.138 102.738Z" fill="#7E6E4E"/>
<path d="M211.969 71.5751C212.669 65.3646 215.389 59.7601 219.459 55.432L219.089 54.8488C214.823 59.3351 211.975 65.1808 211.282 71.665L211.969 71.5751Z" fill="#7E6E4E"/>
<path d="M219.04 95.2169L233.951 85.5615L233.412 81.3237L219.04 95.2169Z" fill="#7E6E4E"/>
<path d="M233.336 68.7925L233.376 68.4838L219.523 55.1115L228.589 69.4104L233.336 68.7925Z" fill="#7E6E4E"/>
<path d="M239.31 127.646L239.321 127.561L239.299 127.56L239.31 127.646Z" fill="#7E6E4E"/>
<path d="M239.421 126.775L239.485 126.274L239.915 122.892L240 122.222L242.372 103.584L242.458 102.903L242.66 101.318L242.746 100.634L244.627 85.8589L257.297 94.2041L257.879 94.5876L259.226 95.4746L259.801 95.8531L260.284 96.1723L260.124 96.0246L260.254 95.8841L244.658 85.6132L245.28 80.7337L245.616 80.6909L260.278 95.8622L260.58 95.5339L260.6 95.5521L260.418 95.2717L260.086 94.77L260.04 94.7016L259.157 93.3605L258.778 92.7854L250.41 80.0812L265.832 78.1203L266.518 78.0323L268.125 77.828L268.812 77.7404L287.495 75.3623L288.167 75.2765L291.558 74.8451L291.741 74.8214C291.741 74.7859 291.741 74.7489 291.738 74.7065L291.556 74.6833L291.318 74.6532L288.164 74.2519L287.492 74.1661L277.725 72.9235L268.809 71.7889L268.123 71.7013L266.516 71.4966L265.829 71.4095L250.394 69.445L258.75 56.7174L259.128 56.1419L260.009 54.798L260.384 54.2285L260.67 53.7925L260.589 53.8737L260.184 53.4696L259.831 53.7013L259.256 54.0789L257.909 54.9631L257.326 55.3457L244.617 63.6854L242.702 48.8812L242.615 48.2012L242.409 46.6143L242.322 45.9357L239.913 27.3005L239.826 26.6306L239.422 23.4982V23.4918L239.391 23.2496L239.227 23.256L238.789 26.6438L238.701 27.3187L236.274 46.0899L236.185 46.7771L235.977 48.3832L235.886 49.0809L233.983 63.793L221.901 56.1351L221.317 55.7643L219.961 54.9052L219.673 54.7228L219.424 54.9508L218.557 54.0091L219.089 54.8482L219.459 55.4314L220.323 56.7936L220.697 57.3837L228.344 69.4427L214.264 71.2759L213.574 71.3671L211.969 71.5764L211.282 71.6676L192.585 74.1023L191.913 74.1898L188.521 74.6317L188.349 74.8752L188.521 74.8976L191.564 75.2939L191.913 75.3395L192.585 75.427L211.282 77.8631L211.969 77.9543L213.574 78.1636L214.264 78.2548L228.275 80.0789L220.562 91.9865L220.182 92.5734L219.303 93.93L218.928 94.5092L218.055 95.8577L218.213 96.0227L219.548 95.1563L220.124 94.7833L221.474 93.9095L222.054 93.5338L225.611 91.2313L233.983 85.8101L235.845 100.435L235.934 101.132L236.138 102.739L236.226 103.428L238.617 122.201L238.702 122.875L239.135 126.27L239.421 126.775ZM239.444 124.83L239.995 74.4977L245.062 80.6667L239.444 124.83ZM260.421 95.6839L245.893 80.6558L250.162 80.1126L260.421 95.6839ZM245.225 80.5148L240.125 74.3039L289.694 74.8552L245.225 80.5148ZM289.372 74.629L240.153 74.0818L240.159 74.0758L245.221 69.014L289.372 74.629ZM250.149 69.413L245.891 68.8713L260.277 53.9868L250.149 69.413ZM260.244 53.7008L245.614 68.8362L245.278 68.7933L244.65 63.9349L260.244 53.7008ZM245.059 68.8558L239.995 73.9222L239.448 25.4093L245.059 68.8558ZM239.217 25.0906L239.773 73.9491L233.557 68.8448L239.217 25.0906ZM233.952 64.0384L233.412 68.2091L219.796 55.0662L233.952 64.0384ZM219.523 55.1122L233.377 68.4846L233.336 68.7933L228.589 69.413L219.523 55.1122ZM233.404 69.009L239.576 74.0804L190.25 74.6299L233.404 69.009ZM189.952 74.857L239.613 74.3039L233.398 80.5153L189.952 74.857ZM228.521 80.1072L233.337 80.7342L233.377 81.0479L218.759 95.1805L228.521 80.1072ZM219.04 95.2174L233.412 81.3243L233.951 85.5621L219.04 95.2174ZM239.215 125.132L233.555 80.6758L239.77 74.4644L239.215 125.132Z" fill="#7E6E4E"/>
<path d="M239.773 73.9481L239.217 25.0896L233.557 68.8438L239.773 73.9481Z" fill="#7E6E4E"/>
<path d="M239.444 124.829L245.061 80.6664L239.994 74.4973L239.444 124.829Z" fill="#7E6E4E"/>
<path d="M239.612 74.303L189.953 74.8561L233.398 80.5144L239.612 74.303Z" fill="#7E6E4E"/>
<path d="M239.99 126.862C226.114 126.862 213.069 121.459 203.257 111.647C193.445 101.835 188.042 88.7912 188.042 74.9145C188.042 61.0378 193.446 47.9933 203.257 38.1816C213.068 28.3698 226.114 22.9669 239.99 22.9669C253.866 22.9669 266.911 28.3685 276.722 38.1816C286.534 47.9947 291.937 61.0387 291.937 74.9145C291.937 88.7903 286.534 101.836 276.722 111.647C266.911 121.458 253.866 126.862 239.99 126.862ZM239.99 23.6231C211.708 23.6231 188.698 46.6321 188.698 74.9145C188.698 103.197 211.708 126.206 239.99 126.206C268.272 126.206 291.281 103.197 291.281 74.9145C291.281 46.6321 268.272 23.6231 239.99 23.6231Z" fill="#7E6E4E"/>
<path d="M197.794 110.404L196.627 112.986L198.506 112.106L199.207 111.782L199.276 111.85L198.768 112.944L198.443 113.641L197.604 115.447C197.542 115.566 197.525 115.704 197.558 115.835C197.587 115.921 197.631 116.001 197.689 116.071L197.608 116.155L196.712 115.281L196.794 115.197C196.86 115.264 196.937 115.318 197.022 115.358C197.07 115.381 197.124 115.388 197.176 115.377C197.228 115.366 197.276 115.339 197.311 115.299C197.34 115.267 197.367 115.233 197.39 115.196C197.452 115.103 197.506 115.004 197.55 114.901L198.479 112.819L196.181 113.874C196.098 113.912 196.044 113.938 196.018 113.952C195.989 113.969 195.963 113.99 195.941 114.014C195.906 114.044 195.882 114.086 195.873 114.131C195.864 114.177 195.871 114.225 195.892 114.266C195.95 114.359 196.021 114.444 196.102 114.518L196.021 114.602L194.812 113.423L194.894 113.34C194.964 113.413 195.047 113.472 195.139 113.515C195.252 113.561 195.377 113.549 195.514 113.489L196.265 113.142L197.021 111.412L194.714 112.472C194.655 112.501 194.608 112.524 194.572 112.544C194.537 112.564 194.504 112.589 194.476 112.619C194.445 112.649 194.425 112.688 194.42 112.731C194.414 112.774 194.423 112.817 194.445 112.854C194.491 112.932 194.547 113.003 194.613 113.065L194.531 113.149L193.426 112.07L193.507 111.987C193.647 112.108 193.796 112.15 193.955 112.112C194.113 112.074 194.483 111.913 195.066 111.63L196.48 110.944L197.727 110.337L197.794 110.404Z" fill="#7E6E4E"/>
<path d="M202.227 114.916C201.961 114.657 201.637 114.546 201.253 114.582C200.995 114.613 200.744 114.688 200.512 114.805L200.408 114.703L201.479 113.874L201.579 113.971C201.55 114.013 201.528 114.059 201.514 114.108C201.501 114.158 201.521 114.209 201.574 114.261C201.596 114.282 201.708 114.341 201.912 114.436C202.102 114.522 202.276 114.639 202.426 114.783C202.705 115.054 202.855 115.356 202.879 115.688C202.893 115.845 202.873 116.002 202.819 116.15C202.765 116.297 202.68 116.431 202.568 116.541C202.411 116.711 202.2 116.821 201.971 116.853C201.744 116.882 201.432 116.852 201.036 116.762L200.401 116.621C200.211 116.571 200.015 116.552 199.819 116.564C199.668 116.577 199.527 116.646 199.424 116.757C199.365 116.813 199.32 116.881 199.293 116.957C199.265 117.033 199.256 117.114 199.266 117.195C199.287 117.357 199.364 117.506 199.483 117.618C199.641 117.773 199.857 117.872 200.132 117.916C200.406 117.96 200.721 117.873 201.076 117.656L201.184 117.761L200.148 118.624L200.057 118.533C200.088 118.485 200.109 118.43 200.117 118.373C200.122 118.327 200.096 118.275 200.04 118.22C200.019 118.2 199.912 118.145 199.718 118.055C199.555 117.985 199.405 117.888 199.273 117.768C199.023 117.525 198.896 117.254 198.893 116.955C198.89 116.808 198.918 116.662 198.974 116.526C199.031 116.39 199.114 116.267 199.22 116.165C199.393 115.991 199.626 115.889 199.871 115.88C200.037 115.875 200.204 115.892 200.366 115.929L200.985 116.066C201.341 116.144 201.586 116.182 201.723 116.18C201.823 116.179 201.921 116.159 202.012 116.12C202.104 116.081 202.186 116.024 202.255 115.952C202.414 115.789 202.486 115.611 202.47 115.417C202.454 115.226 202.368 115.047 202.227 114.916Z" fill="#7E6E4E"/>
<path d="M199.972 38.3435C199.804 38.4899 199.673 38.5633 199.583 38.5656C199.441 38.5656 199.248 38.4566 199.004 38.2295L197.254 36.6097L201.558 36.903L201.629 36.8264L199.264 34.6375C199.029 34.4195 198.905 34.2523 198.891 34.1358C198.878 34.0194 198.942 33.8666 199.083 33.6775L199 33.6005L198.023 34.6561L198.106 34.7332C198.273 34.5812 198.403 34.5032 198.497 34.4993C198.638 34.495 198.832 34.6066 199.077 34.834L200.57 36.2135L196.815 35.9576L196.105 36.7242L196.189 36.8013C196.253 36.73 196.328 36.6701 196.412 36.6239C196.473 36.5942 196.573 36.5828 196.711 36.5888L196.841 36.5942L198.819 38.4265C199.057 38.6469 199.184 38.8131 199.2 38.925C199.215 39.0368 199.147 39.1951 198.995 39.3997L199.078 39.4767L200.055 38.4215L199.972 38.3435Z" fill="#7E6E4E"/>
<path d="M203.837 35.0237L202.767 32.4002L204.612 33.3497L205.3 33.699L205.372 33.6338L204.905 32.5229L204.607 31.8143L203.832 29.9783C203.775 29.8565 203.765 29.7178 203.803 29.5889C203.835 29.5039 203.883 29.4256 203.943 29.3581L203.865 29.2715L202.938 30.1115L203.016 30.1981C203.085 30.1343 203.165 30.083 203.252 30.0463C203.301 30.0249 203.355 30.0201 203.407 30.0326C203.459 30.0452 203.505 30.0743 203.539 30.1156C203.567 30.1485 203.592 30.1839 203.614 30.2214C203.673 30.317 203.722 30.418 203.762 30.5228L204.614 32.6369L202.352 31.4969C202.27 31.4554 202.215 31.4266 202.191 31.4116C202.164 31.3938 202.139 31.3723 202.117 31.3477C202.083 31.3159 202.06 31.2735 202.053 31.2275C202.046 31.1814 202.055 31.1343 202.078 31.0937C202.139 31.0024 202.213 30.9202 202.297 30.8493L202.218 30.7627L200.968 31.8959L201.045 31.9825C201.118 31.912 201.204 31.8556 201.297 31.8161C201.359 31.7971 201.424 31.7909 201.488 31.7977C201.552 31.8046 201.614 31.8245 201.671 31.8562L202.408 32.2311L203.103 33.9872L200.837 32.843C200.778 32.8125 200.732 32.7865 200.7 32.7651C200.666 32.7436 200.635 32.7175 200.609 32.6875C200.579 32.6564 200.561 32.6162 200.556 32.5733C200.552 32.5304 200.563 32.4875 200.586 32.4513C200.635 32.3752 200.694 32.3061 200.761 32.2461L200.683 32.1599L199.538 33.1964L199.617 33.2831C199.761 33.167 199.912 33.1306 200.069 33.1741C200.226 33.2176 200.591 33.3918 201.163 33.6967L202.549 34.4355L203.774 35.0876L203.837 35.0237Z" fill="#7E6E4E"/>
<path d="M204.19 38.2194L202.56 35.9835L204.816 37.6188L204.19 38.2194Z" fill="#7E6E4E"/>
<path d="M202.128 110.479L200.391 112.632L202.723 111.108L202.128 110.479Z" fill="#7E6E4E"/>
<path d="M26.7948 24L18.8727 18.8831L26.5528 14H23.4065L17.1947 18.0715C16.7752 18.3466 16.6784 18.5667 16.6784 18.8693C16.6784 19.1444 16.7429 19.3645 17.0979 19.5983L23.6647 24H26.7948ZM16.0491 24V14H14V24H16.0491Z" fill="#7E6E4E"/>
<path d="M35.8787 24C38.1698 24 39.6542 22.7895 39.6542 20.9739C39.6542 19.8047 38.8797 19.0069 37.8148 18.718C38.6861 18.4842 39.4283 17.8514 39.4283 16.586C39.4283 14.8803 37.9278 14 35.6528 14H27.892V15.7332H35.2494C36.6047 15.7332 37.3631 16.0495 37.3631 16.9711C37.3631 17.8377 36.8145 18.1816 35.6528 18.1816H30.6188V19.6534H35.798C36.9436 19.6534 37.5728 20.1073 37.5728 20.9326C37.5728 21.7992 36.6693 22.2531 35.3785 22.2531H27.8436V24H35.8787Z" fill="#7E6E4E"/>
<path d="M49.2245 24C51.5156 24 53 22.7895 53 20.9739C53 19.8047 52.2255 19.0069 51.1606 18.718C52.0319 18.4842 52.7741 17.8514 52.7741 16.586C52.7741 14.8803 51.2736 14 48.9986 14H41.2378V15.7332H48.5952C49.9505 15.7332 50.7089 16.0495 50.7089 16.9711C50.7089 17.8377 50.1603 18.1816 48.9986 18.1816H43.9646V19.6534H49.1438C50.2894 19.6534 50.9186 20.1073 50.9186 20.9326C50.9186 21.7992 50.0151 22.2531 48.7243 22.2531H41.1894V24H49.2245Z" fill="#7E6E4E"/>
<path d="M18.9378 29.9838L17.673 28.7892C18.2159 28.5946 18.5393 28.1351 18.5393 27.4865C18.5393 26.6108 17.9733 26.0541 17.0147 26.0541H14V29.9838H14.7277V26.7405H17.0147C17.5171 26.7405 17.8174 26.9892 17.8174 27.4973C17.8174 28.0054 17.5402 28.2865 17.0147 28.2865H15.2648V28.8919H16.8356L17.8983 29.9838H18.9378Z" fill="#7E6E4E"/>
<path d="M23.0722 29.9838V29.2973H20.046V26.7405H23.0665V26.0541H19.3184V29.9838H23.0722ZM22.9105 28.2757V27.6973H20.5831V28.2757H22.9105Z" fill="#7E6E4E"/>
<path d="M26.848 29.9838C27.7258 29.9838 28.1532 29.4919 28.1532 28.8324C28.1532 28.0703 27.697 27.6973 26.848 27.6973H24.9249C24.6015 27.6973 24.3993 27.5189 24.3993 27.2216C24.3993 26.9243 24.5957 26.7405 24.9306 26.7405H27.9453V26.0541H24.9306C24.0932 26.0541 23.637 26.5243 23.637 27.1568C23.637 27.8054 24.1279 28.2757 24.9191 28.2757H26.848C27.2407 28.2757 27.4602 28.4486 27.4602 28.7838C27.4602 29.0919 27.2407 29.2973 26.848 29.2973H23.7005V29.9838H26.848Z" fill="#7E6E4E"/>
<path d="M32.5359 29.9838V29.2973H29.5097V26.7405H32.5301V26.0541H28.782V29.9838H32.5359ZM32.3742 28.2757V27.6973H30.0468V28.2757H32.3742Z" fill="#7E6E4E"/>
<path d="M38.4254 29.9838L36.0056 26.2216C35.919 26.0865 35.815 26 35.6533 26C35.4916 26 35.3819 26.0865 35.2952 26.2216L32.8812 29.9838H33.7186L35.6244 26.9676L36.56 28.4378H35.2721L34.9256 28.9946H36.9123L37.5418 29.9838H38.4254Z" fill="#7E6E4E"/>
<path d="M43.8151 29.9838L42.5504 28.7892C43.0932 28.5946 43.4166 28.1351 43.4166 27.4865C43.4166 26.6108 42.8507 26.0541 41.892 26.0541H38.8773V29.9838H39.605V26.7405H41.892C42.3944 26.7405 42.6947 26.9892 42.6947 27.4973C42.6947 28.0054 42.4175 28.2865 41.892 28.2865H40.1421V28.8919H41.713L42.7756 29.9838H43.8151Z" fill="#7E6E4E"/>
<path d="M48.2926 29.9838V29.2973H46.0172C45.2606 29.2973 44.712 28.7514 44.712 28.0108C44.712 27.2649 45.2664 26.7405 46.0172 26.7405H48.2926V26.0541H46.0172C44.8448 26.0541 43.9786 26.8216 43.9786 27.9784C43.9786 29.1189 44.8448 29.9838 46.0172 29.9838H48.2926Z" fill="#7E6E4E"/>
<path d="M53 30V26.0541H52.2665V27.6811H50.1528V28.2919H52.2665V30H53ZM49.6215 30V26.0541H48.8881V30H49.6215Z" fill="#7E6E4E"/>
<path d="M14.0153 58.777C14.2094 58.7821 14.5133 58.7975 14.927 58.8232C15.3458 58.8437 15.6446 58.8539 15.8233 58.8539C15.9817 58.8539 16.2574 58.8437 16.6507 58.8232C17.0491 58.7975 17.3428 58.7821 17.5317 58.777C17.6032 58.9668 17.7079 59.1694 17.8458 59.3848C17.9837 59.595 18.165 59.8335 18.3898 60.1002L24.0206 66.7702C24.0155 66.1035 24.0079 65.2136 23.9976 64.1007C23.9772 61.6542 23.9389 60.3182 23.8827 60.0925C23.8112 59.8464 23.6989 59.6797 23.5456 59.5925C23.3924 59.5002 23.1396 59.454 22.7872 59.454H22.5344V58.777C23.0911 58.8027 23.515 58.8232 23.8061 58.8386C24.0972 58.8488 24.3373 58.8539 24.5262 58.8539C24.751 58.8539 25.0217 58.8488 25.3383 58.8386C25.655 58.8232 26.0533 58.8027 26.5334 58.777V59.454H26.3955C26.0687 59.454 25.8286 59.4925 25.6754 59.5694C25.5222 59.6412 25.4124 59.7694 25.346 59.9541C25.2643 60.2002 25.2055 61.3568 25.1698 63.4237V63.5468L25.1391 65.2162C25.1289 65.8573 25.1213 66.4599 25.1161 67.0241C25.111 67.5831 25.1085 68.0524 25.1085 68.4319C25.1085 68.6832 25.1161 68.9268 25.1315 69.1628C25.1519 69.3987 25.18 69.6269 25.2157 69.8475H23.7142C23.6529 69.7192 23.5635 69.5731 23.446 69.4089C23.3286 69.2448 23.1039 68.9653 22.7719 68.5704L16.5894 61.3081C16.5894 63.734 16.6022 65.4752 16.6277 66.5317C16.6533 67.5831 16.6916 68.2037 16.7426 68.3934C16.8141 68.6396 16.9265 68.8114 17.0797 68.9089C17.2381 69.0012 17.4934 69.0474 17.8458 69.0474H18.0833V69.7398C17.5011 69.709 17.0593 69.6885 16.758 69.6782C16.4617 69.6679 16.2166 69.6628 16.0225 69.6628C15.8591 69.6628 15.6344 69.6679 15.3483 69.6782C15.0674 69.6885 14.618 69.709 14 69.7398V69.0474C14.0409 69.0525 14.0817 69.0576 14.1226 69.0628C14.1685 69.0628 14.2324 69.0628 14.3141 69.0628C15.0445 69.0628 15.4173 68.055 15.4326 66.0393C15.4377 65.5931 15.4403 65.247 15.4403 65.0008L15.4633 63.3621C15.4633 63.0288 15.4684 62.5518 15.4786 61.9312C15.4888 61.3055 15.4939 60.9054 15.4939 60.7311C15.4939 60.2336 15.4071 59.8951 15.2334 59.7156C15.0598 59.5309 14.7482 59.4386 14.2988 59.4386C14.2681 59.4386 14.2196 59.4412 14.1532 59.4463C14.0919 59.4514 14.046 59.454 14.0153 59.454V58.777Z" fill="#7E6E4E"/>
<path d="M31.8042 66.0701C31.6919 66.1009 31.5284 66.147 31.3139 66.2086C29.8532 66.6138 29.1229 67.0933 29.1229 67.6472C29.1229 67.9549 29.2225 68.2139 29.4216 68.4242C29.6208 68.6294 29.8711 68.7319 30.1724 68.7319C30.3665 68.7319 30.5861 68.6832 30.8313 68.5858C31.0815 68.4883 31.4058 68.3216 31.8042 68.0857V66.0701ZM34.861 68.4319L35.1444 69.0166C34.6797 69.3243 34.2609 69.5551 33.888 69.709C33.5203 69.8577 33.1909 69.9321 32.8997 69.9321C32.5473 69.9321 32.2766 69.8423 32.0877 69.6628C31.9038 69.4782 31.7966 69.2012 31.7659 68.832C31.2092 69.2217 30.7393 69.5038 30.3563 69.6782C29.9732 69.8475 29.6285 69.9321 29.322 69.9321C28.7858 69.9321 28.3287 69.7244 27.9507 69.3089C27.5728 68.8884 27.3838 68.3858 27.3838 67.8011C27.3838 66.8164 28.4793 66.0701 30.6704 65.5624C31.1454 65.4495 31.5182 65.3598 31.7889 65.2931C31.794 65.1649 31.7966 65.0418 31.7966 64.9238C31.8017 64.8007 31.8042 64.6828 31.8042 64.57C31.8042 64.0212 31.697 63.6211 31.4825 63.3698C31.2731 63.1185 30.936 62.9929 30.4712 62.9929C30.1699 62.9929 29.9094 63.0544 29.6898 63.1775C29.4753 63.3006 29.3604 63.4442 29.345 63.6083C29.3399 63.634 29.3374 63.6673 29.3374 63.7083C29.3067 64.2212 28.985 64.4776 28.3721 64.4776C28.1423 64.4776 27.966 64.4392 27.8435 64.3622C27.7209 64.2853 27.6596 64.1725 27.6596 64.0237C27.6596 63.6134 28.035 63.1544 28.7858 62.6467C29.5417 62.1338 30.3333 61.8773 31.1607 61.8773C31.9677 61.8773 32.5805 62.0902 32.9993 62.5159C33.4181 62.9364 33.6275 63.5545 33.6275 64.3699C33.6275 64.6161 33.6071 65.1264 33.5663 65.9009C33.5305 66.6702 33.5126 67.319 33.5126 67.8472C33.5126 68.1601 33.5535 68.3858 33.6352 68.5242C33.7169 68.6627 33.8446 68.7319 34.0183 68.7319C34.1153 68.7319 34.2353 68.7063 34.3783 68.655C34.5213 68.6037 34.6822 68.5294 34.861 68.4319Z" fill="#7E6E4E"/>
<path d="M35.1061 62.1158C35.53 62.1466 35.8901 62.1697 36.1863 62.1851C36.4877 62.2005 36.7354 62.2082 36.9294 62.2082C37.2767 62.2082 37.6113 62.2005 37.933 62.1851C38.2548 62.1697 38.5791 62.1466 38.906 62.1158V62.7928H38.7298C38.4795 62.7928 38.2982 62.8287 38.1859 62.9005C38.0786 62.9723 38.025 63.0877 38.025 63.2467C38.025 63.457 38.2446 64.1443 38.6838 65.3085C39.0669 66.3137 39.3759 67.1497 39.6108 67.8165L40.0551 66.7317C40.9285 64.6289 41.3652 63.4468 41.3652 63.1852C41.3652 63.0416 41.3116 62.939 41.2043 62.8775C41.097 62.8108 40.9157 62.7774 40.6604 62.7774H40.5531V62.1158C40.8493 62.1466 41.1251 62.1697 41.3805 62.1851C41.641 62.2005 41.8759 62.2082 42.0853 62.2082C42.2794 62.2082 42.6497 62.1851 43.1962 62.1389C43.3443 62.1287 43.4541 62.121 43.5256 62.1158L43.5332 62.7928H43.403C43.2038 62.7928 43.0353 62.8595 42.8974 62.9929C42.7595 63.1211 42.5986 63.3801 42.4147 63.7699C41.5873 65.5906 40.9515 67.0189 40.5071 68.055C40.0628 69.0858 39.8202 69.6987 39.7793 69.8936H38.477C38.4565 69.7398 38.3084 69.2935 38.0326 68.555C37.7568 67.8165 37.1899 66.3753 36.3319 64.2315C36.3063 64.1648 36.268 64.0673 36.217 63.9391C35.9156 63.1749 35.5811 62.7928 35.2134 62.7928H35.1061V62.1158Z" fill="#7E6E4E"/>
<path d="M45.9924 58L46.6896 58.477C46.8632 58.5949 46.9909 58.718 47.0726 58.8462C47.1595 58.9745 47.2029 59.1129 47.2029 59.2617C47.2029 59.4155 47.1697 59.5489 47.1033 59.6617C47.0369 59.7694 46.9194 59.8823 46.7509 60.0002L46.0078 60.508L45.3183 60.0464C45.1344 59.9284 44.9965 59.8053 44.9046 59.6771C44.8177 59.5489 44.7743 59.4155 44.7743 59.2771C44.7743 59.1232 44.8101 58.9873 44.8816 58.8693C44.9531 58.7514 45.0833 58.6257 45.2723 58.4924L45.9924 58ZM47.065 61.862C47.0343 62.9698 47.0088 63.9365 46.9884 64.7623C46.973 65.588 46.9654 66.265 46.9654 66.7933V67.6934C46.9654 68.2934 47.0241 68.6781 47.1416 68.8473C47.2642 69.0115 47.494 69.0935 47.8311 69.0935C47.8566 69.0935 47.8949 69.091 47.946 69.0858C48.0022 69.0807 48.0481 69.0781 48.0839 69.0781V69.7398C47.614 69.709 47.2029 69.6859 46.8505 69.6705C46.4981 69.6551 46.2069 69.6474 45.9771 69.6474C45.783 69.6474 45.52 69.6551 45.188 69.6705C44.8612 69.6859 44.4704 69.709 44.0159 69.7398V69.0781H44.1768C44.8305 69.0781 45.1599 68.4729 45.165 67.2626C45.165 67.0677 45.165 66.9164 45.165 66.8087L45.1804 65.17V64.493C45.1804 63.9186 45.1344 63.5493 45.0425 63.3852C44.9505 63.2211 44.7718 63.139 44.5062 63.139C44.4704 63.139 44.3887 63.1442 44.261 63.1544C44.2049 63.1595 44.1615 63.1647 44.1308 63.1698L44.0159 62.5543C44.5573 62.4825 45.0782 62.3902 45.5787 62.2774C46.0793 62.1646 46.5747 62.0261 47.065 61.862Z" fill="#7E6E4E"/>
<path d="M52.7188 62.6005C52.254 62.6005 51.8863 62.7646 51.6156 63.0929C51.3449 63.4211 51.2096 63.8724 51.2096 64.4469C51.2096 65.0777 51.3449 65.5726 51.6156 65.9316C51.8863 66.2855 52.2643 66.4625 52.7495 66.4625C53.2295 66.4625 53.6049 66.3035 53.8756 65.9855C54.1463 65.6624 54.2817 65.211 54.2817 64.6315C54.2817 63.9596 54.1489 63.4544 53.8833 63.1159C53.6228 62.7723 53.2347 62.6005 52.7188 62.6005ZM51.3475 69.8628C51.1432 70.0782 50.9925 70.2834 50.8955 70.4783C50.8036 70.6732 50.7576 70.8681 50.7576 71.063C50.7576 71.5143 50.9593 71.8913 51.3628 72.1939C51.7663 72.5016 52.2796 72.6555 52.9027 72.6555C53.6228 72.6555 54.2255 72.4836 54.7107 72.14C55.201 71.7964 55.4461 71.3861 55.4461 70.9091C55.4461 70.5193 55.298 70.2475 55.0018 70.0936C54.7107 69.9398 54.1106 69.8628 53.2015 69.8628H51.3475ZM54.7566 62.4005C55.344 62.4005 55.7934 62.3954 56.105 62.3851C56.4216 62.3748 56.7204 62.3569 57.0013 62.3312L56.9783 63.2467C56.7536 63.2211 56.5085 63.2031 56.2429 63.1929C55.9824 63.1775 55.6811 63.1698 55.3389 63.1698C55.5687 63.3801 55.7373 63.6083 55.8445 63.8545C55.9569 64.0955 56.0131 64.3597 56.0131 64.6469C56.0131 65.3598 55.7117 65.9573 55.1091 66.4394C54.5115 66.9164 53.7607 67.1549 52.8567 67.1549C52.7648 67.1549 52.5937 67.1472 52.3434 67.1318C52.2924 67.1266 52.254 67.1241 52.2285 67.1241C52.1213 67.1908 52.0114 67.2677 51.8991 67.3549C51.7918 67.4369 51.6667 67.5446 51.5237 67.678C51.6309 67.837 51.7382 67.9729 51.8455 68.0857C51.9527 68.1986 52.0651 68.2986 52.1825 68.3858H53.0099H54.4732C55.2955 68.3858 55.9058 68.5396 56.3042 68.8473C56.7025 69.1499 56.9017 69.6167 56.9017 70.2475C56.9017 70.6681 56.7715 71.0963 56.511 71.5323C56.2557 71.9682 55.8956 72.358 55.4308 72.7016C54.9967 73.0299 54.4936 73.2863 53.9216 73.4709C53.3496 73.6607 52.7852 73.7556 52.2285 73.7556C51.3398 73.7556 50.612 73.5504 50.0451 73.1401C49.4833 72.7298 49.2024 72.2169 49.2024 71.6015C49.2024 71.2271 49.325 70.8706 49.5701 70.5321C49.8153 70.1988 50.2264 69.8295 50.8036 69.4243C50.5737 69.2089 50.3848 68.991 50.2366 68.7704C50.0885 68.5447 49.9685 68.3011 49.8766 68.0396C50.0655 67.8447 50.2852 67.6575 50.5354 67.478C50.7857 67.2985 51.0666 67.1241 51.3781 66.9548C50.7397 66.7958 50.252 66.524 49.9149 66.1394C49.5829 65.7496 49.4169 65.2598 49.4169 64.67C49.4169 63.8955 49.7361 63.2365 50.3745 62.6928C51.013 62.1492 51.7944 61.8773 52.7188 61.8773C53.1325 61.8773 53.4977 61.9184 53.8143 62.0004C54.1361 62.0825 54.4502 62.2158 54.7566 62.4005Z" fill="#7E6E4E"/>
<path d="M62.2951 66.0701C62.1827 66.1009 62.0193 66.147 61.8048 66.2086C60.3441 66.6138 59.6137 67.0933 59.6137 67.6472C59.6137 67.9549 59.7133 68.2139 59.9125 68.4242C60.1117 68.6294 60.362 68.7319 60.6633 68.7319C60.8574 68.7319 61.077 68.6832 61.3221 68.5858C61.5724 68.4883 61.8967 68.3216 62.2951 68.0857V66.0701ZM65.3518 68.4319L65.6353 69.0166C65.1705 69.3243 64.7517 69.5551 64.3789 69.709C64.0112 69.8577 63.6817 69.9321 63.3906 69.9321C63.0382 69.9321 62.7675 69.8423 62.5786 69.6628C62.3947 69.4782 62.2874 69.2012 62.2568 68.832C61.7001 69.2217 61.2302 69.5038 60.8472 69.6782C60.4641 69.8475 60.1194 69.9321 59.8129 69.9321C59.2766 69.9321 58.8195 69.7244 58.4416 69.3089C58.0637 68.8884 57.8747 68.3858 57.8747 67.8011C57.8747 66.8164 58.9702 66.0701 61.1613 65.5624C61.6362 65.4495 62.0091 65.3598 62.2798 65.2931C62.2849 65.1649 62.2874 65.0418 62.2874 64.9238C62.2925 64.8007 62.2951 64.6828 62.2951 64.57C62.2951 64.0212 62.1878 63.6211 61.9733 63.3698C61.7639 63.1185 61.4268 62.9929 60.9621 62.9929C60.6607 62.9929 60.4003 63.0544 60.1807 63.1775C59.9661 63.3006 59.8512 63.4442 59.8359 63.6083C59.8308 63.634 59.8282 63.6673 59.8282 63.7083C59.7976 64.2212 59.4758 64.4776 58.863 64.4776C58.6331 64.4776 58.4569 64.4392 58.3343 64.3622C58.2118 64.2853 58.1505 64.1725 58.1505 64.0237C58.1505 63.6134 58.5259 63.1544 59.2766 62.6467C60.0325 62.1338 60.8242 61.8773 61.6516 61.8773C62.4585 61.8773 63.0714 62.0902 63.4902 62.5159C63.909 62.9364 64.1184 63.5545 64.1184 64.3699C64.1184 64.6161 64.098 65.1264 64.0571 65.9009C64.0214 66.6702 64.0035 67.319 64.0035 67.8472C64.0035 68.1601 64.0444 68.3858 64.1261 68.5242C64.2078 68.6627 64.3355 68.7319 64.5091 68.7319C64.6062 68.7319 64.7262 68.7063 64.8692 68.655C65.0122 68.6037 65.1731 68.5294 65.3518 68.4319Z" fill="#7E6E4E"/>
<path d="M68.3396 60.5387L69.0138 60.7311C68.9832 61.0183 68.9551 61.2927 68.9295 61.5542C68.9091 61.8107 68.8963 62.0543 68.8912 62.2851C69.5603 62.2851 70.0583 62.28 70.3851 62.2697C70.712 62.2594 71.0133 62.2441 71.2891 62.2235L71.09 63.2775C70.7682 63.2519 70.4209 63.2339 70.048 63.2237C69.6803 63.2083 69.2947 63.2031 68.8912 63.2083C68.8759 63.8853 68.8631 64.4648 68.8529 64.9469C68.8478 65.4239 68.8453 65.7983 68.8453 66.0701C68.8453 67.1933 68.9244 67.9267 69.0828 68.2704C69.2462 68.6089 69.5322 68.7781 69.9408 68.7781C70.1042 68.7781 70.2906 68.7448 70.5 68.6781C70.7094 68.6114 70.9469 68.5088 71.2125 68.3704L71.5113 69.0166C70.9495 69.3346 70.449 69.5756 70.0097 69.7398C69.5705 69.909 69.2079 69.9936 68.9219 69.9936C68.2681 69.9936 67.7855 69.7885 67.4739 69.3782C67.1624 68.9627 67.0066 68.3216 67.0066 67.4549C67.0066 67.2856 67.0194 66.7292 67.0449 65.7855C67.0756 64.8418 67.0909 63.9801 67.0909 63.2006C67.0807 63.2006 66.9581 63.2057 66.7232 63.216C66.4933 63.2262 66.2226 63.2365 65.9111 63.2467V62.5082C66.5035 62.421 66.999 62.2158 67.3973 61.8927C67.8008 61.5645 68.1149 61.1132 68.3396 60.5387Z" fill="#7E6E4E"/>
<path d="M74.2463 58L74.9434 58.477C75.1171 58.5949 75.2448 58.718 75.3265 58.8462C75.4133 58.9745 75.4567 59.1129 75.4567 59.2617C75.4567 59.4155 75.4235 59.5489 75.3571 59.6617C75.2907 59.7694 75.1733 59.8823 75.0047 60.0002L74.2616 60.508L73.5721 60.0464C73.3883 59.9284 73.2504 59.8053 73.1584 59.6771C73.0716 59.5489 73.0282 59.4155 73.0282 59.2771C73.0282 59.1232 73.0639 58.9873 73.1354 58.8693C73.2069 58.7514 73.3372 58.6257 73.5262 58.4924L74.2463 58ZM75.3188 61.862C75.2882 62.9698 75.2627 63.9365 75.2422 64.7623C75.2269 65.588 75.2192 66.265 75.2192 66.7933V67.6934C75.2192 68.2934 75.278 68.6781 75.3954 68.8473C75.518 69.0115 75.7479 69.0935 76.0849 69.0935C76.1105 69.0935 76.1488 69.091 76.1999 69.0858C76.256 69.0807 76.302 69.0781 76.3377 69.0781V69.7398C75.8679 69.709 75.4567 69.6859 75.1043 69.6705C74.7519 69.6551 74.4608 69.6474 74.231 69.6474C74.0369 69.6474 73.7739 69.6551 73.4419 69.6705C73.115 69.6859 72.7243 69.709 72.2697 69.7398V69.0781H72.4306C73.0844 69.0781 73.4138 68.4729 73.4189 67.2626C73.4189 67.0677 73.4189 66.9164 73.4189 66.8087L73.4342 65.17V64.493C73.4342 63.9186 73.3883 63.5493 73.2963 63.3852C73.2044 63.2211 73.0256 63.139 72.7601 63.139C72.7243 63.139 72.6426 63.1442 72.5149 63.1544C72.4587 63.1595 72.4153 63.1647 72.3847 63.1698L72.2697 62.5543C72.8111 62.4825 73.3321 62.3902 73.8326 62.2774C74.3331 62.1646 74.8285 62.0261 75.3188 61.862Z" fill="#7E6E4E"/>
<path d="M80.2449 61.862L80.1223 63.1236C80.7352 62.6826 81.2587 62.362 81.6928 62.162C82.1269 61.962 82.5125 61.862 82.8496 61.862C83.6515 61.862 84.2541 62.0979 84.6576 62.5697C85.0662 63.0365 85.2705 63.7288 85.2705 64.6469C85.2705 64.8213 85.2654 65.2264 85.2552 65.8624C85.245 66.4932 85.2399 67.0395 85.2399 67.501C85.2399 68.255 85.2935 68.7089 85.4007 68.8627C85.5131 69.0166 85.7353 69.0935 86.0673 69.0935H86.2281L86.2128 69.7398C85.7583 69.709 85.3701 69.6859 85.0483 69.6705C84.7266 69.6551 84.4661 69.6474 84.2669 69.6474C84.0524 69.6474 83.7868 69.6551 83.4702 69.6705C83.1586 69.6859 82.796 69.709 82.3823 69.7398V69.0935H82.4742C83.1075 69.0935 83.4319 68.4524 83.4472 67.1702C83.4472 67.1292 83.4472 67.0984 83.4472 67.0779V65.4547C83.4472 64.5674 83.345 63.9699 83.1407 63.6622C82.9364 63.3544 82.5891 63.2006 82.0988 63.2006C81.8333 63.2006 81.5472 63.257 81.2408 63.3698C80.9344 63.4775 80.5973 63.6468 80.2296 63.8776C80.2091 64.3392 80.1938 64.8187 80.1836 65.3162C80.1734 65.8137 80.1683 66.3471 80.1683 66.9164V67.5472C80.1683 68.2396 80.2219 68.6704 80.3291 68.8397C80.4415 69.0089 80.6611 69.0935 80.988 69.0935H81.1106V69.7398C80.6815 69.709 80.3062 69.6859 79.9844 69.6705C79.6626 69.6551 79.3894 69.6474 79.1647 69.6474C78.9451 69.6474 78.6744 69.6551 78.3526 69.6705C78.0308 69.6859 77.658 69.709 77.2341 69.7398V69.0935H77.4103C78.0436 69.0935 78.3654 68.4499 78.3756 67.1625C78.3756 67.0087 78.3781 66.8907 78.3832 66.8087L78.3986 65.2162V64.5392C78.3986 63.9596 78.3526 63.5852 78.2607 63.416C78.1738 63.2416 78.0104 63.1544 77.7704 63.1544C77.7244 63.1544 77.6222 63.1621 77.4639 63.1775C77.4333 63.1826 77.4103 63.1852 77.395 63.1852L77.349 62.5851C77.7729 62.5184 78.2198 62.4261 78.6897 62.3082C79.1596 62.1902 79.678 62.0415 80.2449 61.862Z" fill="#7E6E4E"/>
<path d="M90.7175 62.6005C90.2527 62.6005 89.885 62.7646 89.6143 63.0929C89.3436 63.4211 89.2083 63.8724 89.2083 64.4469C89.2083 65.0777 89.3436 65.5726 89.6143 65.9316C89.885 66.2855 90.2629 66.4625 90.7481 66.4625C91.2282 66.4625 91.6036 66.3035 91.8743 65.9855C92.145 65.6624 92.2803 65.211 92.2803 64.6315C92.2803 63.9596 92.1476 63.4544 91.882 63.1159C91.6215 62.7723 91.2333 62.6005 90.7175 62.6005ZM89.3462 69.8628C89.1419 70.0782 88.9912 70.2834 88.8942 70.4783C88.8022 70.6732 88.7563 70.8681 88.7563 71.063C88.7563 71.5143 88.958 71.8913 89.3615 72.1939C89.765 72.5016 90.2783 72.6555 90.9014 72.6555C91.6215 72.6555 92.2242 72.4836 92.7094 72.14C93.1997 71.7964 93.4448 71.3861 93.4448 70.9091C93.4448 70.5193 93.2967 70.2475 93.0005 70.0936C92.7094 69.9398 92.1092 69.8628 91.2001 69.8628H89.3462ZM92.7553 62.4005C93.3427 62.4005 93.7921 62.3954 94.1037 62.3851C94.4203 62.3748 94.7191 62.3569 95 62.3312L94.977 63.2467C94.7523 63.2211 94.5071 63.2031 94.2416 63.1929C93.9811 63.1775 93.6798 63.1698 93.3376 63.1698C93.5674 63.3801 93.7359 63.6083 93.8432 63.8545C93.9556 64.0955 94.0117 64.3597 94.0117 64.6469C94.0117 65.3598 93.7104 65.9573 93.1077 66.4394C92.5102 66.9164 91.7594 67.1549 90.8554 67.1549C90.7635 67.1549 90.5924 67.1472 90.3421 67.1318C90.291 67.1266 90.2527 67.1241 90.2272 67.1241C90.1199 67.1908 90.0101 67.2677 89.8978 67.3549C89.7905 67.4369 89.6654 67.5446 89.5224 67.678C89.6296 67.837 89.7369 67.9729 89.8441 68.0857C89.9514 68.1986 90.0638 68.2986 90.1812 68.3858H91.0086H92.4719C93.2942 68.3858 93.9045 68.5396 94.3028 68.8473C94.7012 69.1499 94.9004 69.6167 94.9004 70.2475C94.9004 70.6681 94.7702 71.0963 94.5097 71.5323C94.2543 71.9682 93.8943 72.358 93.4295 72.7016C92.9954 73.0299 92.4923 73.2863 91.9203 73.4709C91.3483 73.6607 90.7839 73.7556 90.2272 73.7556C89.3385 73.7556 88.6107 73.5504 88.0438 73.1401C87.482 72.7298 87.2011 72.2169 87.2011 71.6015C87.2011 71.2271 87.3237 70.8706 87.5688 70.5321C87.814 70.1988 88.2251 69.8295 88.8022 69.4243C88.5724 69.2089 88.3834 68.991 88.2353 68.7704C88.0872 68.5447 87.9672 68.3011 87.8753 68.0396C88.0642 67.8447 88.2838 67.6575 88.5341 67.478C88.7844 67.2985 89.0653 67.1241 89.3768 66.9548C88.7384 66.7958 88.2506 66.524 87.9136 66.1394C87.5816 65.7496 87.4156 65.2598 87.4156 64.67C87.4156 63.8955 87.7348 63.2365 88.3732 62.6928C89.0116 62.1492 89.7931 61.8773 90.7175 61.8773C91.1312 61.8773 91.4964 61.9184 91.813 62.0004C92.1348 62.0825 92.4489 62.2158 92.7553 62.4005Z" fill="#7E6E4E"/>
<path d="M15.379 76.7834C15.5731 76.7885 15.877 76.8039 16.2906 76.8295C16.7094 76.8501 17.0082 76.8603 17.187 76.8603C17.3453 76.8603 17.6211 76.8501 18.0144 76.8295C18.4127 76.8039 18.7064 76.7885 18.8954 76.7834C18.9669 76.9731 19.0716 77.1757 19.2095 77.3911C19.3474 77.6014 19.5287 77.8399 19.7534 78.1066L25.3843 84.7766C25.3792 84.1098 25.3715 83.22 25.3613 82.107C25.3409 79.6606 25.3026 78.3246 25.2464 78.0989C25.1749 77.8527 25.0625 77.686 24.9093 77.5989C24.7561 77.5065 24.5033 77.4604 24.1509 77.4604H23.898V76.7834C24.4547 76.809 24.8787 76.8295 25.1698 76.8449C25.4609 76.8552 25.7009 76.8603 25.8899 76.8603C26.1146 76.8603 26.3853 76.8552 26.702 76.8449C27.0186 76.8295 27.417 76.809 27.8971 76.7834V77.4604H27.7592C27.4323 77.4604 27.1923 77.4988 27.0391 77.5758C26.8858 77.6476 26.776 77.7758 26.7096 77.9604C26.6279 78.2066 26.5692 79.3632 26.5334 81.43V81.5531L26.5028 83.2226C26.4926 83.8636 26.4849 84.4663 26.4798 85.0304C26.4747 85.5895 26.4721 86.0588 26.4721 86.4383C26.4721 86.6896 26.4798 86.9332 26.4951 87.1691C26.5156 87.4051 26.5436 87.6333 26.5794 87.8538H25.0778C25.0166 87.7256 24.9272 87.5794 24.8097 87.4153C24.6922 87.2512 24.4675 86.9717 24.1355 86.5768L17.9531 79.3144C17.9531 81.7403 17.9659 83.4816 17.9914 84.5381C18.0169 85.5895 18.0552 86.2101 18.1063 86.3998C18.1778 86.646 18.2902 86.8178 18.4434 86.9153C18.6017 87.0076 18.8571 87.0537 19.2095 87.0537H19.447V87.7461C18.8647 87.7154 18.423 87.6948 18.1216 87.6846C17.8254 87.6743 17.5803 87.6692 17.3862 87.6692C17.2227 87.6692 16.998 87.6743 16.712 87.6846C16.4311 87.6948 15.9817 87.7154 15.3637 87.7461V87.0537C15.4045 87.0589 15.4454 87.064 15.4862 87.0691C15.5322 87.0691 15.596 87.0691 15.6778 87.0691C16.4081 87.0691 16.781 86.0613 16.7963 84.0457C16.8014 83.5995 16.8039 83.2533 16.8039 83.0071L16.8269 81.3685C16.8269 81.0351 16.832 80.5582 16.8422 79.9376C16.8525 79.3119 16.8576 78.9118 16.8576 78.7374C16.8576 78.24 16.7707 77.9015 16.5971 77.7219C16.4234 77.5373 16.1119 77.445 15.6624 77.445C15.6318 77.445 15.5833 77.4476 15.5169 77.4527C15.4556 77.4578 15.4096 77.4604 15.379 77.4604V76.7834Z" fill="#7E6E4E"/>
<path d="M33.1679 84.0765C33.0555 84.1073 32.8921 84.1534 32.6776 84.215C31.2169 84.6201 30.4865 85.0997 30.4865 85.6536C30.4865 85.9613 30.5861 86.2203 30.7853 86.4306C30.9845 86.6357 31.2347 86.7383 31.5361 86.7383C31.7302 86.7383 31.9498 86.6896 32.1949 86.5922C32.4452 86.4947 32.7695 86.328 33.1679 86.0921V84.0765ZM36.2246 86.4383L36.5081 87.023C36.0433 87.3307 35.6245 87.5615 35.2517 87.7154C34.884 87.8641 34.5545 87.9385 34.2634 87.9385C33.911 87.9385 33.6403 87.8487 33.4513 87.6692C33.2675 87.4846 33.1602 87.2076 33.1296 86.8383C32.5729 87.2281 32.103 87.5102 31.7199 87.6846C31.3369 87.8538 30.9922 87.9385 30.6857 87.9385C30.1494 87.9385 29.6923 87.7307 29.3144 87.3153C28.9364 86.8948 28.7475 86.3921 28.7475 85.8075C28.7475 84.8227 29.843 84.0765 32.034 83.5687C32.509 83.4559 32.8819 83.3662 33.1526 83.2995C33.1577 83.1713 33.1602 83.0482 33.1602 82.9302C33.1653 82.8071 33.1679 82.6892 33.1679 82.5763C33.1679 82.0275 33.0606 81.6275 32.8461 81.3762C32.6367 81.1249 32.2996 80.9992 31.8349 80.9992C31.5335 80.9992 31.2731 81.0608 31.0534 81.1839C30.8389 81.307 30.724 81.4506 30.7087 81.6147C30.7036 81.6403 30.701 81.6737 30.701 81.7147C30.6704 82.2276 30.3486 82.484 29.7357 82.484C29.5059 82.484 29.3297 82.4455 29.2071 82.3686C29.0846 82.2917 29.0233 82.1788 29.0233 82.0301C29.0233 81.6198 29.3987 81.1608 30.1494 80.653C30.9053 80.1402 31.697 79.8837 32.5244 79.8837C33.3313 79.8837 33.9442 80.0966 34.363 80.5223C34.7818 80.9428 34.9912 81.5608 34.9912 82.3763C34.9912 82.6225 34.9708 83.1328 34.9299 83.9072C34.8942 84.6766 34.8763 85.3253 34.8763 85.8536C34.8763 86.1665 34.9171 86.3921 34.9989 86.5306C35.0806 86.6691 35.2083 86.7383 35.3819 86.7383C35.479 86.7383 35.599 86.7127 35.742 86.6614C35.885 86.6101 36.0459 86.5357 36.2246 86.4383Z" fill="#7E6E4E"/>
<path d="M39.856 79.8222C39.8202 80.3043 39.7921 80.7171 39.7717 81.0608C39.7513 81.4044 39.7385 81.7044 39.7334 81.9609C40.1879 81.1967 40.5786 80.6736 40.9055 80.3915C41.2324 80.1043 41.5899 79.9607 41.9781 79.9607C42.2487 79.9607 42.4837 80.0607 42.6829 80.2607C42.8821 80.4607 42.9817 80.7018 42.9817 80.9838C42.9817 81.2454 42.9178 81.4531 42.7901 81.607C42.6676 81.7609 42.5016 81.8378 42.2922 81.8378C42.1747 81.8378 42.0113 81.7968 41.8019 81.7147C41.5925 81.6275 41.4265 81.5839 41.3039 81.5839C41.0741 81.5839 40.8442 81.6711 40.6144 81.8455C40.3846 82.0199 40.1164 82.3122 39.81 82.7225C39.81 82.8866 39.8074 83.1379 39.8023 83.4764C39.7972 83.8149 39.7947 84.0714 39.7947 84.2457V85.0997C39.7947 85.987 39.8738 86.546 40.0322 86.7768C40.1905 87.0025 40.4995 87.1153 40.9591 87.1153C40.9898 87.1153 41.0383 87.1127 41.1047 87.1076C41.1762 87.1025 41.2324 87.0999 41.2732 87.0999V87.7461H41.2503C40.1113 87.6743 39.3708 87.6384 39.0286 87.6384C38.7579 87.6384 38.0709 87.6718 36.9677 87.7384H36.8145V87.0845H37.0214C37.4044 87.0845 37.6649 86.9896 37.8028 86.7999C37.9407 86.6101 38.0096 86.1588 38.0096 85.4459V84.515V82.8456C38.0096 82.0763 37.9611 81.6019 37.8641 81.4224C37.7722 81.2377 37.596 81.1454 37.3355 81.1454C37.3048 81.1454 37.2487 81.1531 37.1669 81.1685C37.0852 81.1787 37.0188 81.1864 36.9677 81.1916L36.9065 80.5761C37.3917 80.4992 37.8769 80.3992 38.3621 80.2761C38.8473 80.153 39.3452 80.0017 39.856 79.8222Z" fill="#7E6E4E"/>
<path d="M46.8888 79.8222C46.853 80.3043 46.8249 80.7171 46.8045 81.0608C46.7841 81.4044 46.7713 81.7044 46.7662 81.9609C47.2208 81.1967 47.6115 80.6736 47.9383 80.3915C48.2652 80.1043 48.6227 79.9607 49.0109 79.9607C49.2816 79.9607 49.5165 80.0607 49.7157 80.2607C49.9149 80.4607 50.0145 80.7018 50.0145 80.9838C50.0145 81.2454 49.9506 81.4531 49.8229 81.607C49.7004 81.7609 49.5344 81.8378 49.325 81.8378C49.2075 81.8378 49.0441 81.7968 48.8347 81.7147C48.6253 81.6275 48.4593 81.5839 48.3367 81.5839C48.1069 81.5839 47.877 81.6711 47.6472 81.8455C47.4174 82.0199 47.1493 82.3122 46.8428 82.7225C46.8428 82.8866 46.8403 83.1379 46.8351 83.4764C46.83 83.8149 46.8275 84.0714 46.8275 84.2457V85.0997C46.8275 85.987 46.9067 86.546 47.065 86.7768C47.2233 87.0025 47.5323 87.1153 47.992 87.1153C48.0226 87.1153 48.0711 87.1127 48.1375 87.1076C48.209 87.1025 48.2652 87.0999 48.3061 87.0999V87.7461H48.2831C47.1441 87.6743 46.4036 87.6384 46.0614 87.6384C45.7907 87.6384 45.1038 87.6718 44.0006 87.7384H43.8473V87.0845H44.0542C44.4372 87.0845 44.6977 86.9896 44.8356 86.7999C44.9735 86.6101 45.0425 86.1588 45.0425 85.4459V84.515V82.8456C45.0425 82.0763 44.9939 81.6019 44.8969 81.4224C44.805 81.2377 44.6288 81.1454 44.3683 81.1454C44.3377 81.1454 44.2815 81.1531 44.1998 81.1685C44.118 81.1787 44.0516 81.1864 44.0006 81.1916L43.9393 80.5761C44.4245 80.4992 44.9097 80.3992 45.3949 80.2761C45.8801 80.153 46.378 80.0017 46.8888 79.8222Z" fill="#7E6E4E"/>
<path d="M55.1091 84.0765C54.9967 84.1073 54.8333 84.1534 54.6187 84.215C53.158 84.6201 52.4277 85.0997 52.4277 85.6536C52.4277 85.9613 52.5273 86.2203 52.7265 86.4306C52.9257 86.6357 53.1759 86.7383 53.4773 86.7383C53.6713 86.7383 53.8909 86.6896 54.1361 86.5922C54.3864 86.4947 54.7107 86.328 55.1091 86.0921V84.0765ZM58.1658 86.4383L58.4493 87.023C57.9845 87.3307 57.5657 87.5615 57.1929 87.7154C56.8251 87.8641 56.4957 87.9385 56.2046 87.9385C55.8522 87.9385 55.5815 87.8487 55.3925 87.6692C55.2086 87.4846 55.1014 87.2076 55.0707 86.8383C54.514 87.2281 54.0442 87.5102 53.6611 87.6846C53.2781 87.8538 52.9333 87.9385 52.6269 87.9385C52.0906 87.9385 51.6335 87.7307 51.2556 87.3153C50.8776 86.8948 50.6886 86.3921 50.6886 85.8075C50.6886 84.8227 51.7842 84.0765 53.9752 83.5687C54.4502 83.4559 54.823 83.3662 55.0937 83.2995C55.0988 83.1713 55.1014 83.0482 55.1014 82.9302C55.1065 82.8071 55.1091 82.6892 55.1091 82.5763C55.1091 82.0275 55.0018 81.6275 54.7873 81.3762C54.5779 81.1249 54.2408 80.9992 53.776 80.9992C53.4747 80.9992 53.2142 81.0608 52.9946 81.1839C52.7801 81.307 52.6652 81.4506 52.6499 81.6147C52.6448 81.6403 52.6422 81.6737 52.6422 81.7147C52.6116 82.2276 52.2898 82.484 51.6769 82.484C51.4471 82.484 51.2709 82.4455 51.1483 82.3686C51.0257 82.2917 50.9644 82.1788 50.9644 82.0301C50.9644 81.6198 51.3398 81.1608 52.0906 80.653C52.8465 80.1402 53.6381 79.8837 54.4655 79.8837C55.2725 79.8837 55.8854 80.0966 56.3042 80.5223C56.723 80.9428 56.9324 81.5608 56.9324 82.3763C56.9324 82.6225 56.9119 83.1328 56.8711 83.9072C56.8353 84.6766 56.8175 85.3253 56.8175 85.8536C56.8175 86.1665 56.8583 86.3921 56.94 86.5306C57.0218 86.6691 57.1494 86.7383 57.3231 86.7383C57.4201 86.7383 57.5402 86.7127 57.6832 86.6614C57.8262 86.6101 57.987 86.5357 58.1658 86.4383Z" fill="#7E6E4E"/>
<path d="M61.1536 78.5451L61.8278 78.7374C61.7971 79.0247 61.769 79.299 61.7435 79.5606C61.7231 79.817 61.7103 80.0607 61.7052 80.2915C62.3743 80.2915 62.8722 80.2863 63.1991 80.2761C63.526 80.2658 63.8273 80.2504 64.1031 80.2299L63.9039 81.2839C63.5821 81.2582 63.2348 81.2403 62.862 81.23C62.4943 81.2146 62.1087 81.2095 61.7052 81.2146C61.6899 81.8916 61.6771 82.4712 61.6669 82.9533C61.6618 83.4303 61.6592 83.8047 61.6592 84.0765C61.6592 85.1997 61.7384 85.9331 61.8967 86.2767C62.0602 86.6152 62.3462 86.7845 62.7548 86.7845C62.9182 86.7845 63.1046 86.7511 63.314 86.6845C63.5234 86.6178 63.7609 86.5152 64.0265 86.3767L64.3253 87.023C63.7635 87.341 63.2629 87.582 62.8237 87.7461C62.3845 87.9154 62.0219 88 61.7358 88C61.0821 88 60.5995 87.7948 60.2879 87.3845C59.9764 86.9691 59.8206 86.328 59.8206 85.4613C59.8206 85.292 59.8334 84.7355 59.8589 83.7918C59.8895 82.8482 59.9049 81.9865 59.9049 81.2069C59.8946 81.2069 59.7721 81.2121 59.5371 81.2223C59.3073 81.2326 59.0366 81.2428 58.7251 81.2531V80.5146C59.3175 80.4274 59.8129 80.2222 60.2113 79.8991C60.6148 79.5709 60.9289 79.1195 61.1536 78.5451Z" fill="#7E6E4E"/>
<path d="M67.0602 76.0064L67.7574 76.4834C67.9311 76.6013 68.0587 76.7244 68.1405 76.8526C68.2273 76.9808 68.2707 77.1193 68.2707 77.2681C68.2707 77.4219 68.2375 77.5553 68.1711 77.6681C68.1047 77.7758 67.9872 77.8886 67.8187 78.0066L67.0756 78.5143L66.3861 78.0528C66.2022 77.9348 66.0643 77.8117 65.9724 77.6835C65.8856 77.5553 65.8421 77.4219 65.8421 77.2834C65.8421 77.1296 65.8779 76.9937 65.9494 76.8757C66.0209 76.7577 66.1511 76.6321 66.3401 76.4987L67.0602 76.0064ZM68.1328 79.8683C68.1021 80.9762 68.0766 81.9429 68.0562 82.7687C68.0409 83.5944 68.0332 84.2714 68.0332 84.7996V85.6997C68.0332 86.2998 68.0919 86.6845 68.2094 86.8537C68.332 87.0178 68.5618 87.0999 68.8989 87.0999C68.9244 87.0999 68.9627 87.0973 69.0138 87.0922C69.07 87.0871 69.116 87.0845 69.1517 87.0845V87.7461C68.6818 87.7154 68.2707 87.6923 67.9183 87.6769C67.5659 87.6615 67.2748 87.6538 67.0449 87.6538C66.8508 87.6538 66.5878 87.6615 66.2558 87.6769C65.929 87.6923 65.5383 87.7154 65.0837 87.7461V87.0845H65.2446C65.8983 87.0845 66.2278 86.4793 66.2329 85.2689C66.2329 85.074 66.2329 84.9227 66.2329 84.815L66.2482 83.1764V82.4994C66.2482 81.925 66.2022 81.5557 66.1103 81.3916C66.0184 81.2275 65.8396 81.1454 65.574 81.1454C65.5383 81.1454 65.4565 81.1505 65.3289 81.1608C65.2727 81.1659 65.2293 81.171 65.1986 81.1762L65.0837 80.5607C65.6251 80.4889 66.146 80.3966 66.6466 80.2838C67.1471 80.1709 67.6425 80.0325 68.1328 79.8683Z" fill="#7E6E4E"/>
<path d="M69.6727 80.1222C70.0966 80.153 70.4566 80.1761 70.7529 80.1915C71.0542 80.2068 71.3019 80.2145 71.496 80.2145C71.8433 80.2145 72.1778 80.2068 72.4996 80.1915C72.8213 80.1761 73.1457 80.153 73.4725 80.1222V80.7992H73.2963C73.0461 80.7992 72.8648 80.8351 72.7524 80.9069C72.6451 80.9787 72.5915 81.0941 72.5915 81.2531C72.5915 81.4634 72.8111 82.1506 73.2504 83.3149C73.6334 84.3201 73.9424 85.1561 74.1773 85.8228L74.6217 84.7381C75.495 82.6353 75.9317 81.4531 75.9317 81.1916C75.9317 81.048 75.8781 80.9454 75.7708 80.8838C75.6636 80.8172 75.4823 80.7838 75.2269 80.7838H75.1196V80.1222C75.4159 80.153 75.6917 80.1761 75.947 80.1915C76.2075 80.2068 76.4425 80.2145 76.6519 80.2145C76.8459 80.2145 77.2162 80.1915 77.7627 80.1453C77.9108 80.135 78.0206 80.1273 78.0921 80.1222L78.0998 80.7992H77.9695C77.7704 80.7992 77.6018 80.8659 77.4639 80.9992C77.326 81.1274 77.1651 81.3865 76.9813 81.7762C76.1539 83.597 75.518 85.0253 75.0737 86.0613C74.6293 87.0922 74.3867 87.7051 74.3459 87.9H73.0435C73.0231 87.7461 72.875 87.2999 72.5992 86.5614C72.3234 85.8228 71.7565 84.3817 70.8984 82.2378C70.8729 82.1712 70.8346 82.0737 70.7835 81.9455C70.4822 81.1813 70.1476 80.7992 69.7799 80.7992H69.6727V80.1222Z" fill="#7E6E4E"/>
<path d="M85.7685 83.6457L82.5738 83.6534C82.0273 83.6534 81.6188 83.6585 81.3481 83.6688C81.0774 83.6739 80.8271 83.6893 80.5973 83.7149C80.5973 84.633 80.822 85.3536 81.2714 85.8767C81.726 86.3998 82.3517 86.6614 83.1484 86.6614C83.5314 86.6614 83.9094 86.6024 84.2822 86.4844C84.6602 86.3614 85.0407 86.1767 85.4237 85.9305L85.7685 86.5922C85.176 87.064 84.5938 87.4179 84.0218 87.6538C83.4497 87.8846 82.8828 88 82.321 88C81.2536 88 80.3777 87.6436 79.6933 86.9307C79.0089 86.2126 78.6667 85.292 78.6667 84.1688C78.6667 82.9482 79.037 81.9301 79.7775 81.1146C80.5181 80.294 81.4272 79.8837 82.5049 79.8837C83.4702 79.8837 84.2516 80.2274 84.8491 80.9146C85.4467 81.5967 85.7532 82.5071 85.7685 83.6457ZM83.9528 82.7071C83.8456 82.107 83.6489 81.6403 83.3629 81.307C83.082 80.9685 82.7449 80.7992 82.3517 80.7992C81.8818 80.7992 81.4936 80.9813 81.1872 81.3454C80.8807 81.7096 80.6892 82.2199 80.6126 82.8764H81.0952C81.7234 82.8764 82.2699 82.8635 82.7347 82.8379C83.1995 82.8071 83.6055 82.7635 83.9528 82.7071Z" fill="#7E6E4E"/>
<path d="M92.7247 80.2607C92.7247 80.5838 92.74 80.912 92.7706 81.2454C92.8013 81.5737 92.8498 81.907 92.9162 82.2455L92.1578 82.3917C92.0965 81.8224 91.9279 81.407 91.6521 81.1454C91.3763 80.8838 90.9754 80.753 90.4494 80.753C90.0357 80.753 89.6986 80.8582 89.4381 81.0685C89.1827 81.2736 89.055 81.5403 89.055 81.8686C89.055 82.325 89.6501 82.7353 90.8401 83.0995L90.8937 83.1148C91.7824 83.3867 92.3876 83.6867 92.7094 84.0149C93.0362 84.3432 93.1997 84.7894 93.1997 85.3536C93.1997 86.1126 92.8805 86.7409 92.242 87.2384C91.6036 87.7359 90.7813 87.9846 89.7752 87.9846C89.3666 87.9846 88.9631 87.9436 88.5647 87.8615C88.1715 87.7846 87.791 87.6666 87.4232 87.5076C87.4284 87.4512 87.4309 87.3871 87.4309 87.3153C87.436 87.2435 87.4386 87.1358 87.4386 86.9922C87.4386 86.705 87.4258 86.4203 87.4003 86.1383C87.3747 85.8562 87.3364 85.5792 87.2854 85.3074L87.9902 85.1305C88.1076 85.8331 88.3247 86.3434 88.6414 86.6614C88.958 86.9742 89.4049 87.1307 89.982 87.1307C90.4723 87.1307 90.8605 87.0204 91.1465 86.7999C91.4376 86.5793 91.5832 86.2793 91.5832 85.8998C91.5832 85.4484 90.9524 85.0099 89.6909 84.5842C89.4815 84.5124 89.3206 84.4586 89.2083 84.4227C88.6005 84.2124 88.1638 83.9534 87.8982 83.6457C87.6327 83.3328 87.4999 82.9302 87.4999 82.4379C87.4999 81.6737 87.7859 81.0582 88.3579 80.5915C88.9299 80.1196 89.696 79.8837 90.6562 79.8837C90.9422 79.8837 91.2538 79.9145 91.5909 79.976C91.933 80.0376 92.311 80.1325 92.7247 80.2607Z" fill="#7E6E4E"/>
</g>
<defs>
<radialGradient id="paint0_radial_904_3789" cx="0" cy="0" r="1" gradientUnits="userSpaceOnUse" gradientTransform="translate(238.5 74.5) scale(87.5)">
<stop stop-color="white"/>
<stop offset="1" stop-color="white" stop-opacity="0"/>
</radialGradient>
<clipPath id="clip0_904_3789">
<rect width="240" height="148" fill="white"/>
</clipPath>
</defs>
</svg>
