<svg width="240" height="148" viewBox="0 0 240 148" fill="none" xmlns="http://www.w3.org/2000/svg">
<g clip-path="url(#clip0_904_4508)">
<rect width="240" height="148" fill="#3D454F"/>
<g opacity="0.5">
<path d="M42.432 28.7264C39.4849 28.7264 36.5242 28.6928 33.5501 28.6256C20.1166 28.3225 6.19281 27.3253 -7.84129 25.663C-22.5117 23.9238 -37.7008 21.409 -53 18.1882L-52.9483 17.9435C-18.1436 25.2691 13.4191 28.3684 41.8848 28.3684C119.44 28.3684 174.084 5.4117 209.233 -17.4077C236.441 -35.069 255.106 -54.5176 265.973 -67.7231C277.745 -82.0313 283.154 -92.2946 283.208 -92.3962L283.43 -92.2813C283.376 -92.1789 277.961 -81.8989 266.174 -67.5739C259.25 -59.1661 251.52 -51.0197 243.191 -43.3745C232.669 -33.7298 221.36 -24.9768 209.382 -17.2061C178.772 2.66541 143.824 16.2736 105.502 23.2421C85.4613 26.8867 64.2844 28.7264 42.432 28.7264Z" fill="white"/>
<path d="M39.2716 32.4474C37.7307 32.4474 36.188 32.4385 34.6433 32.4207C21.0764 32.2635 6.99409 31.4144 -7.21414 29.8951C-22.0672 28.3076 -37.4715 25.9442 -52.9951 22.8708L-52.9467 22.6261C-19.4073 29.265 11.0802 32.0953 38.6644 32.0953C119.304 32.0953 175.221 7.92981 210.731 -15.8677C237.713 -33.9487 256.021 -53.7328 266.633 -67.1469C278.125 -81.6774 283.304 -92.0615 283.354 -92.1648L283.578 -92.054C283.528 -91.951 278.337 -81.5426 266.829 -66.9922C260.073 -58.4478 252.484 -50.1665 244.288 -42.3773C233.922 -32.5482 222.744 -23.6113 210.87 -15.662C180.516 4.67994 145.609 18.766 107.119 26.203C85.6689 30.3503 62.8665 32.4474 39.2716 32.4474Z" fill="white"/>
<path d="M36.0379 36.215H35.7335C22.034 36.205 7.79229 35.5025 -6.58946 34.128C-21.6269 32.6913 -37.2397 30.4793 -52.9935 27.5518L-52.9485 27.306C-20.7069 33.2949 8.67298 35.8696 35.3513 35.8696C119.162 35.8696 176.355 10.4722 212.206 -14.3109C238.964 -32.8081 256.922 -52.9279 267.275 -66.5477C278.495 -81.3062 283.449 -91.8253 283.499 -91.9292L283.726 -91.8245C283.676 -91.7195 278.715 -81.183 267.483 -66.4069C260.889 -57.7302 253.454 -49.309 245.381 -41.3774C235.175 -31.3644 224.126 -22.2432 212.358 -14.1145C182.255 6.69696 147.391 21.2651 108.732 29.1683C85.8757 33.8443 61.4159 36.215 36.0379 36.215Z" fill="white"/>
<path d="M32.7091 40.0296C20.1448 40.0296 7.15767 39.4696 -5.9656 38.3654C-21.1865 37.0792 -37.0086 35.018 -52.9926 32.2408L-52.9492 31.9911C-22.0497 37.3605 6.20757 39.6915 31.946 39.6915C119.052 39.6915 177.515 13.0278 213.688 -12.7618C240.221 -31.6778 257.829 -52.1313 267.926 -65.9558C278.869 -80.9433 283.595 -91.5905 283.642 -91.6963L283.873 -91.5963C283.825 -91.4897 279.091 -80.8259 268.138 -65.8243C261.708 -57.0142 254.421 -48.4533 246.48 -40.3793C236.433 -30.1817 225.514 -20.8762 213.85 -12.5679C184.001 8.71482 149.178 23.7539 110.351 32.1353C87.2996 37.1091 62.5594 39.76 36.8254 40.013C35.4586 40.0255 34.0864 40.0296 32.7091 40.0296Z" fill="white"/>
<path d="M29.2439 43.8915C17.9657 43.8915 6.37047 43.4581 -5.34054 42.5932C-20.7449 41.4586 -36.7773 39.5484 -52.9907 36.9193L-52.9506 36.6696C-23.4182 41.4586 3.67313 43.5576 28.4465 43.5576C118.942 43.5576 178.693 15.5918 215.176 -11.2183C241.482 -30.5522 258.737 -51.3429 268.578 -65.3771C279.241 -80.5852 283.742 -91.3598 283.786 -91.4673L284.016 -91.3715C283.973 -91.264 279.465 -80.4722 268.79 -65.2448C262.521 -56.3026 255.383 -47.6025 247.573 -39.3854C237.684 -29.0022 226.896 -19.5108 215.334 -11.0218C185.736 10.731 150.956 26.2472 111.962 35.0962C88.8103 40.349 63.896 43.2797 37.9115 43.8065C35.0467 43.8625 32.1575 43.8915 29.2439 43.8915Z" fill="white"/>
<path d="M25.6424 47.8011C15.7071 47.8011 5.54155 47.4755 -4.71751 46.8263C-20.3045 45.8391 -36.5462 44.0844 -52.9848 41.6017L-52.9481 41.3529C-24.8177 45.5985 1.07763 47.4734 24.8517 47.4734C118.86 47.4734 179.892 18.1765 216.664 -9.66832C242.748 -29.4199 259.647 -50.5419 269.233 -64.7879C279.619 -80.2206 283.89 -91.1234 283.931 -91.2317L284.166 -91.1417C284.125 -91.0336 279.846 -80.1126 269.447 -64.6597C263.342 -55.5858 256.353 -46.7451 248.67 -38.3855C238.943 -27.8204 228.284 -18.1461 216.828 -9.47855C187.483 12.7481 152.746 28.7371 113.583 38.0549C90.3317 43.5866 65.2406 46.7952 39.0075 47.5958C34.6064 47.7327 30.1514 47.8011 25.6424 47.8011Z" fill="white"/>
<path d="M21.9141 51.7544C13.3732 51.7544 4.67728 51.5242 -4.09283 51.0596C-19.865 50.2279 -36.3161 48.6184 -52.9891 46.2851L-52.954 46.0341C-26.2591 49.7716 -1.59229 51.4371 21.1458 51.4371C118.779 51.4371 181.098 20.7756 218.143 -8.11999C243.999 -28.2895 260.551 -49.7485 269.877 -64.2C279.987 -79.8587 284.031 -90.8886 284.07 -90.9985L284.305 -90.9154C284.266 -90.8054 280.22 -79.7604 270.098 -64.0777C264.154 -54.8715 257.311 -45.8918 249.759 -37.3883C240.321 -26.7603 229.741 -16.85 218.31 -7.93436C189.219 14.7593 154.525 31.2296 115.193 41.0148C91.8387 46.8243 66.5741 50.315 40.0925 51.3873C34.1344 51.632 28.075 51.7565 21.9141 51.7544Z" fill="white"/>
<path d="M18.068 55.7574C10.9726 55.7574 3.77953 55.6039 -3.46839 55.2928C-19.4241 54.6084 -36.0803 53.1544 -52.9868 50.9642L-52.9551 50.7132C-27.7289 53.9778 -4.32414 55.4422 17.3415 55.4422C118.716 55.4422 182.324 23.3853 219.629 -6.57558C245.262 -27.1622 261.457 -48.9576 270.53 -63.6163C280.359 -79.4998 284.176 -90.6579 284.214 -90.7687L284.451 -90.6855C284.413 -90.5748 280.592 -79.3974 270.75 -63.4931C264.971 -54.1548 258.277 -45.0351 250.854 -36.3894C241.578 -25.5824 231.127 -15.4879 219.798 -6.38746C190.958 16.7764 156.308 33.7237 116.807 43.9808C93.3557 50.0744 67.9126 53.8451 41.1808 55.1891C33.6401 55.5686 25.9173 55.7574 18.068 55.7574Z" fill="white"/>
<path d="M14.1107 59.808C8.50802 59.808 2.85647 59.7126 -2.84411 59.5238C-18.9833 58.9929 -35.8531 57.6883 -52.9848 55.6495L-52.9548 55.4006C-29.2291 58.2234 -7.12288 59.5031 13.4301 59.5031C118.668 59.5031 183.566 26.0176 221.113 -5.02238C246.522 -26.0269 262.363 -48.1577 271.18 -63.0239C280.731 -79.1319 284.32 -90.4182 284.357 -90.5306L284.596 -90.4558C284.561 -90.3434 280.966 -79.0378 271.403 -62.909C265.788 -53.4373 259.242 -44.1786 251.948 -35.3895C242.831 -24.4011 232.516 -14.1253 221.286 -4.8384C192.697 18.7959 158.091 36.2193 118.421 46.9487C94.8698 53.3161 69.2498 57.3668 42.2712 58.9846C33.1216 59.5322 23.6984 59.808 14.1107 59.808Z" fill="white"/>
<path d="M10.0512 63.9043C5.9854 63.9043 1.89512 63.8566 -2.21947 63.7612C-18.543 63.3775 -35.6222 62.2264 -52.9841 60.3348L-52.9574 60.0859C-30.7637 62.4981 -9.99232 63.6057 9.4057 63.6057C118.629 63.6057 184.824 28.6614 222.599 -3.47137C247.783 -24.8939 263.273 -47.3594 271.831 -62.4336C281.107 -78.7673 284.467 -90.1812 284.501 -90.2942L284.742 -90.2251C284.708 -90.1111 281.342 -78.6773 272.057 -62.3228C266.604 -52.7188 260.206 -43.3204 253.041 -34.389C244.086 -23.2249 233.901 -12.7618 222.769 -3.29176C194.435 20.8129 159.87 38.7132 120.033 49.9105C96.3818 56.56 70.5852 60.8886 43.3596 62.7781C32.5842 63.5268 21.4228 63.9043 10.0512 63.9043Z" fill="white"/>
<path d="M5.89978 68.0441C3.40941 68.0441 0.911358 68.0254 -1.59418 67.9902C-18.1004 67.76 -35.3897 66.7582 -52.9818 65.0139L-52.9567 64.765C-32.3262 66.808 -12.9291 67.7496 5.27095 67.7496C118.605 67.7496 186.095 31.3143 224.085 -1.92728C249.042 -23.7644 264.179 -46.5628 272.481 -61.8469C281.479 -78.4052 284.615 -89.9472 284.644 -90.0621L284.885 -89.9972C284.856 -89.8823 281.716 -78.3202 272.71 -61.7402C267.421 -52.0004 261.17 -42.4663 254.136 -33.3918C245.343 -22.0487 235.292 -11.4014 224.259 -1.74663C196.178 22.8291 161.657 41.2077 121.65 52.8743C97.8988 59.8017 71.9261 64.4103 44.4529 66.5736C32.031 67.5505 19.0923 68.0441 5.89978 68.0441Z" fill="white"/>
<path d="M1.66112 72.2297C0.784168 72.2297 -0.0934029 72.2276 -0.972012 72.2214C-17.6617 72.1384 -35.1611 71.2922 -52.9818 69.6972L-52.9601 69.4462C-33.9217 71.1511 -15.9394 71.9434 1.0165 71.9434C118.587 71.9434 187.384 33.9842 225.568 -0.374748C250.302 -22.6329 265.087 -45.7694 273.134 -61.259C281.853 -78.0422 284.758 -89.7115 284.787 -89.8273L285.031 -89.7682C285.004 -89.6524 282.092 -77.9623 273.362 -61.1565C268.235 -51.2879 262.134 -41.6104 255.231 -32.3926C246.601 -20.8716 236.68 -10.0395 225.747 -0.199898C197.92 24.8462 163.442 43.6987 123.264 55.8383C99.4102 63.0457 73.264 67.9343 45.5428 70.3692C31.463 71.6033 16.7135 72.2297 1.66112 72.2297Z" fill="white"/>
<path d="M-2.66024 76.4608C-18.841 76.4608 -35.7517 75.7618 -52.981 74.3804L-52.9609 74.1295C-35.5448 75.5274 -19.0145 76.1808 -3.35494 76.1808C118.585 76.1808 188.687 36.668 227.052 1.17538C251.561 -21.5009 265.993 -44.9719 273.784 -60.6696C282.227 -77.6776 284.906 -89.4726 284.933 -89.5925L285.176 -89.5384C285.149 -89.421 282.466 -77.6025 274.015 -60.569C269.052 -50.5678 263.101 -40.7506 256.324 -31.3905C247.856 -19.6902 238.068 -8.67522 227.233 1.35023C199.659 26.8667 165.221 46.1979 124.879 58.8062C100.928 66.2916 74.6017 71.4581 46.6322 74.1668C31.5998 75.6166 15.7935 76.3902 -0.34734 76.4566C-1.11623 76.4587 -1.88865 76.4608 -2.66024 76.4608Z" fill="white"/>
<path d="M-7.14159 80.7375C-21.9471 80.7375 -37.3305 80.1754 -52.98 79.0616L-52.9617 78.8128C101.984 89.8302 185.64 43.5141 228.536 2.71871C252.822 -20.3753 266.904 -44.1819 274.434 -60.0869C282.599 -77.3188 285.051 -89.2453 285.076 -89.3635L285.322 -89.3144C285.297 -89.1964 282.84 -77.2497 274.667 -59.9928C269.869 -49.8593 264.065 -39.9031 257.419 -30.3999C249.111 -18.5206 239.456 -7.32166 228.721 2.88859C201.398 28.8753 167 48.6827 126.493 61.7618C114.784 65.5408 102.4 68.8012 89.685 71.4498C76.3016 74.2394 62.1833 76.4276 47.7224 77.9541C32.5557 79.5553 16.5934 80.4762 0.276733 80.6857C-2.17893 80.7209 -4.65163 80.7375 -7.14159 80.7375Z" fill="white"/>
<path d="M-11.7911 85.0557C-25.1554 85.0557 -38.9558 84.6181 -52.9781 83.7449L-52.9631 83.496C-38.8863 84.3712 -25.3867 84.8006 -12.4642 84.7861C118.614 84.7861 191.336 42.0746 230.022 4.26863C254.082 -19.2433 267.805 -43.3853 275.087 -59.4975C282.973 -76.9558 285.197 -89.0089 285.22 -89.1288L285.469 -89.0848C285.448 -88.9649 283.216 -76.8901 275.324 -59.4077C270.69 -49.1417 265.033 -39.0457 258.516 -29.4C250.364 -17.3436 240.844 -5.958 230.209 4.43684C203.14 30.8939 168.787 51.1777 128.108 64.7277C116.348 68.6394 103.899 72.0409 91.1 74.8243C77.628 77.7529 63.4006 80.0841 48.8127 81.7517C33.5135 83.5001 17.3937 84.5662 0.901611 84.9209C-3.27865 85.0121 -7.50962 85.0557 -11.7911 85.0557Z" fill="white"/>
<path d="M-16.6039 89.4216C-28.4569 89.4216 -40.625 89.0877 -52.9775 88.4281L-52.9641 88.1772C-40.6033 88.8409 -28.6844 89.1665 -17.2078 89.1561C118.65 89.1561 192.681 44.7979 231.51 5.81716C255.345 -18.1127 268.718 -42.5903 275.742 -58.9097C283.349 -76.5937 285.346 -88.7741 285.365 -88.8956L285.617 -88.8558C285.596 -88.7351 283.597 -76.5354 275.978 -58.8249C271.506 -48.4267 266 -38.1907 259.611 -28.4019C251.628 -16.1647 242.239 -4.5978 231.701 5.97852C204.885 32.906 170.574 53.6667 129.728 67.6853C117.921 71.7381 105.403 75.2723 92.5201 78.1905C78.9598 81.2601 64.6231 83.7345 49.9076 85.541C34.4775 87.4368 18.1983 88.6501 1.53187 89.1499C-4.41538 89.3304 -10.4607 89.4216 -16.6039 89.4216Z" fill="white"/>
<path d="M-21.5726 93.8312C-31.8483 93.8312 -42.3407 93.5906 -52.9767 93.1094L-52.965 92.8605C107.831 100.12 191.299 50.3689 233.004 7.35471C256.611 -16.9947 269.63 -41.8069 276.394 -58.3345C283.721 -76.239 285.486 -88.5386 285.506 -88.661L285.758 -88.6268C285.739 -88.5044 283.969 -76.1732 276.629 -58.2422C272.319 -47.7115 266.96 -37.3358 260.703 -27.4045C252.881 -14.9901 243.621 -3.23758 233.185 7.52707C206.618 34.9264 172.353 56.1618 131.336 70.6534C119.48 74.8409 106.898 78.512 93.9289 81.5651C80.2801 84.7778 65.8341 87.3912 50.9912 89.3408C35.4258 91.3817 18.9948 92.7423 2.1466 93.3873C-5.59092 93.6818 -13.5146 93.8312 -21.5726 93.8312Z" fill="white"/>
<path d="M-26.6888 98.2842C-35.3221 98.2842 -44.1015 98.1182 -52.976 97.7947L-52.9659 97.5437C109.778 103.55 193.18 52.6566 234.488 8.9038C257.872 -15.8633 270.538 -41.0111 277.044 -57.7468C284.095 -75.8761 285.635 -88.3039 285.65 -88.4271L285.901 -88.3971C285.885 -88.2739 284.341 -75.8145 277.279 -57.6562C273.134 -46.994 267.922 -36.4792 261.791 -26.4048C254.132 -13.8115 245.005 -1.87475 234.666 9.07449C208.356 36.9428 174.132 58.659 132.948 73.6172C121.043 77.9396 108.39 81.7476 95.3407 84.9375C81.6038 88.2934 67.0485 91.0519 52.0786 93.1384C36.379 95.3245 19.7895 96.8344 2.76958 97.6225C-6.79623 98.0622 -16.644 98.2842 -26.6888 98.2842Z" fill="white"/>
<path d="M-31.9424 102.781C-38.8752 102.781 -45.8858 102.677 -52.9742 102.474L-52.9676 102.225C-45.9114 102.428 -38.9828 102.528 -32.2219 102.528C118.799 102.53 196.802 53.0423 235.961 10.4606C259.123 -14.7231 271.438 -40.2062 277.691 -57.1493C284.467 -75.5082 285.783 -88.0725 285.795 -88.1998L286.045 -88.1749C286.032 -88.0501 284.717 -75.4625 277.932 -57.0794C273.95 -46.284 268.888 -35.6293 262.889 -25.4118C255.391 -12.6403 246.397 -0.52124 236.158 10.6153C210.099 38.9538 175.919 61.1457 134.569 76.5748C122.616 81.034 109.897 84.9831 96.7621 88.3016C82.9375 91.7964 68.2729 94.6981 53.1755 96.9235C37.3432 99.2548 20.597 100.916 3.40092 101.847C-8.02892 102.472 -19.8536 102.781 -31.9424 102.781Z" fill="white"/>
<path d="M-37.3253 107.323C-42.5009 107.323 -47.7169 107.269 -52.9731 107.157L-52.9681 106.908C-47.7302 107.018 -42.5726 107.074 -37.4954 107.074C118.858 107.074 198.204 55.8155 237.447 12.0131C260.383 -13.5882 272.346 -39.4069 278.343 -56.5572C284.841 -75.1409 285.928 -87.8334 285.939 -87.96L286.188 -87.9392C286.178 -87.8135 285.091 -75.0978 278.584 -56.489C274.765 -45.5613 269.852 -34.7668 263.982 -24.4068C256.642 -11.4563 247.783 0.848976 237.644 12.168C211.839 40.9775 177.7 63.6451 136.179 79.545C124.178 84.139 111.391 88.2229 98.1727 91.6783C84.2595 95.3162 69.4859 98.361 54.2617 100.725C38.2952 103.208 21.3921 105.01 4.02184 106.087C-9.28576 106.908 -23.1378 107.323 -37.3253 107.323Z" fill="white"/>
<path d="M-42.8292 111.909C-46.1943 111.909 -49.5754 111.886 -52.9722 111.84V111.592C-49.587 111.635 -46.233 111.658 -42.9101 111.658C118.937 111.658 199.615 58.5989 238.928 13.5598C261.64 -12.4595 273.25 -38.6128 278.992 -55.9711C285.211 -74.7846 286.072 -87.6045 286.08 -87.7277L286.331 -87.7127C286.323 -87.5854 285.463 -74.7415 279.235 -55.907C275.579 -44.847 270.812 -33.9135 265.075 -23.4104C257.901 -10.2817 249.169 2.20856 239.134 13.7122C213.582 42.9915 179.487 66.1361 137.796 82.5068C125.746 87.2377 112.892 91.4564 99.5897 95.0466C85.5885 98.8277 70.7053 102.013 55.3535 104.519C39.2561 107.147 22.1944 109.098 4.64837 110.318C-10.565 111.376 -26.4941 111.909 -42.8292 111.909Z" fill="white"/>
<path d="M-48.441 116.536C-49.949 116.536 -51.4592 116.532 -52.9716 116.524V116.273C117.555 117.264 200.696 61.8075 240.416 15.1083C262.903 -11.3289 274.16 -37.8178 279.646 -55.3843C285.588 -74.4183 286.221 -87.3666 286.228 -87.4948L286.477 -87.4838C286.471 -87.3547 285.839 -74.3835 279.887 -55.3236C276.394 -44.131 271.779 -33.0578 266.168 -22.4116C259.154 -9.10471 250.557 3.56955 240.618 15.258C215.317 45.0075 181.264 68.6312 139.406 85.4685C127.307 90.3363 114.384 94.6919 101 98.419C86.9102 102.339 71.917 105.668 56.4393 108.314C40.206 111.087 22.9933 113.186 5.26767 114.551C-11.8657 115.868 -29.9132 116.536 -48.441 116.536Z" fill="white"/>
<path d="M-52.9708 121.205V120.956C119.514 120.699 202.587 64.0889 241.913 16.6482C264.173 -10.2086 275.074 -37.0328 280.301 -54.8066C285.964 -74.0615 286.367 -87.1277 286.371 -87.2576L286.62 -87.2509C286.62 -87.1209 286.213 -74.0215 280.542 -54.7367C277.211 -43.4154 272.743 -32.1988 267.261 -21.4101C260.409 -7.92423 251.945 4.93461 242.106 16.8081C217.057 47.0255 183.047 71.1283 141.021 88.4364C128.874 93.4391 115.885 97.9336 102.415 101.793C88.2355 105.855 73.1348 109.327 57.5294 112.116C41.1633 115.036 23.7897 117.281 5.89251 118.79C-12.8189 120.361 -32.6229 121.178 -52.9708 121.205Z" fill="white"/>
<path d="M-52.9701 125.888V125.637C121.444 124.127 204.459 66.3808 243.388 18.2023C265.424 -9.0705 275.976 -36.2303 280.949 -54.2123C286.336 -73.6918 286.514 -86.9003 286.514 -87.031H286.764C286.764 -86.9003 286.587 -73.6725 281.194 -54.1623C278.023 -42.7043 273.707 -31.3529 268.354 -20.4202C261.665 -6.75625 253.334 6.28657 243.592 18.344C218.798 49.0353 184.83 73.611 142.635 91.39C130.439 96.5295 117.382 101.161 103.829 105.154C89.5666 109.358 74.3515 112.973 58.6227 115.897C42.124 118.965 24.593 121.358 6.5195 123.011C-12.3787 124.743 -32.3929 125.71 -52.9701 125.888Z" fill="white"/>
<path d="M-52.9694 130.569V130.32C123.394 127.558 206.342 68.6685 244.876 19.7533C266.685 -7.93681 276.887 -35.4328 281.6 -53.622C286.71 -73.3313 286.66 -86.6631 286.658 -86.7954H286.909C286.909 -86.6623 286.961 -73.3096 281.845 -53.5712C278.786 -41.826 274.636 -30.391 269.449 -19.4147C262.92 -5.57175 254.722 7.65441 245.079 19.8973C220.537 51.0596 186.611 76.1123 144.248 94.3621C132.004 99.6365 118.881 104.403 105.244 108.532C90.8884 112.877 75.5684 116.636 59.7085 119.699C43.0756 122.914 25.3884 125.455 7.13916 127.251C-11.9393 129.126 -32.1619 130.244 -52.9694 130.569Z" fill="white"/>
<path d="M-52.9681 135.253L-52.9731 135.004C77.517 132.065 173.159 99.7133 231.3 38.8541C260.825 7.94648 274.343 -24.5059 280.484 -46.2881C283.96 -58.6209 285.494 -68.9133 286.167 -75.3765C286.899 -82.3792 286.803 -86.5183 286.803 -86.5589L287.053 -86.5656C287.053 -86.5241 287.148 -82.3751 286.417 -75.3599C285.743 -68.8884 284.21 -58.5817 280.729 -46.2323C276.816 -32.3528 271.29 -18.7744 264.31 -5.87389C255.582 10.2516 244.537 25.3567 231.485 39.0213C219.247 51.8354 205.039 63.5788 189.26 73.9284C171.613 85.4996 151.592 95.5983 129.75 103.934C105.715 113.104 78.8809 120.375 49.9954 125.54C34.607 128.29 18.3278 130.501 1.59964 132.1C-15.7955 133.768 -34.155 134.829 -52.9681 135.253Z" fill="white"/>
<path d="M-52.9676 139.936L-52.9742 139.685C79.0047 135.829 175.215 102.486 232.987 40.5855C262.286 9.19022 275.399 -23.6444 281.236 -45.6578C284.542 -58.1241 285.92 -68.5173 286.491 -75.0437C287.113 -82.113 286.949 -86.2877 286.947 -86.3286L287.198 -86.3394C287.198 -86.2977 287.364 -82.113 286.741 -75.0321C286.169 -68.499 284.792 -58.0915 281.481 -45.6089C277.714 -31.4517 272.377 -17.757 265.574 -4.77763C257.028 11.5526 246.127 26.8707 233.174 40.7514C221.015 53.7807 206.845 65.744 191.062 76.3073C173.411 88.1233 153.327 98.4605 131.373 107.035C107.213 116.47 80.1884 124.001 51.0527 129.416C35.5293 132.301 19.0923 134.643 2.1975 136.377C-15.3789 138.181 -33.9376 139.38 -52.9676 139.936Z" fill="white"/>
</g>
<path d="M30.1542 60.364V62.83H26.8062V73H23.7282V62.83H20.3802V60.364H30.1542ZM37.873 62.848C39.025 62.848 39.949 63.232 40.645 64C41.341 64.756 41.689 65.8 41.689 67.132V73H38.629V67.546C38.629 66.874 38.455 66.352 38.107 65.98C37.759 65.608 37.291 65.422 36.703 65.422C36.115 65.422 35.647 65.608 35.299 65.98C34.951 66.352 34.777 66.874 34.777 67.546V73H31.699V59.68H34.777V64.306C35.089 63.862 35.515 63.508 36.055 63.244C36.595 62.98 37.201 62.848 37.873 62.848ZM53.2959 67.816C53.2959 68.104 53.2779 68.404 53.2419 68.716H46.2759C46.3239 69.34 46.5219 69.82 46.8699 70.156C47.2299 70.48 47.6679 70.642 48.1839 70.642C48.9519 70.642 49.4859 70.318 49.7859 69.67H53.0619C52.8939 70.33 52.5879 70.924 52.1439 71.452C51.7119 71.98 51.1659 72.394 50.5059 72.694C49.8459 72.994 49.1079 73.144 48.2919 73.144C47.3079 73.144 46.4319 72.934 45.6639 72.514C44.8959 72.094 44.2959 71.494 43.8639 70.714C43.4319 69.934 43.2159 69.022 43.2159 67.978C43.2159 66.934 43.4259 66.022 43.8459 65.242C44.2779 64.462 44.8779 63.862 45.6459 63.442C46.4139 63.022 47.2959 62.812 48.2919 62.812C49.2639 62.812 50.1279 63.016 50.8839 63.424C51.6399 63.832 52.2279 64.414 52.6479 65.17C53.0799 65.926 53.2959 66.808 53.2959 67.816ZM50.1459 67.006C50.1459 66.478 49.9659 66.058 49.6059 65.746C49.2459 65.434 48.7959 65.278 48.2559 65.278C47.7399 65.278 47.3019 65.428 46.9419 65.728C46.5939 66.028 46.3779 66.454 46.2939 67.006H50.1459ZM58.2122 66.664C58.2122 65.416 58.4822 64.306 59.0222 63.334C59.5622 62.35 60.3122 61.588 61.2722 61.048C62.2442 60.496 63.3422 60.22 64.5662 60.22C66.0662 60.22 67.3502 60.616 68.4182 61.408C69.4862 62.2 70.2002 63.28 70.5602 64.648H67.1762C66.9242 64.12 66.5642 63.718 66.0962 63.442C65.6402 63.166 65.1182 63.028 64.5302 63.028C63.5822 63.028 62.8142 63.358 62.2262 64.018C61.6382 64.678 61.3442 65.56 61.3442 66.664C61.3442 67.768 61.6382 68.65 62.2262 69.31C62.8142 69.97 63.5822 70.3 64.5302 70.3C65.1182 70.3 65.6402 70.162 66.0962 69.886C66.5642 69.61 66.9242 69.208 67.1762 68.68H70.5602C70.2002 70.048 69.4862 71.128 68.4182 71.92C67.3502 72.7 66.0662 73.09 64.5662 73.09C63.3422 73.09 62.2442 72.82 61.2722 72.28C60.3122 71.728 59.5622 70.966 59.0222 69.994C58.4822 69.022 58.2122 67.912 58.2122 66.664ZM77.0171 73.144C76.0331 73.144 75.1451 72.934 74.3531 72.514C73.5731 72.094 72.9551 71.494 72.4991 70.714C72.0551 69.934 71.8331 69.022 71.8331 67.978C71.8331 66.946 72.0611 66.04 72.5171 65.26C72.9731 64.468 73.5971 63.862 74.3891 63.442C75.1811 63.022 76.0691 62.812 77.0531 62.812C78.0371 62.812 78.9251 63.022 79.7171 63.442C80.5091 63.862 81.1331 64.468 81.5891 65.26C82.0451 66.04 82.2731 66.946 82.2731 67.978C82.2731 69.01 82.0391 69.922 81.5711 70.714C81.1151 71.494 80.4851 72.094 79.6811 72.514C78.8891 72.934 78.0011 73.144 77.0171 73.144ZM77.0171 70.48C77.6051 70.48 78.1031 70.264 78.5111 69.832C78.9311 69.4 79.1411 68.782 79.1411 67.978C79.1411 67.174 78.9371 66.556 78.5291 66.124C78.1331 65.692 77.6411 65.476 77.0531 65.476C76.4531 65.476 75.9551 65.692 75.5591 66.124C75.1631 66.544 74.9651 67.162 74.9651 67.978C74.9651 68.782 75.1571 69.4 75.5411 69.832C75.9371 70.264 76.4291 70.48 77.0171 70.48ZM96.722 62.848C97.97 62.848 98.96 63.226 99.692 63.982C100.436 64.738 100.808 65.788 100.808 67.132V73H97.748V67.546C97.748 66.898 97.574 66.4 97.226 66.052C96.89 65.692 96.422 65.512 95.822 65.512C95.222 65.512 94.748 65.692 94.4 66.052C94.064 66.4 93.896 66.898 93.896 67.546V73H90.836V67.546C90.836 66.898 90.662 66.4 90.314 66.052C89.978 65.692 89.51 65.512 88.91 65.512C88.31 65.512 87.836 65.692 87.488 66.052C87.152 66.4 86.984 66.898 86.984 67.546V73H83.906V62.956H86.984V64.216C87.296 63.796 87.704 63.466 88.208 63.226C88.712 62.974 89.282 62.848 89.918 62.848C90.674 62.848 91.346 63.01 91.934 63.334C92.534 63.658 93.002 64.12 93.338 64.72C93.686 64.168 94.16 63.718 94.76 63.37C95.36 63.022 96.014 62.848 96.722 62.848ZM106.039 64.378C106.339 63.91 106.753 63.532 107.281 63.244C107.809 62.956 108.427 62.812 109.135 62.812C109.963 62.812 110.713 63.022 111.385 63.442C112.057 63.862 112.585 64.462 112.969 65.242C113.365 66.022 113.563 66.928 113.563 67.96C113.563 68.992 113.365 69.904 112.969 70.696C112.585 71.476 112.057 72.082 111.385 72.514C110.713 72.934 109.963 73.144 109.135 73.144C108.439 73.144 107.821 73 107.281 72.712C106.753 72.424 106.339 72.052 106.039 71.596V77.788H102.961V62.956H106.039V64.378ZM110.431 67.96C110.431 67.192 110.215 66.592 109.783 66.16C109.363 65.716 108.841 65.494 108.217 65.494C107.605 65.494 107.083 65.716 106.651 66.16C106.231 66.604 106.021 67.21 106.021 67.978C106.021 68.746 106.231 69.352 106.651 69.796C107.083 70.24 107.605 70.462 108.217 70.462C108.829 70.462 109.351 70.24 109.783 69.796C110.215 69.34 110.431 68.728 110.431 67.96ZM118.256 59.68V73H115.178V59.68H118.256ZM129.954 67.816C129.954 68.104 129.936 68.404 129.9 68.716H122.934C122.982 69.34 123.18 69.82 123.528 70.156C123.888 70.48 124.326 70.642 124.842 70.642C125.61 70.642 126.144 70.318 126.444 69.67H129.72C129.552 70.33 129.246 70.924 128.802 71.452C128.37 71.98 127.824 72.394 127.164 72.694C126.504 72.994 125.766 73.144 124.95 73.144C123.966 73.144 123.09 72.934 122.322 72.514C121.554 72.094 120.954 71.494 120.522 70.714C120.09 69.934 119.874 69.022 119.874 67.978C119.874 66.934 120.084 66.022 120.504 65.242C120.936 64.462 121.536 63.862 122.304 63.442C123.072 63.022 123.954 62.812 124.95 62.812C125.922 62.812 126.786 63.016 127.542 63.424C128.298 63.832 128.886 64.414 129.306 65.17C129.738 65.926 129.954 66.808 129.954 67.816ZM126.804 67.006C126.804 66.478 126.624 66.058 126.264 65.746C125.904 65.434 125.454 65.278 124.914 65.278C124.398 65.278 123.96 65.428 123.6 65.728C123.252 66.028 123.036 66.454 122.952 67.006H126.804ZM137.176 70.39V73H135.61C134.494 73 133.624 72.73 133 72.19C132.376 71.638 132.064 70.744 132.064 69.508V65.512H130.84V62.956H132.064V60.508H135.142V62.956H137.158V65.512H135.142V69.544C135.142 69.844 135.214 70.06 135.358 70.192C135.502 70.324 135.742 70.39 136.078 70.39H137.176ZM148.358 67.816C148.358 68.104 148.34 68.404 148.304 68.716H141.338C141.386 69.34 141.584 69.82 141.932 70.156C142.292 70.48 142.73 70.642 143.246 70.642C144.014 70.642 144.548 70.318 144.848 69.67H148.124C147.956 70.33 147.65 70.924 147.206 71.452C146.774 71.98 146.228 72.394 145.568 72.694C144.908 72.994 144.17 73.144 143.354 73.144C142.37 73.144 141.494 72.934 140.726 72.514C139.958 72.094 139.358 71.494 138.926 70.714C138.494 69.934 138.278 69.022 138.278 67.978C138.278 66.934 138.488 66.022 138.908 65.242C139.34 64.462 139.94 63.862 140.708 63.442C141.476 63.022 142.358 62.812 143.354 62.812C144.326 62.812 145.19 63.016 145.946 63.424C146.702 63.832 147.29 64.414 147.71 65.17C148.142 65.926 148.358 66.808 148.358 67.816ZM145.208 67.006C145.208 66.478 145.028 66.058 144.668 65.746C144.308 65.434 143.858 65.278 143.318 65.278C142.802 65.278 142.364 65.428 142.004 65.728C141.656 66.028 141.44 66.454 141.356 67.006H145.208ZM52.746 82.432C52.746 83.164 52.578 83.836 52.242 84.448C51.906 85.048 51.39 85.534 50.694 85.906C49.998 86.278 49.134 86.464 48.102 86.464H46.194V91H43.116V78.364H48.102C49.11 78.364 49.962 78.538 50.658 78.886C51.354 79.234 51.876 79.714 52.224 80.326C52.572 80.938 52.746 81.64 52.746 82.432ZM47.868 84.016C48.456 84.016 48.894 83.878 49.182 83.602C49.47 83.326 49.614 82.936 49.614 82.432C49.614 81.928 49.47 81.538 49.182 81.262C48.894 80.986 48.456 80.848 47.868 80.848H46.194V84.016H47.868ZM53.7364 85.96C53.7364 84.928 53.9284 84.022 54.3124 83.242C54.7084 82.462 55.2424 81.862 55.9144 81.442C56.5864 81.022 57.3364 80.812 58.1644 80.812C58.8724 80.812 59.4904 80.956 60.0184 81.244C60.5584 81.532 60.9724 81.91 61.2604 82.378V80.956H64.3384V91H61.2604V89.578C60.9604 90.046 60.5404 90.424 60.0004 90.712C59.4724 91 58.8544 91.144 58.1464 91.144C57.3304 91.144 56.5864 90.934 55.9144 90.514C55.2424 90.082 54.7084 89.476 54.3124 88.696C53.9284 87.904 53.7364 86.992 53.7364 85.96ZM61.2604 85.978C61.2604 85.21 61.0444 84.604 60.6124 84.16C60.1924 83.716 59.6764 83.494 59.0644 83.494C58.4524 83.494 57.9304 83.716 57.4984 84.16C57.0784 84.592 56.8684 85.192 56.8684 85.96C56.8684 86.728 57.0784 87.34 57.4984 87.796C57.9304 88.24 58.4524 88.462 59.0644 88.462C59.6764 88.462 60.1924 88.24 60.6124 87.796C61.0444 87.352 61.2604 86.746 61.2604 85.978ZM65.9532 85.978C65.9532 84.934 66.1632 84.022 66.5832 83.242C67.0152 82.462 67.6092 81.862 68.3652 81.442C69.1332 81.022 70.0092 80.812 70.9932 80.812C72.2532 80.812 73.3032 81.142 74.1432 81.802C74.9952 82.462 75.5532 83.392 75.8172 84.592H72.5412C72.2652 83.824 71.7312 83.44 70.9392 83.44C70.3752 83.44 69.9252 83.662 69.5892 84.106C69.2532 84.538 69.0852 85.162 69.0852 85.978C69.0852 86.794 69.2532 87.424 69.5892 87.868C69.9252 88.3 70.3752 88.516 70.9392 88.516C71.7312 88.516 72.2652 88.132 72.5412 87.364H75.8172C75.5532 88.54 74.9952 89.464 74.1432 90.136C73.2912 90.808 72.2412 91.144 70.9932 91.144C70.0092 91.144 69.1332 90.934 68.3652 90.514C67.6092 90.094 67.0152 89.494 66.5832 88.714C66.1632 87.934 65.9532 87.022 65.9532 85.978ZM83.6017 91L80.5417 86.788V91H77.4637V77.68H80.5417V85.042L83.5837 80.956H87.3817L83.2057 85.996L87.4177 91H83.6017ZM87.9786 85.96C87.9786 84.928 88.1706 84.022 88.5546 83.242C88.9506 82.462 89.4846 81.862 90.1566 81.442C90.8286 81.022 91.5786 80.812 92.4066 80.812C93.1146 80.812 93.7326 80.956 94.2606 81.244C94.8006 81.532 95.2146 81.91 95.5026 82.378V80.956H98.5806V91H95.5026V89.578C95.2026 90.046 94.7826 90.424 94.2426 90.712C93.7146 91 93.0966 91.144 92.3886 91.144C91.5726 91.144 90.8286 90.934 90.1566 90.514C89.4846 90.082 88.9506 89.476 88.5546 88.696C88.1706 87.904 87.9786 86.992 87.9786 85.96ZM95.5026 85.978C95.5026 85.21 95.2866 84.604 94.8546 84.16C94.4346 83.716 93.9186 83.494 93.3066 83.494C92.6946 83.494 92.1726 83.716 91.7406 84.16C91.3206 84.592 91.1106 85.192 91.1106 85.96C91.1106 86.728 91.3206 87.34 91.7406 87.796C92.1726 88.24 92.6946 88.462 93.3066 88.462C93.9186 88.462 94.4346 88.24 94.8546 87.796C95.2866 87.352 95.5026 86.746 95.5026 85.978ZM104.623 80.812C105.331 80.812 105.949 80.956 106.477 81.244C107.017 81.532 107.431 81.91 107.719 82.378V80.956H110.797V90.982C110.797 91.906 110.611 92.74 110.239 93.484C109.879 94.24 109.321 94.84 108.565 95.284C107.821 95.728 106.891 95.95 105.775 95.95C104.287 95.95 103.081 95.596 102.157 94.888C101.233 94.192 100.705 93.244 100.573 92.044H103.615C103.711 92.428 103.939 92.728 104.299 92.944C104.659 93.172 105.103 93.286 105.631 93.286C106.267 93.286 106.771 93.1 107.143 92.728C107.527 92.368 107.719 91.786 107.719 90.982V89.56C107.419 90.028 107.005 90.412 106.477 90.712C105.949 91 105.331 91.144 104.623 91.144C103.795 91.144 103.045 90.934 102.373 90.514C101.701 90.082 101.167 89.476 100.771 88.696C100.387 87.904 100.195 86.992 100.195 85.96C100.195 84.928 100.387 84.022 100.771 83.242C101.167 82.462 101.701 81.862 102.373 81.442C103.045 81.022 103.795 80.812 104.623 80.812ZM107.719 85.978C107.719 85.21 107.503 84.604 107.071 84.16C106.651 83.716 106.135 83.494 105.523 83.494C104.911 83.494 104.389 83.716 103.957 84.16C103.537 84.592 103.327 85.192 103.327 85.96C103.327 86.728 103.537 87.34 103.957 87.796C104.389 88.24 104.911 88.462 105.523 88.462C106.135 88.462 106.651 88.24 107.071 87.796C107.503 87.352 107.719 86.746 107.719 85.978ZM122.492 85.816C122.492 86.104 122.474 86.404 122.438 86.716H115.472C115.52 87.34 115.718 87.82 116.066 88.156C116.426 88.48 116.864 88.642 117.38 88.642C118.148 88.642 118.682 88.318 118.982 87.67H122.258C122.09 88.33 121.784 88.924 121.34 89.452C120.908 89.98 120.362 90.394 119.702 90.694C119.042 90.994 118.304 91.144 117.488 91.144C116.504 91.144 115.628 90.934 114.86 90.514C114.092 90.094 113.492 89.494 113.06 88.714C112.628 87.934 112.412 87.022 112.412 85.978C112.412 84.934 112.622 84.022 113.042 83.242C113.474 82.462 114.074 81.862 114.842 81.442C115.61 81.022 116.492 80.812 117.488 80.812C118.46 80.812 119.324 81.016 120.08 81.424C120.836 81.832 121.424 82.414 121.844 83.17C122.276 83.926 122.492 84.808 122.492 85.816ZM119.342 85.006C119.342 84.478 119.162 84.058 118.802 83.746C118.442 83.434 117.992 83.278 117.452 83.278C116.936 83.278 116.498 83.428 116.138 83.728C115.79 84.028 115.574 84.454 115.49 85.006H119.342Z" fill="white"/>
<rect x="60" y="36" width="34" height="20" rx="4" fill="white"/>
<path d="M71.8521 44.36C71.8521 44.872 71.7321 45.34 71.4921 45.764C71.2601 46.18 70.9041 46.516 70.4241 46.772C69.9521 47.02 69.3721 47.144 68.6841 47.144H67.5201V50H65.1681V41.54H68.6841C69.3641 41.54 69.9401 41.66 70.4121 41.9C70.8921 42.14 71.2521 42.472 71.4921 42.896C71.7321 43.32 71.8521 43.808 71.8521 44.36ZM68.4561 45.272C69.1201 45.272 69.4521 44.968 69.4521 44.36C69.4521 43.744 69.1201 43.436 68.4561 43.436H67.5201V45.272H68.4561ZM77.081 50L75.401 46.88H75.149V50H72.797V41.54H76.505C77.185 41.54 77.761 41.66 78.233 41.9C78.705 42.132 79.061 42.456 79.301 42.872C79.541 43.28 79.661 43.74 79.661 44.252C79.661 44.828 79.501 45.336 79.181 45.776C78.869 46.208 78.409 46.516 77.801 46.7L79.709 50H77.081ZM75.149 45.272H76.313C76.633 45.272 76.873 45.196 77.033 45.044C77.193 44.892 77.273 44.672 77.273 44.384C77.273 44.112 77.189 43.9 77.021 43.748C76.861 43.588 76.625 43.508 76.313 43.508H75.149V45.272ZM84.7866 50.084C83.9946 50.084 83.2666 49.9 82.6026 49.532C81.9386 49.156 81.4106 48.64 81.0186 47.984C80.6346 47.32 80.4426 46.572 80.4426 45.74C80.4426 44.908 80.6346 44.164 81.0186 43.508C81.4106 42.844 81.9386 42.328 82.6026 41.96C83.2666 41.592 83.9946 41.408 84.7866 41.408C85.5866 41.408 86.3146 41.592 86.9706 41.96C87.6346 42.328 88.1586 42.844 88.5426 43.508C88.9266 44.164 89.1186 44.908 89.1186 45.74C89.1186 46.572 88.9266 47.32 88.5426 47.984C88.1586 48.64 87.6346 49.156 86.9706 49.532C86.3066 49.9 85.5786 50.084 84.7866 50.084ZM84.7866 47.9C85.3866 47.9 85.8586 47.704 86.2026 47.312C86.5546 46.92 86.7306 46.396 86.7306 45.74C86.7306 45.068 86.5546 44.54 86.2026 44.156C85.8586 43.764 85.3866 43.568 84.7866 43.568C84.1786 43.568 83.7026 43.764 83.3586 44.156C83.0146 44.54 82.8426 45.068 82.8426 45.74C82.8426 46.404 83.0146 46.932 83.3586 47.324C83.7026 47.708 84.1786 47.9 84.7866 47.9Z" fill="#3D454F"/>
<path d="M552.698 298.314C460.388 298.314 367.592 293.616 277.387 289.242L190.746 285.03L154.955 283.41C113.983 281.303 71.7146 279.197 30.0942 279.197C10.6605 279.197 -7.15367 279.197 -24.3201 280.655C-47.3166 281.789 -70.637 284.382 -93.1476 286.812C-122.784 290.052 -153.554 293.292 -183.838 293.778C-170.68 266.157 -153.245 240.787 -132.177 218.606C-124.676 211.171 -116.548 204.395 -107.885 198.355C-99.0229 193.838 -91.6688 186.835 -86.7218 178.204C-81.7749 169.572 -79.4494 159.685 -80.0299 149.752C-80.1314 143.275 -78.9373 136.842 -76.5177 130.832C-74.0981 124.823 -70.5019 119.358 -65.9405 114.759C-56.177 105.775 -45.2896 98.0964 -33.5511 91.9153C-28.2068 88.8372 -22.7006 85.435 -17.3563 81.8708C18.6936 98.649 57.8707 107.647 97.6261 108.278C134.466 107.624 170.909 100.552 205.321 87.3791C239.106 73.3537 275.032 65.1905 311.558 63.2398C337.972 63.2038 364.013 69.4803 387.512 81.5468C400.998 85.8338 413.08 93.6791 422.485 104.257C431.89 114.834 438.27 127.753 440.954 141.652C442.015 151.959 445.356 161.9 450.734 170.754C456.112 179.609 463.393 187.156 472.048 192.847C479.5 198.729 486.636 205.002 493.425 211.64C501.827 238.116 518.954 260.961 542.009 276.443L552.698 298.314ZM29.9322 278.873C71.5526 278.873 113.821 280.817 154.793 282.924L190.584 284.544L277.387 288.756C366.944 293.292 459.74 297.828 552.698 297.828L541.685 276.767C518.666 261.247 501.549 238.417 493.101 211.964C486.371 205.222 479.289 198.841 471.886 192.847C463.014 187.346 455.495 179.916 449.888 171.109C444.28 162.302 440.729 152.345 439.497 141.976C436.987 128.226 430.842 115.399 421.7 104.829C412.558 94.259 400.753 86.3316 387.512 81.8708C364.025 69.733 337.993 63.3476 311.558 63.2398C274.986 65.3362 239.047 73.7213 205.321 88.0271C170.903 101.157 134.457 108.175 97.6261 108.764C57.8683 108.152 18.6872 99.1535 -17.3563 82.3568C-22.7006 85.921 -28.2068 89.1612 -33.5511 92.4013C-57.8431 106.982 -78.7343 119.619 -79.3821 148.942C-78.7058 159.039 -80.9983 169.114 -85.9767 177.923C-90.9552 186.732 -98.402 193.891 -107.399 198.517C-116.102 204.445 -124.234 211.17 -131.691 218.606C-152.563 240.694 -169.882 265.889 -183.028 293.292C-152.906 293.292 -122.46 289.566 -92.9857 286.326C-70.3131 283.896 -46.9927 281.303 -23.9962 280.169C-7.31561 279.197 10.3366 278.873 29.9322 278.873Z" fill="#939598"/>
<path d="M-35.9803 178.59C-51.1335 178.064 -65.8348 173.293 -78.4104 164.819C-42.4581 186.367 -22.2147 178.59 8.39326 166.925C14.8712 164.495 21.6729 161.903 29.2844 159.311C67.522 148.924 107.484 146.498 146.696 152.183C161.433 153.317 176.656 154.451 191.879 154.613C236.634 155.28 281.392 153.604 325.972 149.591H335.526C374.556 146.026 405.164 143.272 442.412 160.931C405.326 143.11 374.556 146.026 335.688 149.591L326.134 150.401C281.554 154.414 236.796 156.091 192.041 155.423C176.818 155.423 161.595 153.965 146.858 152.993C107.703 147.223 67.7768 149.65 29.6083 160.121C21.9968 162.713 15.195 165.305 8.71716 167.736C-5.40066 174.036 -20.5464 177.714 -35.9803 178.59Z" fill="#939598"/>
<path d="M-31.9316 168.708C-48.7451 168.329 -65.1424 163.403 -79.3821 154.451C-40.1909 177.132 -15.8988 169.032 20.8632 156.557L35.1145 151.859C73.0893 141.527 112.933 140.086 151.555 147.647C164.672 149.267 178.114 150.887 192.041 151.859C224.251 152.619 256.448 149.903 288.076 143.759C340.547 135.658 394.799 127.558 440.63 148.133C394.799 127.234 340.709 135.658 288.238 143.759C256.611 149.91 224.413 152.625 192.203 151.859C178.276 150.887 164.672 149.267 151.716 147.647C113.149 140.082 73.3575 141.523 35.4384 151.859L21.1871 156.557C4.23714 163.4 -13.6932 167.502 -31.9316 168.708Z" fill="#939598"/>
<path d="M-28.0449 159.311C-46.7128 159.023 -64.9765 153.827 -81.0016 144.244C-38.7334 167.897 -11.0404 160.445 31.0658 147.484L41.2685 144.244C62.2409 137.627 84.0598 134.08 106.047 133.713C122.935 134.314 139.686 136.98 155.927 141.652C168.048 144.951 180.386 147.387 192.851 148.942C227.342 150.282 261.84 146.46 295.202 137.602C343.786 127.233 395.285 116.54 439.982 135.658C395.447 116.54 344.595 127.233 295.526 137.602C262.106 146.449 227.557 150.272 193.013 148.942C180.498 147.371 168.106 144.935 155.927 141.652C139.745 136.968 123.045 134.301 106.209 133.713C84.2336 134.073 62.4212 137.564 41.4305 144.082L31.2278 147.322C12.1421 154.123 -7.81729 158.16 -28.0449 159.311Z" fill="#939598"/>
<path d="M-23.0247 150.563C-43.7853 150.437 -64.156 144.909 -82.1354 134.524C-36.4663 159.312 -4.56271 150.725 43.5356 138.251H46.1267C67.2377 132.261 88.9805 128.781 110.906 127.882C127.607 128.12 144.104 131.585 159.49 138.089C170.374 142.346 181.659 145.494 193.175 147.485C216.529 149.269 239.978 145.609 261.678 136.793C277.385 131.162 293.687 127.357 310.262 125.452L334.069 122.86C368.563 118.972 411.318 114.111 438.525 125.452C411.479 114.273 368.725 119.134 334.231 123.022C325.647 123.994 318.036 124.966 310.424 125.452C294.118 127.479 278.093 131.338 262.65 136.955C240.89 145.762 217.391 149.421 193.984 147.647C182.389 145.7 171.04 142.495 160.138 138.089C144.773 131.536 128.255 128.121 111.553 128.044C89.6283 128.943 67.8855 132.423 46.7745 138.413H44.1834C22.389 145.308 -0.19632 149.391 -23.0247 150.563Z" fill="#939598"/>
<path d="M205.969 145.055C198.717 145.09 191.522 143.771 184.753 141.166C177.304 138.25 171.312 135.172 165.482 132.256C152.931 124.605 138.557 120.465 123.861 120.267C101.645 120.981 79.5838 124.242 58.1108 129.988L52.9285 131.284C4.34438 142.949 -31.6079 151.373 -79.2203 126.1C-31.6079 151.211 3.6966 142.301 52.6046 131.122L57.7869 129.826C79.4172 124.065 101.647 120.857 124.023 120.267C138.822 120.301 153.329 124.391 165.968 132.094C172.138 135.474 178.522 138.451 185.077 141.004C210.341 150.725 233.662 140.194 257.954 130.15C271.493 123.551 285.881 118.862 300.708 116.217C311.861 115.245 323.077 115.245 334.231 116.217C344.579 117.027 354.976 117.027 365.325 116.217C371.64 116.217 377.633 114.597 383.463 113.625C400.098 108.913 417.804 109.651 433.99 115.731C417.853 109.686 400.209 108.948 383.625 113.625C377.794 114.597 371.802 115.569 365.648 116.217C355.246 117.026 344.796 117.026 334.393 116.217C323.239 115.246 312.023 115.246 300.87 116.217C286.102 118.889 271.77 123.577 258.277 130.15C242.032 138.615 224.235 143.686 205.969 145.055Z" fill="#939598"/>
<path d="M205.807 140.356C199.185 140.387 192.627 139.064 186.535 136.468C179.789 133.604 173.289 130.19 167.101 126.261C155.833 118.17 142.265 113.911 128.396 114.111C106.487 115.17 84.7625 118.647 63.6171 124.479C12.7657 136.468 -23.9963 145.216 -72.7424 119.619C-24.1582 145.054 12.4418 135.82 63.1313 124.317C84.2819 118.509 106.004 115.033 127.91 113.949H128.396C142.1 113.853 155.481 118.107 166.615 126.099C172.833 130.024 179.328 133.489 186.049 136.468C210.503 146.512 234.633 134.524 256.82 122.859C270.106 115.19 284.543 109.719 299.574 106.658C310.338 105.477 321.199 105.477 331.964 106.658C341.679 107.932 351.491 108.311 361.276 107.792C367.754 107.792 373.908 106.01 379.738 104.876C395.094 100.254 411.604 101.347 426.217 107.954C411.736 101.478 395.406 100.442 380.224 105.038C374.075 106.32 367.856 107.239 361.6 107.792C351.821 108.445 342.002 108.12 332.287 106.82C321.528 105.55 310.657 105.55 299.898 106.82C284.864 109.87 270.425 115.341 257.144 123.021C241.581 132.65 224.019 138.58 205.807 140.356Z" fill="#939598"/>
<path d="M205.321 133.065C202.573 133.3 199.81 133.3 197.061 133.065C187.391 131.274 178.188 127.525 170.016 122.049C160.756 115.741 150.068 111.843 138.922 110.708C116.615 110.468 94.3817 113.303 72.848 119.133H70.9046C20.0533 130.635 -17.3565 139.06 -65.9407 114.11C-17.3565 139.06 19.7294 130.311 70.5808 118.971H72.5241C94.029 112.981 116.278 110.09 138.599 110.384C149.859 111.569 160.652 115.52 170.016 121.887C178.089 127.405 187.26 131.108 196.9 132.741C219.074 133.572 240.946 127.394 259.411 115.083C276.38 104.079 295.786 97.404 315.931 95.6415C323.38 95.6415 330.83 95.6415 337.956 95.6415C348.806 95.6415 360.142 96.4515 371.964 95.6415H381.357C394.568 93.2737 408.19 95.5641 419.901 102.122C408.207 95.6824 394.659 93.4521 381.519 95.8035H372.126C360.304 95.8035 348.968 95.8035 338.117 95.8035C330.992 95.8035 323.542 95.8035 316.093 95.8035C296.171 97.328 276.929 103.726 260.059 114.434C243.609 125.027 224.815 131.424 205.321 133.065Z" fill="#939598"/>
<path d="M204.835 126.262C202.787 126.419 200.729 126.419 198.681 126.262C189.193 124.912 180.061 121.72 171.798 116.865C162.652 111.45 152.42 108.13 141.838 107.145C120.238 106.979 98.7173 109.759 77.8685 115.407C24.4259 127.396 -10.8785 133.552 -58.653 109.251C-11.0405 133.552 24.102 127.396 77.3826 115.407C98.5119 109.782 120.297 107.003 142.162 107.145C152.783 108.184 163.057 111.5 172.284 116.865C180.516 121.787 189.662 124.984 199.167 126.262C221.066 126.411 242.506 119.977 260.707 107.793C277.182 97.362 295.768 90.7218 315.121 88.3519H318.522C346.377 87.0559 392.856 84.7877 414.233 98.7205C392.856 84.9497 344.595 87.2179 318.684 88.5139H315.283C296.026 90.7573 277.53 97.3497 261.193 107.793C244.227 118.525 224.86 124.872 204.835 126.262Z" fill="#939598"/>
<path d="M18.7577 122.05C-5.87321 121.911 -30.1027 115.796 -51.8513 104.229C-15.3405 123.108 26.9799 127.394 66.5321 116.217L77.8684 113.625C95.2166 109.36 112.867 106.436 130.663 104.877C142.977 104.321 155.246 106.709 166.453 111.843C174.302 115.051 182.515 117.282 190.908 118.485C213.881 119.699 236.624 113.386 255.686 100.502C271.12 90.6232 288.436 84.0582 306.538 81.2235C318.846 80.0894 382.005 75.8772 407.917 93.8601C382.005 75.8772 319.008 80.2514 306.7 81.3855C288.523 84.0329 271.096 90.4327 255.524 100.178C236.437 113.008 213.712 119.316 190.746 118.161C182.462 117.112 174.351 114.988 166.615 111.843C155.431 106.831 143.231 104.501 130.987 105.039C113.246 106.611 95.6504 109.535 78.3542 113.787L67.0179 116.217C51.1866 119.886 35.0069 121.841 18.7577 122.05Z" fill="#939598"/>
<path d="M29.1224 118.647C3.14313 118.451 -22.4077 112.005 -45.3733 99.854C-7.64384 119.213 35.921 123.888 76.8968 112.977L89.5287 110.385C106.822 106.282 124.427 103.626 142.161 102.446C152.861 102.496 163.458 104.529 173.417 108.44C182.285 111.801 191.635 113.716 201.11 114.111C220.496 112.799 239.201 106.432 255.363 95.6418C268.556 87.1291 283.134 80.9884 298.44 77.4968C316.464 74.8911 334.739 74.5103 352.855 76.3628C370.744 77.2425 388.171 82.3503 403.706 91.2675C388.219 82.3748 370.851 77.2678 353.017 76.3628C335.002 74.5593 316.834 74.9946 298.926 77.6588C283.526 81.0899 268.84 87.175 255.524 95.6418C239.583 106.585 221.036 113.124 201.758 114.597C192.21 114.244 182.791 112.272 173.903 108.764C163.99 104.906 153.446 102.928 142.809 102.932C125.129 104.112 107.577 106.768 90.3384 110.871L77.7065 113.463C61.7124 116.726 45.4446 118.461 29.1224 118.647Z" fill="#939598"/>
<path d="M39.6489 115.893C12 115.671 -15.1796 108.721 -39.5432 95.6419C-2.19915 115.279 40.8997 121.02 82.0791 111.843L100.217 108.279C115.103 104.972 130.201 102.698 145.4 101.474C155.252 101.393 165.065 102.702 174.551 105.362C183.507 107.911 192.77 109.219 202.082 109.251C220.456 107.1 238.082 100.723 253.581 90.6196C266.464 82.5508 280.577 76.6407 295.363 73.1227C322.085 67.9384 374.556 70.5306 399.333 88.3515C374.556 70.5306 322.247 67.9384 295.525 72.1507C280.818 75.8356 266.776 81.7936 253.905 89.8096C238.384 99.9607 220.681 106.29 202.244 108.279C192.935 108.38 183.66 107.125 174.713 104.552C165.241 101.825 155.418 100.515 145.562 100.664C130.415 101.876 115.371 104.15 100.541 107.469L82.403 111.843C68.2991 114.453 53.9919 115.808 39.6489 115.893Z" fill="#939598"/>
<path d="M50.9853 113.949C21.51 113.782 -7.48982 106.502 -33.5511 92.7257C3.675 112.295 46.407 118.744 87.7473 111.033C95.1969 109.899 102.97 108.279 110.42 106.82C123.157 103.876 136.094 101.872 149.125 100.826C157.802 100.736 166.471 101.386 175.037 102.77C184.443 104.413 194.002 105.011 203.54 104.552C220.421 101.97 236.58 95.9006 250.99 86.7314C263.928 78.8804 278.031 73.1384 292.772 69.7205C328.217 64.1347 364.521 69.8004 396.581 85.9213C364.646 69.7734 328.436 64.1046 293.096 69.7205C278.442 72.8459 264.388 78.3165 251.476 85.9213C237.019 94.9956 220.88 101.057 204.025 103.742C194.434 104.213 184.82 103.615 175.361 101.96C166.795 100.576 158.126 99.9258 149.449 100.016C136.401 100.915 123.453 102.92 110.744 106.01C103.294 107.468 95.5208 109.089 88.2332 110.223C75.9305 112.414 63.4782 113.66 50.9853 113.949Z" fill="#939598"/>
<path d="M62.1596 112.653C30.2025 112.457 -1.23772 104.566 -29.5024 89.6473C9.2206 109.969 53.5197 117.08 96.6544 109.898C110.42 107.954 124.509 105.524 138.113 102.932C148.222 101.83 158.396 101.451 168.559 101.798C177.351 102.286 186.164 102.286 194.956 101.798C212.052 99.1353 228.517 93.3703 243.54 84.7871C256.157 77.7601 269.592 72.3186 283.541 68.5862C320.812 61.3135 359.448 67.0311 393.018 84.7871C359.575 67.1799 321.143 61.4671 284.027 68.5862C270.121 72.2945 256.737 77.7375 244.188 84.7871C229.105 93.2402 212.664 98.9968 195.604 101.798C186.827 102.556 178.014 102.826 169.207 102.608C159.098 102.258 148.977 102.637 138.923 103.742C125.157 106.334 111.23 108.764 97.3022 110.708C85.6439 112.134 73.9039 112.784 62.1596 112.653Z" fill="#939598"/>
<path d="M83.2128 110.384C45.6335 111.189 8.38019 103.258 -25.6157 87.2171C47.9083 122.859 126.453 109.574 195.604 97.9097C211.097 94.4937 226.072 89.0463 240.14 81.7089C252.937 74.7037 266.53 69.2644 280.626 65.508C299.354 61.6952 318.623 61.3657 337.47 64.5359C356.029 67.6277 373.967 73.7003 390.588 82.5189C357.002 64.6364 318.27 58.9132 280.95 66.318C266.979 69.8607 253.452 74.9693 240.625 81.5469C226.587 88.9507 211.603 94.4014 196.09 97.7477C158.717 105.045 120.794 109.164 82.7269 110.06L83.2128 110.384Z" fill="#939598"/>
<path d="M88.395 109.899C50.0713 110.302 12.1689 101.876 -22.3768 85.2732C47.4224 118.485 116.088 113.301 196.576 95.6418C210.427 91.621 223.831 86.1924 236.577 79.4409C249.943 72.9809 263.946 67.9314 278.359 64.3741C316.173 57.001 355.374 63.1357 389.131 81.709C355.45 63.254 316.374 57.1782 278.683 64.5361C264.226 67.9445 250.207 72.9998 236.901 79.6029C224.088 85.8303 210.688 90.7688 196.9 94.3457C161.425 103.565 125.03 108.782 88.395 109.899Z" fill="#939598"/>
<path d="M94.3872 109.575H91.3102C52.8027 109.104 14.8513 100.317 -19.9475 83.8154C48.5561 116.217 115.764 117.999 204.835 91.1058L231.556 82.6813C285.161 65.3464 327.429 51.7376 387.835 82.6813C327.753 52.2237 285.485 66.4804 232.042 82.6813L205.321 91.1058C169.454 102.694 132.073 108.917 94.3872 109.575Z" fill="#939598"/>
<path d="M96.0064 109.089H92.6055C54.1424 108.24 16.2893 99.297 -18.4902 82.8435C53.7382 115.245 120.622 117.513 204.997 89.1619L213.904 86.2457C241.537 75.3078 270.338 67.5885 299.736 63.2405C330.148 60.7296 360.636 67.0884 387.511 81.5475C322.732 49.1457 277.549 64.5366 214.714 85.7597L205.807 88.6758C170.595 101.539 133.486 108.438 96.0064 109.089Z" fill="#939598"/>
<path d="M260.221 290.052C255.96 265.681 250.173 241.602 242.893 217.958C241.916 207.667 241.916 197.306 242.893 187.014C244.185 175.927 244.185 164.728 242.893 153.641L235.929 144.244C235.282 132.991 235.771 121.701 237.386 110.546C237.311 99.2773 236.118 88.0436 233.824 77.0105C236.119 88.0981 237.312 99.3857 237.386 110.708C235.798 121.866 235.256 133.148 235.767 144.406L242.731 152.831C244.103 163.967 244.103 175.23 242.731 186.366C241.756 196.55 241.756 206.803 242.731 216.986C250.282 240.931 256.286 265.336 260.707 290.052H260.221Z" fill="#939598"/>
<path d="M232.528 287.298C228.317 263.968 222.973 240.315 217.143 217.148C216.577 205.958 217.448 194.742 219.734 183.774C221.812 173.924 222.736 163.866 222.487 153.802C222.487 143.758 222.487 133.065 222.487 121.401C223.217 107.91 223.217 94.3894 222.487 80.8986C223.459 94.1833 222.487 107.954 222.487 121.401C222.487 134.847 222.487 143.434 222.487 153.802C222.653 163.917 221.73 174.019 219.734 183.936C217.524 194.588 216.599 205.466 216.981 216.338C222.973 239.505 228.156 263.158 233.176 286.65L232.528 287.298Z" fill="#939598"/>
<path d="M204.511 285.515C199.491 260.404 194.957 234.645 191.232 209.047C192.284 195.926 194.451 182.919 197.71 170.165C199.167 163.361 200.625 156.881 201.596 150.886C202.568 144.892 203.054 142.624 203.864 138.574C207.408 121.097 209.735 103.396 210.827 85.5968C209.76 103.407 207.378 121.114 203.702 138.574C203.702 142.624 202.244 146.836 201.596 150.886C200.949 154.937 199.167 163.361 197.548 170.165C194.393 182.94 192.227 195.939 191.07 209.047C194.957 234.483 199.491 260.242 204.349 285.515H204.511Z" fill="#939598"/>
<path d="M176.008 284.22C167.699 239.268 170.029 192.994 182.81 149.105C184.268 144.082 185.887 139.222 187.345 134.362C192.288 119.796 196.238 104.911 199.167 89.8096C196.142 104.942 192.194 119.875 187.345 134.524C185.887 139.222 184.268 144.244 182.81 149.105C170.352 193.071 168.355 239.344 176.98 284.22H176.008Z" fill="#939598"/>
<path d="M147.344 283.734C144.542 251.236 146.397 218.503 152.85 186.529C159.521 154.204 171.158 123.108 187.345 94.3463C155.157 152.033 141.157 218.107 147.182 283.896L147.344 283.734Z" fill="#939598"/>
<path d="M117.869 282.762C117.869 238.048 117.869 182.155 141.19 140.68C142.647 138.088 144.105 135.172 145.724 132.094C152.526 118.809 161.109 102.122 175.361 97.7482C161.271 101.96 152.85 118.485 146.048 131.77C144.429 135.01 142.809 137.926 141.352 140.518C117.869 181.831 118.031 237.724 118.193 282.276L117.869 282.762Z" fill="#939598"/>
<path d="M88.719 281.466C89.6907 273.689 90.3385 265.265 90.9863 255.868C93.9013 220.388 97.4641 175.998 113.659 148.133C114.631 146.35 115.764 144.406 116.898 142.138C126.615 124.479 142.647 94.8317 163.701 101.474C143.133 94.9937 127.1 124.317 117.546 141.814L114.145 147.809C97.95 175.674 94.5491 219.902 91.634 255.544C90.3385 264.941 89.5287 273.851 88.719 281.466Z" fill="#939598"/>
<path d="M59.4065 280.008C62.4716 259.783 67.9073 239.989 75.6012 221.037C77.6779 212.026 79.0853 202.875 79.8118 193.657C79.5727 177.002 84.0049 160.613 92.6057 146.351C92.6057 144.892 94.549 143.434 95.5207 141.652C101.642 130.786 109.155 120.764 117.869 111.843C121.751 107.284 126.997 104.097 132.831 102.755C138.665 101.412 144.776 101.986 150.259 104.39C144.801 101.849 138.652 101.202 132.785 102.552C126.918 103.902 121.669 107.172 117.869 111.843C109.244 120.844 101.888 130.983 96.0065 141.976L92.9296 146.675C84.2814 160.813 79.7393 177.082 79.8118 193.657C79.2911 202.858 78.1004 212.009 76.249 221.037C68.2396 239.929 62.583 259.734 59.4065 280.008Z" fill="#939598"/>
<path d="M31.2277 279.198C36.3911 258.6 43.6069 238.573 52.7666 219.416C54.8808 210.693 56.2355 201.804 56.8153 192.847C57.2984 176.579 62.4109 160.786 71.5525 147.322L74.4675 143.434C88.8808 123.831 108.476 96.9378 137.465 107.63C108.8 97.0998 88.8808 123.831 75.1153 143.11C74.1436 144.568 73.01 145.864 72.2003 147.16C62.8451 160.589 57.662 176.483 57.3011 192.847C56.6592 201.937 55.1406 210.943 52.7666 219.74C43.6935 238.821 36.4804 258.732 31.2277 279.198Z" fill="#939598"/>
<path d="M28.9604 220.713C31.7389 212.195 33.8505 203.475 35.2763 194.629C36.8675 178.725 42.7446 163.55 52.2808 150.725L54.3861 147.971C70.5808 126.424 91.9578 99.3684 124.185 109.413C91.7959 99.5304 71.5525 125.614 54.8719 147.809C54.2194 148.712 53.5165 149.577 52.7666 150.401C43.1075 163.264 37.0682 178.48 35.2763 194.467C33.8337 203.362 31.7224 212.136 28.9604 220.713Z" fill="#939598"/>
<path d="M-21.405 280.332C-15.5749 265.265 -9.25899 250.522 -3.105 236.266C3.04899 222.009 8.06935 209.048 13.7375 194.791C20.6028 177.112 30.343 160.689 42.5641 146.189C58.7588 126.424 77.2208 103.905 110.42 110.547C78.0305 103.905 59.0827 126.748 42.888 146.027C30.7951 160.589 21.1172 176.999 14.2233 194.629C8.55519 209.048 2.72509 222.981 -3.105 236.266C-8.9351 249.55 -15.413 265.265 -21.405 280.332Z" fill="#939598"/>
<path d="M-46.5068 281.951C-26.1325 236.659 -1.74293 193.283 26.3694 152.344C42.5641 129.825 61.9977 109.25 96.8164 111.68C62.3216 109.25 42.888 129.663 27.0172 152.182C-1.32719 193.148 -25.9342 236.579 -46.5068 281.951Z" fill="#939598"/>
<path d="M-70.6369 283.896C-57.5168 260.297 -43.1367 237.42 -27.559 215.367C-14.6032 196.736 -1.16158 176.646 10.3367 157.367C16.9833 143.946 27.093 132.544 39.6205 124.341C52.148 116.139 66.6384 111.432 81.5934 110.709C66.7279 111.457 52.3277 116.142 39.8649 124.282C27.4022 132.423 17.3239 143.729 10.6606 157.043C-1.16158 177.619 -14.2793 196.898 -27.0731 215.691C-42.7729 237.651 -57.3141 260.417 -70.6369 283.896Z" fill="#939598"/>
<path d="M-93.4717 286.003L-82.1354 265.427C-64.5487 252.416 -51.7415 233.967 -45.6973 212.937C-40.8162 207.482 -35.3896 202.542 -29.5026 198.194C-20.2304 191.345 -12.9154 182.184 -8.28749 171.624C-2.24503 155.977 7.34559 141.946 19.7294 130.636C33.2891 119.692 49.3844 112.337 66.5321 109.251C49.6183 111.95 33.7545 119.193 20.6342 130.206C7.51389 141.22 -2.37042 155.592 -7.96359 171.786C-12.6348 182.413 -20.0736 191.589 -29.5026 198.356C-35.3542 202.747 -40.7767 207.684 -45.6973 213.099C-51.8086 234.185 -64.595 252.718 -82.1354 265.913L-93.4717 286.003Z" fill="#939598"/>
<path d="M-114.525 288.27L-102.055 268.505C-83.8714 256.26 -70.037 238.563 -62.5395 217.958C-57.0274 212.314 -50.7598 207.462 -43.9156 203.539C-38.454 200.652 -33.6579 196.652 -29.8365 191.796C-26.0151 186.941 -23.2532 181.338 -21.7288 175.35C-17.2351 158.811 -8.33504 143.804 4.02077 131.932C17.7915 120.447 33.6979 111.803 50.8235 106.496C12.2801 120.591 -8.28722 134.362 -21.5669 175.026C-23.1728 181.092 -26.0551 186.744 -30.021 191.606C-33.9869 196.467 -38.9449 200.425 -44.5634 203.215C-51.3081 207.148 -57.514 211.941 -63.0253 217.472C-70.5949 238.127 -84.478 255.87 -102.702 268.181L-114.525 288.27Z" fill="#939598"/>
<path d="M-135.092 290.052L-122.136 270.449C-103.826 258.605 -89.3191 241.73 -80.3539 221.847C-74.4341 216.943 -68.0312 212.655 -61.2441 209.048C-54.4244 206.457 -48.4237 202.084 -43.8666 196.386C-39.3095 190.687 -36.3625 183.871 -35.3326 176.646C-25.7777 133.876 -4.88647 121.725 34.4667 102.284C-4.56259 122.373 -25.4538 134.362 -34.8467 176.646C-36.033 183.837 -39.057 190.599 -43.6253 196.276C-48.1937 201.953 -54.1513 206.353 -60.9202 209.048C-67.719 212.596 -74.171 216.772 -80.1919 221.523C-89.2448 241.449 -103.868 258.329 -122.298 270.125L-135.092 290.052Z" fill="#939598"/>
<path d="M-153.23 291.996C-137.242 266.647 -118.266 243.313 -96.7106 222.494C-90.4293 217.268 -83.5853 212.758 -76.3053 209.048C-68.9498 206.621 -62.4527 202.118 -57.5968 196.081C-52.7408 190.045 -49.7332 182.733 -48.9362 175.026C-48.9362 170.814 -47.9645 167.087 -47.6406 163.847C-47.6553 155.935 -45.6925 148.144 -41.9308 141.184C-38.1691 134.223 -32.7278 128.314 -26.1017 123.993C-16.8174 116.581 -6.7747 110.173 3.85857 104.876C8.3931 102.446 13.2515 99.8539 17.6241 97.0997C13.2515 99.6919 8.55504 102.284 3.85857 104.714C-6.67676 110.196 -16.6096 116.766 -25.7778 124.317C-32.4265 128.602 -37.8768 134.508 -41.6163 141.48C-45.3558 148.452 -47.2617 156.26 -47.1548 164.171C-47.1548 167.573 -47.1548 171.138 -48.6123 175.512C-49.459 183.146 -52.4926 190.372 -57.3481 196.322C-62.2036 202.271 -68.6742 206.69 -75.9814 209.048C-83.3605 212.659 -90.3592 217.001 -96.8726 222.008C-118.461 242.933 -137.39 266.439 -153.23 291.996Z" fill="#939598"/>
<path d="M-169.587 293.131C-155.222 267.919 -137.457 244.804 -116.792 224.439C-109.202 217.524 -101.019 211.29 -92.3379 205.808C-83.5618 201.607 -76.2211 194.908 -71.2369 186.549C-66.2526 178.191 -63.8467 168.546 -64.321 158.825C-62.3777 128.044 -41.4865 116.055 -17.3564 101.312C-11.6882 97.9102 -5.69615 94.184 0.133942 90.2958C-5.69615 94.184 -11.5262 97.7482 -17.1944 101.312C-41.3245 115.893 -62.0538 128.53 -63.9971 158.501C-63.5863 168.272 -66.0732 177.946 -71.1448 186.305C-76.2165 194.665 -83.6465 201.338 -92.4998 205.484C-101.161 211.346 -109.29 217.96 -116.792 225.249C-137.407 245.357 -155.171 268.197 -169.587 293.131Z" fill="#939598"/>
<g opacity="0.4">
<path d="M552.698 287.946C460.388 287.946 367.592 284.544 277.387 281.142L190.746 278.064L154.955 276.768C113.821 275.31 71.5526 273.852 29.9322 273.852C10.4985 273.852 -7.31567 273.852 -24.4821 274.824C-47.4786 275.634 -70.799 277.578 -93.3096 279.36C-122.946 281.79 -153.716 284.22 -184 284.544C-170.021 263.157 -152.559 244.265 -132.339 228.651C-124.672 222.966 -116.547 217.926 -108.047 213.584C-91.8521 204.674 -80.6777 198.68 -80.1919 176.97C-80.0186 171.856 -78.6368 166.855 -76.1597 162.378C-73.6826 157.901 -70.1806 154.074 -65.9405 151.211C-55.8751 144.245 -44.9984 138.533 -33.5511 134.2C-28.2068 131.77 -22.7007 129.34 -17.3564 126.586C19.664 139.298 58.4872 145.972 97.6261 146.351C134.077 145.67 170.282 140.224 205.321 130.15C239.779 119.417 275.497 113.262 311.558 111.843C337.555 112.007 363.301 116.949 387.511 126.424C419.901 136.468 436.096 150.725 440.954 171.3C442.786 179.603 446.559 187.353 451.964 193.914C457.368 200.476 464.251 205.662 472.048 209.048C479.41 213.318 486.546 217.969 493.425 222.981C503.309 244.459 520.539 261.696 542.009 271.583L552.698 287.946ZM29.9322 273.852C71.5526 273.852 113.821 275.472 154.793 276.93L190.584 278.226L277.387 281.304C366.944 284.706 459.74 288.108 552.698 288.108L541.685 271.907C520.232 261.996 503.008 244.766 493.101 223.305C486.325 218.255 479.298 213.55 472.048 209.21C463.953 206.036 456.764 200.918 451.115 194.306C445.466 187.695 441.532 179.793 439.658 171.3C436.096 150.887 418.281 136.63 387.511 126.748C363.483 117.482 337.958 112.704 312.206 112.653C276.139 114.138 240.422 120.347 205.969 131.122C170.932 141.207 134.726 146.653 98.2739 147.323C58.8805 146.819 19.8298 139.925 -17.3564 126.91C-22.7007 129.664 -28.2068 132.094 -33.5511 134.524C-57.8432 145.379 -78.7344 154.775 -79.3821 176.646C-80.0299 198.518 -90.8804 204.512 -107.399 213.584C-115.933 217.865 -124.063 222.908 -131.691 228.651C-151.793 244.168 -169.147 262.952 -183.028 284.22C-152.906 284.22 -122.46 281.466 -92.9857 279.036C-70.3131 277.254 -46.9927 275.31 -23.9962 274.5C-7.31567 273.852 10.3366 273.852 29.9322 273.852Z" fill="#939598"/>
<path d="M205.969 173.73C198.794 173.785 191.648 172.803 184.754 170.814C178.223 168.924 171.791 166.707 165.482 164.172C152.392 158.298 138.208 155.262 123.861 155.261C101.776 155.802 79.7784 158.241 58.1109 162.552L52.9286 163.362C4.34451 172.11 -31.6078 178.429 -79.2202 159.636C-31.6078 178.267 3.69672 172.11 52.6048 163.362L57.7871 162.552C79.6075 158.171 101.773 155.731 124.023 155.261C138.473 155.269 152.762 158.305 165.968 164.172C171.798 166.44 177.79 168.708 185.078 170.814C209.633 175.471 235.02 172.649 257.954 162.714C271.8 157.758 286.131 154.283 300.708 152.345C311.867 151.535 323.071 151.535 334.231 152.345C344.588 152.912 354.968 152.912 365.325 152.345C371.641 152.345 377.633 151.049 383.463 150.401C400.187 146.827 417.529 147.383 433.99 152.021C417.573 147.461 400.301 146.905 383.625 150.401C377.795 150.401 371.803 151.859 365.649 152.345C355.238 152.911 344.804 152.911 334.393 152.345C323.23 151.617 312.032 151.617 300.87 152.345C286.349 154.301 272.073 157.776 258.278 162.714C241.511 169.053 223.867 172.769 205.969 173.73Z" fill="#939598"/>
<path d="M205.807 170.166C199.283 170.196 192.79 169.268 186.535 167.412C179.879 165.289 173.385 162.69 167.101 159.636C155.163 153.431 141.844 150.365 128.396 150.725C106.63 151.468 84.9627 154.015 63.6172 158.339C12.7658 167.25 -23.9962 173.73 -72.7422 154.775C-24.1581 173.73 12.4419 167.25 63.1314 158.339C84.4797 154.032 106.145 151.485 127.91 150.725H128.396C141.68 150.454 154.82 153.518 166.616 159.636C172.899 162.69 179.393 165.289 186.049 167.412C210.503 174.864 234.633 165.954 256.82 157.205C270.658 151.002 285.25 146.645 300.222 144.245C311.001 143.378 321.832 143.378 332.611 144.245C342.348 145.247 352.147 145.518 361.924 145.055C368.402 145.055 374.556 143.759 380.386 142.949C395.801 139.516 411.856 140.299 426.865 145.217C411.969 140.676 396.109 140.34 381.034 144.245C375.042 145.055 369.05 145.865 362.41 146.189C352.632 146.652 342.834 146.381 333.097 145.379C322.315 144.584 311.49 144.584 300.708 145.379C286.009 147.471 271.639 151.445 257.954 157.205C241.515 164.693 223.837 169.086 205.807 170.166Z" fill="#939598"/>
<path d="M205.321 164.82C202.57 164.976 199.812 164.976 197.062 164.82C187.682 163.535 178.558 160.803 170.016 156.719C160.342 151.775 149.762 148.853 138.923 148.133C116.739 147.958 94.5969 150.075 72.8482 154.451H70.9048C20.0534 163.199 -16.8705 169.518 -65.7786 150.725C-17.1944 169.356 19.8915 163.199 70.7429 154.451H72.6862C94.4207 149.98 116.573 147.862 138.761 148.133C149.716 148.782 160.415 151.706 170.178 156.719C178.654 160.827 187.728 163.561 197.062 164.82C218.653 165.572 240.105 161.069 259.573 151.697C277.225 143.453 296.311 138.721 315.769 137.764H337.794C348.644 137.764 359.98 138.574 371.803 137.764H381.195C394.247 135.953 407.545 137.63 419.739 142.624C407.55 137.829 394.343 136.212 381.357 137.926H371.965C360.142 137.926 348.806 137.926 337.956 137.926C330.83 137.926 323.38 137.926 315.931 137.926C296.528 138.904 277.499 143.635 259.897 151.859C242.647 159.471 224.151 163.863 205.321 164.82Z" fill="#939598"/>
<path d="M204.835 160.445H198.681C189.419 159.498 180.355 157.149 171.798 153.479C162.309 149.331 152.171 146.864 141.838 146.189C120.362 146.081 98.9298 148.143 77.8684 152.345C24.4259 161.255 -10.8786 165.792 -58.653 147.809C-11.0406 165.792 24.102 161.255 77.3826 152.345C98.6988 148.018 120.412 145.954 142.161 146.189C152.55 146.846 162.744 149.313 172.284 153.479C180.841 157.149 189.905 159.498 199.167 160.445C220.488 160.684 241.566 155.912 260.707 146.513C277.877 138.6 296.287 133.722 315.121 132.094H318.522C346.377 130.96 392.856 129.34 414.233 139.708C392.856 129.34 344.595 131.122 318.684 132.094H315.283C296.566 133.799 278.276 138.675 261.193 146.513C243.481 154.75 224.343 159.481 204.835 160.445Z" fill="#939598"/>
<path d="M18.7578 156.557C-5.3993 156.558 -29.3448 152.052 -51.8511 143.272C-14.0516 157.497 27.0306 160.589 66.5322 152.183L77.8685 150.239C95.4425 147.205 113.179 145.203 130.987 144.245C143.132 143.809 155.255 145.565 166.777 149.429C174.761 151.837 182.946 153.518 191.232 154.451C213.598 155.323 235.837 150.707 256.01 141.004C271.941 133.348 289.003 128.315 306.538 126.1C318.846 125.289 382.005 122.049 407.917 135.496C382.005 122.211 319.008 125.452 306.7 126.1C288.991 127.996 271.708 132.756 255.525 140.194C235.365 149.935 213.115 154.553 190.746 153.641C182.447 152.786 174.255 151.104 166.292 148.619C154.881 145.056 142.922 143.575 130.987 144.245C113.322 145.359 95.7432 147.578 78.3544 150.887L67.0181 152.669C51.0605 155.249 34.9224 156.549 18.7578 156.557Z" fill="#939598"/>
<path d="M29.1224 153.965C3.64146 153.985 -21.6206 149.26 -45.3733 140.032C-6.32634 154.628 36.0139 158.051 76.8968 149.915L89.5287 147.971C106.916 144.802 124.503 142.854 142.161 142.139C152.737 142.079 163.265 143.552 173.417 146.513C182.439 149.057 191.741 150.472 201.11 150.725C219.756 149.757 238.003 144.959 254.715 136.63C268.382 130.173 282.88 125.647 297.793 123.184C315.864 121.183 334.084 120.912 352.207 122.374C369.686 122.919 386.919 126.652 403.058 133.39C386.987 126.618 369.8 122.883 352.369 122.374C334.349 121.074 316.251 121.345 298.279 123.184C283.371 125.669 268.876 130.194 255.201 136.63C238.448 145.028 220.145 149.881 201.434 150.887C192.01 150.52 182.662 149.052 173.579 146.513C163.465 143.631 153.002 142.159 142.485 142.139C124.893 143.014 107.37 144.962 90.0145 147.971L77.3826 149.915C61.4125 152.411 45.2849 153.764 29.1224 153.965Z" fill="#939598"/>
<path d="M39.649 152.021C12.553 152.042 -14.3074 146.987 -39.5431 137.116C-0.795517 151.896 41.2117 155.98 82.0792 148.943L100.217 146.351C115.175 143.815 130.258 142.085 145.401 141.166C155.193 141.1 164.965 142.077 174.551 144.083C183.606 145.984 192.83 146.961 202.082 146.999C219.959 145.564 237.418 140.84 253.581 133.066C266.931 127.029 280.96 122.623 295.364 119.943C322.085 116.217 374.556 118.161 399.334 131.446C374.556 118.161 322.247 116.217 295.526 120.105C281.168 122.679 267.186 127.033 253.905 133.066C237.692 140.86 220.176 145.583 202.244 146.999C192.988 147.043 183.755 146.065 174.713 144.083C165.131 142.066 155.352 141.142 145.562 141.328C130.469 142.103 115.435 143.78 100.541 146.351L82.4031 148.943C68.2378 150.936 53.9536 151.964 39.649 152.021Z" fill="#939598"/>
<path d="M50.9853 150.563C21.8325 150.488 -7.05253 144.995 -34.1989 134.362C4.41713 149.152 46.1679 153.836 87.0995 147.971C94.5491 147.161 102.323 146.027 109.772 144.893C122.58 142.663 135.501 141.148 148.477 140.357C157.135 140.347 165.787 140.834 174.389 141.815C183.836 143.058 193.371 143.492 202.892 143.111C219.308 141.302 235.328 136.871 250.342 129.988C263.65 123.913 277.698 119.61 292.125 117.189C327.214 113.039 362.787 117.258 395.933 129.502C362.886 117.315 327.431 113.097 292.448 117.189C278.079 119.633 264.088 123.935 250.828 129.988C235.806 136.85 219.79 141.28 203.378 143.111C193.808 143.471 184.224 143.092 174.713 141.977C166.125 140.836 157.463 140.349 148.801 140.519C135.822 141.185 122.896 142.646 110.096 144.893L87.5853 148.133C74.4676 149.753 62.4835 150.563 50.9853 150.563Z" fill="#939598"/>
<path d="M62.1598 149.591C30.8056 149.603 -0.277227 143.779 -29.5023 132.418C10.6346 147.891 53.9905 153.124 96.6545 147.647C110.42 146.189 124.509 144.407 138.113 142.462C148.236 141.577 158.4 141.252 168.559 141.49C177.304 141.49 186.373 141.49 194.956 141.49C211.652 139.517 227.998 135.265 243.541 128.854C256.443 123.616 269.846 119.707 283.542 117.189C320.458 111.731 358.156 115.859 393.018 129.178C358.328 115.85 320.783 111.72 284.027 117.189C270.379 119.684 257.028 123.594 244.188 128.854C228.655 135.29 212.305 139.543 195.604 141.49C187.021 141.49 177.952 141.49 169.207 141.49C160.462 141.49 148.963 141.49 138.923 142.462C125.157 144.407 111.23 146.189 97.3023 147.647C85.6312 148.922 73.9002 149.571 62.1598 149.591Z" fill="#939598"/>
<path d="M83.2129 147.971C46.2015 148.618 9.36459 142.751 -25.6156 130.636C47.9084 157.206 126.453 146.837 195.604 138.575C210.832 136.248 225.763 132.283 240.14 126.748C253.247 121.659 266.802 117.808 280.626 115.246C299.48 112.567 318.617 112.567 337.47 115.246C355.681 117.329 373.54 121.795 390.589 128.53C355.771 114.82 317.973 110.464 280.95 115.894C267.183 118.478 253.685 122.329 240.625 127.396C226.231 132.911 211.307 136.928 196.09 139.385C158.533 144.833 120.671 147.917 82.727 148.619L83.2129 147.971Z" fill="#939598"/>
<path d="M88.3951 147.484C50.6874 147.879 13.2004 141.684 -22.3767 129.177C47.7464 154.289 115.764 150.4 196.252 136.63C209.875 134.105 223.258 130.42 236.253 125.613C249.845 120.729 263.821 116.989 278.035 114.435C315.443 108.953 353.633 113.366 388.807 127.233C353.747 113.363 315.66 108.95 278.359 114.435C264.145 116.989 250.169 120.729 236.577 125.613C223.576 130.403 210.195 134.088 196.576 136.63C160.89 143.323 124.699 146.954 88.3951 147.484Z" fill="#939598"/>
<path d="M94.3873 147.322H91.3103C53.4053 147.192 15.7931 140.674 -19.9474 128.043C48.5563 151.859 115.764 153.479 204.835 133.552L231.557 127.233C285.161 114.273 327.429 104.066 387.836 127.233C327.753 104.552 285.485 114.597 232.042 127.233L205.321 133.552C168.978 142.297 131.765 146.916 94.3873 147.322Z" fill="#939598"/>
<path d="M96.0065 146.999H92.6056C54.8045 146.601 17.3061 140.203 -18.4901 128.044C53.7512 152.516 131.761 154.212 204.997 132.904L213.904 130.636C241.941 122.778 270.604 117.358 299.574 114.435C329.358 112.439 359.216 117.03 387.026 127.882C322.247 103.743 277.063 115.083 214.228 130.96L205.321 133.228C169.59 142.313 132.873 146.938 96.0065 146.999Z" fill="#939598"/>
<path d="M232.528 279.846C228.318 262.349 222.973 244.69 217.143 227.517C216.589 219.114 217.465 210.678 219.734 202.568C221.812 195.305 222.741 187.761 222.488 180.211C222.488 172.758 222.488 164.82 222.488 156.396C223.215 146.31 223.215 136.185 222.488 126.1C223.136 136.188 223.136 146.307 222.488 156.396C222.086 164.329 222.086 172.278 222.488 180.211C222.65 187.81 221.723 195.394 219.734 202.73C217.49 210.735 216.56 219.052 216.981 227.355C222.973 244.69 228.156 262.187 233.176 279.684L232.528 279.846Z" fill="#939598"/>
<path d="M204.511 278.55C199.491 259.595 194.956 240.478 191.232 221.523C192.312 211.593 194.485 201.814 197.71 192.361C199.167 187.339 200.625 182.478 201.596 177.942C202.568 173.406 203.054 171.786 203.864 168.87C207.386 155.933 209.717 142.701 210.827 129.34C209.755 142.718 207.368 155.959 203.702 168.87C203.702 171.948 202.244 175.026 201.596 178.104C200.948 181.182 199.167 187.339 197.548 192.523C194.382 201.937 192.211 211.656 191.07 221.523C194.956 240.478 199.491 259.595 204.349 278.388L204.511 278.55Z" fill="#939598"/>
<path d="M176.009 277.578C167.695 244.048 170.073 208.756 182.81 176.646L187.345 165.792C192.176 155.337 196.13 144.499 199.167 133.39C196.085 144.485 192.132 155.319 187.345 165.792C185.887 169.356 184.268 173.082 182.81 176.808C170.4 208.91 168.361 244.095 176.98 277.416L176.009 277.578Z" fill="#939598"/>
<path d="M147.344 277.092C144.495 252.716 146.364 228.019 152.85 204.35C159.906 179.429 171.61 156.067 187.345 135.496C155.966 175.564 141.546 226.344 147.182 276.93L147.344 277.092Z" fill="#939598"/>
<path d="M117.87 276.443C117.87 243.07 117.87 201.433 141.19 170.49L145.725 164.009C152.011 152.034 162.601 142.887 175.361 138.412C162.733 142.889 152.263 151.974 146.048 163.847C144.429 166.278 142.809 168.384 141.352 170.328C117.87 201.271 118.032 242.746 118.194 276.119L117.87 276.443Z" fill="#939598"/>
<path d="M88.7189 275.31C89.6906 269.477 90.3383 262.997 90.9861 256.193C93.9012 229.785 97.464 196.735 113.659 175.188C114.63 173.892 115.764 172.434 116.898 170.652C126.614 157.529 142.647 135.496 163.7 140.518C143.133 135.658 127.1 157.529 117.545 170.49L113.497 176.646C97.3021 197.383 93.9012 230.433 90.9861 257.651C90.3383 262.997 89.5286 269.477 88.7189 275.31Z" fill="#939598"/>
<path d="M59.4066 273.852C62.5747 258.488 68.034 243.687 75.6013 229.947C77.6515 223.403 79.0616 216.675 79.812 209.858C79.7482 196.988 84.2858 184.519 92.6058 174.702L95.5208 171.138C102.051 162.915 109.555 155.516 117.87 149.105C122.411 145.617 127.736 143.291 133.381 142.331C139.026 141.371 144.82 141.806 150.259 143.597C144.842 141.657 139.016 141.145 133.343 142.109C127.671 143.074 122.342 145.483 117.87 149.105C109.585 155.511 102.227 163.035 96.0067 171.462L92.9297 174.864C84.5423 184.664 79.8951 197.119 79.812 210.02C79.2794 216.87 78.0863 223.652 76.2491 230.271C68.4598 243.86 62.7807 258.555 59.4066 273.852Z" fill="#939598"/>
<path d="M31.2277 273.851C36.5805 258.184 43.8129 243.224 52.7666 229.299C54.9166 222.733 56.2758 215.935 56.8153 209.048C57.5373 196.365 62.7636 184.357 71.5525 175.188L74.4675 172.272C88.8808 157.691 108.476 137.602 137.465 145.702C108.8 137.764 88.8808 157.529 75.1153 172.11L72.2003 175.026C63.2423 184.162 57.9418 196.266 57.3011 209.048C56.6502 215.91 55.1264 222.661 52.7666 229.137C43.8288 243.128 36.5977 258.14 31.2277 273.851Z" fill="#939598"/>
<path d="M4.66821 273.852C11.0465 258.38 19.1984 243.701 28.9603 230.109C31.7016 223.853 33.8172 217.341 35.2762 210.668C37.399 198.242 43.5442 186.858 52.7665 178.266C53.3301 177.751 53.8704 177.21 54.386 176.646C70.5807 160.445 91.9577 140.518 124.185 147.971C91.7958 140.68 71.5524 160.607 54.8718 176.646L52.7665 178.59C43.6512 187.241 37.5733 198.606 35.4382 210.992C34.0055 217.725 31.8892 224.293 29.1222 230.595C19.3366 244.026 11.1311 258.541 4.66821 273.852Z" fill="#939598"/>
<path d="M-21.405 273.851C-15.5749 262.511 -9.25899 251.494 -3.105 241.449C3.04899 231.405 8.39324 221.198 14.0614 210.668C21.3033 197.049 30.9614 184.862 42.5641 174.702C50.7702 164.973 61.2742 157.448 73.1235 152.808C84.9729 148.168 97.7926 146.561 110.42 148.132C78.0305 143.272 59.0827 159.959 42.888 174.54C31.5479 184.909 22.1193 197.193 15.0331 210.83C8.55519 221.522 2.72509 231.729 -3.105 241.449C-8.9351 251.17 -15.413 263.321 -21.405 273.851Z" fill="#939598"/>
<path d="M-46.5067 275.796C-25.5418 241.026 -1.12631 208.46 26.3695 178.591C34.7939 168.448 45.4891 160.433 57.5881 155.198C69.687 149.962 82.849 147.653 96.0068 148.457C82.8097 147.585 69.5963 149.897 57.4781 155.197C45.3598 160.497 34.6912 168.631 26.3695 178.915C-1.10872 208.682 -25.5237 241.139 -46.5067 275.796Z" fill="#939598"/>
<path d="M-93.4716 278.874L-81.4875 263.645C-65.0859 255.302 -52.1743 241.41 -45.0494 224.439C-40.0518 220.209 -34.6237 216.517 -28.8547 213.422C-20.2695 208.545 -13.1628 201.435 -8.28737 192.847C-1.5816 180.553 8.03898 170.094 19.7295 162.389C34.0427 153.809 49.9793 148.293 66.5322 146.188C28.4746 152.507 8.39319 165.143 -7.96347 192.523C-13.0222 201.387 -20.491 208.634 -29.5024 213.422C-35.2121 216.614 -40.6311 220.3 -45.6972 224.439C-52.9422 241.372 -65.8149 255.28 -82.1353 263.807L-93.4716 278.874Z" fill="#939598"/>
<path d="M-114.525 280.493L-102.055 265.751C-85.1154 257.901 -71.2293 244.693 -62.5396 228.165C-56.7529 223.912 -50.5055 220.325 -43.9156 217.472C-38.9422 215.678 -34.399 212.863 -30.5779 209.208C-26.7569 205.553 -23.7426 201.139 -21.7289 196.249C-16.5727 183.118 -7.60432 171.833 4.02071 163.847C18.4526 154.956 34.2729 148.548 50.8234 144.892C12.28 155.261 -8.28728 165.629 -21.5669 195.925C-23.6787 200.872 -26.823 205.31 -30.7891 208.942C-34.7552 212.575 -39.4515 215.317 -44.5634 216.986C-51.1179 219.808 -57.315 223.398 -63.0254 227.678C-71.8618 244.193 -85.7721 257.427 -102.702 265.426L-114.525 280.493Z" fill="#939598"/>
<path d="M-135.092 281.952L-122.136 267.371C-104.944 259.493 -90.4233 246.769 -80.3539 230.757C-74.2169 227.112 -67.7675 224.022 -61.0822 221.523C-48.6123 216.338 -39.5432 212.612 -35.1706 197.869C-25.6158 165.468 -4.72459 156.881 34.6286 142.3C-4.56264 156.719 -25.4538 165.792 -34.8467 197.545C-39.3813 212.45 -48.9362 216.5 -60.9202 221.361C-67.5775 223.989 -74.0208 227.131 -80.192 230.757C-90.3815 246.827 -105.006 259.601 -122.298 267.533L-135.092 281.952Z" fill="#939598"/>
<path d="M-153.23 283.248C-136.537 263.762 -117.56 246.356 -96.7105 231.405C-90.0434 227.607 -83.0522 224.408 -75.8193 221.847C-62.2157 216.501 -51.5272 212.45 -48.4502 196.574C-48.4502 193.333 -47.4786 190.579 -47.1547 188.149C-45.2113 174.864 -44.4016 170.49 -25.6157 158.178C-16.2256 152.664 -6.36153 148.001 3.85869 144.245L17.6242 138.574L4.02063 144.245C-6.33946 148.046 -16.3167 152.82 -25.7776 158.502C-44.5635 170.652 -45.2113 174.702 -47.1547 188.149C-47.1547 190.579 -47.1547 193.333 -48.6122 196.574C-51.5272 212.774 -62.3777 216.825 -75.9812 222.009C-83.2023 224.664 -90.1901 227.916 -96.8724 231.729C-117.693 246.533 -136.62 263.835 -153.23 283.248Z" fill="#939598"/>
<path d="M-169.587 284.058C-154.459 264.616 -136.689 247.384 -116.792 232.863C-109.01 227.646 -100.834 223.041 -92.3379 219.093C-76.1432 211.154 -65.7786 205.808 -63.9971 184.261C-62.2157 162.714 -41.1626 151.859 -17.0325 141.329C-11.3643 138.736 -5.37227 135.982 0.457825 133.066L-17.3564 141.491C-41.4865 152.345 -62.2157 161.742 -64.1591 184.099C-66.1025 206.456 -76.629 211.154 -92.6618 219.093C-101.176 223.069 -109.354 227.728 -117.116 233.025C-136.894 247.512 -154.554 264.688 -169.587 284.058Z" fill="#939598"/>
</g>
<path d="M173.895 78.3859L175.784 73.1872L177.209 76.9777L177.747 78.385H177.937L178.716 76.1651L179.212 74.7514L180.502 71.0836C180.606 70.7991 180.761 70.5993 180.97 70.4826C181.085 70.4142 181.254 70.364 181.475 70.3316V70.1036H179.032V70.3316C179.273 70.3394 179.452 70.3704 179.573 70.4229C179.789 70.5141 179.897 70.6691 179.897 70.8985C179.894 70.9831 179.884 71.0674 179.867 71.1502C179.827 71.3657 179.767 71.577 179.687 71.7813L178.148 75.9557L176.37 71.3422C176.305 71.1753 176.265 71.0631 176.249 71.0088C176.232 70.947 176.224 70.8829 176.225 70.8187C176.225 70.6098 176.316 70.468 176.501 70.4001C176.618 70.359 176.83 70.3376 177.14 70.3335V70.1055H173.844V70.3335C174.105 70.3377 174.299 70.3681 174.426 70.4247C174.643 70.5159 174.805 70.6983 174.913 70.9719L175.489 72.4804L174.189 75.9279L172.41 71.3034C172.365 71.1821 172.333 71.0845 172.311 71.0084C172.289 70.9321 172.278 70.8533 172.278 70.774C172.278 70.5943 172.369 70.4703 172.555 70.4023C172.659 70.3658 172.833 70.3435 173.078 70.3358V70.1077H170.062V70.3358C170.423 70.3558 170.688 70.5008 170.858 70.7708C171.028 71.0408 171.327 71.7704 171.754 72.9597L172.79 75.8381L173.707 78.3859H173.895Z" fill="white"/>
<path d="M234.6 17.9086C234.155 17.863 233.87 17.7686 233.741 17.6378C233.544 17.4321 233.446 16.9966 233.446 16.3253V11.5371L238.889 18.283H239.099V11.8075C239.099 11.1643 239.177 10.752 239.333 10.5708C239.489 10.3896 239.802 10.2753 240.271 10.2279V9.99988H237.38V10.2279C237.833 10.2685 238.126 10.3533 238.258 10.4846C238.458 10.6874 238.558 11.125 238.558 11.7975V15.8853L233.809 10.0026H231.712V10.2306C231.964 10.2384 232.154 10.268 232.279 10.3186C232.404 10.3693 232.559 10.501 232.739 10.7113L232.907 10.9096V16.3221C232.907 16.9729 232.835 17.3851 232.691 17.5625C232.547 17.7399 232.221 17.8567 231.712 17.9086V18.1367H234.601L234.6 17.9086Z" fill="white"/>
<path d="M235.708 137.219C234.984 137.219 234.379 136.932 233.891 136.359C233.611 136.031 233.367 135.59 233.162 135.036H232.879L233.244 137.656H233.515C233.532 137.557 233.565 137.461 233.613 137.374C233.664 137.286 233.761 137.242 233.906 137.242C233.966 137.242 234.203 137.313 234.618 137.458C235 137.596 235.403 137.669 235.81 137.674C236.567 137.674 237.189 137.458 237.675 137.026C238.161 136.594 238.405 136.054 238.405 135.41C238.405 134.929 238.268 134.512 237.994 134.16C237.721 133.809 237.24 133.431 236.564 133.014L235.484 132.346C235.079 132.098 234.781 131.86 234.589 131.63C234.397 131.405 234.295 131.117 234.302 130.821C234.302 130.469 234.428 130.192 234.676 129.994C234.927 129.797 235.239 129.693 235.557 129.698C235.99 129.698 236.427 129.854 236.87 130.166C237.313 130.478 237.634 131.029 237.834 131.817H238.129L237.858 129.199H237.605C237.582 129.31 237.536 129.414 237.468 129.505C237.41 129.577 237.305 129.613 237.153 129.613C237.097 129.613 236.872 129.544 236.478 129.405C236.082 129.268 235.745 129.199 235.465 129.199C234.784 129.199 234.237 129.405 233.823 129.817C233.41 130.229 233.203 130.746 233.204 131.367C233.204 131.836 233.378 132.264 233.726 132.653C233.951 132.887 234.205 133.091 234.483 133.259L235.531 133.914C236.136 134.291 236.531 134.572 236.717 134.761C236.855 134.898 236.965 135.06 237.039 135.24C237.113 135.419 237.15 135.612 237.149 135.806C237.149 136.251 237.006 136.598 236.719 136.846C236.44 137.092 236.08 137.225 235.708 137.219Z" fill="white"/>
<path d="M190.802 70.2895L190.781 70.5619L193.957 70.8052L193.978 70.5328L190.802 70.2895Z" fill="white"/>
<path d="M191.179 66.9491L191.138 67.2188L194.287 67.6973L194.328 67.4277L191.179 66.9491Z" fill="white"/>
<path d="M191.832 63.6519L191.771 63.9181L194.876 64.631L194.937 64.3648L191.832 63.6519Z" fill="white"/>
<path d="M192.704 60.4037L192.624 60.6646L195.666 61.6082L195.747 61.3473L192.704 60.4037Z" fill="white"/>
<path d="M193.839 57.2346L193.739 57.4886L196.703 58.658L196.803 58.4039L193.839 57.2346Z" fill="white"/>
<path d="M195.192 54.16L195.073 54.4059L197.941 55.7941L198.06 55.5483L195.192 54.16Z" fill="white"/>
<path d="M197.122 50.6169L196.985 50.8531L199.741 52.4516L199.878 52.2153L197.122 50.6169Z" fill="white"/>
<path d="M198.586 48.3625L198.432 48.5879L201.061 50.3868L201.215 50.1614L198.586 48.3625Z" fill="white"/>
<path d="M200.593 45.657L200.423 45.8704L202.912 47.8592L203.082 47.6458L200.593 45.657Z" fill="white"/>
<path d="M202.796 43.1223L202.61 43.3224L204.944 45.4906L205.13 45.2905L202.796 43.1223Z" fill="white"/>
<path d="M205.18 40.7546L204.98 40.9406L207.149 43.275L207.349 43.0891L205.18 40.7546Z" fill="white"/>
<path d="M207.735 38.5707L207.521 38.7412L209.51 41.2299L209.724 41.0594L207.735 38.5707Z" fill="white"/>
<path d="M210.437 36.5656L210.212 36.7198L212.011 39.3491L212.236 39.1948L210.437 36.5656Z" fill="white"/>
<path d="M213.292 34.7961L213.056 34.9329L214.654 37.6887L214.89 37.5519L213.292 34.7961Z" fill="white"/>
<path d="M216.262 33.2237L216.016 33.3427L217.404 36.2104L217.649 36.0914L216.262 33.2237Z" fill="white"/>
<path d="M219.35 31.8924L219.096 31.9927L220.265 34.9562L220.519 34.8559L219.35 31.8924Z" fill="white"/>
<path d="M222.521 30.7715L222.26 30.8524L223.204 33.8952L223.465 33.8143L222.521 30.7715Z" fill="white"/>
<path d="M225.774 29.9148L225.508 29.976L226.22 33.0809L226.487 33.0198L225.774 29.9148Z" fill="white"/>
<path d="M229.077 29.2789L228.807 29.3198L229.286 32.4694L229.556 32.4285L229.077 29.2789Z" fill="white"/>
<path d="M232.42 28.9268L232.147 28.9476L232.391 32.1241L232.663 32.1032L232.42 28.9268Z" fill="white"/>
<path d="M239.14 28.9281L238.896 32.1045L239.168 32.1254L239.412 28.949L239.14 28.9281Z" fill="white"/>
<path d="M239.161 115.716L238.888 115.737L239.132 118.914L239.404 118.893L239.161 115.716Z" fill="white"/>
<path d="M232.383 115.707L232.14 118.883L232.412 118.904L232.656 115.728L232.383 115.707Z" fill="white"/>
<path d="M229.279 115.356L228.802 118.505L229.072 118.546L229.549 115.396L229.279 115.356Z" fill="white"/>
<path d="M226.216 114.751L225.506 117.857L225.772 117.918L226.483 114.812L226.216 114.751Z" fill="white"/>
<path d="M223.201 113.94L222.257 116.983L222.518 117.064L223.462 114.021L223.201 113.94Z" fill="white"/>
<path d="M220.266 112.892L219.095 115.855L219.349 115.955L220.52 112.992L220.266 112.892Z" fill="white"/>
<path d="M217.402 111.626L216.012 114.493L216.258 114.612L217.648 111.745L217.402 111.626Z" fill="white"/>
<path d="M214.655 110.161L213.057 112.917L213.293 113.054L214.891 110.298L214.655 110.161Z" fill="white"/>
<path d="M212.012 108.473L210.213 111.102L210.438 111.256L212.237 108.627L212.012 108.473Z" fill="white"/>
<path d="M209.511 106.605L207.52 109.093L207.733 109.264L209.724 106.776L209.511 106.605Z" fill="white"/>
<path d="M207.148 104.562L204.98 106.896L205.18 107.082L207.348 104.748L207.148 104.562Z" fill="white"/>
<path d="M204.946 102.341L202.611 104.509L202.797 104.709L205.132 102.541L204.946 102.341Z" fill="white"/>
<path d="M202.913 99.9754L200.424 101.964L200.594 102.178L203.083 100.189L202.913 99.9754Z" fill="white"/>
<path d="M201.055 97.4658L198.426 99.2643L198.58 99.4897L201.209 97.6913L201.055 97.4658Z" fill="white"/>
<path d="M199.406 94.8047L196.65 96.4031L196.787 96.639L199.543 95.0406L199.406 94.8047Z" fill="white"/>
<path d="M197.936 92.0552L195.068 93.4427L195.187 93.6886L198.055 92.3011L197.936 92.0552Z" fill="white"/>
<path d="M196.7 89.1839L193.736 90.353L193.837 90.6071L196.8 89.438L196.7 89.1839Z" fill="white"/>
<path d="M195.667 86.2288L192.624 87.1725L192.705 87.4334L195.748 86.4897L195.667 86.2288Z" fill="white"/>
<path d="M194.875 83.2095L191.77 83.9224L191.831 84.1886L194.936 83.4757L194.875 83.2095Z" fill="white"/>
<path d="M194.355 80.2641L191.201 80.7419L191.242 81.0119L194.396 80.5341L194.355 80.2641Z" fill="white"/>
<path d="M193.957 77.0329L190.78 77.2762L190.801 77.5486L193.978 77.3053L193.957 77.0329Z" fill="white"/>
<path d="M269.977 107.175L256.6 94.8194L256.581 94.8011L256.278 95.1295L256.256 95.1541L256.126 95.2945L256.286 95.4423L269.505 107.654C260.917 116.202 249.083 121.493 236.041 121.493H236.002L235.917 122.163C235.958 122.163 235.999 122.163 236.041 122.163C262.411 122.163 283.891 100.849 284.168 74.5433L283.497 74.6291C283.338 87.2772 278.209 98.7475 269.977 107.175Z" fill="white"/>
<path d="M187.912 73.4581L188.585 73.3705C188.762 60.4738 194.107 48.8033 202.641 40.3423L214.557 53.2805L215.424 54.2222L215.673 53.9942L215.961 54.1766C220.232 49.859 225.88 46.9127 232.184 46.0485L232.273 45.3613C225.998 46.1842 220.167 49.0472 215.679 53.5095L203.12 39.8745C211.362 31.9283 222.459 26.9299 234.702 26.5892L234.79 25.9143C209.014 26.5742 188.216 47.5976 187.912 73.4581Z" fill="white"/>
<path d="M234.702 122.146L234.617 121.471C221.894 121.094 210.418 115.688 202.102 107.177L215.548 94.425L214.59 94.6881L214.929 93.7761L201.636 106.696C193.689 98.3299 188.756 87.078 188.585 74.6957L187.912 74.6082C188.218 100.438 208.969 121.44 234.702 122.146Z" fill="white"/>
<path d="M236.04 25.8966C235.97 25.8966 235.899 25.8989 235.829 25.8993L235.916 26.5692H236.04C248.798 26.5692 260.396 31.6311 268.934 39.8495L255.835 52.9692L256.188 52.7375L256.388 53.4963L256.673 53.0604L269.413 40.3173C277.976 48.7943 283.335 60.499 283.495 73.4326L284.167 73.5184C283.891 47.2124 262.41 25.8966 236.04 25.8966Z" fill="white"/>
<path d="M210.264 70.5469C210.961 65.3741 213.203 60.5323 216.697 56.6547L216.323 56.0646C212.626 60.1106 210.268 65.2 209.574 70.6367L210.264 70.5469Z" fill="white"/>
<path d="M216.563 91.2542C213.146 87.4033 210.954 82.6223 210.264 77.5206L209.575 77.4294C210.261 82.7929 212.566 87.8198 216.183 91.8397L216.563 91.2542Z" fill="white"/>
<path d="M253.298 93.4758C249.337 96.9959 244.301 99.3298 238.748 99.9057L238.661 100.59C244.324 100.033 249.658 97.674 253.881 93.8598L253.298 93.4758Z" fill="white"/>
<path d="M238.704 48.1511C244.289 48.7221 249.353 51.0696 253.329 54.6134L253.911 54.2308C249.673 50.3913 244.309 48.0209 238.617 47.4712L238.704 48.1511Z" fill="white"/>
<path d="M217.902 55.4045C221.651 51.7522 226.493 49.219 231.887 48.3503L231.978 47.6526C226.31 48.5213 221.226 51.1826 217.319 55.0337L217.902 55.4045Z" fill="white"/>
<path d="M231.845 99.7043C226.655 98.8543 221.846 96.4472 218.054 92.802L217.474 93.1778C221.351 96.9372 226.358 99.5379 231.934 100.402L231.845 99.7043Z" fill="white"/>
<path d="M215.304 93.196C211.322 88.8916 208.662 83.3505 207.97 77.2202L207.283 77.129C207.967 83.5302 210.753 89.3102 214.93 93.7738L215.304 93.196Z" fill="white"/>
<path d="M238.412 45.8834C244.893 46.4251 250.757 49.1594 255.259 53.3457L255.835 52.9681C251.177 48.5903 245.073 45.7352 238.324 45.2048L238.412 45.8834Z" fill="white"/>
<path d="M255.227 94.7456C250.74 98.9045 244.906 101.624 238.459 102.174L238.373 102.854C245.087 102.315 251.16 99.4768 255.802 95.1241L255.227 94.7456Z" fill="white"/>
<path d="M232.138 102.009C226.079 101.164 220.458 98.3713 216.125 94.0518L215.548 94.4248C220.041 98.9489 225.906 101.858 232.226 102.697L232.138 102.009Z" fill="white"/>
<path d="M207.969 70.846C208.669 64.6355 211.389 59.031 215.459 54.7029L215.089 54.1196C210.823 58.606 207.975 64.4517 207.282 70.9358L207.969 70.846Z" fill="white"/>
<path d="M215.04 94.4877L229.951 84.8324L229.412 80.5946L215.04 94.4877Z" fill="white"/>
<path d="M229.336 68.0634L229.377 67.7547L215.523 54.3823L224.589 68.6813L229.336 68.0634Z" fill="white"/>
<path d="M235.31 126.917L235.321 126.832L235.299 126.831L235.31 126.917Z" fill="white"/>
<path d="M235.421 126.046L235.485 125.545L235.915 122.163L236 121.493L238.372 102.854L238.458 102.174L238.66 100.589L238.746 99.9049L240.627 85.1298L253.297 93.475L253.879 93.8585L255.226 94.7455L255.801 95.124L256.285 95.4432L256.124 95.2954L256.254 95.155L240.659 84.884L241.28 80.0046L241.616 79.9618L256.278 95.1331L256.58 94.8048L256.6 94.823L256.418 94.5425L256.086 94.0409L256.041 93.9725L255.157 92.6314L254.778 92.0563L246.41 79.352L261.832 77.3912L262.518 77.3031L264.125 77.0989L264.812 77.0113L283.495 74.6331L284.167 74.5474L287.558 74.116L287.741 74.0923C287.741 74.0567 287.741 74.0198 287.738 73.9774L287.556 73.9541L287.319 73.924L284.164 73.5227L283.493 73.437L273.725 72.1944L264.809 71.0598L264.123 70.9722L262.516 70.7675L261.829 70.6804L246.394 68.7158L254.75 55.9883L255.128 55.4128L256.01 54.0689L256.384 53.4993L256.67 53.0634L256.589 53.1446L256.184 52.7405L255.831 52.9722L255.256 53.3498L253.909 54.234L253.326 54.6166L240.617 62.9563L238.702 48.152L238.615 47.4721L238.409 45.8852L238.322 45.2066L235.913 26.5713L235.827 25.9014L235.422 22.769V22.7627L235.391 22.5205L235.227 22.5269L234.789 25.9147L234.702 26.5896L232.274 45.3607L232.185 46.048L231.977 47.6541L231.886 48.3518L229.983 63.0639L217.901 55.406L217.317 55.0352L215.961 54.1761L215.673 53.9937L215.424 54.2217L214.557 53.28L215.089 54.1191L215.459 54.7023L216.323 56.0645L216.697 56.6545L224.344 68.7135L210.264 70.5467L209.574 70.6379L207.969 70.8473L207.282 70.9385L188.586 73.3732L187.913 73.4607L184.521 73.9026L184.349 74.1461L184.521 74.1685L187.565 74.5647L187.913 74.6103L188.586 74.6979L207.282 77.134L207.969 77.2252L209.574 77.4345L210.264 77.5257L224.275 79.3498L216.562 91.2574L216.182 91.8443L215.303 93.2009L214.928 93.7801L214.055 95.1285L214.213 95.2936L215.548 94.4272L216.124 94.0541L217.474 93.1804L218.054 92.8046L221.611 90.5022L229.984 85.081L231.845 99.7056L231.934 100.403L232.138 102.01L232.226 102.698L234.617 121.471L234.702 122.146L235.135 125.541L235.421 126.046ZM235.444 124.1L235.995 73.7685L241.062 79.9376L235.444 124.1ZM256.421 94.9548L241.893 79.9266L246.162 79.3835L256.421 94.9548ZM241.225 79.7857L236.125 73.5747L285.694 74.126L241.225 79.7857ZM285.372 73.8999L236.153 73.3526L236.159 73.3467L241.221 68.2849L285.372 73.8999ZM246.149 68.6839L241.891 68.1422L256.277 53.2576L246.149 68.6839ZM256.244 52.9717L241.614 68.107L241.278 68.0642L240.65 63.2057L256.244 52.9717ZM241.059 68.1266L235.995 73.193L235.448 24.6802L241.059 68.1266ZM235.217 24.3615L235.773 73.2199L229.557 68.1157L235.217 24.3615ZM229.952 63.3092L229.412 67.48L215.796 54.337L229.952 63.3092ZM215.523 54.3831L229.377 67.7554L229.336 68.0642L224.589 68.6839L215.523 54.3831ZM229.404 68.2799L235.576 73.3513L186.25 73.9008L229.404 68.2799ZM185.952 74.1279L235.613 73.5747L229.398 79.7862L185.952 74.1279ZM224.521 79.378L229.337 80.0051L229.377 80.3188L214.759 94.4513L224.521 79.378ZM215.04 94.4883L229.412 80.5952L229.951 84.833L215.04 94.4883ZM235.215 124.403L229.555 79.9467L235.77 73.7352L235.215 124.403Z" fill="white"/>
<path d="M235.773 73.2191L235.217 24.3606L229.557 68.1148L235.773 73.2191Z" fill="white"/>
<path d="M235.444 124.1L241.061 79.9374L235.994 73.7683L235.444 124.1Z" fill="white"/>
<path d="M236.158 73.3438H236.16L236.154 73.3497L285.373 73.8988L241.22 68.2802L236.158 73.3438Z" fill="white"/>
<path d="M235.612 73.574L185.953 74.1271L229.398 79.7854L235.612 73.574Z" fill="white"/>
<path d="M235.99 126.133C222.114 126.133 209.069 120.73 199.257 110.918C189.445 101.106 184.042 88.062 184.042 74.1854C184.042 60.3087 189.446 47.2642 199.257 37.4525C209.068 27.6407 222.114 22.2378 235.99 22.2378C249.866 22.2378 262.911 27.6394 272.722 37.4525C282.534 47.2656 287.938 60.3096 287.938 74.1854C287.938 88.0611 282.534 101.107 272.722 110.918C262.911 120.729 249.866 126.133 235.99 126.133ZM235.99 22.894C207.708 22.894 184.698 45.903 184.698 74.1854C184.698 102.468 207.708 125.477 235.99 125.477C264.272 125.477 287.281 102.468 287.281 74.1854C287.281 45.903 264.272 22.894 235.99 22.894Z" fill="white"/>
<path d="M193.794 109.675L192.627 112.257L194.506 111.377L195.207 111.053L195.276 111.121L194.768 112.215L194.443 112.912L193.604 114.718C193.542 114.837 193.525 114.975 193.559 115.106C193.587 115.192 193.632 115.272 193.689 115.342L193.608 115.426L192.712 114.552L192.794 114.468C192.86 114.535 192.937 114.589 193.022 114.629C193.07 114.652 193.124 114.659 193.176 114.648C193.228 114.637 193.276 114.61 193.311 114.57C193.34 114.538 193.367 114.504 193.39 114.467C193.452 114.374 193.506 114.275 193.55 114.172L194.479 112.09L192.181 113.145C192.098 113.183 192.045 113.209 192.018 113.223C191.989 113.24 191.964 113.261 191.941 113.285C191.906 113.315 191.882 113.357 191.873 113.402C191.864 113.448 191.871 113.496 191.892 113.537C191.95 113.63 192.021 113.715 192.102 113.789L192.021 113.873L190.812 112.694L190.894 112.611C190.964 112.684 191.047 112.743 191.139 112.786C191.252 112.832 191.377 112.82 191.514 112.76L192.265 112.413L193.021 110.683L190.714 111.743C190.655 111.772 190.608 111.795 190.572 111.815C190.537 111.835 190.505 111.86 190.476 111.89C190.445 111.92 190.425 111.959 190.42 112.002C190.414 112.045 190.423 112.088 190.445 112.125C190.491 112.203 190.547 112.274 190.613 112.336L190.531 112.42L189.426 111.341L189.507 111.258C189.647 111.379 189.796 111.421 189.955 111.383C190.113 111.345 190.483 111.184 191.066 110.901L192.48 110.215L193.727 109.608L193.794 109.675Z" fill="white"/>
<path d="M198.227 114.187C197.961 113.928 197.637 113.817 197.253 113.853C196.995 113.884 196.744 113.959 196.512 114.076L196.408 113.974L197.479 113.144L197.579 113.242C197.55 113.283 197.528 113.33 197.514 113.379C197.501 113.429 197.521 113.48 197.574 113.532C197.596 113.553 197.708 113.612 197.912 113.707C198.102 113.793 198.276 113.91 198.426 114.054C198.705 114.325 198.856 114.627 198.879 114.959C198.893 115.116 198.873 115.273 198.819 115.421C198.765 115.568 198.68 115.702 198.568 115.812C198.411 115.982 198.2 116.092 197.971 116.124C197.744 116.153 197.432 116.123 197.036 116.033L196.401 115.891C196.211 115.842 196.015 115.823 195.819 115.834C195.668 115.848 195.528 115.917 195.424 116.028C195.365 116.083 195.32 116.152 195.293 116.228C195.265 116.304 195.256 116.385 195.266 116.466C195.287 116.628 195.364 116.777 195.483 116.889C195.641 117.044 195.858 117.143 196.132 117.187C196.406 117.231 196.721 117.144 197.076 116.927L197.184 117.032L196.148 117.895L196.057 117.804C196.089 117.756 196.109 117.701 196.117 117.644C196.122 117.598 196.096 117.545 196.04 117.491C196.02 117.471 195.912 117.416 195.718 117.326C195.555 117.255 195.405 117.159 195.273 117.039C195.023 116.796 194.896 116.525 194.893 116.226C194.89 116.079 194.918 115.933 194.974 115.797C195.031 115.661 195.114 115.538 195.22 115.436C195.393 115.262 195.626 115.16 195.871 115.151C196.038 115.146 196.204 115.162 196.366 115.2L196.985 115.337C197.341 115.414 197.586 115.453 197.723 115.451C197.823 115.45 197.921 115.43 198.012 115.391C198.104 115.352 198.186 115.295 198.255 115.223C198.414 115.06 198.486 114.881 198.47 114.688C198.454 114.497 198.368 114.318 198.227 114.187Z" fill="white"/>
<path d="M195.972 37.6145C195.804 37.7609 195.674 37.8343 195.583 37.8366C195.441 37.8366 195.249 37.7276 195.004 37.5005L193.254 35.8807L197.558 36.174L197.629 36.0973L195.264 33.9084C195.029 33.6905 194.905 33.5233 194.892 33.4068C194.878 33.2904 194.942 33.1376 195.083 32.9485L195 32.8715L194.023 33.9271L194.106 34.0042C194.273 33.8522 194.404 33.7742 194.497 33.7703C194.638 33.766 194.832 33.8776 195.078 34.105L196.571 35.4845L192.815 35.2286L192.105 35.9952L192.189 36.0723C192.253 36.001 192.329 35.9411 192.413 35.8949C192.473 35.8652 192.573 35.8538 192.711 35.8598L192.841 35.8652L194.819 37.6975C195.057 37.9179 195.184 38.0841 195.2 38.196C195.216 38.3078 195.147 38.4661 194.995 38.6707L195.078 38.7477L196.055 37.6925L195.972 37.6145Z" fill="white"/>
<path d="M199.837 34.2946L198.767 31.6711L200.612 32.6205L201.3 32.9699L201.372 32.9046L200.905 31.7938L200.608 31.0851L199.832 29.2492C199.775 29.1273 199.765 28.9887 199.804 28.8597C199.835 28.7747 199.883 28.6965 199.944 28.629L199.865 28.5424L198.938 29.3823L199.016 29.469C199.085 29.4052 199.165 29.3539 199.252 29.3171C199.301 29.2958 199.355 29.291 199.407 29.3035C199.459 29.316 199.505 29.3452 199.539 29.3864C199.567 29.4194 199.592 29.4548 199.614 29.4922C199.673 29.5879 199.722 29.6888 199.763 29.7937L200.614 31.9078L198.352 30.7677C198.27 30.7262 198.215 30.6975 198.192 30.6825C198.164 30.6647 198.139 30.6432 198.117 30.6186C198.083 30.5868 198.06 30.5444 198.053 30.4983C198.046 30.4523 198.055 30.4052 198.078 30.3646C198.139 30.2733 198.213 30.191 198.297 30.1202L198.218 30.0335L196.968 31.1668L197.046 31.2534C197.119 31.1829 197.204 31.1265 197.297 31.087C197.359 31.068 197.424 31.0617 197.488 31.0686C197.552 31.0755 197.615 31.0954 197.671 31.1271L198.408 31.5019L199.103 33.2581L196.837 32.1139C196.778 32.0834 196.732 32.0574 196.7 32.0359C196.666 32.0144 196.635 31.9883 196.609 31.9584C196.579 31.9273 196.561 31.887 196.557 31.8442C196.553 31.8013 196.563 31.7583 196.586 31.7222C196.635 31.646 196.694 31.577 196.762 31.517L196.684 31.4308L195.538 32.4673L195.617 32.554C195.761 32.4378 195.912 32.4015 196.069 32.445C196.226 32.4885 196.591 32.6627 197.163 32.9676L198.55 33.7063L199.774 34.3584L199.837 34.2946Z" fill="white"/>
<path d="M200.19 37.4903L198.56 35.2544L200.816 36.8897L200.19 37.4903Z" fill="white"/>
<path d="M198.128 109.75L196.391 111.903L198.723 110.379L198.128 109.75Z" fill="white"/>
</g>
<defs>
<clipPath id="clip0_904_4508">
<rect width="240" height="148" fill="white"/>
</clipPath>
</defs>
</svg>
