<svg xmlns="http://www.w3.org/2000/svg" width="34" height="34" viewbox="0 0 34 34" fill="none">
                              <path d="M31.9504 9.02642V27.9636C31.9504 28.7566 31.6354 29.5171 31.0747 30.0779C30.5139 30.6386 29.7534 30.9536 28.9604 30.9536M28.9604 30.9536C28.1673 30.9536 27.4068 30.6386 26.8461 30.0779C26.2853 29.5171 25.9703 28.7566 25.9703 27.9636V5.03965C25.9703 4.51097 25.7603 4.00395 25.3864 3.63011C25.0126 3.25628 24.5056 3.04626 23.9769 3.04626H4.04307C3.51439 3.04626 3.00736 3.25628 2.63353 3.63011C2.2597 4.00395 2.04968 4.51097 2.04968 5.03965V27.9636C2.04968 28.7566 2.36471 29.5171 2.92546 30.0779C3.4862 30.6386 4.24674 30.9536 5.03976 30.9536H28.9604Z" stroke="#1155CC" stroke-width="2.10586" stroke-linecap="round" stroke-linejoin="round"></path>
                              <path d="M7.03308 20.9867H20.9868" stroke="#1155CC" stroke-width="2.10586" stroke-linecap="round" stroke-linejoin="round"></path>
                              <path d="M7.03308 24.9735H15.0066" stroke="#1155CC" stroke-width="2.10586" stroke-linecap="round" stroke-linejoin="round"></path>
                              <path d="M8.02977 8.02979H19.9901C19.9901 8.02979 20.9868 8.02979 20.9868 9.02648V15.0066C20.9868 15.0066 20.9868 16.0033 19.9901 16.0033H8.02977C8.02977 16.0033 7.03308 16.0033 7.03308 15.0066V9.02648C7.03308 9.02648 7.03308 8.02979 8.02977 8.02979Z" stroke="#1155CC" stroke-width="2.10586" stroke-linecap="round" stroke-linejoin="round"></path>
                            </svg>