<svg width="240" height="148" viewBox="0 0 240 148" fill="none" xmlns="http://www.w3.org/2000/svg">
<g clip-path="url(#clip0_904_4241)">
<rect width="240" height="148" fill="white"/>
<path d="M552.698 298.314C460.388 298.314 367.592 293.616 277.388 289.242L190.746 285.03L154.956 283.41C113.983 281.303 71.7147 279.197 30.0942 279.197C10.6606 279.197 -7.15361 279.197 -24.32 280.655C-47.3165 281.789 -70.6369 284.382 -93.1475 286.812C-122.784 290.052 -153.554 293.292 -183.838 293.778C-170.68 266.157 -153.245 240.787 -132.177 218.606C-124.675 211.171 -116.548 204.395 -107.885 198.355C-99.0228 193.838 -91.6687 186.835 -86.7218 178.204C-81.7748 169.572 -79.4494 159.685 -80.0298 149.752C-80.1313 143.275 -78.9372 136.842 -76.5176 130.832C-74.098 124.823 -70.5018 119.358 -65.9404 114.759C-56.1769 105.775 -45.2896 98.0964 -33.551 91.9153C-28.2067 88.8372 -22.7005 85.435 -17.3563 81.8708C18.6936 98.649 57.8708 107.647 97.6262 108.278C134.466 107.624 170.909 100.552 205.321 87.3791C239.106 73.3537 275.032 65.1905 311.558 63.2398C337.972 63.2038 364.013 69.4803 387.512 81.5468C400.998 85.8338 413.08 93.6791 422.485 104.257C431.89 114.834 438.27 127.753 440.954 141.652C442.015 151.959 445.356 161.9 450.734 170.754C456.112 179.609 463.393 187.156 472.048 192.847C479.501 198.729 486.636 205.002 493.425 211.64C501.827 238.116 518.954 260.961 542.009 276.443L552.698 298.314ZM29.9323 278.873C71.5527 278.873 113.821 280.817 154.794 282.924L190.584 284.544L277.388 288.756C366.944 293.292 459.74 297.828 552.698 297.828L541.685 276.767C518.666 261.247 501.549 238.417 493.101 211.964C486.371 205.222 479.289 198.841 471.886 192.847C463.014 187.346 455.495 179.916 449.888 171.109C444.281 162.302 440.729 152.345 439.497 141.976C436.987 128.226 430.842 115.399 421.7 104.829C412.558 94.259 400.753 86.3316 387.512 81.8708C364.025 69.733 337.993 63.3476 311.558 63.2398C274.986 65.3362 239.047 73.7213 205.321 88.0271C170.903 101.157 134.457 108.175 97.6262 108.764C57.8684 108.152 18.6873 99.1535 -17.3563 82.3568C-22.7005 85.921 -28.2067 89.1612 -33.551 92.4013C-57.8431 106.982 -78.7343 119.619 -79.382 148.942C-78.7058 159.039 -80.9982 169.114 -85.9767 177.923C-90.9552 186.732 -98.402 193.891 -107.399 198.517C-116.102 204.445 -124.234 211.17 -131.691 218.606C-152.563 240.694 -169.882 265.889 -183.028 293.292C-152.906 293.292 -122.46 289.566 -92.9856 286.326C-70.313 283.896 -46.9926 281.303 -23.9961 280.169C-7.31555 279.197 10.3367 278.873 29.9323 278.873Z" fill="#939598"/>
<path d="M-35.9803 178.59C-51.1335 178.064 -65.8348 173.293 -78.4104 164.819C-42.4581 186.367 -22.2147 178.59 8.39326 166.925C14.8712 164.495 21.6729 161.903 29.2844 159.311C67.522 148.924 107.484 146.498 146.696 152.183C161.433 153.317 176.656 154.451 191.879 154.613C236.634 155.28 281.392 153.604 325.972 149.591H335.526C374.556 146.026 405.164 143.272 442.412 160.931C405.326 143.11 374.556 146.026 335.688 149.591L326.134 150.401C281.554 154.414 236.796 156.091 192.041 155.423C176.818 155.423 161.595 153.965 146.858 152.993C107.703 147.223 67.7768 149.65 29.6083 160.121C21.9968 162.713 15.195 165.305 8.71716 167.736C-5.40066 174.036 -20.5464 177.714 -35.9803 178.59Z" fill="#939598"/>
<path d="M-31.9316 168.708C-48.7451 168.329 -65.1424 163.403 -79.3821 154.451C-40.1909 177.132 -15.8988 169.032 20.8632 156.557L35.1145 151.859C73.0893 141.527 112.933 140.086 151.555 147.647C164.672 149.267 178.114 150.887 192.041 151.859C224.251 152.619 256.448 149.903 288.076 143.759C340.547 135.658 394.799 127.558 440.63 148.133C394.799 127.234 340.709 135.658 288.238 143.759C256.611 149.91 224.413 152.625 192.203 151.859C178.276 150.887 164.672 149.267 151.716 147.647C113.149 140.082 73.3575 141.523 35.4384 151.859L21.1871 156.557C4.23714 163.4 -13.6932 167.502 -31.9316 168.708Z" fill="#939598"/>
<path d="M-28.0448 159.311C-46.7127 159.023 -64.9764 153.827 -81.0015 144.244C-38.7333 167.897 -11.0404 160.445 31.0659 147.484L41.2686 144.244C62.241 137.627 84.0598 134.08 106.047 133.713C122.935 134.314 139.687 136.98 155.927 141.652C168.048 144.951 180.387 147.387 192.851 148.942C227.342 150.282 261.84 146.46 295.202 137.602C343.786 127.233 395.285 116.54 439.982 135.658C395.447 116.54 344.596 127.233 295.526 137.602C262.107 146.449 227.557 150.272 193.013 148.942C180.498 147.371 168.106 144.935 155.927 141.652C139.745 136.968 123.046 134.301 106.209 133.713C84.2336 134.073 62.4212 137.564 41.4305 144.082L31.2278 147.322C12.1421 154.123 -7.81723 158.16 -28.0448 159.311Z" fill="#939598"/>
<path d="M-23.0246 150.563C-43.7853 150.437 -64.1559 144.909 -82.1353 134.524C-36.4662 159.312 -4.56264 150.725 43.5357 138.251H46.1268C67.2377 132.261 88.9806 128.781 110.906 127.882C127.607 128.12 144.104 131.585 159.49 138.089C170.374 142.346 181.659 145.494 193.175 147.485C216.529 149.269 239.978 145.609 261.678 136.793C277.385 131.162 293.687 127.357 310.263 125.452L334.069 122.86C368.564 118.972 411.318 114.111 438.525 125.452C411.48 114.273 368.725 119.134 334.231 123.022C325.648 123.994 318.036 124.966 310.424 125.452C294.118 127.479 278.093 131.338 262.65 136.955C240.89 145.762 217.391 149.421 193.984 147.647C182.389 145.7 171.04 142.495 160.138 138.089C144.774 131.536 128.255 128.121 111.553 128.044C89.6284 128.943 67.8855 132.423 46.7746 138.413H44.1834C22.3891 145.308 -0.196259 149.391 -23.0246 150.563Z" fill="#939598"/>
<path d="M205.969 145.055C198.717 145.09 191.522 143.771 184.753 141.166C177.304 138.25 171.312 135.172 165.482 132.256C152.931 124.605 138.557 120.465 123.861 120.267C101.645 120.981 79.5838 124.242 58.1108 129.988L52.9285 131.284C4.34438 142.949 -31.6079 151.373 -79.2203 126.1C-31.6079 151.211 3.6966 142.301 52.6046 131.122L57.7869 129.826C79.4172 124.065 101.647 120.857 124.023 120.267C138.822 120.301 153.329 124.391 165.968 132.094C172.138 135.474 178.522 138.451 185.077 141.004C210.341 150.725 233.662 140.194 257.954 130.15C271.493 123.551 285.881 118.862 300.708 116.217C311.861 115.245 323.077 115.245 334.231 116.217C344.579 117.027 354.976 117.027 365.325 116.217C371.64 116.217 377.633 114.597 383.463 113.625C400.098 108.913 417.804 109.651 433.99 115.731C417.853 109.686 400.209 108.948 383.625 113.625C377.794 114.597 371.802 115.569 365.648 116.217C355.246 117.026 344.796 117.026 334.393 116.217C323.239 115.246 312.023 115.246 300.87 116.217C286.102 118.889 271.77 123.577 258.277 130.15C242.032 138.615 224.235 143.686 205.969 145.055Z" fill="#939598"/>
<path d="M205.807 140.356C199.185 140.387 192.627 139.064 186.535 136.468C179.789 133.604 173.289 130.19 167.101 126.261C155.833 118.17 142.265 113.911 128.396 114.111C106.487 115.17 84.7626 118.647 63.6172 124.479C12.7658 136.468 -23.9962 145.216 -72.7423 119.619C-24.1582 145.054 12.4419 135.82 63.1313 124.317C84.282 118.509 106.004 115.033 127.91 113.949H128.396C142.1 113.853 155.481 118.107 166.616 126.099C172.833 130.024 179.328 133.489 186.049 136.468C210.503 146.512 234.633 134.524 256.82 122.859C270.106 115.19 284.543 109.719 299.574 106.658C310.338 105.477 321.199 105.477 331.964 106.658C341.679 107.932 351.491 108.311 361.276 107.792C367.754 107.792 373.908 106.01 379.738 104.876C395.094 100.254 411.604 101.347 426.217 107.954C411.736 101.478 395.406 100.442 380.224 105.038C374.075 106.32 367.856 107.239 361.6 107.792C351.821 108.445 342.002 108.12 332.287 106.82C321.528 105.55 310.657 105.55 299.898 106.82C284.864 109.87 270.425 115.341 257.144 123.021C241.581 132.65 224.019 138.58 205.807 140.356Z" fill="#939598"/>
<path d="M205.321 133.065C202.573 133.3 199.81 133.3 197.062 133.065C187.391 131.274 178.188 127.525 170.016 122.049C160.756 115.741 150.068 111.843 138.923 110.708C116.616 110.468 94.3817 113.303 72.8481 119.133H70.9047C20.0533 130.635 -17.3565 139.06 -65.9406 114.11C-17.3565 139.06 19.7294 130.311 70.5808 118.971H72.5242C94.0291 112.981 116.278 110.09 138.599 110.384C149.859 111.569 160.652 115.52 170.016 121.887C178.089 127.405 187.26 131.108 196.9 132.741C219.074 133.572 240.946 127.394 259.411 115.083C276.38 104.079 295.786 97.404 315.931 95.6415C323.38 95.6415 330.83 95.6415 337.956 95.6415C348.806 95.6415 360.142 96.4515 371.964 95.6415H381.357C394.568 93.2737 408.19 95.5641 419.901 102.122C408.207 95.6824 394.659 93.4521 381.519 95.8035H372.126C360.304 95.8035 348.968 95.8035 338.117 95.8035C330.992 95.8035 323.542 95.8035 316.093 95.8035C296.171 97.328 276.929 103.726 260.059 114.434C243.609 125.027 224.815 131.424 205.321 133.065Z" fill="#939598"/>
<path d="M204.835 126.262C202.787 126.419 200.729 126.419 198.681 126.262C189.194 124.912 180.061 121.72 171.798 116.865C162.652 111.45 152.42 108.13 141.838 107.145C120.238 106.979 98.7174 109.759 77.8686 115.407C24.426 127.396 -10.8785 133.552 -58.6529 109.251C-11.0404 133.552 24.1021 127.396 77.3827 115.407C98.5119 109.782 120.297 107.003 142.162 107.145C152.783 108.184 163.057 111.5 172.284 116.865C180.516 121.787 189.662 124.984 199.167 126.262C221.066 126.411 242.506 119.977 260.707 107.793C277.182 97.362 295.768 90.7218 315.121 88.3519H318.522C346.377 87.0559 392.856 84.7877 414.233 98.7205C392.856 84.9497 344.596 87.2179 318.684 88.5139H315.283C296.026 90.7573 277.53 97.3497 261.193 107.793C244.227 118.525 224.861 124.872 204.835 126.262Z" fill="#939598"/>
<path d="M18.7578 122.05C-5.87315 121.911 -30.1027 115.796 -51.8512 104.229C-15.3404 123.108 26.98 127.394 66.5322 116.217L77.8685 113.625C95.2167 109.36 112.867 106.436 130.663 104.877C142.977 104.321 155.246 106.709 166.454 111.843C174.302 115.051 182.515 117.282 190.908 118.485C213.881 119.699 236.624 113.386 255.686 100.502C271.12 90.6232 288.436 84.0582 306.538 81.2235C318.846 80.0894 382.005 75.8772 407.917 93.8601C382.005 75.8772 319.008 80.2514 306.7 81.3855C288.523 84.0329 271.096 90.4327 255.524 100.178C236.437 113.008 213.713 119.316 190.746 118.161C182.462 117.112 174.351 114.988 166.615 111.843C155.431 106.831 143.231 104.501 130.987 105.039C113.246 106.611 95.6505 109.535 78.3543 113.787L67.018 116.217C51.1867 119.886 35.007 121.841 18.7578 122.05Z" fill="#939598"/>
<path d="M29.1225 118.647C3.14319 118.451 -22.4076 112.005 -45.3732 99.854C-7.64378 119.213 35.9211 123.888 76.8969 112.977L89.5287 110.385C106.822 106.282 124.427 103.626 142.162 102.446C152.861 102.496 163.458 104.529 173.417 108.44C182.285 111.801 191.635 113.716 201.11 114.111C220.496 112.799 239.201 106.432 255.363 95.6418C268.556 87.1291 283.134 80.9884 298.441 77.4968C316.464 74.8911 334.739 74.5103 352.855 76.3628C370.744 77.2425 388.171 82.3503 403.706 91.2675C388.219 82.3748 370.851 77.2678 353.017 76.3628C335.002 74.5593 316.834 74.9946 298.926 77.6588C283.526 81.0899 268.84 87.175 255.525 95.6418C239.583 106.585 221.036 113.124 201.758 114.597C192.21 114.244 182.791 112.272 173.903 108.764C163.99 104.906 153.446 102.928 142.809 102.932C125.129 104.112 107.577 106.768 90.3385 110.871L77.7066 113.463C61.7124 116.726 45.4447 118.461 29.1225 118.647Z" fill="#939598"/>
<path d="M39.6489 115.893C12 115.671 -15.1796 108.721 -39.5432 95.6419C-2.19915 115.279 40.8997 121.02 82.0791 111.843L100.217 108.279C115.103 104.972 130.201 102.698 145.4 101.474C155.252 101.393 165.065 102.702 174.551 105.362C183.507 107.911 192.77 109.219 202.082 109.251C220.456 107.1 238.082 100.723 253.581 90.6196C266.464 82.5508 280.577 76.6407 295.363 73.1227C322.085 67.9384 374.556 70.5306 399.333 88.3515C374.556 70.5306 322.247 67.9384 295.525 72.1507C280.818 75.8356 266.776 81.7936 253.905 89.8096C238.384 99.9607 220.681 106.29 202.244 108.279C192.935 108.38 183.66 107.125 174.713 104.552C165.241 101.825 155.418 100.515 145.562 100.664C130.415 101.876 115.371 104.15 100.541 107.469L82.403 111.843C68.2991 114.453 53.9919 115.808 39.6489 115.893Z" fill="#939598"/>
<path d="M50.9854 113.949C21.51 113.782 -7.48976 106.502 -33.551 92.7257C3.67506 112.295 46.407 118.744 87.7474 111.033C95.1969 109.899 102.97 108.279 110.42 106.82C123.157 103.876 136.094 101.872 149.125 100.826C157.802 100.736 166.471 101.386 175.037 102.77C184.443 104.413 194.002 105.011 203.54 104.552C220.421 101.97 236.58 95.9006 250.99 86.7314C263.928 78.8804 278.031 73.1384 292.772 69.7205C328.217 64.1347 364.521 69.8004 396.581 85.9213C364.646 69.7734 328.436 64.1046 293.096 69.7205C278.442 72.8459 264.388 78.3165 251.476 85.9213C237.019 94.9956 220.88 101.057 204.025 103.742C194.434 104.213 184.82 103.615 175.361 101.96C166.795 100.576 158.126 99.9258 149.449 100.016C136.401 100.915 123.453 102.92 110.744 106.01C103.294 107.468 95.5208 109.089 88.2332 110.223C75.9306 112.414 63.4782 113.66 50.9854 113.949Z" fill="#939598"/>
<path d="M62.1596 112.653C30.2025 112.457 -1.23772 104.566 -29.5024 89.6473C9.2206 109.969 53.5197 117.08 96.6544 109.898C110.42 107.954 124.509 105.524 138.113 102.932C148.222 101.83 158.396 101.451 168.559 101.798C177.351 102.286 186.164 102.286 194.956 101.798C212.052 99.1353 228.517 93.3703 243.54 84.7871C256.157 77.7601 269.592 72.3186 283.541 68.5862C320.812 61.3135 359.448 67.0311 393.018 84.7871C359.575 67.1799 321.143 61.4671 284.027 68.5862C270.121 72.2945 256.737 77.7375 244.188 84.7871C229.105 93.2402 212.664 98.9968 195.604 101.798C186.827 102.556 178.014 102.826 169.207 102.608C159.098 102.258 148.977 102.637 138.923 103.742C125.157 106.334 111.23 108.764 97.3022 110.708C85.6439 112.134 73.9039 112.784 62.1596 112.653Z" fill="#939598"/>
<path d="M83.2128 110.384C45.6335 111.189 8.38019 103.258 -25.6157 87.2171C47.9083 122.859 126.453 109.574 195.604 97.9097C211.097 94.4937 226.072 89.0463 240.14 81.7089C252.937 74.7037 266.53 69.2644 280.626 65.508C299.354 61.6952 318.623 61.3657 337.47 64.5359C356.029 67.6277 373.967 73.7003 390.588 82.5189C357.002 64.6364 318.27 58.9132 280.95 66.318C266.979 69.8607 253.452 74.9693 240.625 81.5469C226.587 88.9507 211.603 94.4014 196.09 97.7477C158.717 105.045 120.794 109.164 82.7269 110.06L83.2128 110.384Z" fill="#939598"/>
<path d="M88.395 109.899C50.0713 110.302 12.1689 101.876 -22.3768 85.2732C47.4224 118.485 116.088 113.301 196.576 95.6418C210.427 91.621 223.831 86.1924 236.577 79.4409C249.943 72.9809 263.946 67.9314 278.359 64.3741C316.173 57.001 355.374 63.1357 389.131 81.709C355.45 63.254 316.374 57.1782 278.683 64.5361C264.226 67.9445 250.207 72.9998 236.901 79.6029C224.088 85.8303 210.688 90.7688 196.9 94.3457C161.425 103.565 125.03 108.782 88.395 109.899Z" fill="#939598"/>
<path d="M94.3872 109.575H91.3102C52.8027 109.104 14.8513 100.317 -19.9475 83.8154C48.5561 116.217 115.764 117.999 204.835 91.1058L231.556 82.6813C285.161 65.3464 327.429 51.7376 387.835 82.6813C327.753 52.2237 285.485 66.4804 232.042 82.6813L205.321 91.1058C169.454 102.694 132.073 108.917 94.3872 109.575Z" fill="#939598"/>
<path d="M96.0064 109.089H92.6056C54.1425 108.24 16.2893 99.297 -18.4902 82.8435C53.7382 115.245 120.622 117.513 204.997 89.1619L213.904 86.2457C241.537 75.3078 270.338 67.5885 299.736 63.2405C330.148 60.7296 360.636 67.0884 387.511 81.5475C322.732 49.1457 277.549 64.5366 214.714 85.7597L205.807 88.6758C170.595 101.539 133.486 108.438 96.0064 109.089Z" fill="#939598"/>
<path d="M260.221 290.052C255.96 265.681 250.173 241.602 242.893 217.958C241.916 207.667 241.916 197.306 242.893 187.014C244.185 175.927 244.185 164.728 242.893 153.641L235.929 144.244C235.283 132.991 235.771 121.701 237.386 110.546C237.311 99.2773 236.118 88.0436 233.824 77.0105C236.119 88.0981 237.312 99.3857 237.386 110.708C235.798 121.866 235.256 133.148 235.767 144.406L242.731 152.831C244.103 163.967 244.103 175.23 242.731 186.366C241.756 196.55 241.756 206.803 242.731 216.986C250.282 240.931 256.286 265.336 260.707 290.052H260.221Z" fill="#939598"/>
<path d="M232.528 287.298C228.317 263.968 222.973 240.315 217.143 217.148C216.577 205.958 217.448 194.742 219.734 183.774C221.812 173.924 222.736 163.866 222.487 153.802C222.487 143.758 222.487 133.065 222.487 121.401C223.217 107.91 223.217 94.3894 222.487 80.8986C223.459 94.1833 222.487 107.954 222.487 121.401C222.487 134.847 222.487 143.434 222.487 153.802C222.653 163.917 221.73 174.019 219.734 183.936C217.524 194.588 216.599 205.466 216.981 216.338C222.973 239.505 228.156 263.158 233.176 286.65L232.528 287.298Z" fill="#939598"/>
<path d="M204.511 285.515C199.491 260.404 194.957 234.645 191.232 209.047C192.284 195.926 194.451 182.919 197.71 170.165C199.167 163.361 200.625 156.881 201.596 150.886C202.568 144.892 203.054 142.624 203.864 138.574C207.408 121.097 209.735 103.396 210.827 85.5968C209.76 103.407 207.378 121.114 203.702 138.574C203.702 142.624 202.244 146.836 201.596 150.886C200.949 154.937 199.167 163.361 197.548 170.165C194.393 182.94 192.227 195.939 191.07 209.047C194.957 234.483 199.491 260.242 204.349 285.515H204.511Z" fill="#939598"/>
<path d="M176.008 284.22C167.699 239.268 170.029 192.994 182.81 149.105C184.268 144.082 185.887 139.222 187.345 134.362C192.288 119.796 196.238 104.911 199.167 89.8096C196.142 104.942 192.194 119.875 187.345 134.524C185.887 139.222 184.268 144.244 182.81 149.105C170.352 193.071 168.355 239.344 176.98 284.22H176.008Z" fill="#939598"/>
<path d="M147.344 283.734C144.542 251.236 146.397 218.503 152.85 186.529C159.521 154.204 171.158 123.108 187.345 94.3463C155.157 152.033 141.157 218.107 147.182 283.896L147.344 283.734Z" fill="#939598"/>
<path d="M117.87 282.762C117.87 238.048 117.869 182.155 141.19 140.68C142.647 138.088 144.105 135.172 145.724 132.094C152.526 118.809 161.109 102.122 175.361 97.7482C161.271 101.96 152.85 118.485 146.048 131.77C144.429 135.01 142.809 137.926 141.352 140.518C117.87 181.831 118.031 237.724 118.193 282.276L117.87 282.762Z" fill="#939598"/>
<path d="M88.719 281.466C89.6907 273.689 90.3385 265.265 90.9863 255.868C93.9013 220.388 97.4641 175.998 113.659 148.133C114.631 146.35 115.764 144.406 116.898 142.138C126.615 124.479 142.647 94.8317 163.701 101.474C143.133 94.9937 127.1 124.317 117.546 141.814L114.145 147.809C97.95 175.674 94.5491 219.902 91.634 255.544C90.3385 264.941 89.5287 273.851 88.719 281.466Z" fill="#939598"/>
<path d="M59.4066 280.008C62.4716 259.783 67.9073 239.989 75.6013 221.037C77.6779 212.026 79.0853 202.875 79.8119 193.657C79.5727 177.002 84.005 160.613 92.6057 146.351C92.6057 144.892 94.5491 143.434 95.5208 141.652C101.642 130.786 109.155 120.764 117.869 111.843C121.751 107.284 126.998 104.097 132.831 102.755C138.665 101.412 144.776 101.986 150.259 104.39C144.801 101.849 138.652 101.202 132.785 102.552C126.918 103.902 121.669 107.172 117.869 111.843C109.244 120.844 101.888 130.983 96.0066 141.976L92.9296 146.675C84.2815 160.813 79.7393 177.082 79.8119 193.657C79.2912 202.858 78.1004 212.009 76.2491 221.037C68.2397 239.929 62.5831 259.734 59.4066 280.008Z" fill="#939598"/>
<path d="M31.2277 279.198C36.3911 258.6 43.6069 238.573 52.7667 219.416C54.8809 210.693 56.2355 201.804 56.8154 192.847C57.2985 176.579 62.4109 160.786 71.5526 147.322L74.4676 143.434C88.8809 123.831 108.477 96.9378 137.465 107.63C108.8 97.0998 88.8809 123.831 75.1154 143.11C74.1437 144.568 73.0101 145.864 72.2003 147.16C62.8452 160.589 57.6621 176.483 57.3012 192.847C56.6593 201.937 55.1407 210.943 52.7667 219.74C43.6935 238.821 36.4805 258.732 31.2277 279.198Z" fill="#939598"/>
<path d="M28.9604 220.713C31.7389 212.195 33.8505 203.475 35.2763 194.629C36.8675 178.725 42.7446 163.55 52.2808 150.725L54.3861 147.971C70.5808 126.424 91.9578 99.3684 124.185 109.413C91.7959 99.5304 71.5525 125.614 54.8719 147.809C54.2194 148.712 53.5165 149.577 52.7666 150.401C43.1075 163.264 37.0682 178.48 35.2763 194.467C33.8337 203.362 31.7224 212.136 28.9604 220.713Z" fill="#939598"/>
<path d="M-21.405 280.332C-15.5749 265.265 -9.25893 250.522 -3.10494 236.266C3.04905 222.009 8.06941 209.048 13.7376 194.791C20.6028 177.112 30.3431 160.689 42.5642 146.189C58.7589 126.424 77.2208 103.905 110.42 110.547C78.0306 103.905 59.0828 126.748 42.888 146.027C30.7952 160.589 21.1172 176.999 14.2234 194.629C8.55525 209.048 2.72515 222.981 -3.10494 236.266C-8.93504 249.55 -15.4129 265.265 -21.405 280.332Z" fill="#939598"/>
<path d="M-46.5068 281.951C-26.1325 236.659 -1.74293 193.283 26.3694 152.344C42.5641 129.825 61.9977 109.25 96.8164 111.68C62.3216 109.25 42.888 129.663 27.0172 152.182C-1.32719 193.148 -25.9342 236.579 -46.5068 281.951Z" fill="#939598"/>
<path d="M-70.6368 283.896C-57.5168 260.297 -43.1367 237.42 -27.5589 215.367C-14.6031 196.736 -1.16151 176.646 10.3367 157.367C16.9833 143.946 27.0931 132.544 39.6205 124.341C52.148 116.139 66.6385 111.432 81.5935 110.709C66.728 111.457 52.3277 116.142 39.865 124.282C27.4022 132.423 17.324 143.729 10.6606 157.043C-1.16151 177.619 -14.2792 196.898 -27.0731 215.691C-42.7729 237.651 -57.314 260.417 -70.6368 283.896Z" fill="#939598"/>
<path d="M-93.4717 286.003L-82.1354 265.427C-64.5487 252.416 -51.7415 233.967 -45.6973 212.937C-40.8162 207.482 -35.3896 202.542 -29.5026 198.194C-20.2304 191.345 -12.9154 182.184 -8.28749 171.624C-2.24503 155.977 7.34559 141.946 19.7294 130.636C33.2891 119.692 49.3844 112.337 66.5321 109.251C49.6183 111.95 33.7545 119.193 20.6342 130.206C7.51389 141.22 -2.37042 155.592 -7.96359 171.786C-12.6348 182.413 -20.0736 191.589 -29.5026 198.356C-35.3542 202.747 -40.7767 207.684 -45.6973 213.099C-51.8086 234.185 -64.595 252.718 -82.1354 265.913L-93.4717 286.003Z" fill="#939598"/>
<path d="M-114.525 288.27L-102.055 268.505C-83.8714 256.26 -70.037 238.563 -62.5395 217.958C-57.0274 212.314 -50.7598 207.462 -43.9156 203.539C-38.454 200.652 -33.6579 196.652 -29.8365 191.796C-26.0151 186.941 -23.2532 181.338 -21.7288 175.35C-17.2351 158.811 -8.33504 143.804 4.02077 131.932C17.7915 120.447 33.6979 111.803 50.8235 106.496C12.2801 120.591 -8.28722 134.362 -21.5669 175.026C-23.1728 181.092 -26.0551 186.744 -30.021 191.606C-33.9869 196.467 -38.9449 200.425 -44.5634 203.215C-51.3081 207.148 -57.514 211.941 -63.0253 217.472C-70.5949 238.127 -84.478 255.87 -102.702 268.181L-114.525 288.27Z" fill="#939598"/>
<path d="M-135.092 290.052L-122.136 270.449C-103.826 258.605 -89.3191 241.73 -80.3538 221.847C-74.434 216.943 -68.0312 212.655 -61.244 209.048C-54.4244 206.457 -48.4237 202.084 -43.8665 196.386C-39.3094 190.687 -36.3625 183.871 -35.3325 176.646C-25.7776 133.876 -4.88641 121.725 34.4667 102.284C-4.56253 122.373 -25.4537 134.362 -34.8466 176.646C-36.0329 183.837 -39.0569 190.599 -43.6253 196.276C-48.1936 201.953 -54.1513 206.353 -60.9201 209.048C-67.7189 212.596 -74.171 216.772 -80.1918 221.523C-89.2447 241.449 -103.868 258.329 -122.298 270.125L-135.092 290.052Z" fill="#939598"/>
<path d="M-153.23 291.996C-137.242 266.647 -118.266 243.313 -96.7106 222.494C-90.4293 217.268 -83.5853 212.758 -76.3053 209.048C-68.9498 206.621 -62.4527 202.118 -57.5968 196.081C-52.7408 190.045 -49.7332 182.733 -48.9362 175.026C-48.9362 170.814 -47.9645 167.087 -47.6406 163.847C-47.6553 155.935 -45.6925 148.144 -41.9308 141.184C-38.1691 134.223 -32.7278 128.314 -26.1017 123.993C-16.8174 116.581 -6.7747 110.173 3.85857 104.876C8.3931 102.446 13.2515 99.8539 17.6241 97.0997C13.2515 99.6919 8.55504 102.284 3.85857 104.714C-6.67676 110.196 -16.6096 116.766 -25.7778 124.317C-32.4265 128.602 -37.8768 134.508 -41.6163 141.48C-45.3558 148.452 -47.2617 156.26 -47.1548 164.171C-47.1548 167.573 -47.1548 171.138 -48.6123 175.512C-49.459 183.146 -52.4926 190.372 -57.3481 196.322C-62.2036 202.271 -68.6742 206.69 -75.9814 209.048C-83.3605 212.659 -90.3592 217.001 -96.8726 222.008C-118.461 242.933 -137.39 266.439 -153.23 291.996Z" fill="#939598"/>
<path d="M-169.587 293.131C-155.222 267.919 -137.457 244.804 -116.792 224.439C-109.202 217.524 -101.019 211.29 -92.3378 205.808C-83.5617 201.607 -76.2211 194.908 -71.2368 186.549C-66.2525 178.191 -63.8466 168.546 -64.321 158.825C-62.3776 128.044 -41.4864 116.055 -17.3563 101.312C-11.6881 97.9102 -5.69609 94.184 0.134003 90.2958C-5.69609 94.184 -11.5262 97.7482 -17.1943 101.312C-41.3245 115.893 -62.0537 128.53 -63.9971 158.501C-63.5862 168.272 -66.0731 177.946 -71.1448 186.305C-76.2165 194.665 -83.6464 201.338 -92.4998 205.484C-101.161 211.346 -109.29 217.96 -116.792 225.249C-137.407 245.357 -155.171 268.197 -169.587 293.131Z" fill="#939598"/>
<g opacity="0.4">
<path d="M552.698 287.946C460.388 287.946 367.592 284.544 277.387 281.142L190.746 278.064L154.955 276.768C113.821 275.31 71.5526 273.852 29.9322 273.852C10.4985 273.852 -7.31567 273.852 -24.4821 274.824C-47.4786 275.634 -70.799 277.578 -93.3096 279.36C-122.946 281.79 -153.716 284.22 -184 284.544C-170.021 263.157 -152.559 244.265 -132.339 228.651C-124.672 222.966 -116.547 217.926 -108.047 213.584C-91.8521 204.674 -80.6777 198.68 -80.1919 176.97C-80.0186 171.856 -78.6368 166.855 -76.1597 162.378C-73.6826 157.901 -70.1806 154.074 -65.9405 151.211C-55.8751 144.245 -44.9984 138.533 -33.5511 134.2C-28.2068 131.77 -22.7007 129.34 -17.3564 126.586C19.664 139.298 58.4872 145.972 97.6261 146.351C134.077 145.67 170.282 140.224 205.321 130.15C239.779 119.417 275.497 113.262 311.558 111.843C337.555 112.007 363.301 116.949 387.511 126.424C419.901 136.468 436.096 150.725 440.954 171.3C442.786 179.603 446.559 187.353 451.964 193.914C457.368 200.476 464.251 205.662 472.048 209.048C479.41 213.318 486.546 217.969 493.425 222.981C503.309 244.459 520.539 261.696 542.009 271.583L552.698 287.946ZM29.9322 273.852C71.5526 273.852 113.821 275.472 154.793 276.93L190.584 278.226L277.387 281.304C366.944 284.706 459.74 288.108 552.698 288.108L541.685 271.907C520.232 261.996 503.008 244.766 493.101 223.305C486.325 218.255 479.298 213.55 472.048 209.21C463.953 206.036 456.764 200.918 451.115 194.306C445.466 187.695 441.532 179.793 439.658 171.3C436.096 150.887 418.281 136.63 387.511 126.748C363.483 117.482 337.958 112.704 312.206 112.653C276.139 114.138 240.422 120.347 205.969 131.122C170.932 141.207 134.726 146.653 98.2739 147.323C58.8805 146.819 19.8298 139.925 -17.3564 126.91C-22.7007 129.664 -28.2068 132.094 -33.5511 134.524C-57.8432 145.379 -78.7344 154.775 -79.3821 176.646C-80.0299 198.518 -90.8804 204.512 -107.399 213.584C-115.933 217.865 -124.063 222.908 -131.691 228.651C-151.793 244.168 -169.147 262.952 -183.028 284.22C-152.906 284.22 -122.46 281.466 -92.9857 279.036C-70.3131 277.254 -46.9927 275.31 -23.9962 274.5C-7.31567 273.852 10.3366 273.852 29.9322 273.852Z" fill="#939598"/>
<path d="M205.969 173.73C198.794 173.785 191.648 172.803 184.754 170.814C178.223 168.924 171.791 166.707 165.482 164.172C152.392 158.298 138.208 155.262 123.861 155.261C101.776 155.802 79.7784 158.241 58.1109 162.552L52.9286 163.362C4.34451 172.11 -31.6078 178.429 -79.2202 159.636C-31.6078 178.267 3.69672 172.11 52.6048 163.362L57.7871 162.552C79.6075 158.171 101.773 155.731 124.023 155.261C138.473 155.269 152.762 158.305 165.968 164.172C171.798 166.44 177.79 168.708 185.078 170.814C209.633 175.471 235.02 172.649 257.954 162.714C271.8 157.758 286.131 154.283 300.708 152.345C311.867 151.535 323.071 151.535 334.231 152.345C344.588 152.912 354.968 152.912 365.325 152.345C371.641 152.345 377.633 151.049 383.463 150.401C400.187 146.827 417.529 147.383 433.99 152.021C417.573 147.461 400.301 146.905 383.625 150.401C377.795 150.401 371.803 151.859 365.649 152.345C355.238 152.911 344.804 152.911 334.393 152.345C323.23 151.617 312.032 151.617 300.87 152.345C286.349 154.301 272.073 157.776 258.278 162.714C241.511 169.053 223.867 172.769 205.969 173.73Z" fill="#939598"/>
<path d="M205.807 170.166C199.283 170.196 192.79 169.268 186.535 167.412C179.879 165.289 173.385 162.69 167.101 159.636C155.163 153.431 141.844 150.365 128.396 150.725C106.63 151.468 84.9627 154.015 63.6172 158.339C12.7658 167.25 -23.9962 173.73 -72.7422 154.775C-24.1581 173.73 12.4419 167.25 63.1314 158.339C84.4797 154.032 106.145 151.485 127.91 150.725H128.396C141.68 150.454 154.82 153.518 166.616 159.636C172.899 162.69 179.393 165.289 186.049 167.412C210.503 174.864 234.633 165.954 256.82 157.205C270.658 151.002 285.25 146.645 300.222 144.245C311.001 143.378 321.832 143.378 332.611 144.245C342.348 145.247 352.147 145.518 361.924 145.055C368.402 145.055 374.556 143.759 380.386 142.949C395.801 139.516 411.856 140.299 426.865 145.217C411.969 140.676 396.109 140.34 381.034 144.245C375.042 145.055 369.05 145.865 362.41 146.189C352.632 146.652 342.834 146.381 333.097 145.379C322.315 144.584 311.49 144.584 300.708 145.379C286.009 147.471 271.639 151.445 257.954 157.205C241.515 164.693 223.837 169.086 205.807 170.166Z" fill="#939598"/>
<path d="M205.321 164.82C202.57 164.976 199.812 164.976 197.062 164.82C187.682 163.535 178.558 160.803 170.016 156.719C160.342 151.775 149.762 148.853 138.923 148.133C116.739 147.958 94.5969 150.075 72.8482 154.451H70.9048C20.0534 163.199 -16.8705 169.518 -65.7786 150.725C-17.1944 169.356 19.8915 163.199 70.7429 154.451H72.6862C94.4207 149.98 116.573 147.862 138.761 148.133C149.716 148.782 160.415 151.706 170.178 156.719C178.654 160.827 187.728 163.561 197.062 164.82C218.653 165.572 240.105 161.069 259.573 151.697C277.225 143.453 296.311 138.721 315.769 137.764H337.794C348.644 137.764 359.98 138.574 371.803 137.764H381.195C394.247 135.953 407.545 137.63 419.739 142.624C407.55 137.829 394.343 136.212 381.357 137.926H371.965C360.142 137.926 348.806 137.926 337.956 137.926C330.83 137.926 323.38 137.926 315.931 137.926C296.528 138.904 277.499 143.635 259.897 151.859C242.647 159.471 224.151 163.863 205.321 164.82Z" fill="#939598"/>
<path d="M204.835 160.445H198.681C189.419 159.498 180.355 157.149 171.798 153.479C162.309 149.331 152.171 146.864 141.838 146.189C120.362 146.081 98.9298 148.143 77.8684 152.345C24.4259 161.255 -10.8786 165.792 -58.653 147.809C-11.0406 165.792 24.102 161.255 77.3826 152.345C98.6988 148.018 120.412 145.954 142.161 146.189C152.55 146.846 162.744 149.313 172.284 153.479C180.841 157.149 189.905 159.498 199.167 160.445C220.488 160.684 241.566 155.912 260.707 146.513C277.877 138.6 296.287 133.722 315.121 132.094H318.522C346.377 130.96 392.856 129.34 414.233 139.708C392.856 129.34 344.595 131.122 318.684 132.094H315.283C296.566 133.799 278.276 138.675 261.193 146.513C243.481 154.75 224.343 159.481 204.835 160.445Z" fill="#939598"/>
<path d="M18.7578 156.557C-5.3993 156.558 -29.3448 152.052 -51.8511 143.272C-14.0516 157.497 27.0306 160.589 66.5322 152.183L77.8685 150.239C95.4425 147.205 113.179 145.203 130.987 144.245C143.132 143.809 155.255 145.565 166.777 149.429C174.761 151.837 182.946 153.518 191.232 154.451C213.598 155.323 235.837 150.707 256.01 141.004C271.941 133.348 289.003 128.315 306.538 126.1C318.846 125.289 382.005 122.049 407.917 135.496C382.005 122.211 319.008 125.452 306.7 126.1C288.991 127.996 271.708 132.756 255.525 140.194C235.365 149.935 213.115 154.553 190.746 153.641C182.447 152.786 174.255 151.104 166.292 148.619C154.881 145.056 142.922 143.575 130.987 144.245C113.322 145.359 95.7432 147.578 78.3544 150.887L67.0181 152.669C51.0605 155.249 34.9224 156.549 18.7578 156.557Z" fill="#939598"/>
<path d="M29.1224 153.965C3.64146 153.985 -21.6206 149.26 -45.3733 140.032C-6.32634 154.628 36.0139 158.051 76.8968 149.915L89.5287 147.971C106.916 144.802 124.503 142.854 142.161 142.139C152.737 142.079 163.265 143.552 173.417 146.513C182.439 149.057 191.741 150.472 201.11 150.725C219.756 149.757 238.003 144.959 254.715 136.63C268.382 130.173 282.88 125.647 297.793 123.184C315.864 121.183 334.084 120.912 352.207 122.374C369.686 122.919 386.919 126.652 403.058 133.39C386.987 126.618 369.8 122.883 352.369 122.374C334.349 121.074 316.251 121.345 298.279 123.184C283.371 125.669 268.876 130.194 255.201 136.63C238.448 145.028 220.145 149.881 201.434 150.887C192.01 150.52 182.662 149.052 173.579 146.513C163.465 143.631 153.002 142.159 142.485 142.139C124.893 143.014 107.37 144.962 90.0145 147.971L77.3826 149.915C61.4125 152.411 45.2849 153.764 29.1224 153.965Z" fill="#939598"/>
<path d="M39.649 152.021C12.553 152.042 -14.3074 146.987 -39.5431 137.116C-0.795517 151.896 41.2117 155.98 82.0792 148.943L100.217 146.351C115.175 143.815 130.258 142.085 145.401 141.166C155.193 141.1 164.965 142.077 174.551 144.083C183.606 145.984 192.83 146.961 202.082 146.999C219.959 145.564 237.418 140.84 253.581 133.066C266.931 127.029 280.96 122.623 295.364 119.943C322.085 116.217 374.556 118.161 399.334 131.446C374.556 118.161 322.247 116.217 295.526 120.105C281.168 122.679 267.186 127.033 253.905 133.066C237.692 140.86 220.176 145.583 202.244 146.999C192.988 147.043 183.755 146.065 174.713 144.083C165.131 142.066 155.352 141.142 145.562 141.328C130.469 142.103 115.435 143.78 100.541 146.351L82.4031 148.943C68.2378 150.936 53.9536 151.964 39.649 152.021Z" fill="#939598"/>
<path d="M50.9853 150.563C21.8325 150.488 -7.05253 144.995 -34.1989 134.362C4.41713 149.152 46.1679 153.836 87.0995 147.971C94.5491 147.161 102.323 146.027 109.772 144.893C122.58 142.663 135.501 141.148 148.477 140.357C157.135 140.347 165.787 140.834 174.389 141.815C183.836 143.058 193.371 143.492 202.892 143.111C219.308 141.302 235.328 136.871 250.342 129.988C263.65 123.913 277.698 119.61 292.125 117.189C327.214 113.039 362.787 117.258 395.933 129.502C362.886 117.315 327.431 113.097 292.448 117.189C278.079 119.633 264.088 123.935 250.828 129.988C235.806 136.85 219.79 141.28 203.378 143.111C193.808 143.471 184.224 143.092 174.713 141.977C166.125 140.836 157.463 140.349 148.801 140.519C135.822 141.185 122.896 142.646 110.096 144.893L87.5853 148.133C74.4676 149.753 62.4835 150.563 50.9853 150.563Z" fill="#939598"/>
<path d="M62.1598 149.591C30.8056 149.603 -0.277227 143.779 -29.5023 132.418C10.6346 147.891 53.9905 153.124 96.6545 147.647C110.42 146.189 124.509 144.407 138.113 142.462C148.236 141.577 158.4 141.252 168.559 141.49C177.304 141.49 186.373 141.49 194.956 141.49C211.652 139.517 227.998 135.265 243.541 128.854C256.443 123.616 269.846 119.707 283.542 117.189C320.458 111.731 358.156 115.859 393.018 129.178C358.328 115.85 320.783 111.72 284.027 117.189C270.379 119.684 257.028 123.594 244.188 128.854C228.655 135.29 212.305 139.543 195.604 141.49C187.021 141.49 177.952 141.49 169.207 141.49C160.462 141.49 148.963 141.49 138.923 142.462C125.157 144.407 111.23 146.189 97.3023 147.647C85.6312 148.922 73.9002 149.571 62.1598 149.591Z" fill="#939598"/>
<path d="M83.2128 147.971C46.2014 148.618 9.36453 142.751 -25.6157 130.636C47.9083 157.206 126.453 146.837 195.604 138.575C210.832 136.248 225.763 132.283 240.14 126.748C253.247 121.659 266.802 117.808 280.626 115.246C299.48 112.567 318.617 112.567 337.47 115.246C355.681 117.329 373.54 121.795 390.589 128.53C355.771 114.82 317.973 110.464 280.95 115.894C267.183 118.478 253.684 122.329 240.625 127.396C226.231 132.911 211.307 136.928 196.09 139.385C158.533 144.833 120.671 147.917 82.727 148.619L83.2128 147.971Z" fill="#939598"/>
<path d="M88.3951 147.484C50.6874 147.879 13.2004 141.684 -22.3767 129.177C47.7464 154.289 115.764 150.4 196.252 136.63C209.875 134.105 223.258 130.42 236.253 125.613C249.845 120.729 263.821 116.989 278.035 114.435C315.443 108.953 353.633 113.366 388.807 127.233C353.747 113.363 315.66 108.95 278.359 114.435C264.145 116.989 250.169 120.729 236.577 125.613C223.576 130.403 210.195 134.088 196.576 136.63C160.89 143.323 124.699 146.954 88.3951 147.484Z" fill="#939598"/>
<path d="M94.3873 147.322H91.3103C53.4053 147.192 15.7931 140.674 -19.9474 128.043C48.5563 151.859 115.764 153.479 204.835 133.552L231.557 127.233C285.161 114.273 327.429 104.066 387.836 127.233C327.753 104.552 285.485 114.597 232.042 127.233L205.321 133.552C168.978 142.297 131.765 146.916 94.3873 147.322Z" fill="#939598"/>
<path d="M96.0066 146.999H92.6057C54.8045 146.601 17.3061 140.203 -18.4901 128.044C53.7512 152.516 131.761 154.212 204.997 132.904L213.904 130.636C241.941 122.778 270.604 117.358 299.574 114.435C329.358 112.439 359.216 117.03 387.026 127.882C322.247 103.743 277.064 115.083 214.228 130.96L205.321 133.228C169.59 142.313 132.873 146.938 96.0066 146.999Z" fill="#939598"/>
<path d="M232.528 279.846C228.318 262.349 222.973 244.69 217.143 227.517C216.588 219.114 217.465 210.678 219.734 202.568C221.812 195.305 222.741 187.761 222.487 180.211C222.487 172.758 222.487 164.82 222.487 156.396C223.214 146.31 223.214 136.185 222.487 126.1C223.136 136.188 223.136 146.307 222.487 156.396C222.086 164.329 222.086 172.278 222.487 180.211C222.65 187.81 221.723 195.394 219.734 202.73C217.49 210.735 216.56 219.052 216.981 227.355C222.973 244.69 228.156 262.187 233.176 279.684L232.528 279.846Z" fill="#939598"/>
<path d="M204.511 278.55C199.491 259.595 194.956 240.478 191.232 221.523C192.312 211.593 194.485 201.814 197.71 192.361C199.167 187.339 200.625 182.478 201.596 177.942C202.568 173.406 203.054 171.786 203.864 168.87C207.386 155.933 209.717 142.701 210.827 129.34C209.755 142.718 207.368 155.959 203.702 168.87C203.702 171.948 202.244 175.026 201.596 178.104C200.948 181.182 199.167 187.339 197.548 192.523C194.382 201.937 192.211 211.656 191.07 221.523C194.956 240.478 199.491 259.595 204.349 278.388L204.511 278.55Z" fill="#939598"/>
<path d="M176.009 277.578C167.695 244.048 170.073 208.756 182.81 176.646L187.345 165.792C192.175 155.337 196.13 144.499 199.167 133.39C196.085 144.485 192.132 155.319 187.345 165.792C185.887 169.356 184.268 173.082 182.81 176.808C170.4 208.91 168.361 244.095 176.98 277.416L176.009 277.578Z" fill="#939598"/>
<path d="M147.344 277.092C144.495 252.716 146.364 228.019 152.85 204.35C159.906 179.429 171.61 156.067 187.345 135.496C155.966 175.564 141.546 226.344 147.182 276.93L147.344 277.092Z" fill="#939598"/>
<path d="M117.87 276.443C117.87 243.07 117.87 201.433 141.19 170.49L145.724 164.009C152.011 152.034 162.601 142.887 175.361 138.412C162.733 142.889 152.263 151.974 146.048 163.847C144.429 166.278 142.809 168.384 141.352 170.328C117.87 201.271 118.032 242.746 118.193 276.119L117.87 276.443Z" fill="#939598"/>
<path d="M88.7189 275.31C89.6906 269.477 90.3383 262.997 90.9861 256.193C93.9012 229.785 97.464 196.735 113.659 175.188C114.63 173.892 115.764 172.434 116.898 170.652C126.614 157.529 142.647 135.496 163.7 140.518C143.133 135.658 127.1 157.529 117.545 170.49L113.497 176.646C97.3021 197.383 93.9012 230.433 90.9861 257.651C90.3383 262.997 89.5286 269.477 88.7189 275.31Z" fill="#939598"/>
<path d="M59.4066 273.852C62.5747 258.488 68.034 243.687 75.6013 229.947C77.6515 223.403 79.0616 216.675 79.812 209.858C79.7482 196.988 84.2858 184.519 92.6058 174.702L95.5208 171.138C102.051 162.915 109.555 155.516 117.87 149.105C122.411 145.617 127.736 143.291 133.381 142.331C139.026 141.371 144.82 141.806 150.259 143.597C144.842 141.657 139.016 141.145 133.343 142.109C127.671 143.074 122.342 145.483 117.87 149.105C109.585 155.511 102.227 163.035 96.0067 171.462L92.9297 174.864C84.5423 184.664 79.8951 197.119 79.812 210.02C79.2794 216.87 78.0863 223.652 76.2491 230.271C68.4598 243.86 62.7807 258.555 59.4066 273.852Z" fill="#939598"/>
<path d="M31.2277 273.851C36.5805 258.184 43.8129 243.224 52.7666 229.299C54.9166 222.733 56.2758 215.935 56.8153 209.048C57.5373 196.365 62.7636 184.357 71.5525 175.188L74.4675 172.272C88.8808 157.691 108.476 137.602 137.465 145.702C108.8 137.764 88.8808 157.529 75.1153 172.11L72.2003 175.026C63.2423 184.162 57.9418 196.266 57.3011 209.048C56.6502 215.91 55.1264 222.661 52.7666 229.137C43.8288 243.128 36.5977 258.14 31.2277 273.851Z" fill="#939598"/>
<path d="M4.66827 273.852C11.0466 258.38 19.1985 243.701 28.9603 230.109C31.7016 223.853 33.8173 217.341 35.2763 210.668C37.3991 198.242 43.5443 186.858 52.7666 178.266C53.3301 177.751 53.8705 177.21 54.386 176.646C70.5807 160.445 91.9578 140.518 124.185 147.971C91.7958 140.68 71.5524 160.607 54.8719 176.646L52.7666 178.59C43.6513 187.241 37.5733 198.606 35.4382 210.992C34.0055 217.725 31.8892 224.293 29.1223 230.595C19.3367 244.026 11.1312 258.541 4.66827 273.852Z" fill="#939598"/>
<path d="M-21.4051 273.851C-15.575 262.511 -9.25906 251.494 -3.10506 241.449C3.04893 231.405 8.39318 221.198 14.0613 210.668C21.3032 197.049 30.9614 184.862 42.564 174.702C50.7701 164.973 61.2741 157.448 73.1235 152.808C84.9728 148.168 97.7925 146.561 110.42 148.132C78.0304 143.272 59.0826 159.959 42.8879 174.54C31.5478 184.909 22.1192 197.193 15.033 210.83C8.55513 221.522 2.72503 231.729 -3.10506 241.449C-8.93516 251.17 -15.413 263.321 -21.4051 273.851Z" fill="#939598"/>
<path d="M-46.5067 275.796C-25.5418 241.026 -1.12631 208.46 26.3695 178.591C34.7939 168.448 45.4891 160.433 57.5881 155.198C69.687 149.962 82.849 147.653 96.0068 148.457C82.8097 147.585 69.5963 149.897 57.4781 155.197C45.3598 160.497 34.6912 168.631 26.3695 178.915C-1.10872 208.682 -25.5237 241.139 -46.5067 275.796Z" fill="#939598"/>
<path d="M-93.4716 278.874L-81.4875 263.645C-65.0859 255.302 -52.1743 241.41 -45.0494 224.439C-40.0518 220.209 -34.6237 216.517 -28.8547 213.422C-20.2695 208.545 -13.1628 201.435 -8.28737 192.847C-1.5816 180.553 8.03898 170.094 19.7295 162.389C34.0427 153.809 49.9793 148.293 66.5322 146.188C28.4746 152.507 8.39319 165.143 -7.96347 192.523C-13.0222 201.387 -20.491 208.634 -29.5024 213.422C-35.2121 216.614 -40.6311 220.3 -45.6972 224.439C-52.9422 241.372 -65.8149 255.28 -82.1353 263.807L-93.4716 278.874Z" fill="#939598"/>
<path d="M-114.525 280.493L-102.055 265.751C-85.1154 257.901 -71.2293 244.693 -62.5396 228.165C-56.7529 223.912 -50.5055 220.325 -43.9156 217.472C-38.9422 215.678 -34.399 212.863 -30.5779 209.208C-26.7569 205.553 -23.7426 201.139 -21.7289 196.249C-16.5727 183.118 -7.60432 171.833 4.02071 163.847C18.4526 154.956 34.2729 148.548 50.8234 144.892C12.28 155.261 -8.28728 165.629 -21.5669 195.925C-23.6787 200.872 -26.823 205.31 -30.7891 208.942C-34.7552 212.575 -39.4515 215.317 -44.5634 216.986C-51.1179 219.808 -57.315 223.398 -63.0254 227.678C-71.8618 244.193 -85.7721 257.427 -102.702 265.426L-114.525 280.493Z" fill="#939598"/>
<path d="M-135.092 281.952L-122.136 267.371C-104.944 259.493 -90.4233 246.769 -80.3539 230.757C-74.2168 227.112 -67.7674 224.022 -61.0822 221.523C-48.6122 216.338 -39.5432 212.612 -35.1706 197.869C-25.6157 165.468 -4.72456 156.881 34.6286 142.3C-4.56261 156.719 -25.4538 165.792 -34.8467 197.545C-39.3812 212.45 -48.9361 216.5 -60.9202 221.361C-67.5775 223.989 -74.0207 227.131 -80.1919 230.757C-90.3814 246.827 -105.006 259.601 -122.298 267.533L-135.092 281.952Z" fill="#939598"/>
<path d="M-153.23 283.248C-136.537 263.762 -117.56 246.356 -96.7105 231.405C-90.0435 227.607 -83.0522 224.408 -75.8193 221.847C-62.2158 216.501 -51.5273 212.45 -48.4503 196.574C-48.4503 193.333 -47.4786 190.579 -47.1547 188.149C-45.2113 174.864 -44.4016 170.49 -25.6157 158.178C-16.2256 152.664 -6.36156 148.001 3.85866 144.245L17.6242 138.574L4.0206 144.245C-6.33949 148.046 -16.3167 152.82 -25.7777 158.502C-44.5635 170.652 -45.2113 174.702 -47.1547 188.149C-47.1547 190.579 -47.1547 193.333 -48.6122 196.574C-51.5273 212.774 -62.3777 216.825 -75.9813 222.009C-83.2023 224.664 -90.1901 227.916 -96.8725 231.729C-117.693 246.533 -136.62 263.835 -153.23 283.248Z" fill="#939598"/>
<path d="M-169.587 284.058C-154.459 264.616 -136.689 247.384 -116.792 232.863C-109.01 227.646 -100.834 223.041 -92.3379 219.093C-76.1432 211.154 -65.7786 205.808 -63.9972 184.261C-62.2158 162.714 -41.1626 151.859 -17.0325 141.329C-11.3643 138.736 -5.3723 135.982 0.457794 133.066L-17.3564 141.491C-41.4865 152.345 -62.2158 161.742 -64.1591 184.099C-66.1025 206.456 -76.6291 211.154 -92.6618 219.093C-101.176 223.069 -109.354 227.728 -117.116 233.025C-136.894 247.512 -154.554 264.688 -169.587 284.058Z" fill="#939598"/>
</g>
<path d="M191 57.6829V53H191.698V54.7401H191.74C191.78 54.6669 191.838 54.5823 191.915 54.4863C191.991 54.3902 192.096 54.3064 192.232 54.2348C192.367 54.1616 192.546 54.125 192.768 54.125C193.058 54.125 193.316 54.1966 193.543 54.3399C193.77 54.4832 193.948 54.6898 194.077 54.9596C194.208 55.2294 194.273 55.5541 194.273 55.9337C194.273 56.3133 194.209 56.6387 194.079 56.9101C193.95 57.1799 193.773 57.388 193.548 57.5343C193.322 57.6791 193.065 57.7515 192.775 57.7515C192.558 57.7515 192.38 57.7157 192.241 57.6441C192.104 57.5724 191.997 57.4886 191.919 57.3925C191.841 57.2965 191.782 57.2111 191.74 57.1364H191.681V57.6829H191ZM191.684 55.9268C191.684 56.1738 191.72 56.3902 191.793 56.5762C191.866 56.7622 191.972 56.9078 192.11 57.013C192.249 57.1166 192.418 57.1684 192.619 57.1684C192.827 57.1684 193.002 57.1143 193.142 57.0061C193.282 56.8963 193.387 56.7477 193.459 56.5602C193.532 56.3727 193.569 56.1616 193.569 55.9268C193.569 55.6951 193.533 55.487 193.461 55.3026C193.391 55.1181 193.286 54.9726 193.144 54.8659C193.004 54.7591 192.829 54.7058 192.619 54.7058C192.417 54.7058 192.246 54.7569 192.106 54.859C191.967 54.9611 191.862 55.1037 191.791 55.2866C191.719 55.4695 191.684 55.6829 191.684 55.9268Z" fill="#5F5F5F"/>
<path d="M195.375 59C195.271 59 195.176 58.9916 195.091 58.9748C195.005 58.9596 194.942 58.9428 194.9 58.9245L195.067 58.3643C195.195 58.3979 195.309 58.4123 195.408 58.4078C195.508 58.4032 195.596 58.3666 195.672 58.298C195.749 58.2294 195.818 58.1174 195.877 57.9619L195.963 57.7287L194.652 54.1707H195.399L196.306 56.8963H196.344L197.251 54.1707H198L196.523 58.1517C196.455 58.3346 196.368 58.4893 196.262 58.6159C196.156 58.7439 196.03 58.8399 195.884 58.904C195.738 58.968 195.568 59 195.375 59Z" fill="#5F5F5F"/>
<path d="M207.233 58L203.374 55.4415L207.115 53H205.583L202.556 55.0358C202.352 55.1733 202.305 55.2834 202.305 55.4347C202.305 55.5722 202.336 55.6823 202.509 55.7992L205.708 58H207.233ZM201.998 58V53H201V58H201.998Z" fill="black" fill-opacity="0.45"/>
<path d="M211.659 58C212.775 58 213.498 57.3948 213.498 56.4869C213.498 55.9023 213.121 55.5034 212.602 55.359C213.027 55.2421 213.388 54.9257 213.388 54.293C213.388 53.4402 212.657 53 211.549 53H207.768V53.8666H211.352C212.013 53.8666 212.382 54.0248 212.382 54.4856C212.382 54.9188 212.115 55.0908 211.549 55.0908H209.096V55.8267H211.62C212.178 55.8267 212.484 56.0536 212.484 56.4663C212.484 56.8996 212.044 57.1265 211.415 57.1265H207.744V58H211.659Z" fill="black" fill-opacity="0.45"/>
<path d="M218.161 58C219.277 58 220 57.3948 220 56.4869C220 55.9023 219.623 55.5034 219.104 55.359C219.528 55.2421 219.89 54.9257 219.89 54.293C219.89 53.4402 219.159 53 218.051 53H214.27V53.8666H217.854C218.514 53.8666 218.884 54.0248 218.884 54.4856C218.884 54.9188 218.617 55.0908 218.051 55.0908H215.598V55.8267H218.121C218.679 55.8267 218.986 56.0536 218.986 56.4663C218.986 56.8996 218.546 57.1265 217.917 57.1265H214.246V58H218.161Z" fill="black" fill-opacity="0.45"/>
<path d="M27.8749 36.7712V38.9577H21V36.7712H27.8749ZM22.6973 33.8976H25.5158V45.158C25.5158 45.538 25.5729 45.8296 25.6871 46.0326C25.8065 46.2304 25.9622 46.3658 26.1542 46.4387C26.3463 46.5116 26.5591 46.548 26.7927 46.548C26.9692 46.548 27.1301 46.535 27.2754 46.509C27.4259 46.4829 27.5401 46.4595 27.618 46.4387L28.0929 48.6486C27.9424 48.7007 27.727 48.7579 27.4467 48.8204C27.1716 48.8829 26.8342 48.9193 26.4345 48.9297C25.7286 48.9505 25.0928 48.8438 24.527 48.6096C23.9612 48.3701 23.5122 48.0005 23.18 47.5007C22.853 47.0009 22.6921 46.3762 22.6973 45.6265V33.8976Z" fill="#5F5F5F"/>
<path d="M33.3075 41.7377V48.7657H30.489V32.7731H33.2452V38.8094H33.3853C33.6656 38.1326 34.099 37.599 34.6856 37.2085C35.2773 36.8129 36.0299 36.6151 36.9435 36.6151C37.774 36.6151 38.4981 36.7895 39.1157 37.1383C39.7334 37.4871 40.2109 37.9972 40.5483 38.6688C40.8909 39.3404 41.0622 40.1603 41.0622 41.1286V48.7657H38.2437V41.5659C38.2437 40.759 38.0361 40.1317 37.6208 39.684C37.2108 39.2311 36.6346 39.0046 35.8924 39.0046C35.3941 39.0046 34.9477 39.1139 34.5532 39.3326C34.1639 39.546 33.8577 39.8558 33.6345 40.2618C33.4165 40.6679 33.3075 41.1599 33.3075 41.7377Z" fill="#5F5F5F"/>
<path d="M43.9352 48.7657V36.7712H46.7536V48.7657H43.9352ZM45.3522 35.0689C44.9058 35.0689 44.5217 34.9205 44.1999 34.6238C43.8781 34.3218 43.7172 33.96 43.7172 33.5384C43.7172 33.1115 43.8781 32.7497 44.1999 32.4529C44.5217 32.151 44.9058 32 45.3522 32C45.8038 32 46.1879 32.151 46.5045 32.4529C46.8263 32.7497 46.9872 33.1115 46.9872 33.5384C46.9872 33.96 46.8263 34.3218 46.5045 34.6238C46.1879 34.9205 45.8038 35.0689 45.3522 35.0689Z" fill="#5F5F5F"/>
<path d="M59.104 39.9417L56.5346 40.2228C56.462 39.9625 56.3348 39.7178 56.1531 39.4887C55.9766 39.2597 55.7379 39.0749 55.4368 38.9343C55.1358 38.7938 54.7672 38.7235 54.3312 38.7235C53.7447 38.7235 53.2516 38.851 52.8519 39.1061C52.4574 39.3612 52.2628 39.6918 52.268 40.0978C52.2628 40.4466 52.39 40.7304 52.6495 40.949C52.9142 41.1677 53.3502 41.3473 53.9575 41.4878L55.9974 41.9251C57.1289 42.1698 57.9698 42.5576 58.52 43.0887C59.0754 43.6197 59.3557 44.3147 59.3609 45.1736C59.3557 45.9285 59.1351 46.5949 58.6991 47.1727C58.2683 47.7454 57.6688 48.1931 56.9006 48.5158C56.1324 48.8386 55.25 49 54.2534 49C52.7896 49 51.6114 48.6929 50.7186 48.0785C49.8258 47.459 49.2938 46.5975 49.1225 45.4938L51.8709 45.2283C51.9955 45.7697 52.2602 46.1784 52.6651 46.4543C53.0699 46.7302 53.5968 46.8682 54.2456 46.8682C54.9152 46.8682 55.4524 46.7302 55.8573 46.4543C56.2673 46.1784 56.4723 45.8374 56.4723 45.4313C56.4723 45.0877 56.34 44.804 56.0753 44.5802C55.8157 44.3563 55.4109 44.1845 54.8607 44.0648L52.8208 43.6353C51.6737 43.3958 50.825 42.9923 50.2748 42.4249C49.7246 41.8522 49.4521 41.1286 49.4573 40.254C49.4521 39.5148 49.6519 38.8744 50.0568 38.333C50.4669 37.7864 51.0352 37.3647 51.7619 37.068C52.4938 36.766 53.3372 36.6151 54.2923 36.6151C55.6938 36.6151 56.7967 36.9144 57.6013 37.5131C58.411 38.1118 58.9119 38.9213 59.104 39.9417Z" fill="#5F5F5F"/>
<path d="M69.5915 48.7657L66.2124 36.7712H69.0854L71.1876 45.2049H71.2966L73.4455 36.7712H76.2873L78.4362 45.158H78.553L80.624 36.7712H83.5048L80.118 48.7657H77.1827L74.9404 40.6601H74.7769L72.5345 48.7657H69.5915Z" fill="#5F5F5F"/>
<path d="M90.4245 49C89.2255 49 88.1899 48.7501 87.3179 48.2503C86.4511 47.7454 85.7841 47.0322 85.317 46.1107C84.8498 45.184 84.6162 44.0934 84.6162 42.8388C84.6162 41.605 84.8498 40.5221 85.317 39.5903C85.7893 38.6532 86.4485 37.9244 87.2946 37.4038C88.1406 36.878 89.1346 36.6151 90.2766 36.6151C91.0136 36.6151 91.7092 36.7348 92.3632 36.9743C93.0224 37.2085 93.6037 37.573 94.1072 38.0675C94.6159 38.5621 95.0155 39.192 95.3062 39.9573C95.5969 40.7173 95.7422 41.6232 95.7422 42.6748V43.5416H85.9398V41.6362H93.0405C93.0353 41.0948 92.9185 40.6132 92.6902 40.1915C92.4618 39.7647 92.1426 39.4289 91.7325 39.1842C91.3276 38.9395 90.8553 38.8172 90.3155 38.8172C89.7393 38.8172 89.2332 38.9577 88.7972 39.2389C88.3612 39.5148 88.0212 39.8792 87.7773 40.3321C87.5385 40.7798 87.4165 41.2718 87.4114 41.808V43.4713C87.4114 44.1689 87.5385 44.7676 87.7929 45.2673C88.0472 45.7619 88.4028 46.1419 88.8595 46.4074C89.3163 46.6677 89.8509 46.7979 90.4634 46.7979C90.8735 46.7979 91.2446 46.7406 91.5768 46.6261C91.909 46.5064 92.1971 46.332 92.441 46.1029C92.685 45.8738 92.8692 45.5901 92.9938 45.2517L95.6254 45.5485C95.4593 46.2461 95.1427 46.8552 94.6756 47.3757C94.2136 47.8911 93.6219 48.292 92.9004 48.5783C92.1789 48.8594 91.3536 49 90.4245 49Z" fill="#5F5F5F"/>
<path d="M103.421 49C102.222 49 101.186 48.7501 100.314 48.2503C99.4476 47.7454 98.7806 47.0322 98.3135 46.1107C97.8463 45.184 97.6128 44.0934 97.6128 42.8388C97.6128 41.605 97.8463 40.5221 98.3135 39.5903C98.7858 38.6532 99.445 37.9244 100.291 37.4038C101.137 36.878 102.131 36.6151 103.273 36.6151C104.01 36.6151 104.706 36.7348 105.36 36.9743C106.019 37.2085 106.6 37.573 107.104 38.0675C107.612 38.5621 108.012 39.192 108.303 39.9573C108.593 40.7173 108.739 41.6232 108.739 42.6748V43.5416H98.9364V41.6362H106.037C106.032 41.0948 105.915 40.6132 105.687 40.1915C105.458 39.7647 105.139 39.4289 104.729 39.1842C104.324 38.9395 103.852 38.8172 103.312 38.8172C102.736 38.8172 102.23 38.9577 101.794 39.2389C101.358 39.5148 101.018 39.8792 100.774 40.3321C100.535 40.7798 100.413 41.2718 100.408 41.808V43.4713C100.408 44.1689 100.535 44.7676 100.789 45.2673C101.044 45.7619 101.399 46.1419 101.856 46.4074C102.313 46.6677 102.847 46.7979 103.46 46.7979C103.87 46.7979 104.241 46.7406 104.573 46.6261C104.906 46.5064 105.194 46.332 105.438 46.1029C105.682 45.8738 105.866 45.5901 105.99 45.2517L108.622 45.5485C108.456 46.2461 108.139 46.8552 107.672 47.3757C107.21 47.8911 106.618 48.292 105.897 48.5783C105.175 48.8594 104.35 49 103.421 49Z" fill="#5F5F5F"/>
<path d="M113.692 45.0018L113.685 41.5893H114.136L118.434 36.7712H121.728L116.441 42.6748H115.857L113.692 45.0018ZM111.123 48.7657V32.7731H113.942V48.7657H111.123ZM118.629 48.7657L114.736 43.3073L116.636 41.316L122 48.7657H118.629Z" fill="#5F5F5F"/>
<path d="M129.333 48.1225V36.0777H130.752V48.1225H129.333ZM130.055 34.0075C129.764 34.0075 129.515 33.9108 129.309 33.7173C129.103 33.5187 129 33.2808 129 33.0037C129 32.7267 129.103 32.4914 129.309 32.298C129.515 32.0993 129.764 32 130.055 32C130.345 32 130.594 32.0993 130.8 32.298C131.006 32.4914 131.109 32.7267 131.109 33.0037C131.109 33.2808 131.006 33.5187 130.8 33.7173C130.594 33.9108 130.345 34.0075 130.055 34.0075Z" fill="#5F5F5F"/>
<path d="M135.897 40.5945V48.1225H134.485V36.0777H135.857V37.9675H135.984C136.269 37.3506 136.713 36.8566 137.316 36.4854C137.924 36.109 138.675 35.9208 139.568 35.9208C140.387 35.9208 141.106 36.0907 141.725 36.4305C142.349 36.7651 142.832 37.2591 143.176 37.9126C143.525 38.5661 143.699 39.3686 143.699 40.32V48.1225H142.288V40.4063C142.288 39.4182 142.008 38.6367 141.447 38.0616C140.892 37.4866 140.147 37.199 139.211 37.199C138.571 37.199 138.003 37.335 137.506 37.6068C137.009 37.8786 136.616 38.2707 136.325 38.783C136.039 39.2901 135.897 39.894 135.897 40.5945Z" fill="#5F5F5F"/>
<path d="M158.454 48.3734C157.365 48.3734 156.416 48.1042 155.607 47.5657C154.804 47.0273 154.18 46.2901 153.736 45.3544C153.292 44.4186 153.07 43.3521 153.07 42.155C153.07 40.9473 153.294 39.873 153.744 38.932C154.198 37.991 154.827 37.2539 155.631 36.7207C156.435 36.1822 157.368 35.913 158.43 35.913C159.244 35.913 159.982 36.0698 160.642 36.3835C161.303 36.6919 161.848 37.1285 162.276 37.6931C162.709 38.2524 162.982 38.9059 163.093 39.6535H161.665C161.517 38.9739 161.16 38.3936 160.595 37.9126C160.034 37.4264 159.321 37.1833 158.454 37.1833C157.677 37.1833 156.99 37.3925 156.392 37.8107C155.795 38.2237 155.327 38.8013 154.989 39.5437C154.656 40.2808 154.489 41.1355 154.489 42.1079C154.489 43.0855 154.653 43.9507 154.981 44.7035C155.309 45.4511 155.768 46.0366 156.361 46.46C156.958 46.8835 157.656 47.0952 158.454 47.0952C158.993 47.0952 159.485 46.9959 159.929 46.7972C160.378 46.5934 160.753 46.3058 161.055 45.9347C161.361 45.5635 161.568 45.1217 161.673 44.6094H163.101C162.995 45.3361 162.733 45.9843 162.316 46.5541C161.903 47.1187 161.367 47.5631 160.706 47.8872C160.05 48.2114 159.3 48.3734 158.454 48.3734Z" fill="#5F5F5F"/>
<path d="M166.126 48.1225V36.0777H167.497V37.9283H167.601C167.844 37.3219 168.267 36.8331 168.869 36.4619C169.477 36.0855 170.164 35.8973 170.931 35.8973C171.047 35.8973 171.177 35.8999 171.319 35.9052C171.462 35.9104 171.581 35.9156 171.676 35.9208V37.3402C171.613 37.3297 171.502 37.314 171.343 37.2931C171.185 37.2722 171.013 37.2618 170.828 37.2618C170.193 37.2618 169.628 37.3951 169.131 37.6617C168.639 37.9231 168.251 38.2864 167.965 38.7517C167.68 39.217 167.537 39.7476 167.537 40.3435V48.1225H166.126Z" fill="#5F5F5F"/>
<path d="M175.439 52.6393C175.159 52.6393 174.897 52.6131 174.654 52.5609C174.411 52.5086 174.218 52.4511 174.075 52.3883L174.456 51.1572C174.937 51.3036 175.365 51.3559 175.74 51.314C176.115 51.2774 176.448 51.1102 176.739 50.8122C177.03 50.5194 177.289 50.0698 177.516 49.4634L177.96 48.2401L173.48 36.0777H175.011L178.626 46.2797H178.737L182.353 36.0777H183.884L178.729 50.028C178.513 50.6083 178.246 51.0919 177.929 51.4787C177.611 51.8708 177.244 52.1609 176.826 52.3491C176.414 52.5426 175.952 52.6393 175.439 52.6393Z" fill="#5F5F5F"/>
<path d="M186.645 60V36.0777H188.017V38.3753H188.183C188.353 38.0146 188.585 37.646 188.881 37.2696C189.177 36.888 189.568 36.5665 190.055 36.3051C190.546 36.0437 191.165 35.913 191.91 35.913C192.915 35.913 193.792 36.1744 194.543 36.6972C195.299 37.2147 195.885 37.9414 196.303 38.8771C196.726 39.8077 196.937 40.8925 196.937 42.1314C196.937 43.3757 196.726 44.4656 196.303 45.4014C195.885 46.3372 195.299 47.0665 194.543 47.5892C193.792 48.112 192.92 48.3734 191.926 48.3734C191.191 48.3734 190.575 48.2427 190.078 47.9813C189.587 47.7199 189.188 47.3984 188.881 47.0168C188.58 46.6299 188.347 46.2535 188.183 45.8876H188.056L188.183 60H186.645ZM188.041 42.1079C188.041 43.0803 188.186 43.9429 188.477 44.6957C188.773 45.4432 189.196 46.0314 189.745 46.46C190.3 46.8835 190.972 47.0952 191.76 47.0952C192.568 47.0952 193.25 46.8757 193.805 46.4365C194.366 45.9922 194.791 45.3936 195.082 44.6408C195.378 43.888 195.526 43.0437 195.526 42.1079C195.526 41.1826 195.381 40.3488 195.09 39.6064C194.804 38.8641 194.382 38.276 193.821 37.842C193.261 37.4029 192.574 37.1833 191.76 37.1833C190.967 37.1833 190.293 37.3951 189.738 37.8185C189.182 38.2367 188.76 38.817 188.469 39.5594C188.183 40.2965 188.041 41.146 188.041 42.1079Z" fill="#5F5F5F"/>
<path d="M204.831 36.0777V37.2931H199.019V36.0777H204.831ZM200.835 33.1919H202.254V44.978C202.254 45.4798 202.341 45.8745 202.516 46.1621C202.69 46.4444 202.918 46.6456 203.198 46.7659C203.478 46.8809 203.777 46.9384 204.094 46.9384C204.279 46.9384 204.437 46.9279 204.57 46.907C204.702 46.8809 204.818 46.8547 204.918 46.8286L205.22 48.0911C205.082 48.1434 204.913 48.1904 204.712 48.2323C204.511 48.2793 204.263 48.3028 203.967 48.3028C203.449 48.3028 202.949 48.1904 202.468 47.9656C201.992 47.7409 201.601 47.4063 201.295 46.9619C200.988 46.5176 200.835 45.966 200.835 45.3073V33.1919Z" fill="#5F5F5F"/>
<path d="M212.64 48.3734C211.588 48.3734 210.657 48.1094 209.849 47.5814C209.045 47.0534 208.416 46.3241 207.961 45.3936C207.507 44.4578 207.279 43.3783 207.279 42.155C207.279 40.9212 207.507 39.8364 207.961 38.9007C208.416 37.9597 209.045 37.2278 209.849 36.705C210.657 36.177 211.588 35.913 212.64 35.913C213.692 35.913 214.619 36.177 215.423 36.705C216.226 37.233 216.856 37.9649 217.31 38.9007C217.77 39.8364 218 40.9212 218 42.155C218 43.3783 217.773 44.4578 217.318 45.3936C216.863 46.3241 216.232 47.0534 215.423 47.5814C214.619 48.1094 213.692 48.3734 212.64 48.3734ZM212.64 47.0952C213.486 47.0952 214.202 46.8704 214.789 46.4208C215.375 45.9712 215.819 45.3727 216.121 44.6251C216.427 43.8775 216.581 43.0541 216.581 42.155C216.581 41.2558 216.427 40.4298 216.121 39.677C215.819 38.9242 215.375 38.3204 214.789 37.8656C214.202 37.4108 213.486 37.1833 212.64 37.1833C211.799 37.1833 211.083 37.4108 210.491 37.8656C209.904 38.3204 209.457 38.9242 209.151 39.677C208.849 40.4298 208.699 41.2558 208.699 42.155C208.699 43.0541 208.849 43.8775 209.151 44.6251C209.457 45.3727 209.904 45.9712 210.491 46.4208C211.078 46.8704 211.794 47.0952 212.64 47.0952Z" fill="#5F5F5F"/>
</g>
<defs>
<clipPath id="clip0_904_4241">
<rect width="240" height="148" fill="white"/>
</clipPath>
</defs>
</svg>
