
<svg xmlns="http://www.w3.org/2000/svg" fill="none" viewBox="0 0 143 16">
  <path fill="#6C757D" d="m18.1 15.94-4.63-4.78c1.99-.78 3.17-2.62 3.17-5.21 0-3.5-2.07-5.73-5.59-5.73H0v15.72h2.67V2.96h8.38C12.9 2.96 14 3.96 14 6s-1.02 3.16-2.95 3.16H4.64v2.42h5.76l3.9 4.37h3.8Zm15.16 0v-2.75h-11.1V2.96h11.08V.22H19.5v15.72h13.76Zm-.59-6.84V6.8h-8.53v2.3h8.53Zm14.43 6.84c3.23 0 4.8-1.97 4.8-4.61 0-3.05-1.68-4.54-4.8-4.54h-7.04c-1.19 0-1.93-.71-1.93-1.9 0-1.2.72-1.93 1.95-1.93h11.05V.22H40.08c-3.07 0-4.74 1.88-4.74 4.4 0 2.6 1.8 4.48 4.7 4.48h7.07c1.44 0 2.24.7 2.24 2.04 0 1.23-.8 2.05-2.24 2.05H35.57v2.75H47.1Zm20.87 0v-2.75h-11.1V2.96h11.07V.22H54.2v15.72h13.77Zm-.6-6.84V6.8h-8.53v2.3h8.53Zm22.19 6.84L80.69.89c-.32-.54-.7-.89-1.3-.89-.59 0-.99.35-1.3.89l-8.86 15.05h3.07l7-12.07 3.43 5.88H78l-1.27 2.23H84l2.31 3.96h3.24Zm19.76 0-4.63-4.78c1.98-.78 3.17-2.62 3.17-5.21 0-3.5-2.07-5.73-5.59-5.73H91.22v15.72h2.67V2.96h8.38c1.84 0 2.94 1 2.94 3.03s-1.01 3.16-2.94 3.16h-6.42v2.42h5.76l3.9 4.37h3.81Zm16.42 0v-2.75h-8.34c-2.78 0-4.79-2.18-4.79-5.15 0-2.98 2.03-5.08 4.79-5.08h8.34V.22h-8.34c-4.3 0-7.48 3.07-7.48 7.7 0 4.56 3.18 8.02 7.48 8.02h8.34ZM143 16V.22h-2.69v6.5h-7.75v2.45h7.75V16H143Zm-12.39 0V.22h-2.69V16h2.7Z"/>
</svg>
