<svg xmlns="http://www.w3.org/2000/svg" fill="none" viewBox="0 0 90 24">
          <path
            fill="#090A0B"
            d="M29.53 24 11.24 11.72 28.97 0H21.7L7.37 9.77c-.97.66-1.19 1.19-1.19 1.92 0 .66.15 1.18.97 1.75L22.3 24h7.23Zm-24.8 0V0H0v24h4.73Zm45.76 0c5.29 0 8.71-2.9 8.71-7.26 0-2.8-1.79-4.72-4.24-5.42 2-.56 3.72-2.08 3.72-5.11 0-4.1-3.46-6.21-8.71-6.21H32.06v4.16h16.98c3.12 0 4.87.76 4.87 2.97 0 2.08-1.26 2.9-3.94 2.9H38.35v3.54H50.3c2.65 0 4.1 1.09 4.1 3.07 0 2.08-2.09 3.17-5.06 3.17h-17.4V24H50.5Zm30.8 0c5.28 0 8.71-2.9 8.71-7.26 0-2.8-1.79-4.72-4.24-5.42 2-.56 3.72-2.08 3.72-5.11 0-4.1-3.46-6.21-8.71-6.21H62.86v4.16h16.98c3.12 0 4.87.76 4.87 2.97 0 2.08-1.26 2.9-3.94 2.9H69.15v3.54H81.1c2.64 0 4.1 1.09 4.1 3.07 0 2.08-2.09 3.17-5.07 3.17H62.74V24H81.3Z"
          />
        </svg>