<svg xmlns="http://www.w3.org/2000/svg" fill="none" viewBox="0 0 62 65">
  <path fill="#D9D9D9" stroke="#090A0B" d="M60.33 56.81 48.07 43.48 39.53 52l12.8 11.74 8-6.94Z"/>
  <path fill="#090A0B" d="M59.45 53.15 45.9 39.61c-.94-.94-3.65-2.6-6.72 0l-.94.94-3.77-3.77a17.14 17.14 0 0 0-.82-23.44A16.94 16.94 0 0 0 21.5 8.28c-4.6 0-8.96 1.77-12.14 5.06a17.12 17.12 0 0 0 0 24.27c3.3 3.3 7.54 5.06 12.14 5.06 4.24 0 8.13-1.53 11.31-4.24l3.77 3.77-.94.94a4.7 4.7 0 0 0 0 6.71L49.2 63.4a4.65 4.65 0 0 0 3.3 1.41c1.3 0 2.48-.47 3.3-1.41l3.65-3.65a4.55 4.55 0 0 0 0-6.6ZM32 35.95a14.61 14.61 0 0 1-10.5 4.37 14.85 14.85 0 0 1 0-29.68A14.85 14.85 0 0 1 32 35.95Zm5.3 12.26a2.28 2.28 0 0 1 0-3.3l3.77-3.77c.47-.47 1.06-.7 1.65-.7.59 0 1.18.23 1.65.7l2 2-6.95 6.95-2.12-1.88Zm20.5 9.89-3.65 3.65c-.94.94-2.48.94-3.3 0l-10.02-9.9 7.07-7.06 9.9 9.9a2.4 2.4 0 0 1 0 3.41Z"/>
  <path stroke="#090A0B" stroke-width="2" d="M1.13 41.35 13.56 20l14.98 10.67L40.6.8"/>
</svg>