<svg width="2379" height="844" xmlns="http://www.w3.org/2000/svg" xmlns:xlink="http://www.w3.org/1999/xlink" xml:space="preserve" overflow="hidden"><defs><clipPath id="clip0"><rect x="0" y="0" width="2379" height="844"/></clipPath><clipPath id="clip1"><rect x="119" y="256" width="2212" height="471"/></clipPath><clipPath id="clip2"><rect x="119" y="256" width="2212" height="471"/></clipPath><clipPath id="clip3"><rect x="0" y="0" width="2378" height="843"/></clipPath><clipPath id="clip4"><rect x="0" y="0" width="2378" height="843"/></clipPath><clipPath id="clip5"><rect x="0" y="0" width="2378" height="843"/></clipPath><clipPath id="clip6"><rect x="0" y="0" width="2378" height="843"/></clipPath><clipPath id="clip7"><rect x="0" y="0" width="2378" height="843"/></clipPath><clipPath id="clip8"><rect x="0" y="0" width="2378" height="843"/></clipPath><clipPath id="clip9"><rect x="0" y="0" width="2378" height="843"/></clipPath></defs><g clip-path="url(#clip0)"><rect x="0" y="0" width="2379" height="844" fill="#FFFFFF"/><g clip-path="url(#clip1)"><path d="M124 564 128.004 563.018 131.004 563.018 134.004 563.018 138.005 563.018 141.005 562.018 144.005 562.018 148.005 562.018 151.005 562.018 154.005 561.018 158.005 561.018 161.005 561.018 164.005 561.018 168.006 561.018 171.006 560.018 174.006 560.018 178.006 560.018 181.006 560.018 184.006 559.018 188.006 559.018 191.006 559.018 194.006 559.018 198.007 558.018 201.007 558.018 205.007 558.018 208.007 558.018 211.007 558.018 215.007 557.018 218.007 557.018 221.007 557.018 225.007 557.018 228.007 556.018 231.008 556.018 235.008 556.018 238.008 556.018 241.008 555.018 245.008 555.018 248.008 555.018 251.008 555.018 255.008 554.018 258.008 554.018 261.009 554.018 265.009 554.018 268.009 554.018 271.009 553.018 275.009 553.018 278.009 553.018 281.009 553.018 285.009 552.018 288.009 552.018 292.01 552.018 295.01 552.018 298.01 551.018 302.01 551.018 305.01 551.018 308.01 551.018 312.01 550.018 315.01 550.018 318.01 550.018 322.011 550.018 325.011 550.018 328.011 549.018 332.011 549.018 335.011 549.018 338.011 549.018 342.011 548.018 345.011 548.018 348.011 548.018 352.012 548.018 355.012 547.018 358.012 547.018 362.012 547.018 365.012 547.018 369.012 547.018 372.012 546.018 375.012 546.018 379.012 546.018 382.013 546.018 385.013 545.018 389.013 545.018 392.013 545.018 395.013 545.018 399.013 544.018 402.013 544.018 405.013 544.018 409.013 544.018 412.014 543.018 415.014 543.018 419.014 543.018 422.014 543.018 425.014 543.018 429.014 542.018 432.014 542.018 435.014 542.018 439.014 542.018 442.014 541.018 446.015 541.018 449.015 541.018 452.015 541.018 456.015 540.018 459.015 540.018 462.015 540.018 466.015 540.018 469.015 539.018 472.015 539.018 476.016 539.018 479.016 539.018 482.016 539.018 486.016 538.018 489.016 538.018 492.016 538.018 496.016 538.018 499.016 537.018 502.016 537.018 506.017 537.018 509.017 537.018 512.017 536.018 516.017 536.018 519.017 536.018 522.017 536.018 526.017 536.018 529.017 535.018 533.018 535.018 536.018 535.018 539.018 535.018 543.018 534.018 546.018 534.018 549.018 534.018 553.018 534.018 556.018 533.017 559.018 533.017 563.018 533.017 566.019 533.017 569.019 532.017 573.019 532.017 576.019 532.017 579.019 532.017 583.019 532.017 586.019 531.017 589.019 531.017 593.019 531.017 596.02 531.017 599.02 530.017 603.02 530.017 606.02 530.017 610.02 530.017 613.02 529.017 616.02 529.017 620.02 529.017 623.02 529.017 626.021 528.017 630.021 528.017 633.021 528.017 636.021 528.017 640.021 528.017 643.021 527.017 646.021 527.017 650.021 527.017 653.021 527.017 656.022 526.017 660.022 526.017 663.022 526.017 666.022 526.017 670.022 525.017 673.022 525.017 676.022 525.017 680.022 525.017 683.022 525.017 686.023 524.017 690.023 524.017 693.023 524.017 697.023 524.017 700.023 523.017 703.023 523.017 707.023 523.017 710.023 523.017 713.023 522.017 717.024 522.017 720.024 522.017 723.024 522.017 727.024 521.017 730.024 521.017 733.024 521.017 737.024 521.017 740.024 521.017 743.024 520.017 747.025 520.017 750.025 520.017 753.025 520.017 757.025 519.017 760.025 519.017 763.025 519.017 767.025 519.017 770.025 518.017 774.025 518.017 777.026 518.017 780.026 518.017 784.026 517.017 787.026 517.017 790.026 517.017 794.026 517.017 797.026 517.017 800.026 516.017 804.026 516.017 807.026 516.017 810.027 516.017 814.027 515.017 817.027 515.017 820.027 515.017 824.027 515.017 827.027 514.017 830.027 514.017 834.027 514.017 837.027 514.017 840.028 513.017 844.028 513.017 847.028 513.017 851.028 513.017 854.028 513.017 857.028 512.017 861.028 512.017 864.028 512.017 867.028 512.017 871.029 511.017 874.029 511.017 877.029 511.017 881.029 511.017 884.029 510.017 887.029 510.017 891.029 510.017 894.029 510.017 897.029 510.017 901.03 509.017 904.03 509.017 907.03 509.017 911.03 509.017 914.03 508.017 917.03 508.017 921.03 508.017 924.03 508.017 927.03 507.017 931.031 507.017 934.031 507.017 938.031 507.017 941.031 506.017 944.031 506.017 948.031 506.017 951.031 506.017 954.031 506.017 958.031 505.017 961.032 505.017 964.032 505.017 968.032 505.017 971.032 504.017 974.032 504.017 978.032 504.017 981.032 504.017 984.032 503.016 988.032 503.016 991.033 503.016 994.033 503.016 998.033 502.016 1001.03 502.016 1004.03 502.016 1008.03 502.016 1011.03 502.016 1015.03 501.016 1018.03 501.016 1021.03 501.016 1025.03 501.016 1028.03 500.016 1031.03 500.016 1035.03 500.016 1038.03 500.016 1041.03 499.016 1045.03 499.016 1048.03 499.016 1051.03 499.016 1055.03 499.016 1058.03 498.016 1061.03 498.016 1065.03 498.016 1068.04 498.016 1071.04 497.016 1075.04 497.016 1078.04 497.016 1081.04 497.016 1085.04 496.016 1088.04 496.016 1091.04 496.016 1095.04 496.016 1098.04 495.016 1102.04 495.016 1105.04 495.016 1108.04 495.016 1112.04 495.016 1115.04 494.016 1118.04 494.016 1122.04 494.016 1125.04 494.016 1128.04 493.016 1132.04 493.016 1135.04 493.016 1138.04 493.016 1142.04 492.016 1145.04 492.016 1148.04 492.016 1152.04 492.016 1155.04 491.016 1158.04 491.016 1162.04 491.016 1165.04 491.016 1168.04 491.016 1172.04 490.016 1175.04 490.016 1179.04 490.016 1182.04 490.016 1185.04 489.016 1189.04 489.016 1192.04 489.016 1195.04 489.016 1199.04 488.016 1202.04 488.016 1205.04 488.016 1209.04 488.016 1212.04 488.016 1215.04 487.016 1219.04 487.016 1222.04 487.016 1225.04 487.016 1229.04 486.016 1232.04 486.016 1235.04 486.016 1239.04 486.016 1242.04 485.016 1245.04 485.016 1249.04 485.016 1252.04 485.016 1256.04 484.016 1259.04 484.016 1262.04 484.016 1266.04 484.016 1269.04 484.016 1272.04 483.016 1276.04 483.016 1279.04 483.016 1282.04 483.016 1286.04 482.016 1289.04 482.016 1292.04 482.016 1296.04 482.016 1299.04 481.016 1302.04 481.016 1306.04 481.016 1309.04 481.016 1312.04 480.016 1316.04 480.016 1319.04 480.016 1322.04 480.016 1326.04 480.016 1329.04 479.016 1332.04 479.016 1336.04 479.016 1339.04 479.016 1343.04 478.016 1346.04 478.016 1349.04 478.016 1353.04 478.016 1356.04 477.016 1359.04 477.016 1363.04 477.016 1366.04 477.016 1369.04 477.016 1373.05 476.016 1376.05 476.016 1379.05 476.016 1383.05 476.016 1386.05 475.016 1389.05 475.016 1393.05 475.016 1396.05 475.016 1399.05 474.016 1403.05 474.016 1406.05 474.016 1409.05 474.016 1413.05 473.016 1416.05 473.016 1420.05 473.016 1423.05 473.016 1426.05 473.016 1430.05 472.015 1433.05 472.015 1436.05 472.015 1440.05 472.015 1443.05 471.015 1446.05 471.015 1450.05 471.015 1453.05 471.015 1456.05 470.015 1460.05 470.015 1463.05 470.015 1466.05 470.015 1470.05 469.015 1473.05 469.015 1476.05 469.015 1480.05 469.015 1483.05 469.015 1486.05 468.015 1490.05 468.015 1493.05 468.015 1496.05 468.015 1500.05 467.015 1503.05 467.015 1507.05 467.015 1510.05 467.015 1513.05 466.015 1517.05 466.015 1520.05 466.015 1523.05 466.015 1527.05 466.015 1530.05 465.015 1533.05 465.015 1537.05 465.015 1540.05 465.015 1543.05 464.015 1547.05 464.015 1550.05 464.015 1553.05 464.015 1557.05 463.015 1560.05 463.015 1563.05 463.015 1567.05 463.015 1570.05 462.015 1573.05 462.015 1577.05 462.015 1580.05 462.015 1584.05 462.015 1587.05 461.015 1590.05 461.015 1594.05 461.015 1597.05 461.015 1600.05 460.015 1604.05 460.015 1607.05 460.015 1610.05 460.015 1614.05 459.015 1617.05 459.015 1620.05 459.015 1624.05 459.015 1627.05 458.015 1630.05 458.015 1634.05 458.015 1637.05 458.015 1640.05 458.015 1644.05 457.015 1647.05 457.015 1650.05 457.015 1654.05 457.015 1657.05 456.015 1661.05 456.015 1664.05 456.015 1667.05 456.015 1671.05 455.015 1674.05 455.015 1677.06 455.015 1681.06 455.015 1684.06 454.015 1687.06 454.015 1691.06 454.015 1694.06 454.015 1697.06 454.015 1701.06 453.015 1704.06 453.015 1707.06 453.015 1711.06 453.015 1714.06 452.015 1717.06 452.015 1721.06 452.015 1724.06 452.015 1727.06 451.015 1731.06 451.015 1734.06 451.015 1737.06 451.015 1741.06 451.015 1744.06 450.015 1748.06 450.015 1751.06 450.015 1754.06 450.015 1758.06 449.015 1761.06 449.015 1764.06 449.015 1768.06 449.015 1771.06 448.015 1774.06 448.015 1778.06 448.015 1781.06 448.015 1784.06 447.015 1788.06 447.015 1791.06 447.015 1794.06 447.015 1798.06 447.015 1801.06 446.015 1804.06 446.015 1808.06 446.015 1811.06 446.015 1814.06 445.015 1818.06 445.015 1821.06 445.015 1825.06 445.015 1828.06 444.015 1831.06 444.015 1835.06 444.015 1838.06 444.015 1841.06 443.015 1845.06 443.015 1848.06 443.015 1851.06 443.015 1855.06 443.015 1858.06 442.014 1861.06 442.014 1865.06 442.014 1868.06 442.014 1871.06 441.014 1875.06 441.014 1878.06 441.014 1881.06 441.014 1885.06 440.014 1888.06 440.014 1891.06 440.014 1895.06 440.014 1898.06 440.014 1902.06 439.014 1905.06 439.014 1908.06 439.014 1912.06 439.014 1915.06 438.014 1918.06 438.014 1922.06 438.014 1925.06 438.014 1928.06 437.014 1932.06 437.014 1935.06 437.014 1938.06 437.014 1942.06 436.014 1945.06 436.014 1948.06 436.014 1952.06 436.014 1955.06 436.014 1958.06 435.014 1962.06 435.014 1965.06 435.014 1968.06 435.014 1972.06 434.014 1975.06 434.014 1978.06 434.014 1982.07 434.014 1985.07 433.014 1989.07 433.014 1992.07 433.014 1995.07 433.014 1999.07 432.014 2002.07 432.014 2005.07 432.014 2009.07 432.014 2012.07 432.014 2015.07 431.014 2019.07 431.014 2022.07 431.014 2025.07 431.014 2029.07 430.014 2032.07 430.014 2035.07 430.014 2039.07 430.014 2042.07 429.014 2045.07 429.014 2049.07 429.014 2052.07 429.014 2055.07 429.014 2059.07 428.014 2062.07 428.014 2066.07 428.014 2069.07 428.014 2072.07 427.014 2076.07 427.014 2079.07 427.014 2082.07 427.014 2086.07 426.014 2089.07 426.014 2092.07 426.014 2096.07 426.014 2099.07 425.014 2102.07 425.014 2106.07 425.014 2109.07 425.014 2112.07 425.014 2116.07 424.014 2119.07 424.014 2122.07 424.014 2126.07 424.014 2129.07 423.014 2132.07 423.014 2136.07 423.014 2139.07 423.014 2142.07 422.014 2146.07 422.014 2149.07 422.014 2153.07 422.014 2156.07 421.014 2159.07 421.014 2163.07 421.014 2166.07 421.014 2169.07 421.014 2173.07 420.014 2176.07 420.014 2179.07 420.014 2183.07 420.014 2186.07 419.014 2189.07 419.014 2193.07 419.014 2196.07 419.014 2199.07 418.014 2203.07 418.014 2206.07 418.014 2209.07 418.014 2213.07 418.014 2216.07 417.014 2219.07 417.014 2223.07 417.014 2226.07 417.014 2230.07 416.014 2233.07 416.014 2236.07 416.014 2240.07 416.014 2243.07 415.014 2246.07 415.014 2250.07 415.014 2253.07 415.014 2256.07 414.014 2260.07 414.014 2263.07 414.014 2266.07 414.014 2270.07 414.014 2273.07 413.014 2276.07 413.014 2280.07 413.014 2283.07 413.014 2286.07 412.014 2290.07 412.014 2293.08 412.014 2296.08 412.014 2300.08 411.013 2303.08 411.013 2307.08 411.013 2310.08 411.013 2313.08 410.013 2317.08 410.013 2320.08 410.013 2323.08 410.013 2327 410" stroke="#68CDF4" stroke-width="2.29167" stroke-linecap="round" stroke-linejoin="round" stroke-miterlimit="10" fill="none"/></g><g clip-path="url(#clip2)"><path d="M124.5 563.519 127.504 559.519 130.504 554.518 134.505 548.518 137.505 543.518 140.505 540.518 144.505 540.518 147.505 528.518 150.505 523.517 154.505 522.517 157.505 529.518 161.505 527.517 164.506 509.517 167.506 500.517 171.506 495.516 174.506 504.517 177.506 486.516 181.506 504.517 184.506 485.516 187.506 485.516 191.506 479.516 194.507 496.516 197.507 496.516 201.507 481.516 204.507 474.516 207.507 460.515 211.507 485.516 214.507 474.516 217.507 476.516 221.507 487.516 224.508 510.517 227.508 512.517 231.508 511.517 234.508 510.517 237.508 510.517 241.508 477.516 244.508 474.516 248.508 441.515 251.508 430.514 254.509 437.515 258.509 475.516 261.509 452.515 264.509 429.514 268.509 429.514 271.509 429.514 274.509 437.515 278.509 473.516 281.509 457.515 284.51 492.516 288.51 493.516 291.51 475.516 294.51 479.516 298.51 455.515 301.51 470.516 304.51 452.515 308.51 470.516 311.51 480.516 314.51 485.516 318.511 460.515 321.511 458.515 325.511 468.516 328.511 464.515 331.511 467.516 335.511 475.516 338.511 475.516 341.511 479.516 345.512 482.516 348.512 486.516 351.512 500.517 355.512 504.517 358.512 515.517 361.512 530.518 365.512 532.518 368.512 533.518 371.512 535.518 375.512 536.518 378.513 538.518 381.513 538.518 385.513 538.518 388.513 540.518 391.513 544.518 395.513 549.518 398.513 554.518 401.513 558.518 405.513 563.519 408.514 568.519 412.514 564.519 415.514 573.519 418.514 581.519 422.514 585.519 425.514 590.52 428.514 589.52 432.514 589.52 435.514 593.52 438.515 587.519 442.515 589.52 445.515 595.52 448.515 598.52 452.515 605.52 455.515 625.521 458.515 628.521 462.515 631.521 465.515 634.521 468.516 637.521 472.516 615.52 475.516 618.521 478.516 614.52 482.516 592.52 485.516 587.519 489.516 587.519 492.516 622.521 495.516 619.521 499.517 603.52 502.517 591.52 505.517 588.52 509.517 594.52 512.517 603.52 515.517 615.52 519.517 634.521 522.517 656.522 525.517 660.5 529.518 660.522 532.518 659.522 535.518 637.521 539.518 638.521 542.518 607.52 545.518 579.519 549.518 578.519 552.518 607.52 555.518 589.52 559.519 576.519 562.519 589.52 566.519 575.519 569.519 573.519 572.519 572.519 576.519 591.52 579.519 605.52 582.519 595.52 586.519 577.519 589.52 569.519 592.52 575.519 596.52 562.519 599.52 560.519 602.52 559.519 606.52 576.519 609.52 555.518 612.52 553.518 616.52 554.518 619.521 550.518 622.521 548.518 626.521 553.518 629.521 544.518 632.521 542.518 636.521 550.518 639.521 550.518 642.521 546.518 646.521 546.518 649.521 541.518 653.522 536.518 656.522 530.518 659.522 526.517 663.522 523.517 666.522 521.517 669.522 519.517 673.522 512.517 676.522 504.517 679.522 506.517 683.523 508.517 686.523 509.517 689.523 507.517 693.523 505.517 696.523 494.516 699.523 478.516 703.523 492.516 706.523 498.517 709.523 496.516 713.524 494.516 716.524 483.516 719.524 484.516 723.524 489.516 726.524 480.516 730.524 486.516 733.524 485.516 736.524 483.516 740.524 458.515 743.525 454.515 746.525 432.514 750.525 427.514 753.525 421.514 756.525 405.513 760.525 403.513 763.525 405.513 766.525 419.514 770.525 398.513 773.526 396.513 776.526 395.513 780.526 426.514 783.526 425.514 786.526 394.513 790.526 427.514 793.526 406.514 796.526 391.513 800.526 411.514 803.527 411.514 806.527 450.515 810.527 446.515 813.527 469.516 817.527 470.516 820.527 466.516 823.527 454.515 827.527 450.515 830.527 471.516 833.528 451.515 837.528 446.515 840.528 461.515 843.528 437.515 847.528 448.515 850.528 460.515 853.528 431.514 857.528 439.515 860.528 469.516 863.529 453.515 867.529 452.515 870.529 472.516 873.529 465.515 877.529 455.515 880.529 463.515 883.529 469.516 887.529 484.516 890.529 490.516 894.53 481.516 897.53 489.516 900.53 494.516 904.53 496.516 907.53 497.516 910.53 499.517 914.53 501.517 917.53 501.517 920.53 502.517 924.531 505.517 927.531 507.517 930.531 509.517 934.531 512.517 937.531 513.517 940.531 520.517 944.531 525.517 947.531 528.518 950.531 522.517 954.531 521.517 957.532 524.517 960.532 522.517 964.532 524.517 967.532 525.517 971.532 529.518 974.532 549.518 977.532 572.519 981.532 571.519 984.532 569.519 987.533 551.518 991.533 571.519 994.533 572.519 997.533 573.519 1001.53 597.52 1004.53 600.52 1007.53 602.52 1011.53 605.52 1014.53 606.52 1017.53 584.519 1021.53 601.52 1024.53 614.52 1027.53 594.52 1031.53 603.52 1034.53 582.519 1037.53 572.519 1041.53 574.519 1044.53 576.519 1047.53 551.518 1051.53 559.519 1054.53 561.519 1058.53 593.52 1061.54 601.52 1064.54 593.52 1068.54 621.521 1071.54 621.521 1074.54 620.521 1078.54 599.52 1081.54 596.52 1084.54 595.52 1088.54 595.52 1091.54 601.52 1094.54 611.52 1098.54 608.52 1101.54 606.52 1104.54 603.52 1108.54 592.52 1111.54 581.519 1114.54 565.519 1118.54 544.518 1121.54 563.519 1124.54 576.519 1128.54 567.519 1131.54 559.519 1135.54 533.518 1138.54 532.518 1141.54 532.518 1145.54 539.518 1148.54 525.517 1151.54 533.518 1155.54 538.518 1158.54 536.518 1161.54 538.518 1165.54 527.517 1168.54 526.517 1171.54 514.517 1175.54 510.517 1178.54 510.517 1181.54 503.517 1185.54 503.517 1188.54 498.517 1191.54 493.516 1195.54 488.516 1198.54 485.516 1201.54 479.516 1205.54 473.516 1208.54 468.516 1211.54 467.516 1215.54 459.515 1218.54 453.515 1222.54 448.515 1225.54 443.515 1228.54 438.515 1232.54 433.514 1235.54 429.514 1238.54 426.514 1242.54 420.514 1245.54 415.514 1248.54 434.514 1252.54 417.514 1255.54 408.514 1258.54 403.513 1262.54 395.513 1265.54 413.514 1268.54 392.513 1272.54 407.514 1275.54 414.514 1278.54 420.514 1282.54 442.515 1285.54 441.515 1288.54 410.514 1292.54 409.514 1295.54 380.513 1299.54 364.512 1302.54 362.512 1305.54 361.512 1309.54 359.512 1312.54 365.512 1315.54 356.512 1319.54 371.512 1322.54 357.512 1325.54 354.512 1329.54 354.512 1332.54 354.512 1335.54 354.512 1339.54 354.512 1342.54 372.512 1345.54 387.513 1349.54 365.512 1352.54 360.512 1355.54 358.512 1359.54 368.512 1362.54 361.512 1365.54 398.513 1369.55 407.514 1372.55 406.514 1376.55 375.513 1379.55 371.512 1382.55 374.512 1386.55 378.513 1389.55 380.513 1392.55 389.513 1396.55 386.513 1399.55 389.513 1402.55 393.513 1406.55 406.514 1409.55 429.514 1412.55 436.514 1416.55 448.515 1419.55 438.515 1422.55 448.515 1426.55 452.515 1429.55 454.515 1432.55 455.515 1436.55 457.515 1439.55 456.515 1442.55 460.515 1446.55 461.515 1449.55 461.515 1452.55 465.515 1456.55 464.515 1459.55 468.516 1463.55 469.516 1466.55 471.516 1469.55 473.516 1473.55 477.516 1476.55 477.516 1479.55 480.516 1483.55 484.516 1486.55 495.516 1489.55 499.517 1493.55 501.517 1496.55 498.517 1499.55 511.517 1503.55 523.517 1506.55 522.517 1509.55 517.517 1513.55 512.517 1516.55 519.517 1519.55 537.518 1523.55 546.518 1526.55 541.518 1529.55 546.518 1533.55 556.518 1536.55 554.518 1540.55 538.518 1543.55 539.518 1546.55 520.517 1550.55 552.518 1553.55 520.517 1556.55 541.518 1560.55 535.518 1563.55 549.518 1566.55 535.518 1570.55 572.519 1573.55 547.518 1576.55 542.518 1580.55 542.518 1583.55 551.518 1586.55 555.518 1590.55 545.518 1593.55 526.517 1596.55 536.518 1600.55 560.519 1603.55 572.519 1606.55 583.519 1610.55 553.518 1613.55 578.519 1616.55 580.519 1620.55 560.519 1623.55 570.519 1627.55 557.518 1630.55 566.519 1633.55 549.518 1637.55 525.517 1640.55 544.518 1643.55 509.517 1647.55 507.517 1650.55 494.516 1653.55 503.517 1657.55 506.517 1660.55 514.517 1663.55 517.517 1667.55 532.518 1670.55 536.518 1673.56 532.518 1677.56 528.518 1680.56 524.517 1683.56 519.517 1687.56 504.517 1690.56 505.517 1693.56 498.517 1697.56 501.517 1700.56 488.516 1704.56 482.516 1707.56 469.516 1710.56 469.516 1714.56 461.515 1717.56 462.515 1720.56 457.515 1724.56 455.515 1727.56 453.515 1730.56 451.515 1734.56 446.515 1737.56 441.515 1740.56 437.515 1744.56 430.514 1747.56 429.514 1750.56 424.514 1754.56 423.514 1757.56 411.514 1760.56 405.513 1764.56 413.514 1767.56 406.514 1770.56 392.513 1774.56 404.513 1777.56 401.513 1781.56 401.513 1784.56 394.513 1787.56 369.512 1791.56 381.513 1794.56 378.513 1797.56 358.512 1801.56 366.512 1804.56 354.512 1807.56 374.512 1811.56 379.513 1814.56 353.512 1817.56 365.512 1821.56 384.513 1824.56 350.512 1827.56 349.512 1831.56 335.511 1834.56 340.511 1837.56 364.512 1841.56 368.512 1844.56 389.513 1847.56 397.513 1851.56 377.513 1854.56 396.513 1857.56 395.513 1861.56 391.513 1864.56 377.513 1868.56 370.512 1871.56 394.513 1874.56 391.513 1878.56 394.513 1881.56 376.513 1884.56 385.513 1888.56 381.513 1891.56 394.513 1894.56 358.512 1898.56 324.5 1901.56 352.512 1904.56 386.513 1908.56 397.513 1911.56 398.513 1914.56 388.513 1918.56 358.512 1921.56 379.513 1924.56 399.513 1928.56 400.513 1931.56 383.513 1934.56 405.513 1938.56 396.513 1941.56 379.513 1945.56 382.513 1948.56 391.513 1951.56 405.513 1955.56 412.514 1958.56 408.514 1961.56 404.513 1965.56 395.513 1968.56 391.513 1971.56 400.513 1975.56 413.514 1978.57 421.514 1981.57 422.514 1985.57 426.514 1988.57 427.514 1991.57 429.514 1995.57 430.514 1998.57 432.514 2001.57 436.514 2005.57 438.515 2008.57 444.515 2011.57 447.515 2015.57 449.515 2018.57 458.515 2021.57 452.515 2025.57 466.516 2028.57 457.515 2032.57 471.516 2035.57 473.516 2038.57 466.516 2042.57 455.515 2045.57 453.515 2048.57 454.515 2052.57 456.515 2055.57 457.515 2058.57 458.515 2062.57 459.515 2065.57 471.516 2068.57 482.516 2072.57 510.517 2075.57 503.517 2078.57 504.517 2082.57 505.517 2085.57 513.517 2088.57 535.518 2092.57 518.517 2095.57 539.518 2098.57 540.518 2102.57 523.517 2105.57 500.517 2109.57 478.516 2112.57 515.517 2115.57 527.517 2119.57 531.518 2122.57 541.518 2125.57 507.517 2129.57 509.517 2132.57 517.517 2135.57 533.518 2139.57 533.518 2142.57 512.517 2145.57 545.518 2149.57 534.518 2152.57 543.518 2155.57 541.518 2159.57 532.518 2162.57 503.517 2165.57 514.517 2169.57 533.518 2172.57 531.518 2175.57 529.518 2179.57 518.517 2182.57 494.516 2186.57 504.517 2189.57 515.517 2192.57 513.517 2196.57 510.517 2199.57 493.516 2202.57 490.516 2206.57 499.517 2209.57 471.516 2212.57 471.516 2216.57 486.516 2219.57 482.516 2222.57 477.516 2226.57 459.515 2229.57 461.515 2232.57 463.515 2236.57 459.515 2239.57 453.515 2242.57 449.515 2246.57 444.515 2249.57 438.515 2252.57 433.514 2256.57 425.514 2259.57 423.514 2262.57 418.514 2266.57 413.514 2269.57 408.514 2273.57 406.514 2276.57 406.514 2279.57 405.513 2283.58 403.513 2286.58 401.513 2289.58 396.513 2293.58 387.513 2296.58 372.512 2299.58 375.513 2303.58 359.512 2306.58 354.512 2309.58 349.512 2313.58 354.512 2316.58 340.511 2319.58 336.511 2323.58 332.511 2326.5 328.511" stroke="#090A0B" stroke-width="3.4375" stroke-linecap="round" stroke-linejoin="round" stroke-miterlimit="10" fill="none"/></g><g clip-path="url(#clip3)"><text fill="#090A0B" font-family="Poppins,Poppins_MSFontService,sans-serif" font-weight="400" font-size="37" transform="matrix(6.12323e-17 -1 1 6.12323e-17 99.2979 535)">Price</text></g><g clip-path="url(#clip4)"><text fill="#090A0B" font-family="Poppins,Poppins_MSFontService,sans-serif" font-weight="400" font-size="37" transform="matrix(1 0 0 1 1179.06 773)">Time</text></g><g clip-path="url(#clip5)"><text fill="#090A0B" font-family="Poppins,Poppins_MSFontService,sans-serif" font-weight="400" font-size="37" transform="matrix(1 0 0 1 312.892 76)">Speculative demand drives the difference between the market price and the fundamental price</text></g><g clip-path="url(#clip6)"><path d="M779 165 867 165" stroke="#68CDF4" stroke-width="2.29167" stroke-linecap="round" stroke-linejoin="round" stroke-miterlimit="10" fill="none" fill-rule="evenodd"/></g><g clip-path="url(#clip7)"><text fill="#090A0B" font-family="Poppins,Poppins_MSFontService,sans-serif" font-weight="400" font-size="37" transform="matrix(1 0 0 1 876.725 175)">Fundamental price</text></g><g clip-path="url(#clip8)"><path d="M1290.5 164.5 1378.5 164.501" stroke="#090A0B" stroke-width="3.4375" stroke-linecap="round" stroke-linejoin="round" stroke-miterlimit="10" fill="none" fill-rule="evenodd"/></g><g clip-path="url(#clip9)"><text fill="#090A0B" font-family="Poppins,Poppins_MSFontService,sans-serif" font-weight="400" font-size="37" transform="matrix(1 0 0 1 1388.17 175)">Market price</text></g></g></svg>