<svg xmlns="http://www.w3.org/2000/svg" width="42" height="42" viewbox="0 0 42 42" fill="none">
                              <path d="M37.0057 21.2052C37.169 21.2052 37.3256 21.1403 37.441 21.0249C37.5565 20.9095 37.6213 20.7529 37.6213 20.5896C37.6213 20.4263 37.5565 20.2698 37.441 20.1543C37.3256 20.0389 37.169 19.974 37.0057 19.974" stroke="#1155CC" stroke-width="2.60135"></path>
                              <path d="M37.0057 21.2052C36.8425 21.2052 36.6859 21.1403 36.5704 21.0249C36.455 20.9095 36.3901 20.7529 36.3901 20.5896C36.3901 20.4263 36.455 20.2698 36.5704 20.1543C36.6859 20.0389 36.8425 19.974 37.0057 19.974" stroke="#1155CC" stroke-width="2.60135"></path>
                              <path d="M31.4652 18.1272C31.6285 18.1272 31.7851 18.0623 31.9005 17.9469C32.016 17.8315 32.0808 17.6749 32.0808 17.5116C32.0808 17.3483 32.016 17.1918 31.9005 17.0763C31.7851 16.9609 31.6285 16.896 31.4652 16.896" stroke="#1155CC" stroke-width="2.60135"></path>
                              <path d="M31.4652 18.1272C31.3019 18.1272 31.1454 18.0623 31.0299 17.9469C30.9145 17.8315 30.8496 17.6749 30.8496 17.5116C30.8496 17.3483 30.9145 17.1918 31.0299 17.0763C31.1454 16.9609 31.3019 16.896 31.4652 16.896" stroke="#1155CC" stroke-width="2.60135"></path>
                              <path d="M31.4652 24.2832C31.6285 24.2832 31.7851 24.2184 31.9005 24.1029C32.016 23.9875 32.0808 23.8309 32.0808 23.6676C32.0808 23.5043 32.016 23.3478 31.9005 23.2323C31.7851 23.1169 31.6285 23.052 31.4652 23.052" stroke="#1155CC" stroke-width="2.60135"></path>
                              <path d="M31.4652 24.2832C31.3019 24.2832 31.1454 24.2184 31.0299 24.1029C30.9145 23.9875 30.8496 23.8309 30.8496 23.6676C30.8496 23.5043 30.9145 23.3478 31.0299 23.2323C31.1454 23.1169 31.3019 23.052 31.4652 23.052" stroke="#1155CC" stroke-width="2.60135"></path>
                              <path d="M25.3092 18.1272C25.4725 18.1272 25.6291 18.0623 25.7445 17.9469C25.8599 17.8315 25.9248 17.6749 25.9248 17.5116C25.9248 17.3483 25.8599 17.1918 25.7445 17.0763C25.6291 16.9609 25.4725 16.896 25.3092 16.896" stroke="#1155CC" stroke-width="2.60135"></path>
                              <path d="M25.3092 18.1272C25.1459 18.1272 24.9894 18.0623 24.8739 17.9469C24.7585 17.8315 24.6936 17.6749 24.6936 17.5116C24.6936 17.3483 24.7585 17.1918 24.8739 17.0763C24.9894 16.9609 25.1459 16.896 25.3092 16.896" stroke="#1155CC" stroke-width="2.60135"></path>
                              <path d="M19.1532 18.1272C19.3165 18.1272 19.473 18.0623 19.5885 17.9469C19.7039 17.8315 19.7688 17.6749 19.7688 17.5116C19.7688 17.3483 19.7039 17.1918 19.5885 17.0763C19.473 16.9609 19.3165 16.896 19.1532 16.896" stroke="#1155CC" stroke-width="2.60135"></path>
                              <path d="M19.1532 18.1272C18.9899 18.1272 18.8333 18.0623 18.7179 17.9469C18.6025 17.8315 18.5376 17.6749 18.5376 17.5116C18.5376 17.3483 18.6025 17.1918 18.7179 17.0763C18.8333 16.9609 18.9899 16.896 19.1532 16.896" stroke="#1155CC" stroke-width="2.60135"></path>
                              <path d="M12.9972 18.1272C13.1605 18.1272 13.317 18.0623 13.4325 17.9469C13.5479 17.8315 13.6128 17.6749 13.6128 17.5116C13.6128 17.3483 13.5479 17.1918 13.4325 17.0763C13.317 16.9609 13.1605 16.896 12.9972 16.896" stroke="#1155CC" stroke-width="2.60135"></path>
                              <path d="M12.9972 18.1272C12.8339 18.1272 12.6773 18.0623 12.5619 17.9469C12.4464 17.8315 12.3816 17.6749 12.3816 17.5116C12.3816 17.3483 12.4464 17.1918 12.5619 17.0763C12.6773 16.9609 12.8339 16.896 12.9972 16.896" stroke="#1155CC" stroke-width="2.60135"></path>
                              <path d="M6.84106 18.1272C7.00433 18.1272 7.16091 18.0623 7.27636 17.9469C7.39181 17.8315 7.45667 17.6749 7.45667 17.5116C7.45667 17.3483 7.39181 17.1918 7.27636 17.0763C7.16091 16.9609 7.00433 16.896 6.84106 16.896" stroke="#1155CC" stroke-width="2.60135"></path>
                              <path d="M6.84106 18.1272C6.6778 18.1272 6.52122 18.0623 6.40577 17.9469C6.29032 17.8315 6.22546 17.6749 6.22546 17.5116C6.22546 17.3483 6.29032 17.1918 6.40577 17.0763C6.52122 16.9609 6.6778 16.896 6.84106 16.896" stroke="#1155CC" stroke-width="2.60135"></path>
                              <path d="M26.5404 11.9712C26.6212 11.9712 26.7013 11.9553 26.776 11.9243C26.8507 11.8934 26.9185 11.8481 26.9757 11.7909C27.0329 11.7337 27.0782 11.6659 27.1091 11.5912C27.1401 11.5165 27.156 11.4364 27.156 11.3556C27.156 11.2748 27.1401 11.1947 27.1091 11.12C27.0782 11.0453 27.0329 10.9775 26.9757 10.9203C26.9185 10.8631 26.8507 10.8178 26.776 10.7869C26.7013 10.7559 26.6212 10.74 26.5404 10.74" stroke="#1155CC" stroke-width="2.60135"></path>
                              <path d="M26.5404 11.9712C26.4596 11.9712 26.3795 11.9553 26.3048 11.9243C26.2301 11.8934 26.1623 11.8481 26.1051 11.7909C26.0479 11.7337 26.0026 11.6659 25.9717 11.5912C25.9407 11.5165 25.9248 11.4364 25.9248 11.3556C25.9248 11.2748 25.9407 11.1947 25.9717 11.12C26.0026 11.0453 26.0479 10.9775 26.1051 10.9203C26.1623 10.8631 26.2301 10.8178 26.3048 10.7869C26.3795 10.7559 26.4596 10.74 26.5404 10.74" stroke="#1155CC" stroke-width="2.60135"></path>
                              <path d="M25.3092 24.2832C25.4725 24.2832 25.6291 24.2184 25.7445 24.1029C25.8599 23.9875 25.9248 23.8309 25.9248 23.6676C25.9248 23.5043 25.8599 23.3478 25.7445 23.2323C25.6291 23.1169 25.4725 23.052 25.3092 23.052" stroke="#1155CC" stroke-width="2.60135"></path>
                              <path d="M25.3092 24.2832C25.1459 24.2832 24.9894 24.2184 24.8739 24.1029C24.7585 23.9875 24.6936 23.8309 24.6936 23.6676C24.6936 23.5043 24.7585 23.3478 24.8739 23.2323C24.9894 23.1169 25.1459 23.052 25.3092 23.052" stroke="#1155CC" stroke-width="2.60135"></path>
                              <path d="M26.5404 30.4392C26.7037 30.4392 26.8603 30.3744 26.9757 30.2589C27.0911 30.1435 27.156 29.9869 27.156 29.8236C27.156 29.6603 27.0911 29.5038 26.9757 29.3883C26.8603 29.2729 26.7037 29.208 26.5404 29.208" stroke="#1155CC" stroke-width="2.60135"></path>
                              <path d="M26.5404 30.4392C26.3771 30.4392 26.2206 30.3744 26.1051 30.2589C25.9897 30.1435 25.9248 29.9869 25.9248 29.8236C25.9248 29.6603 25.9897 29.5038 26.1051 29.3883C26.2206 29.2729 26.3771 29.208 26.5404 29.208" stroke="#1155CC" stroke-width="2.60135"></path>
                              <path d="M20.3844 30.4392C20.5477 30.4392 20.7042 30.3744 20.8197 30.2589C20.9351 30.1435 21 29.9869 21 29.8236C21 29.6603 20.9351 29.5038 20.8197 29.3883C20.7042 29.2729 20.5477 29.208 20.3844 29.208" stroke="#1155CC" stroke-width="2.60135"></path>
                              <path d="M20.3844 30.4392C20.2211 30.4392 20.0646 30.3744 19.9491 30.2589C19.8337 30.1435 19.7688 29.9869 19.7688 29.8236C19.7688 29.6603 19.8337 29.5038 19.9491 29.3883C20.0646 29.2729 20.2211 29.208 20.3844 29.208" stroke="#1155CC" stroke-width="2.60135"></path>
                              <path d="M20.3844 36.5953C20.5477 36.5953 20.7042 36.5305 20.8197 36.415C20.9351 36.2996 21 36.143 21 35.9797C21 35.8165 20.9351 35.6599 20.8197 35.5444C20.7042 35.429 20.5477 35.3641 20.3844 35.3641" stroke="#1155CC" stroke-width="2.60135"></path>
                              <path d="M20.3844 36.5953C20.2211 36.5953 20.0646 36.5305 19.9491 36.415C19.8337 36.2996 19.7688 36.143 19.7688 35.9797C19.7688 35.8165 19.8337 35.6599 19.9491 35.5444C20.0646 35.429 20.2211 35.3641 20.3844 35.3641" stroke="#1155CC" stroke-width="2.60135"></path>
                              <path d="M19.1532 24.2832C19.3165 24.2832 19.473 24.2184 19.5885 24.1029C19.7039 23.9875 19.7688 23.8309 19.7688 23.6676C19.7688 23.5043 19.7039 23.3478 19.5885 23.2323C19.473 23.1169 19.3165 23.052 19.1532 23.052" stroke="#1155CC" stroke-width="2.60135"></path>
                              <path d="M19.1532 24.2832C18.9899 24.2832 18.8333 24.2184 18.7179 24.1029C18.6025 23.9875 18.5376 23.8309 18.5376 23.6676C18.5376 23.5043 18.6025 23.3478 18.7179 23.2323C18.8333 23.1169 18.9899 23.052 19.1532 23.052" stroke="#1155CC" stroke-width="2.60135"></path>
                              <path d="M12.9972 24.2832C13.1605 24.2832 13.317 24.2184 13.4325 24.1029C13.5479 23.9875 13.6128 23.8309 13.6128 23.6676C13.6128 23.5043 13.5479 23.3478 13.4325 23.2323C13.317 23.1169 13.1605 23.052 12.9972 23.052" stroke="#1155CC" stroke-width="2.60135"></path>
                              <path d="M12.9972 24.2832C12.8339 24.2832 12.6773 24.2184 12.5619 24.1029C12.4464 23.9875 12.3816 23.8309 12.3816 23.6676C12.3816 23.5043 12.4464 23.3478 12.5619 23.2323C12.6773 23.1169 12.8339 23.052 12.9972 23.052" stroke="#1155CC" stroke-width="2.60135"></path>
                              <path d="M6.84106 24.2832C7.00433 24.2832 7.16091 24.2184 7.27636 24.1029C7.39181 23.9875 7.45667 23.8309 7.45667 23.6676C7.45667 23.5043 7.39181 23.3478 7.27636 23.2323C7.16091 23.1169 7.00433 23.052 6.84106 23.052" stroke="#1155CC" stroke-width="2.60135"></path>
                              <path d="M6.84106 24.2832C6.6778 24.2832 6.52122 24.2184 6.40577 24.1029C6.29032 23.9875 6.22546 23.8309 6.22546 23.6676C6.22546 23.5043 6.29032 23.3478 6.40577 23.2323C6.52122 23.1169 6.6778 23.052 6.84106 23.052" stroke="#1155CC" stroke-width="2.60135"></path>
                              <path d="M20.3844 5.81507C20.5477 5.81507 20.7042 5.75021 20.8197 5.63476C20.9351 5.51932 21 5.36273 21 5.19947C21 5.0362 20.9351 4.87962 20.8197 4.76417C20.7042 4.64872 20.5477 4.58386 20.3844 4.58386" stroke="#1155CC" stroke-width="2.60135"></path>
                              <path d="M20.3844 5.81507C20.2211 5.81507 20.0646 5.75021 19.9491 5.63476C19.8337 5.51932 19.7688 5.36273 19.7688 5.19947C19.7688 5.0362 19.8337 4.87962 19.9491 4.76417C20.0646 4.64872 20.2211 4.58386 20.3844 4.58386" stroke="#1155CC" stroke-width="2.60135"></path>
                              <path d="M20.3844 11.9712C20.5477 11.9712 20.7042 11.9063 20.8197 11.7909C20.9351 11.6754 21 11.5189 21 11.3556C21 11.1923 20.9351 11.0357 20.8197 10.9203C20.7042 10.8048 20.5477 10.74 20.3844 10.74" stroke="#1155CC" stroke-width="2.60135"></path>
                              <path d="M20.3844 11.9712C20.2211 11.9712 20.0646 11.9063 19.9491 11.7909C19.8337 11.6754 19.7688 11.5189 19.7688 11.3556C19.7688 11.1923 19.8337 11.0357 19.9491 10.9203C20.0646 10.8048 20.2211 10.74 20.3844 10.74" stroke="#1155CC" stroke-width="2.60135"></path>
                            </svg>