<svg width="823" height="96" viewBox="0 0 823 96" fill="none" xmlns="http://www.w3.org/2000/svg">
    <path d="M750.075 94.08V1.92004H763.451V41.664H809.531V1.92004H822.971V94.08H809.531V54.272H763.451V94.08H750.075Z"
          fill="gray"/>
    <path d="M669.439 96C660.223 96 652.372 93.9947 645.887 89.984C639.402 85.9307 634.431 80.2987 630.975 73.088C627.562 65.8773 625.855 57.5147 625.855 48C625.855 38.4853 627.562 30.1227 630.975 22.912C634.431 15.7013 639.402 10.0907 645.887 6.07999C652.372 2.02666 660.223 0 669.439 0C680.063 0 688.852 2.688 695.807 8.064C702.804 13.44 707.668 20.672 710.399 29.76L696.831 33.408C695.039 26.9653 691.839 21.9093 687.231 18.24C682.666 14.5707 676.735 12.736 669.439 12.736C662.911 12.736 657.471 14.208 653.119 17.152C648.767 20.096 645.482 24.2133 643.263 29.504C641.087 34.7947 639.999 40.96 639.999 48C639.956 55.04 641.023 61.2053 643.199 66.496C645.418 71.7867 648.703 75.904 653.055 78.848C657.45 81.792 662.911 83.264 669.439 83.264C676.735 83.264 682.666 81.4293 687.231 77.76C691.839 74.048 695.039 68.992 696.831 62.592L710.399 66.24C707.668 75.328 702.804 82.56 695.807 87.936C688.852 93.312 680.063 96 669.439 96Z"
          fill="gray"/>
    <path d="M524.625 94.08V1.92004H561.873C562.769 1.92004 563.878 1.96271 565.201 2.04804C566.524 2.09071 567.782 2.21871 568.977 2.43204C574.097 3.24271 578.364 4.99204 581.777 7.68005C585.233 10.368 587.814 13.76 589.521 17.856C591.228 21.952 592.081 26.4747 592.081 31.424C592.081 38.7627 590.204 45.0987 586.449 50.432C582.694 55.7227 577.062 59.0294 569.553 60.3521L564.113 60.9921H538.001V94.08H524.625ZM578.513 94.08L560.337 56.576L573.841 53.12L593.809 94.08H578.513ZM538.001 48.32H561.361C562.214 48.32 563.153 48.2774 564.177 48.192C565.244 48.1067 566.246 47.9574 567.185 47.744C569.916 47.104 572.113 45.9307 573.777 44.224C575.441 42.4747 576.636 40.4694 577.361 38.208C578.086 35.9467 578.449 33.6854 578.449 31.424C578.449 29.1627 578.086 26.9227 577.361 24.704C576.636 22.4427 575.441 20.4587 573.777 18.752C572.113 17.0027 569.916 15.808 567.185 15.168C566.246 14.912 565.244 14.7414 564.177 14.656C563.153 14.5707 562.214 14.528 561.361 14.528H538.001V48.32Z"
          fill="gray"/>
    <path d="M408.375 94.08L438.327 1.92004H457.591L487.543 94.08H473.655L446.071 9.98405H449.527L422.263 94.08H408.375ZM423.927 73.28V60.736H472.055V73.28H423.927Z"
          fill="gray"/>
    <path d="M314.925 94.08V1.92004H373.805V14.528H328.301V40.384H366.125V52.9921H328.301V81.472H373.805V94.08H314.925Z"
          fill="gray"/>
    <path d="M240.358 96C233.745 96 227.771 94.8693 222.438 92.608C217.147 90.304 212.774 87.04 209.318 82.816C205.905 78.5493 203.686 73.4933 202.662 67.648L216.614 65.536C218.022 71.168 220.966 75.5626 225.446 78.72C229.926 81.8346 235.153 83.392 241.126 83.392C244.838 83.392 248.251 82.816 251.366 81.664C254.481 80.4693 256.977 78.784 258.854 76.608C260.774 74.3893 261.734 71.744 261.734 68.672C261.734 67.008 261.435 65.536 260.838 64.256C260.283 62.976 259.494 61.8666 258.47 60.928C257.489 59.9466 256.273 59.1146 254.822 58.432C253.414 57.7066 251.857 57.088 250.15 56.576L226.534 49.6C224.23 48.9173 221.883 48.0426 219.494 46.976C217.105 45.8666 214.907 44.4373 212.902 42.688C210.939 40.896 209.339 38.6986 208.102 36.096C206.865 33.4506 206.246 30.2506 206.246 26.496C206.246 20.8213 207.697 16.0213 210.598 12.096C213.542 8.12797 217.51 5.1413 222.502 3.13596C227.494 1.08796 233.083 0.0639648 239.27 0.0639648C245.499 0.149297 251.067 1.25863 255.974 3.39197C260.923 5.5253 265.019 8.5973 268.262 12.608C271.547 16.576 273.809 21.3973 275.046 27.072L260.71 29.504C260.07 26.048 258.705 23.0826 256.614 20.608C254.523 18.0906 251.963 16.1706 248.934 14.848C245.905 13.4826 242.619 12.7786 239.078 12.736C235.665 12.6506 232.529 13.1626 229.67 14.272C226.854 15.3813 224.593 16.9386 222.886 18.944C221.222 20.9493 220.39 23.2533 220.39 25.856C220.39 28.416 221.137 30.4853 222.63 32.064C224.123 33.6426 225.958 34.9013 228.134 35.84C230.353 36.736 232.55 37.4826 234.726 38.08L251.75 42.88C253.883 43.4773 256.294 44.288 258.982 45.312C261.713 46.2933 264.337 47.68 266.854 49.472C269.414 51.264 271.526 53.6533 273.19 56.64C274.854 59.584 275.686 63.296 275.686 67.776C275.686 72.4266 274.747 76.5226 272.87 80.064C270.993 83.5626 268.411 86.5066 265.126 88.896C261.883 91.2426 258.129 93.0133 253.862 94.208C249.595 95.4026 245.094 96 240.358 96Z"
          fill="gray"/>
    <path d="M108.85 94.08V1.92004H167.73V14.528H122.226V40.384H160.05V52.9921H122.226V81.472H167.73V94.08H108.85Z"
          fill="gray"/>
    <path d="M0 94.08V1.92004H37.248C38.144 1.92004 39.2533 1.96271 40.576 2.04804C41.8987 2.09071 43.1573 2.21871 44.352 2.43204C49.472 3.24271 53.7387 4.99204 57.152 7.68005C60.608 10.368 63.1893 13.76 64.896 17.856C66.6027 21.952 67.456 26.4747 67.456 31.424C67.456 38.7627 65.5787 45.0987 61.824 50.432C58.0693 55.7227 52.4373 59.0294 44.928 60.3521L39.488 60.9921H13.376V94.08H0ZM53.888 94.08L35.712 56.576L49.216 53.12L69.184 94.08H53.888ZM13.376 48.32H36.736C37.5893 48.32 38.528 48.2774 39.552 48.192C40.6187 48.1067 41.6213 47.9574 42.56 47.744C45.2907 47.104 47.488 45.9307 49.152 44.224C50.816 42.4747 52.0107 40.4694 52.736 38.208C53.4613 35.9467 53.824 33.6854 53.824 31.424C53.824 29.1627 53.4613 26.9227 52.736 24.704C52.0107 22.4427 50.816 20.4587 49.152 18.752C47.488 17.0027 45.2907 15.808 42.56 15.168C41.6213 14.912 40.6187 14.7414 39.552 14.656C38.528 14.5707 37.5893 14.528 36.736 14.528H13.376V48.32Z"
          fill="gray"/>
</svg>
