<svg width="98" height="10" viewBox="0 0 98 10" fill="none" xmlns="http://www.w3.org/2000/svg">
<path d="M12.4078 9.95946L9.22966 6.97297C10.5938 6.48649 11.4065 5.33784 11.4065 3.71622C11.4065 1.52703 9.98428 0.135135 7.57528 0.135135H0V9.95946H1.82852V1.85135H7.57528C8.83783 1.85135 9.59246 2.47297 9.59246 3.74324C9.59246 5.01351 8.89588 5.71622 7.57528 5.71622H3.17814V7.22973H7.12541L9.79562 9.95946H12.4078Z" fill="#D6D6D6"/>
<path d="M22.7969 9.95946V8.24324H15.1926V1.85135H22.7824V0.135135H13.3641V9.95946H22.7969ZM22.3906 5.68919V4.24324H16.5422V5.68919H22.3906Z" fill="#D6D6D6"/>
<path d="M32.2847 9.95946C34.4906 9.95946 35.5645 8.72973 35.5645 7.08108C35.5645 5.17568 34.418 4.24324 32.2847 4.24324H27.4522C26.6396 4.24324 26.1316 3.7973 26.1316 3.05405C26.1316 2.31081 26.6251 1.85135 27.4667 1.85135H35.042V0.135135H27.4667C25.3625 0.135135 24.2161 1.31081 24.2161 2.89189C24.2161 4.51351 25.4496 5.68919 27.4377 5.68919H32.2847C33.2716 5.68919 33.823 6.12162 33.823 6.95946C33.823 7.72973 33.2716 8.24324 32.2847 8.24324H24.3757V9.95946H32.2847Z" fill="#D6D6D6"/>
<path d="M46.5774 9.95946V8.24324H38.9731V1.85135H46.5629V0.135135H37.1446V9.95946H46.5774ZM46.1711 5.68919V4.24324H40.3227V5.68919H46.1711Z" fill="#D6D6D6"/>
<path d="M61.3766 9.95946L55.2961 0.554054C55.0784 0.216217 54.8172 0 54.4108 0C54.0045 0 53.7288 0.216217 53.5111 0.554054L47.4451 9.95946H49.5493L54.3383 2.41892L56.6892 6.09459H53.453L52.5823 7.48649H57.5745L59.1563 9.95946H61.3766Z" fill="#D6D6D6"/>
<path d="M74.9201 9.95946L71.7419 6.97297C73.1061 6.48649 73.9187 5.33784 73.9187 3.71622C73.9187 1.52703 72.4966 0.135135 70.0876 0.135135H62.5123V9.95946H64.3408V1.85135H70.0876C71.3501 1.85135 72.1047 2.47297 72.1047 3.74324C72.1047 5.01351 71.4082 5.71622 70.0876 5.71622H65.6904V7.22973H69.6377L72.3079 9.95946H74.9201Z" fill="#D6D6D6"/>
<path d="M86.1712 9.95946V8.24324H80.4535C78.5524 8.24324 77.1738 6.87838 77.1738 5.02703C77.1738 3.16216 78.5669 1.85135 80.4535 1.85135H86.1712V0.135135H80.4535C77.5075 0.135135 75.3307 2.05405 75.3307 4.94595C75.3307 7.7973 77.5075 9.95946 80.4535 9.95946H86.1712Z" fill="#D6D6D6"/>
<path d="M98 10V0.135135H96.157V4.2027H90.8456V5.72973H96.157V10H98ZM89.5105 10V0.135135H87.6674V10H89.5105Z" fill="#D6D6D6"/>
</svg>
