<svg xmlns="http://www.w3.org/2000/svg" xmlns:xlink="http://www.w3.org/1999/xlink" fill="none" viewBox="0 0 660 240">
  <defs>
    <path id="b" d="M534.42 247.43a7.78 7.78 0 1 0-15.31-2.77 7.78 7.78 0 0 0 15.31 2.77Z"/>
    <path id="c" fill="#242021" d="M496.77 116.04a5 5 0 1 1-3.48-9.4 5 5 0 0 1 3.48 9.4Z"/>
  </defs>
  <g clip-path="url(#a)" opacity=".2">
    <g opacity=".2">
      <path fill="#D1D1D1" d="m363.98 199.37-.49.23 57.42 120.3.48-.23-57.41-120.3Z"/>
      <path fill="#D1D1D1" d="m580.42 137.67-85.18 148.37.47.26 85.18-148.36-.47-.27Z" opacity=".25"/>
      <path fill="#D1D1D1" d="m428.86 202.78-.42.34 66.84 83.22.42-.34-66.84-83.22Zm22.07-36.18L280.96 382.36l.43.33 169.97-215.76-.43-.33Zm-71.35 41.81L251.74 343.28l.39.37 127.85-134.87-.4-.37Z"/>
      <path fill="#D1D1D1" d="M311.22 183.97 281.2 382.09l.53.09 30.01-198.13-.53-.08Z"/>
      <path fill="#D1D1D1" d="m296.8 197.54-.43.33 115.08 149.97.42-.33L296.8 197.54Zm83.18 10.85-.4.37 96.51 99.34.39-.37-96.5-99.34Z"/>
      <path fill="#D1D1D1" d="M586.92 238.73 251.88 343.2l.16.52 335.04-104.46-.16-.52Z" opacity=".25"/>
      <path fill="#D1D1D1" d="m451.28 166.53-.25.48 135.83 72.25.25-.48-135.83-72.25Zm164.26-47.44-13.75 147.5.53.05 13.76-147.5-.54-.05Z" opacity=".25"/>
      <path fill="#D1D1D1" d="m396.21 186.71-.5.19 59.43 163 .5-.19-59.43-163Z"/>
      <path fill="#D1D1D1" d="m514.8 181.32-.25.48 106.26 55.98.25-.48-106.26-55.98Z" opacity=".25"/>
      <path fill="#D1D1D1" d="m669.72 111.66-49 125.8.5.2 49-125.8-.5-.2ZM453.4 142.47l-.34.42 148.87 123.94.35-.41L453.4 142.47Z" opacity=".25"/>
      <path fill="#D1D1D1" d="m558.9 143.9-14.87 152.2.54.05 14.86-152.2-.53-.05Z"/>
      <path fill="#D1D1D1" d="m428.58 181.65-.37.39L544.07 296.3l.38-.39-115.87-114.26Z"/>
      <path fill="#D1D1D1" d="m518.64 158.76-61.95 105.88.47.27 61.94-105.87-.46-.28Z"/>
      <path fill="#D1D1D1" d="m586.96 238.74-130.1 25.72.1.54 130.1-25.73-.1-.53Z"/>
      <path fill="#242021" d="M552.86 183a2.7 2.7 0 1 1 4.93-2.22 2.7 2.7 0 0 1-4.93 2.22Zm25.76-44.3a2.25 2.25 0 1 1 4.09-1.87 2.25 2.25 0 0 1-4.09 1.88Z"/>
      <path fill="#A8A9AD" d="M425.75 204.26a3.19 3.19 0 1 1 5.8-2.62 3.19 3.19 0 0 1-5.8 2.62Z"/>
      <path fill="#242021" d="M426.59 183.01a2.25 2.25 0 1 1 4.11-1.83 2.25 2.25 0 0 1-4.11 1.83ZM549.86 225a1.6 1.6 0 0 1 2.02-2.15 1.6 1.6 0 0 1 .78 2.34 1.59 1.59 0 0 1-2.8-.2Z"/>
      <path fill="#A8A9AD" d="M536.16 213.42a1.59 1.59 0 1 1 2.9-1.3 1.59 1.59 0 0 1-2.9 1.3Z"/>
      <path fill="#242021" d="M552.05 202.67a1.6 1.6 0 1 1 2.91-1.3 1.6 1.6 0 0 1-2.91 1.3Zm52.07 27.43a1.6 1.6 0 1 1 2.9-1.3 1.6 1.6 0 0 1-2.9 1.3Z"/>
      <path fill="#A8A9AD" d="M556.4 146.31a3.2 3.2 0 0 1 3.51-4.71 3.18 3.18 0 1 1-3.51 4.71Z"/>
      <path fill="#242021" d="M449.3 167.64a2.07 2.07 0 0 1 1.41-2.86 2.06 2.06 0 1 1-1.42 2.86Zm-49.87 63.26a2.07 2.07 0 1 1 3.77-1.69 2.07 2.07 0 0 1-3.77 1.7Z"/>
      <path fill="#A8A9AD" d="M377.73 209.5a2.25 2.25 0 1 1 4.09-1.84 2.25 2.25 0 0 1-4.1 1.84Z"/>
      <path fill="#242021" d="M497.23 193.3a2.25 2.25 0 1 1 4.11-1.84 2.25 2.25 0 0 1-4.1 1.84Z"/>
      <path fill="#A8A9AD" d="M475.91 229.71a2.25 2.25 0 1 1 4.11-1.84 2.25 2.25 0 0 1-4.1 1.84Z"/>
      <path fill="#242021" d="M309.03 185.55a2.25 2.25 0 1 1 4.1-1.84 2.25 2.25 0 0 1-4.1 1.84Zm-15.34 13.49a3.19 3.19 0 1 1 5.8-2.62 3.19 3.19 0 0 1-5.8 2.62Zm66.9 1.48a3.18 3.18 0 1 1 5.8-2.6 3.18 3.18 0 0 1-5.8 2.6Zm223.51 39.84a3.2 3.2 0 0 1 2.2-4.4 3.17 3.17 0 0 1 3.88 3 3.18 3.18 0 0 1-6.08 1.4Z"/>
      <path fill="#A8A9AD" d="M612.94 120.44a3.18 3.18 0 1 1 5.82-2.6 3.18 3.18 0 0 1-5.82 2.6Zm-219.89 67.68a3.18 3.18 0 1 1 5.82-2.6 3.18 3.18 0 0 1-5.82 2.6Z"/>
      <path fill="#242021" d="M512.63 182.5a2.25 2.25 0 1 1 4.1-1.85 2.25 2.25 0 0 1-4.1 1.85Zm3.07-21.8a3.19 3.19 0 1 1 5.82-2.6 3.19 3.19 0 0 1-5.82 2.6Z"/>
      <path fill="#A8A9AD" d="M618.99 238.43a2.15 2.15 0 1 1 3.93-1.76 2.15 2.15 0 0 1-3.93 1.76Zm-168.65-94.44a3.2 3.2 0 0 1 5.5-3.15 3.19 3.19 0 1 1-5.5 3.15Z"/>
    </g>
    <g opacity=".1">
      <path fill="#D1D1D1" d="m148.98 70.01-.1.77 242.2 33.62.1-.77-242.2-33.62ZM264.6-33.36l-.42.65L442.86 80.9l.41-.65L264.6-33.35Z" opacity=".25"/>
      <path fill="#D1D1D1" d="M313.36-28.96 283.54 140.2l.76.14 29.82-169.15-.76-.14Z" opacity=".25"/>
      <path fill="#D1D1D1" d="m313.87-29.3-.22.75L498.68 26.2l.21-.75L313.87-29.3Z" opacity=".25"/>
      <path fill="#D1D1D1" d="m180.64 6.13-.41.65 184.95 116.47.42-.65L180.64 6.13ZM139.4 132.32l-.1.76 173.84 22.68.1-.76-173.85-22.68Z"/>
      <path fill="#D1D1D1" d="M282.07 7.9 139.08 132.46l.51.58L282.58 8.48l-.51-.58Z"/>
      <path fill="#A8A9AD" d="M145.2 71.36a3.87 3.87 0 1 0 7.45-1.97 3.87 3.87 0 0 0-7.44 1.97h-.01Z"/>
      <path fill="#242021" d="M315.4 95.02a3.87 3.87 0 1 0 7.49-1.97 3.87 3.87 0 0 0-7.48 1.97Zm72.83 10.36a3.2 3.2 0 1 0 5.81-2.68 3.2 3.2 0 0 0-5.8 2.68Z"/>
      <path fill="#A8A9AD" d="M185.53 75.96a3.22 3.22 0 1 0 6.12-2 3.22 3.22 0 0 0-6.12 2Z"/>
      <path fill="#242021" d="M188.03 89.09a2.28 2.28 0 1 0 4.36-1.32 2.28 2.28 0 0 0-4.36 1.32Zm77.47-27.03a2.28 2.28 0 1 0 4.36-1.3 2.28 2.28 0 0 0-4.37 1.3Z"/>
      <path fill="#A8A9AD" d="M266.56 87.68a2.27 2.27 0 1 0 4.36-1.3 2.27 2.27 0 0 0-4.36 1.3Z"/>
      <path fill="#242021" d="M292.63 79.13a2.27 2.27 0 1 0 4.35-1.3 2.27 2.27 0 0 0-4.35 1.3Zm-92.41-.67a2.28 2.28 0 0 0 3.54 1.17 2.28 2.28 0 1 0-3.54-1.17Zm32.88-36.77a2.28 2.28 0 1 0 4.36-1.32 2.28 2.28 0 0 0-4.36 1.32Z"/>
      <path fill="#A8A9AD" d="M176.83 7.04a3.65 3.65 0 1 0 7.23-1.05 3.65 3.65 0 0 0-7.23 1.05Zm183.2 116.08a4.56 4.56 0 1 0 8.97-1.6 4.56 4.56 0 0 0-8.97 1.6Z"/>
      <path fill="#242021" d="M255.16 149.19a3.22 3.22 0 1 0 6.1-2 3.22 3.22 0 0 0-6.1 2Z"/>
      <path fill="#A8A9AD" d="M195.36 141.43a3.22 3.22 0 1 0 6.12-2 3.22 3.22 0 0 0-6.12 2Z"/>
      <path fill="#242021" d="M277.95 9.48a4.56 4.56 0 1 0 8.73-2.64 4.56 4.56 0 0 0-8.73 2.64Z"/>
      <path fill="#A8A9AD" d="M438.7 81.88a4.55 4.55 0 1 0 8.71-2.62 4.55 4.55 0 0 0-8.72 2.62Z"/>
      <path fill="#242021" d="M281 141.6a3.23 3.23 0 0 0 5.94-2.45 3.22 3.22 0 1 0-5.94 2.46Zm27.03 14.96a4.56 4.56 0 1 0 8.72-2.63 4.56 4.56 0 0 0-8.72 2.63ZM494.42 27.1a4.56 4.56 0 1 0 8.72-2.62 4.56 4.56 0 0 0-8.72 2.63Z"/>
    </g>
    <g opacity=".05">
      <path fill="#D1D1D1" d="m602.98-122.27-33.61 242.3.77.1 33.6-242.29-.76-.1ZM706.48-6.9 592.9 171.83l.65.41L707.13-6.49l-.65-.42Z" opacity=".25"/>
      <path fill="#D1D1D1" d="m533.6 12.44-.13.76 169.09 29.83.13-.76L533.6 12.44Z" opacity=".25"/>
      <path fill="#D1D1D1" d="m702.3 42.57-54.74 185.1.75.21 54.73-185.1-.74-.21Z" opacity=".25"/>
      <path fill="#D1D1D1" d="M666.92-90.92 550.49 94.11l.66.41L667.57-90.5l-.65-.42Zm-126.25-40.93L518 42.06l.76.1 22.67-173.91-.76-.1Z"/>
      <path fill="#D1D1D1" d="m541.34-132.07-.59.5L665.27 11.49l.58-.51-124.51-143.04Z"/>
      <path fill="#242021" d="M578.75 44.31a3.87 3.87 0 1 0 1.98 7.48 3.87 3.87 0 0 0-1.98-7.48Zm-10.35 72.87a3.2 3.2 0 0 0-1.26 4.75 3.2 3.2 0 1 0 1.26-4.75Zm26.24-95.64a2.28 2.28 0 1 0 1.36 4.34 2.28 2.28 0 0 0-1.36-4.34Z"/>
      <path fill="#A8A9AD" d="M550.66 88.97a4.55 4.55 0 1 0 1.6 8.96 4.55 4.55 0 0 0-1.6-8.96Zm41.22 78.67a4.55 4.55 0 1 0 2.63 8.72 4.55 4.55 0 0 0-2.63-8.72Z"/>
      <path fill="#242021" d="M532.18 9.9a3.22 3.22 0 1 0 2.7 5.85 3.22 3.22 0 0 0-2.7-5.85Zm-14.94 27.05a4.55 4.55 0 1 0 2.62 8.72 4.55 4.55 0 0 0-2.62-8.72Zm129.4 186.45a4.55 4.55 0 1 0 2.63 8.72 4.55 4.55 0 0 0-2.63-8.71Z"/>
    </g>
    <g fill="#A8A9AD" opacity=".9">
      <path d="M609.98-46.37 471.35 81.5l-23.36-204.9 161.98 77.03m1.14-.18-163.9-77.93 23.64 207.33 140.28-129.4h-.02Z"/>
      <path d="M675.97 122.36 472.22 82.45 610.88-45.42l65.1 167.78Zm1.03.86L611.13-46.55 470.85 82.84 677 123.22ZM525.64 244.81l-149.8-68.87 94.73-91.92 55.07 160.8Zm1.1 1.22-55.9-163.2-96.12 93.31 152.02 69.89ZM675.52 123.6 527.04 244.93 471.83 83.69l203.7 39.9Zm1.48-.38L470.85 82.84l55.9 163.19L677 123.22Z"/>
      <path d="m469.7 83.05-94.72 91.94-60.25-160.34 154.98 68.41m1.14-.2L313.6 13.43l61.1 162.71 96.14-93.3v.02Z"/>
      <path d="m373.45 174.58-74.4-46.45L313.9 16.08l59.55 158.5Zm1.28 1.56L313.6 13.44l-15.26 115.04 76.37 47.66Zm95.34-94.35L314.7 13.22l132.02-136.28L470.07 81.8Zm.78 1.05L447.2-124.48 313.61 13.43l157.26 69.4h-.02ZM762.07-50.71l-85 172.32-65-167.54 150-4.78Zm1.06-.68-152 4.84L677 123.22 763.13-51.4Zm-75.07 285.57-159.33 11.06 147.75-120.76 11.58 109.7Zm.72.6L677 123.22 526.75 246.03l162.03-11.25Z"/>
      <path d="m685.45 235.66-101.88 48.96-54.94-38.07 156.82-10.89Zm3.33-.9-162.03 11.25 56.77 39.34 105.26-50.59ZM524.3 245.62l-108.5 10.52-39.65-78.64 148.16 68.12m2.45.41-152.04-69.89 40.7 80.69 111.32-10.8h.02ZM412.7 252.9 302.03 131.5l72.2 45.1 38.49 76.3Zm2.7 3.93-40.68-80.69-76.37-47.66 117.07 128.35h-.01ZM312.91 13.58l-14.5 109.45-17.33-160.97 31.83 51.52Zm.68-.15-33.46-54.15 18.22 169.2 15.26-115.05h-.02Z"/>
      <path d="M335.84-138.84 313.21 11.59l-32.33-52.32 54.96-98.12m1.17-3.42L280.13-40.72l33.48 54.15L337-142.26Z"/>
      <path d="M445.9-124.03 314.5 11.53l23.04-153.04 108.35 17.48Zm1.34-.45L337-142.26l-23.4 155.7 133.61-137.92h.03ZM478.5 83.96a7.78 7.78 0 1 0-15.39-2.28 7.78 7.78 0 0 0 15.4 2.28Zm55.92 163.47a7.78 7.78 0 1 0-15.31-2.77 7.78 7.78 0 0 0 15.31 2.77Zm-151.94-71.88a7.78 7.78 0 1 1-15.52 1.18 7.78 7.78 0 0 1 15.52-1.18Z"/>
      <path d="M534.42 247.43a7.78 7.78 0 1 0-15.31-2.77 7.78 7.78 0 0 0 15.31 2.77ZM321.23 14.81a7.78 7.78 0 1 0-15.31-2.77 7.78 7.78 0 0 0 15.31 2.77Zm61.25 160.74a7.78 7.78 0 1 1-15.52 1.18 7.78 7.78 0 0 1 15.52-1.18Z"/>
      <path d="M382.48 175.55a7.78 7.78 0 1 1-15.52 1.18 7.78 7.78 0 0 1 15.52-1.18Zm-76.4-46.33a7.78 7.78 0 1 0-15.49-1.54 7.78 7.78 0 0 0 15.49 1.54Zm228.34 118.21a7.78 7.78 0 1 0-15.31-2.77 7.78 7.78 0 0 0 15.31 2.77Z"/>
      <use xlink:href="#b"/>
      <use xlink:href="#b"/>
      <path d="M534.42 247.43a7.78 7.78 0 1 0-15.31-2.77 7.78 7.78 0 0 0 15.31 2.77Zm-151.94-71.88a7.78 7.78 0 1 1-15.52 1.18 7.78 7.78 0 0 1 15.52-1.18Z"/>
      <path d="M382.48 175.55a7.78 7.78 0 1 1-15.52 1.18 7.78 7.78 0 0 1 15.52-1.18Z"/>
    </g>
    <path fill="#242021" d="m584.92-65.7-89.87 176.45-97.68-193.19 187.55 16.75Zm.43-.23L396.9-82.75l98.12 194.09 90.3-177.27h.01Z"/>
    <path fill="#242021" d="m710.62 75.97-215.1 35.02 89.85-176.44L710.6 75.97m.53.18L585.33-65.93l-90.3 177.27 216.11-35.19h-.01ZM608.1 250.29 435.26 237.1l59.84-125.26 113.02 138.45Zm.62.32L495.03 111.34l-60.2 126.03 173.89 13.26v-.02Z"/>
    <path fill="#242021" d="M710.62 76.51 608.68 250.14l-113.14-138.6L710.6 76.5m.52-.36-216.11 35.19L608.7 250.6 711.13 76.15Z"/>
    <path fill="#242021" d="m494.62 111.59-59.85 125.27-117.94-136.1 177.79 10.83Zm.41-.25-178.83-10.9 118.64 136.9 60.2-126ZM434.1 236.92l-90.94-18.75-26.46-116.73 117.4 135.48Zm.74.45L316.2 100.45l26.74 117.95 91.9 18.95v.02Z"/>
    <path fill="#242021" d="M494.58 111.04 316.6 100.2l80.31-182.3 97.64 193.16m.45.3L396.9-82.75l-80.71 183.2 178.83 10.88-.02.03Zm236.83-236.65-20.9 200.8L585.79-65.81l146.05-59.47Zm.31-.42L585.33-65.93 711.14 76.15l21-201.86Zm30.51 306.51-153.27 69.21L711.13 76.72l51.52 104.08Zm.37.13L711.14 76.15 608.72 250.61l154.3-69.68Z"/>
    <path fill="#242021" d="m761.85 181.76-83.48 86.42-68.85-17.65 152.33-68.78m1.17-.83-154.3 69.68 69.74 17.88 84.58-87.56h-.02ZM607.7 250.8l-103.84 50.35-68.27-63.46 172.1 13.13m1.03-.2-173.88-13.27 68.98 64.13 104.9-50.87v.01Z"/>
    <path fill="#242021" d="M502.19 300.33 344.8 219.06l89.9 18.53 67.49 62.74m1.63 1.15-69-64.13-91.9-18.95 160.89 83.08Z"/>
    <path fill="#242021" d="m342.18 216.26-77.5-155.68 51.3 40.02 26.21 115.68m.76 2.13-26.73-117.93-52.3-40.86 79.01 158.78.02.01Z"/>
    <path fill="#242021" d="M315.79 99.78 264.2 59.52 282.8-58.7l33 158.5Zm.41.67L282.76-60.21 263.91 59.62l52.29 40.8v.03Z"/>
    <path fill="#242021" d="M396.45-82.38 316.31 99.56 283.08-60l113.39-22.38m.45-.37L282.76-60.21l33.44 160.66 80.7-183.2h.02Zm99.85 198.79a5 5 0 1 1-3.48-9.4 5 5 0 0 1 3.48 9.4Z"/>
    <use xlink:href="#c"/>
    <path fill="#242021" d="M496.77 116.04a5 5 0 1 1-3.48-9.4 5 5 0 0 1 3.48 9.4Zm-60.19 126.01a5.01 5.01 0 1 1-3.49-9.4 5.01 5.01 0 0 1 3.49 9.4Z"/>
    <use xlink:href="#c"/>
    <path fill="#242021" d="M496.77 116.04a5 5 0 1 1-3.48-9.4 5 5 0 0 1 3.48 9.4Zm-178.83-10.89a5.01 5.01 0 1 1-3.48-9.4 5.01 5.01 0 0 1 3.48 9.4Zm118.64 136.9a5.01 5.01 0 1 1-3.49-9.4 5.01 5.01 0 0 1 3.49 9.4Z"/>
    <path fill="#242021" d="M436.58 242.05a5.01 5.01 0 1 1-3.49-9.4 5.01 5.01 0 0 1 3.49 9.4Zm-118.64-136.9a5.01 5.01 0 1 1-3.48-9.4 5.01 5.01 0 0 1 3.48 9.4Zm26.74 117.95a5 5 0 1 1-3.48-9.4 5 5 0 0 1 3.48 9.4Zm152.09-107.06a5 5 0 1 1-3.48-9.4 5 5 0 0 1 3.48 9.4Z"/>
    <path fill="#242021" d="M317.94 105.15a5.01 5.01 0 1 1-3.48-9.4 5.01 5.01 0 0 1 3.48 9.4Zm118.64 136.9a5.01 5.01 0 1 1-3.49-9.4 5.01 5.01 0 0 1 3.49 9.4Z"/>
    <path fill="#242021" d="M436.58 242.05a5.01 5.01 0 1 1-3.49-9.4 5.01 5.01 0 0 1 3.49 9.4Zm-91.9-18.95a5 5 0 1 1-3.48-9.4 5 5 0 0 1 3.48 9.4Z"/>
    <path fill="#242021" d="M344.68 223.1a5 5 0 1 1-3.48-9.4 5 5 0 0 1 3.48 9.4Zm-26.74-117.95a5.01 5.01 0 1 1-3.48-9.4 5.01 5.01 0 0 1 3.48 9.4Zm-52.29-40.81a5.01 5.01 0 1 1-3.48-9.4 5.01 5.01 0 0 1 3.48 9.4Z"/>
    <path fill="#242021" d="M265.65 64.34a5.01 5.01 0 1 1-3.48-9.4 5.01 5.01 0 0 1 3.48 9.4Zm52.29 40.81a5.01 5.01 0 1 1-3.48-9.4 5.01 5.01 0 0 1 3.48 9.4Z"/>
    <path fill="#242021" d="M317.94 105.15a5.01 5.01 0 1 1-3.48-9.4 5.01 5.01 0 0 1 3.48 9.4Z"/>
  </g>
  <defs>
    <clipPath id="a">
      <path fill="#fff" d="M0-273h830v672H0z"/>
    </clipPath>
  </defs>
</svg>