<svg xmlns="http://www.w3.org/2000/svg" fill="none" viewBox="0 0 68 69">
  <path stroke="#090A0B" stroke-linecap="round" stroke-linejoin="round" stroke-miterlimit="10" stroke-width="2" d="M67 2.81a1 1 0 0 0-1-1H2a1 1 0 0 0-1 1v64a1 1 0 0 0 1 1h64a1 1 0 0 0 1-1v-64Z"/>
  <path stroke="#090A0B" stroke-linecap="round" stroke-linejoin="round" stroke-miterlimit="10" stroke-width="2" d="M30.2 12.41a1 1 0 0 0-1-1H11.6a1 1 0 0 0-1 1v20.8a1 1 0 0 0 1 1h17.6a1 1 0 0 0 1-1v-20.8Zm0 30.4a1 1 0 0 0-1-1H11.6a1 1 0 0 0-1 1v14.4a1 1 0 0 0 1 1h17.6a1 1 0 0 0 1-1v-14.4Z"/>
  <path fill="#D4D4D8" stroke="#090A0B" stroke-linecap="round" stroke-linejoin="round" stroke-miterlimit="10" stroke-width="2" d="M57.4 12.41a1 1 0 0 0-1-1H38.8a1 1 0 0 0-1 1v44.8a1 1 0 0 0 1 1h17.6a1 1 0 0 0 1-1v-44.8Z"/>
</svg>